<svg width="76" height="77" fill="none" xmlns="http://www.w3.org/2000/svg"><g clip-path="url(#clip0_439_3385)"><mask id="a" style="mask-type:luminance" maskUnits="userSpaceOnUse" x="0" y="0" width="76" height="77"><path d="M75.124 0H0v76.02h75.124V0z" fill="#fff"/></mask><g mask="url(#a)" fill="#1B1B1B"><path d="M59.041 56.763l-1.075-.941a13.207 13.207 0 00.6-17.644l1.08-.935c.082.095 8.1 9.576-.6 19.519"/><path d="M53.604 64.958a16.68 16.68 0 01-10.226-3.607l.88-1.124a15.01 15.01 0 0011.28 3.167 11.048 11.048 0 007.48-4.219c2.455-3.422 2.438-8.534-.044-13.025l1.25-.69c2.748 4.971 2.73 10.681-.044 14.548a12.472 12.472 0 01-8.44 4.8c-.708.1-1.421.15-2.136.15z"/><path d="M45.69 60.899l-.146-1.421c1.7-.174 3.079-1.111 4.916-3.34a6.97 6.97 0 001.336-3.047c.215-.972.54-1.916.97-2.813 1.115-2.214 2.83-4.039 7.59-5.746l.483 1.344c-4.8 1.72-5.987 3.434-6.8 5.043a11.656 11.656 0 00-.863 2.523 8.33 8.33 0 01-1.622 3.605c-1.52 1.844-3.283 3.586-5.872 3.852m-11.165 4.354c-.125-.009-12.5-1.044-13.376-14.228l1.425-.1a13.207 13.207 0 0012.054 12.9l-.103 1.428z"/><path d="M25.471 62.687c-5.458-1.571-9.484-5.621-10.256-10.318a12.47 12.47 0 012.572-9.36 16.438 16.438 0 0111.186-6.3l.171 1.418a15.008 15.008 0 00-10.215 5.738 11.035 11.035 0 00-2.3 8.272c.682 4.155 4.31 7.758 9.24 9.178l-.398 1.372z"/><path d="M28.857 60.606l-1.291-.61c2.175-4.609 1.805-6.662 1.239-8.371a11.673 11.673 0 00-1.174-2.4 8.325 8.325 0 01-1.4-3.694c-.23-2.379-.214-4.858 1.428-6.877l1.107.9c-1.078 1.325-1.391 2.963-1.114 5.838a6.967 6.967 0 001.208 3.1c.534.84.97 1.738 1.3 2.677.779 2.352.856 4.855-1.3 9.429m-1.17-29.573l-1.364-.42c.037-.12 3.835-11.942 16.872-9.833l-.228 1.41a13.2 13.2 0 00-15.28 8.843z"/><path d="M55.387 31.624l-1.419-.152a15.012 15.012 0 00-3.292-11.244 11.044 11.044 0 00-7.542-4.107c-4.206-.259-8.528 2.454-11.021 6.94l-1.249-.694c2.76-4.965 7.614-7.983 12.361-7.67a12.47 12.47 0 018.543 4.612 16.443 16.443 0 013.62 12.316"/><path d="M52.653 30.779c-1.049-1.35-2.574-2.023-5.438-2.4a6.982 6.982 0 00-3.293.48c-.938.332-1.911.556-2.9.667-2.467.228-4.925-.261-8.895-3.392l.884-1.121c4 3.156 6.083 3.258 7.879 3.091a11.7 11.7 0 002.6-.605 8.313 8.313 0 013.915-.535c2.368.312 4.781.883 6.38 2.939l-1.132.876z"/><path d="M57.932 76.02H17.193A17.212 17.212 0 010 58.827V54.81a14.144 14.144 0 013.8-9.691l.37-.392a14.199 14.199 0 0110.112-4.2H21.1a15.782 15.782 0 0015.76-15.76V14.278A14.323 14.323 0 0140.12 5.2l.384-.434A14.268 14.268 0 0151.138 0h6.794a17.2 17.2 0 0117.193 17.17v41.679A17.2 17.2 0 0157.932 76.02zM14.278 41.96a12.766 12.766 0 00-9.088 3.762l-.352.375a12.72 12.72 0 00-3.41 8.713v4.016a15.782 15.782 0 0015.765 15.765h40.74A15.771 15.771 0 0073.7 58.849V17.17A15.771 15.771 0 0057.932 1.428h-6.794a12.84 12.84 0 00-9.566 4.282l-.366.413a12.876 12.876 0 00-2.918 8.155v10.489A17.213 17.213 0 0121.1 41.96h-6.822z"/><path d="M40.673 5.649a13.536 13.536 0 00-3.1 8.63v10.488a16.466 16.466 0 01-16.477 16.48H14.28a13.53 13.53 0 00-9.594 3.97L40.673 5.649z"/><path d="M4.866 45.397l-.369-.352L40.484 5.477l.386.333a13.35 13.35 0 00-3.04 8.467v10.492a16.753 16.753 0 01-16.734 16.732H14.28a13.22 13.22 0 00-9.413 3.9m33.9-37.277L6.993 43.058a13.741 13.741 0 017.286-2.067h6.817A16.242 16.242 0 0037.32 24.769V14.278a13.844 13.844 0 011.45-6.157"/></g></g><defs><clipPath id="clip0_439_3385"><path fill="#fff" d="M0 0h75.124v76.02H0z"/></clipPath></defs></svg>