<svg width="82" height="85" fill="none" xmlns="http://www.w3.org/2000/svg"><g clip-path="url(#clip0_439_3335)"><mask id="a" style="mask-type:luminance" maskUnits="userSpaceOnUse" x="0" y="0" width="82" height="85"><path d="M81.55 0H0v84.521h81.55V0z" fill="#fff"/></mask><g mask="url(#a)"><path d="M40.274 31.823a7.826 7.826 0 115.531-2.292 7.835 7.835 0 01-5.531 2.295m0-14.915A7.09 7.09 0 1047.362 24a7.1 7.1 0 00-7.088-7.089zm14.417 23.98h-4.163a10.606 10.606 0 00-19.041-3.222s-.006 0-.009.007c-.221.278-5.422 6.856-5.315 11.35.092 3.868 2.628 5.081 3.5 5.385v10.254a.368.368 0 10.737 0V43.606a9.889 9.889 0 016.473-9.269l3.367 7.684a.368.368 0 00.338.221h.012a.368.368 0 00.335-.242l2.763-7.654a9.917 9.917 0 016.075 6.544H44a.368.368 0 00-.368.368v14.914a.368.368 0 00.368.368h6.144v8.125a.368.368 0 10.737 0V56.54h3.809a.368.368 0 00.368-.368V41.257a.368.368 0 00-.368-.368M26.9 49.006c-.057-2.408 1.606-5.578 3.058-7.874a10.6 10.6 0 00-.294 2.474v10.023c-.866-.354-2.689-1.472-2.764-4.623zm13.645-8.126l-2.965-6.77a9.836 9.836 0 015.408 0l-2.443 6.77zM54.323 55.8h-9.952V41.625h9.953L54.323 55.8zM6.182 32.983L0 30.885l.643-1.894a3.27 3.27 0 116.182 2.1l-.643 1.892zm-4.6-3.661l-.282.831 4.288 1.455.282-.831a2.184 2.184 0 00-1.386-2.961 2.183 2.183 0 00-2.9 1.506M3.594 22l2.123-3.534.849.51-1.55 2.58 1.464.879L7.821 20.2l.849.51-1.341 2.235 1.585.952 1.55-2.58.849.51-2.122 3.534L3.594 22zm10.179-3.251l-.756.817-4.79-4.432 1.48-1.6c.916-.99 2.035-1.214 2.921-.394a1.718 1.718 0 01.359 2.182l3.414.588-.846.914-3.266-.566-.557.6 2.041 1.891zm-1.98-3.373c.486-.526.514-1.014.085-1.411s-.921-.338-1.408.188l-.768.831 1.322 1.223.769-.831zm8.742-4.276l-.762.507-3.106-1.744 2.518 3.786-.919.611-3.616-5.436.959-.637 3.925 2.239-.547-4.485.966-.643 3.615 5.437-.919.611-2.518-3.787.404 3.541zM29.2 6.527l-2.362.847-.019 1.9-1.11.4.15-6.988 1.11-.4 4.556 5.3-1.11.4L29.2 6.527zm-2.357-.167l1.714-.615-1.69-2.029-.024 2.644zM36.878 1.1l-1.977.3.838 5.475-1.1.168-.839-5.468-1.968.3-.15-.975 5.046-.775.15.975zm6.032 5.675a3.37 3.37 0 01-3.21-3.624 3.448 3.448 0 016.88.471 3.375 3.375 0 01-3.67 3.153zm.4-5.788a2.325 2.325 0 00-2.47 2.242 2.314 2.314 0 104.612.315A2.324 2.324 0 0043.306.987m7.536.306l1.068.314-1.555 5.285 2.724.8-.287.977L49 7.555l1.842-6.262zM57.439 11a3.392 3.392 0 114.648-1.338A3.372 3.372 0 0157.439 11zm2.773-5.1a2.327 2.327 0 00-3.18 1.008 2.312 2.312 0 001.762 3.503 2.314 2.314 0 002.299-1.294 2.326 2.326 0 00-.881-3.217zm4.388 5.6a3.355 3.355 0 014.816-.12 3.08 3.08 0 01.786 3.681l-.887-.834a1.93 1.93 0 00-.579-2.138 2.299 2.299 0 00-3.3.194 2.251 2.251 0 000 3.378c.886.834 1.9.9 2.42.347l.213-.227-1.395-1.312.646-.687 2.192 2.062-2.373 2.522-.763-.718.841-.893-.007-.006a2.25 2.25 0 01-2.58-.562 3.2 3.2 0 01-.03-4.687zm4.92 10.11l-.654-.9 5.282-3.835.654.9-5.282 3.835zm3.255 1.441l.523 1.025a1.124 1.124 0 00-.455 1.535.881.881 0 001.211.526c.42-.215.585-.68.516-1.355l-.078-.733a2.087 2.087 0 011.027-2.241A1.838 1.838 0 0178 22.817a2 2 0 01-.728 2.744l-.523-1.025a1.019 1.019 0 00.415-1.345.825.825 0 00-1.113-.417c-.4.206-.548.629-.492 1.257l.07.738A2.127 2.127 0 0174.61 27.1a1.944 1.944 0 01-2.6-1.1 2.16 2.16 0 01.768-2.956m7.822 9.983l-.559-1.92-5.316 1.548-.311-1.069 5.316-1.548-.556-1.91.951-.277 1.426 4.9-.951.276zM3.5 58.408l-.406-1.036 6.078-2.379.794 2.029c.492 1.256.205 2.361-.919 2.8a1.719 1.719 0 01-2.12-.628L4.91 62.009l-.453-1.159 1.934-2.692-.3-.764L3.5 58.408zm3.9-.308c.261.667.688.9 1.233.692.545-.208.705-.682.444-1.349l-.413-1.054-1.678.657L7.4 58.1zm4.752 3.555l2.283 3.433-.825.548-1.666-2.506-1.422.945 1.442 2.168-.825.549-1.439-2.17-1.54 1.024 1.666 2.506L9 68.7l-2.284-3.432 5.436-3.613zm1.269 7.445a3.35 3.35 0 014.814-.121 3.14 3.14 0 01.758 3.82l-.879-.827a1.987 1.987 0 00-.558-2.285 2.414 2.414 0 00-3.3 3.511 1.987 1.987 0 002.315.416l.879.827a3.141 3.141 0 01-3.86-.522 3.36 3.36 0 01-.168-4.819m8.465 10.746a3.392 3.392 0 114.644-1.35 3.37 3.37 0 01-4.644 1.35zm2.759-5.1a2.413 2.413 0 10.889 3.215 2.326 2.326 0 00-.889-3.215zM32.8 82.23l-.893-.2-.9-3.445-.981 4.44-1.078-.238 1.409-6.375 1.124.248 1.109 4.38 2.852-3.5 1.133.251-1.405 6.372-1.078-.238.982-4.44L32.8 82.23zm10.532.688l-.913.057-1.818-3.062.284 4.538-1.1.069-.404-6.52 1.149-.072 2.277 3.9 1.772-4.157 1.158-.073.408 6.516-1.1.069-.284-4.539-1.429 3.274zm5.213-5.991l3.933-1.234.3.945-2.871.9.511 1.629 2.484-.779.3.945-2.484.779.553 1.764 2.871-.9.3.945-3.942 1.234-1.955-6.228zm9.625 3.393l-3.294-5.634.944-.552 5.1 2.625-2.439-4.179.944-.552 3.294 5.634-.952.557-5.058-2.56 2.4 4.112-.939.549zm8.1-5.387l-4.56-4.663 1.428-1.4a3.27 3.27 0 114.569 4.662l-1.437 1.401zm-2.447-5.341l-.623.608 3.169 3.234.631-.61a2.266 2.266 0 10-3.169-3.233m3.3-5.19l2.226-3.468.834.535L68.561 64l1.439.921 1.406-2.19.833.534-1.406 2.191 1.555 1 1.625-2.532.833.535-2.226 3.468-5.489-3.526zm9.541-3.534l-6.132-2.24.686-1.879a3.272 3.272 0 116.132 2.24l-.686 1.879zM72.158 57.1l-.3.825 4.253 1.554.3-.824a2.267 2.267 0 10-4.253-1.555z" fill="#1B1B1B"/></g></g><defs><clipPath id="clip0_439_3335"><path fill="#fff" d="M0 0h81.55v84.521H0z"/></clipPath></defs></svg>