<svg width="83" height="82" fill="none" xmlns="http://www.w3.org/2000/svg"><g clip-path="url(#clip0_439_3378)"><path d="M40.553 9.508a31.011 31.011 0 1031.01 31.012 31.047 31.047 0 00-31.01-31.012zm0 60.42a29.41 29.41 0 1129.41-29.409 29.442 29.442 0 01-29.41 29.409zm13.19-42.554a3.037 3.037 0 002.049-2.322.81.81 0 00.126.041l.9.2a.801.801 0 00.347-1.564l-.9-.2a.8.8 0 00-.464.037 6.351 6.351 0 00-2.29-3.919l.477-.856a.8.8 0 10-1.4-.779l-.454.818a6.323 6.323 0 00-1.977-.488 4.3 4.3 0 00-2.14.38.837.837 0 00-.1-.112l-1.1-1a.798.798 0 00-.88-.132.8.8 0 00-.197 1.318l1.053.957c-.138.21-.241.44-.306.681a2.82 2.82 0 001.194 3.084l-.691.754a.802.802 0 101.182 1.083l.96-1.048a4.3 4.3 0 011.165 1.569l-.387 1.548a.8.8 0 101.554.389l.157-.628c.423.191.882.292 1.346.294.262 0 .523-.035.776-.105zm-1.948-2.072a5.172 5.172 0 00-2.8-2.9 1.31 1.31 0 01-.96-1.557c.149-.566 1.02-.911 1.792-.911.068 0 .135 0 .2.008a4.6 4.6 0 014.229 4.078 1.613 1.613 0 01-.944 1.814 1.42 1.42 0 01-1.517-.532zm7.45 15.253a4.896 4.896 0 00-.21.693l-1.215-.541a.8.8 0 00-1.073 1.02.8.8 0 00.422.444l1.7.756c0 .103-.002.206-.006.31.015.962-.09 1.922-.315 2.858a6.071 6.071 0 01-1.706 3.11c-.113.122-.228.245-.341.374l-1.757-.586a.8.8 0 10-.507 1.521l1.344.448-.051.107a3.157 3.157 0 00.778 3.627 3.437 3.437 0 002.34.922 3.591 3.591 0 001.709-.439 11.05 11.05 0 001.719-1.129l.8.71a.802.802 0 001.064-1.2l-.708-.629a13.014 13.014 0 002.572-5.439l.789.225a.802.802 0 00.44-1.541l-.988-.282a10.586 10.586 0 00-.441-4.557l1.253-.835a.804.804 0 00-.894-1.336l-1.167.778a4.06 4.06 0 00-1.594-1.186v-2.131a.8.8 0 10-1.6 0v1.922a2.99 2.99 0 00-2.356 2.006zm4.839 1.3c.6 2.15.536 4.431-.187 6.543a8.576 8.576 0 01-4.3 5.368 1.889 1.889 0 01-2.2-.251 1.537 1.537 0 01-.4-1.806 4.8 4.8 0 011.019-1.414 7.607 7.607 0 002.084-3.8c.256-1.056.38-2.14.366-3.226a5.992 5.992 0 01.275-2.131 1.352 1.352 0 011.26-1.01 2.473 2.473 0 012.083 1.727zM28.639 55.296a4.555 4.555 0 00-1.807-2.237 7.46 7.46 0 01-.8-.692 12.73 12.73 0 01-1.98-3.121 2.566 2.566 0 00-3.084-1.417 3.336 3.336 0 00-2.337 3.5 9.946 9.946 0 005.225 7.24c.601.333 1.277.51 1.964.514a3.193 3.193 0 002.03-.681 2.762 2.762 0 00.794-3.1l-.005-.006zm-1.8 1.859a2.076 2.076 0 01-2.215 0 8.413 8.413 0 01-4.4-5.983 1.71 1.71 0 011.18-1.805c.105-.03.212-.047.32-.048a.978.978 0 01.89.638 14.263 14.263 0 002.254 3.512c.304.306.63.59.977.848.56.34 1 .846 1.263 1.446a1.242 1.242 0 01-.274 1.392h.005zm16.235-17.28a5.7 5.7 0 10.01-11.4 5.7 5.7 0 00-.015 11.4h.005zm0-9.79a4.093 4.093 0 11-.005 0h.005zm-14.77 11.133a2.9 2.9 0 10-2.9 2.9 2.9 2.9 0 002.896-2.9h.005zm-4.2 0a1.3 1.3 0 112.601 0 1.3 1.3 0 01-2.601 0zm22.51 1.948a3.972 3.972 0 100 7.943 3.972 3.972 0 000-7.943zm0 6.339a2.368 2.368 0 111.675-.693 2.371 2.371 0 01-1.675.696v-.003zm-11.281.988a1.527 1.527 0 111.083-.444 1.526 1.526 0 01-1.083.447v-.003zm-3.737-24.905l-1.084-.517a4.23 4.23 0 00.3-.379 2.8 2.8 0 00-.052-3.291 3.063 3.063 0 00-.983-.866l.523-1.346a.801.801 0 10-1.493-.581l-.6 1.541a3.247 3.247 0 00-.872.138A8.347 8.347 0 0024.174 22l-.865-.865a.802.802 0 00-1.133 1.133l.9.9a13.272 13.272 0 00-1.052 1.554 11.3 11.3 0 00-.973 2.245l-1.444-.51a.8.8 0 00-.99 1.1.804.804 0 00.456.411l1.594.563a7.693 7.693 0 00-.056 2.62 3.563 3.563 0 002.625 2.979c.162.032.327.048.493.048a2.679 2.679 0 002.26-1.344c.046-.073.087-.146.128-.22l.823.494a.804.804 0 001.1-.274.802.802 0 00-.275-1.1l-1-.6a.747.747 0 00-.1-.047c.035-.153.07-.307.1-.462a9.677 9.677 0 01.725-2.3 4.969 4.969 0 011.689-2.113l1.735.826a.801.801 0 00.689-1.447l-.007-.003zm-5.56 2.042a11.133 11.133 0 00-.843 2.655 5.03 5.03 0 01-.565 1.691 1.059 1.059 0 01-1.092.581 1.979 1.979 0 01-1.355-1.69A9.252 9.252 0 0123.4 25.53a7.18 7.18 0 014.4-3.709 1.483 1.483 0 011.66.526 1.2 1.2 0 01.03 1.431 3.9 3.9 0 01-1.052.981 6.646 6.646 0 00-2.402 2.873v-.002zm19.512 33.542l-1.1-.1a.808.808 0 00-.2.012 4.058 4.058 0 00-.4-1.267c.013-.013.029-.024.04-.039l1-1.2a.801.801 0 10-1.231-1.026l-.821.986a4.08 4.08 0 00-6.51 1.831h-1.068a.8.8 0 100 1.6h.872a4.09 4.09 0 003.5 3.733l.15.907a.8.8 0 101.58-.264l-.121-.734a4.101 4.101 0 002.93-2.969c.045.012.09.021.136.026l1.1.1h.074a.8.8 0 00.072-1.6l-.003.004zm-5.346 2.974a2.486 2.486 0 11-.002-4.976 2.486 2.486 0 01.002 4.978v-.002zm41.567-4.887l-8.223 4.671a.8.8 0 01-1.195-.64l-.635-8.952a.802.802 0 111.6-.113l.469 6.606a38.964 38.964 0 005.044-27.54c.117-.033.23-.076.34-.128a29.67 29.67 0 011.167-.523 40.606 40.606 0 01-4.73 28.277l5.373-3.052a.802.802 0 01.792 1.394h-.002zM57.963 75.351a6.07 6.07 0 00.354 1.614 40.52 40.52 0 01-28.318 2.71 5.19 5.19 0 00.3-1.578 38.908 38.908 0 0027.66-2.745l.004-.001zm-36.07-.653a4.327 4.327 0 00-.24.355 4.553 4.553 0 00-.45 1.095A40.54 40.54 0 0111.16 12.589l-6.36 1.55a.802.802 0 01-.38-1.557l9.19-2.239h.029a.786.786 0 01.14-.016h.043c.06.001.12.01.179.025.01 0 .022.008.033.011a.763.763 0 01.137.057c.016.008.03.018.047.028a.77.77 0 01.109.082c.009.008.02.013.029.022.009.009.008.011.013.015l.023.02a.71.71 0 01.08.109c0 .006.01.011.013.016a.81.81 0 01.076.169c0 .013.007.028.01.042.012.046.02.092.024.139v.052c0 .05-.003.101-.012.151a.26.26 0 010 .025v.024l-1.837 8.757a.8.8 0 01-1.571-.016.8.8 0 01.003-.313l1.3-6.2a38.934 38.934 0 009.42 61.163l-.005-.007zm45.075-4.466a.802.802 0 01-.09 1.13 40.352 40.352 0 01-3.755 2.837 6.792 6.792 0 00-.571-1.517c0-.008-.01-.014-.014-.022a38.874 38.874 0 003.3-2.516.8.8 0 011.125.088h.005zM30.448 2.891a13.13 13.13 0 00-.58-1.5A40.337 40.337 0 0139 .003c.21.514.38 1.044.51 1.584a38.788 38.788 0 00-9.065 1.303l.002.001zm-7.69 2.065a.8.8 0 01.378-1.069 41.074 41.074 0 013.123-1.326c.21.49.393.991.552 1.5a40.754 40.754 0 00-2.985 1.269.8.8 0 01-1.07-.375l.002.001zm20.954-3.257c-.123-.554-.275-1.1-.455-1.639A40.639 40.639 0 0179.41 28.919c-.5.2-.992.415-1.482.639A39.038 39.038 0 0043.71 1.699z" fill="#231F20"/></g><defs><clipPath id="clip0_439_3378"><path fill="#fff" d="M0 0h82.174v81.071H0z"/></clipPath></defs></svg>