<svg width="18" height="18" fill="none" xmlns="http://www.w3.org/2000/svg"><g clip-path="url(#clip0_2018_689)"><path d="M15.75 6.75C15.75 3.03 12.72 0 9 0S2.25 3.03 2.25 6.75H.03l1.38 9.637c.128.915.93 1.613 1.853 1.613h11.452c.93 0 1.725-.69 1.86-1.613l1.38-9.637H15.75zM9 .75c3.307 0 6 2.692 6 6H3c0-3.308 2.693-6 6-6zm6.832 15.532a1.131 1.131 0 01-1.117.968H3.263a1.123 1.123 0 01-1.11-.968L.893 7.5h16.192l-1.253 8.782z" fill="#1B1B1B"/></g><defs><clipPath id="clip0_2018_689"><path fill="#fff" d="M0 0h18v18H0z"/></clipPath></defs></svg>