<svg width="71" height="71" fill="none" xmlns="http://www.w3.org/2000/svg"><g clip-path="url(#clip0_439_3856)"><mask id="a" style="mask-type:luminance" maskUnits="userSpaceOnUse" x="0" y="0" width="71" height="71"><path d="M0 0h71v71H0V0z" fill="#fff"/></mask><g mask="url(#a)"><mask id="b" style="mask-type:luminance" maskUnits="userSpaceOnUse" x="17" y="7" width="37" height="57"><path d="M17.878 7.1h35.244v56.8H17.878V7.1z" fill="#fff"/></mask><g mask="url(#b)"><path d="M18.56 18.652h33.88L38.581 35.486l13.86 16.912H18.559l13.86-16.912-13.86-16.834z" stroke="#8D89DA" stroke-width="2" stroke-miterlimit="100" stroke-linecap="round"/><path d="M35.5 38.85c.916 0 .916-1.412 0-1.412s-.916 1.413 0 1.413z" fill="#8D89DA" stroke="#8D89DA" stroke-width=".071" stroke-miterlimit="100"/><path d="M35.5 33.505c.916 0 .916-1.42 0-1.42s-.916 1.42 0 1.42z" fill="#8D89DA"/><path d="M35.5 28.151c.916 0 .916-1.42 0-1.42s-.916 1.42 0 1.42z" fill="#17005D"/><path d="M35.5 49.58c.916 0 .916-1.42 0-1.42s-.916 1.42 0 1.42zm-5.09 0c.915 0 .915-1.42 0-1.42-.91 0-.91 1.42 0 1.42zm10.18 0c.917 0 .917-1.42 0-1.42-.915 0-.915 1.42 0 1.42zm-7.632-2.677c.909 0 .909-1.413 0-1.413-.916 0-.916 1.413 0 1.413zm5.091 0c.909 0 .909-1.413 0-1.413-.916 0-.916 1.413 0 1.413z" fill="#8D89DA" stroke="#8D89DA" stroke-width=".071" stroke-miterlimit="100"/><path d="M30.41 28.137c.915 0 .915-1.412 0-1.412-.91 0-.91 1.412 0 1.412zm10.18 0c.917 0 .917-1.412 0-1.412-.915 0-.915 1.412 0 1.412zm-7.632 2.677c.909 0 .909-1.413 0-1.413-.916 0-.916 1.413 0 1.413zm5.091 0c.909 0 .909-1.413 0-1.413-.916 0-.916 1.413 0 1.413zm-2.549-2.67c.916 0 .916-1.413 0-1.413s-.916 1.413 0 1.413zm-2.542-2.676c.909 0 .909-1.42 0-1.42-.916 0-.916 1.42 0 1.42zm-5.09 0c.916 0 .916-1.42 0-1.42s-.916 1.42 0 1.42zm10.181 0c.909 0 .909-1.42 0-1.42-.916 0-.916 1.42 0 1.42zm5.062 0c.916 0 .916-1.42 0-1.42-.908 0-.908 1.42 0 1.42zM35.5 22.799c.916 0 .916-1.413 0-1.413s-.916 1.413 0 1.413zm-5.09-.008c.915 0 .915-1.413 0-1.413-.91 0-.91 1.413 0 1.413zm10.18 0c.917 0 .917-1.413 0-1.413-.915 0-.915 1.413 0 1.413zm5.07 0c.916 0 .916-1.413 0-1.413s-.916 1.413 0 1.413zm-20.341 0c.916 0 .916-1.413 0-1.413-.91 0-.91 1.413 0 1.413z" fill="#8D89DA"/><path d="M52.44 14.817H18.56v-4.04a2.99 2.99 0 012.981-2.996H49.46a2.99 2.99 0 012.981 2.996v4.04zM18.56 56.182h33.88v4.04a2.99 2.99 0 01-2.981 2.996H21.54a2.99 2.99 0 01-2.982-2.996v-4.04z" stroke="#8D89DA" stroke-width="2" stroke-miterlimit="100" stroke-linecap="round"/></g></g></g><defs><clipPath id="clip0_439_3856"><path fill="#fff" d="M0 0h71v71H0z"/></clipPath></defs></svg>