<svg width="71" height="72" fill="none" xmlns="http://www.w3.org/2000/svg"><g clip-path="url(#clip0_439_3812)"><mask id="a" style="mask-type:luminance" maskUnits="userSpaceOnUse" x="0" y="0" width="71" height="72"><path d="M0 .5h71v71H0V.5z" fill="#fff"/></mask><g mask="url(#a)"><mask id="b" style="mask-type:luminance" maskUnits="userSpaceOnUse" x="4" y="15" width="63" height="50"><path d="M4.225 15.911h62.55V64.4H4.226V15.91z" fill="#fff"/></mask><g mask="url(#b)"><path d="M66.051 25.421h.036c-12.298 0-15.3-8.825-15.3-8.825h-.008s-3.003 8.825-15.3 8.825h.035c-12.297 0-15.3-8.825-15.3-8.825s-3.004 8.825-15.3 8.825h.042M66.05 38.18h.036c-12.298 0-15.3-8.819-15.3-8.819h-.008s-3.003 8.819-15.3 8.819h.035c-12.297 0-15.3-8.819-15.3-8.819s-3.004 8.819-15.3 8.819h.042M66.05 50.946h.036c-12.298 0-15.3-8.819-15.3-8.819h-.008s-3.003 8.819-15.3 8.819h.035c-12.297 0-15.3-8.819-15.3-8.819s-3.004 8.819-15.3 8.819h.042M66.05 63.71h.036c-12.298 0-15.3-8.818-15.3-8.818h-.008s-3.003 8.818-15.3 8.818h.035c-12.297 0-15.3-8.818-15.3-8.818s-3.004 8.818-15.3 8.818h.042" stroke="#8D89DA" stroke-width="2" stroke-miterlimit="100" stroke-linecap="round"/></g></g></g><defs><clipPath id="clip0_439_3812"><path fill="#fff" transform="translate(0 .5)" d="M0 0h71v71H0z"/></clipPath></defs></svg>