<svg width="71" height="71" fill="none" xmlns="http://www.w3.org/2000/svg"><g clip-path="url(#clip0_439_3831)"><mask id="a" style="mask-type:luminance" maskUnits="userSpaceOnUse" x="0" y="0" width="71" height="71"><path d="M0 0h71v71H0V0z" fill="#fff"/></mask><g mask="url(#a)"><mask id="b" style="mask-type:luminance" maskUnits="userSpaceOnUse" x="5" y="7" width="61" height="57"><path d="M5.297 7.1h60.406v56.8H5.297V7.1z" fill="#fff"/></mask><g mask="url(#b)" fill="#8D89DA" stroke="#8D89DA" stroke-width=".5" stroke-miterlimit="100"><path d="M64.887 46.207a.805.805 0 01-.731-.469l-1.754-3.678-3.685 1.754a.817.817 0 01-1.086-.383.817.817 0 01.383-1.087l4.416-2.108a.828.828 0 01.625-.029.79.79 0 01.462.42l2.108 4.415a.82.82 0 01-.383 1.087.889.889 0 01-.355.078zM8.18 31.574a.853.853 0 01-.285-.05.834.834 0 01-.454-.426l-2.066-4.43a.818.818 0 01.39-1.087.823.823 0 011.087.398l1.718 3.7 3.699-1.726a.815.815 0 011.086.398.821.821 0 01-.398 1.079L8.52 31.496a.824.824 0 01-.34.078z"/><path d="M8.811 29.75a.722.722 0 01-.199-.03.814.814 0 01-.596-.98C11.14 15.997 22.47 7.1 35.57 7.1c2.215 0 4.438.263 6.61.781l.263.064c.44.114.703.554.59.994a.82.82 0 01-.988.59l-.241-.065a26.861 26.861 0 00-6.234-.738A26.688 26.688 0 009.599 29.124a.816.816 0 01-.788.625zM35.614 63.9c-2.208 0-4.438-.263-6.603-.78-.44-.107-.753-.555-.654-.988.107-.44.49-.717.938-.617 14.888 3.55 28.96-5.666 32.333-19.802a.81.81 0 01.98-.604c.44.1.71.54.603.98C60.151 54.926 48.798 63.9 35.614 63.9z"/><path d="M62.48 30.182a.811.811 0 01-.788-.625l-.064-.262C58.745 17.189 48.046 8.726 35.614 8.726c-2.024 0-4.062.234-6.057.696a.807.807 0 01-.972-.61.807.807 0 01.603-.973 28.506 28.506 0 016.426-.739c13.191 0 24.544 8.974 27.597 21.825l.064.256c.1.433-.17.873-.603.98a.914.914 0 01-.192.021zM35.571 63.9c-13.192 0-24.538-8.974-27.598-21.818-.106-.44.15-.916.583-1.023.44-.106.866.107.98.54 0 .007.02.107.02.114C12.44 53.81 23.14 62.274 35.572 62.274c2.08 0 4.175-.248 6.22-.738.44-.1.88.17.987.603.099.44-.17.88-.604.98a28.498 28.498 0 01-6.603.781zm.021-8.08a.821.821 0 01-.816-.816v-16.6c-1.37-.085-4.253-.419-7.22-1.775-3.757-1.718-8.322-5.453-8.72-13.468a.818.818 0 01.774-.86.816.816 0 01.852.774c.284 5.765 2.883 9.82 7.718 12.049 3.692 1.704 7.349 1.676 7.398 1.676a.88.88 0 01.59.234.83.83 0 01.24.575v17.395a.82.82 0 01-.816.817z"/><path d="M35.592 38.425a.812.812 0 01-.81-.773c-.283-5.766-2.882-9.82-7.724-12.05-3.692-1.703-7.348-1.668-7.398-1.668-.497-.007-.817-.355-.824-.802a.812.812 0 01.803-.83c.163 0 4.04-.036 8.051 1.796 3.756 1.718 8.321 5.452 8.719 13.475a.816.816 0 01-.774.852h-.043z"/><path d="M35.592 55.82a.821.821 0 01-.816-.816V37.609c0-.213.092-.426.248-.575a.846.846 0 01.583-.234c.056 0 3.706.028 7.398-1.676 4.835-2.23 7.433-6.284 7.717-12.049.022-.447.426-.802.852-.774a.818.818 0 01.774.86c-.39 8.015-4.955 11.75-8.718 13.468-2.961 1.356-5.85 1.69-7.221 1.775v16.6c0 .447-.37.817-.817.817z"/><path d="M35.592 38.425h-.042a.806.806 0 01-.767-.851c.39-8.023 4.956-11.758 8.712-13.476 4.025-1.84 7.895-1.797 8.051-1.797.454.008.81.377.802.831-.007.447-.39.788-.823.802-.036 0-3.706-.035-7.398 1.669-4.843 2.23-7.434 6.283-7.718 12.049a.818.818 0 01-.817.773z"/></g></g></g><defs><clipPath id="clip0_439_3831"><path fill="#fff" d="M0 0h71v71H0z"/></clipPath></defs></svg>