<svg width="71" height="72" fill="none" xmlns="http://www.w3.org/2000/svg"><g clip-path="url(#clip0_439_3793)"><mask id="a" style="mask-type:luminance" maskUnits="userSpaceOnUse" x="0" y="0" width="71" height="72"><path d="M0 .5h71v71H0V.5z" fill="#fff"/></mask><g mask="url(#a)"><mask id="b" style="mask-type:luminance" maskUnits="userSpaceOnUse" x="9" y="7" width="53" height="58"><path d="M9.38 7.6h52.24v56.8H9.38V7.6z" fill="#fff"/></mask><g mask="url(#b)" fill-rule="evenodd" clip-rule="evenodd" fill="#8D89DA" stroke="#8D89DA" stroke-width="2" stroke-miterlimit="100"><path d="M35.5 62C29.159 62 24 56.329 24 49.363c0-7.685 10.69-19.701 11.147-20.21a.484.484 0 01.706 0C36.31 29.663 47 41.678 47 49.364 47 56.33 41.841 62 35.5 62zm0-31.71c-1.87 2.165-10.523 12.563-10.523 19.073 0 6.385 4.722 11.58 10.523 11.58 5.801 0 10.523-5.195 10.523-11.58 0-6.51-8.653-16.908-10.523-19.074zm23.638-12.554c-24.51-14.727-47.031-.162-47.252-.013a.574.574 0 01-.796-.169.589.589 0 01.167-.798c.227-.156 23.345-15.11 48.463-.02.268.17.362.52.201.799a.58.58 0 01-.495.285.52.52 0 01-.288-.084zm.288 10.261c-.1 0-.2-.026-.288-.078-24.51-14.726-47.031-.162-47.252-.013a.57.57 0 01-.796-.175.589.589 0 01.167-.798c.227-.156 23.345-15.103 48.463-.013a.58.58 0 01-.294 1.077z"/></g></g></g><defs><clipPath id="clip0_439_3793"><path fill="#fff" transform="translate(0 .5)" d="M0 0h71v71H0z"/></clipPath></defs></svg>