<svg width="165" height="165" fill="none" xmlns="http://www.w3.org/2000/svg"><path d="M156.329 99.173l-7.93 4.615.512-2.11 7.368-4.236.016-.068-5.987-1.453.373-1.537 12.325 2.99-.373 1.538-5.68-1.378-.017.068 4.395 6.674-.468 1.93-4.534-7.033zm-15.221 15.291l.587-1.345 2.296 1.002 4.024-9.224 11.624 5.071-.632 1.45-10.32-4.502-2.713 6.219 10.32 4.502-.633 1.45-10.319-4.502-.633 1.45-3.601-1.571zm.361 3.783l.81-1.36 10.896 6.491-.81 1.359-10.896-6.49zm-.656 11.824l3.944 3.003 1.693-2.223c1.102-1.448 1.019-2.804-.24-3.762-1.266-.964-2.607-.682-3.704.759l-1.693 2.223zm.411-2.89l-1.762-5.738 1.14-1.497 1.83 5.967c1.415-1.176 3.26-1.263 4.763-.118 1.825 1.39 2.081 3.694.638 5.589l-2.902 3.811-10.09-7.683.958-1.259 3.881 2.956 1.544-2.028zm-17.527 10.597l3.303 1.974 3.876-3.229-1.344-3.605 1.276-1.063 4.525 12.737-1.202 1.002-11.71-6.753 1.276-1.063zm9.823 5.819l-2.141-5.743-3.161 2.633 5.261 3.144.041-.034zm-11.765 3.315l-8.837-2.466 1.869-1.104 8.173 2.327.061-.035-3.134-5.305 1.362-.805 6.451 10.92-1.362.805-2.973-5.033-.06.036-1.719 7.804-1.711 1.01 1.88-8.154zm-21.625-.248l1.374-.516.88 2.346 9.422-3.536 4.455 11.875-1.481.555-3.955-10.541-6.353 2.384 3.956 10.541-1.482.556-3.955-10.541-1.481.555-1.38-3.678zm-2.476 2.89l1.54-.361 2.897 12.347-1.54.361-2.897-12.347zm-8.922 7.752l.591 4.922 2.775-.333c1.806-.217 2.722-1.221 2.533-2.792-.19-1.579-1.326-2.346-3.124-2.13l-2.775.333zm2.361-1.717l2.892-5.26 1.867-.224-3.008 5.468c1.83.197 3.176 1.46 3.402 3.337.273 2.277-1.203 4.065-3.568 4.349l-4.756.571-1.512-12.592 1.571-.188.582 4.843 2.53-.304zm-20.052-5.243l.876 3.746 5.016.543 1.658-3.471 1.651.179-6.015 12.105-1.555-.169-3.282-13.112 1.651.179zm2.642 11.107l2.641-5.531-4.089-.443 1.396 5.968.052.006zm-10.526-6.166l-4.34-8.083 2.09.584 3.982 7.508.068.019 1.656-5.935 1.524.426-3.41 12.215-1.524-.425 1.572-5.63-.068-.019-6.82 4.165-1.913-.534 7.183-4.291zM48.36 139.542l1.325.631-1.078 2.262 9.084 4.33-5.458 11.448-1.428-.68 4.845-10.164-6.125-2.919-4.845 10.163-1.428-.681 4.845-10.163-1.428-.681 1.69-3.546zm-3.788.229l1.332.854-6.848 10.675-1.331-.854 6.847-10.675zm-11.753-1.022l-3.131 3.844 2.167 1.765c1.41 1.149 2.768 1.11 3.767-.117 1.005-1.233.767-2.583-.636-3.726l-2.167-1.766zm2.875.506l5.793-1.572 1.458 1.188-6.024 1.633c1.13 1.453 1.156 3.299-.038 4.764-1.449 1.779-3.76 1.959-5.607.455l-3.714-3.026 8.01-9.833 1.227 1-3.081 3.781 1.976 1.61zm-9.964-17.811l-2.081 3.236 3.1 3.98 3.646-1.225 1.021 1.311-12.879 4.104-.961-1.234 7.133-11.482 1.02 1.31zm-6.139 9.627l5.81-1.952-2.527-3.245-3.315 5.155.032.042zm-2.929-11.859l2.758-8.751 1.042 1.905-2.598 8.092.034.061 5.406-2.956.759 1.388-11.128 6.085-.759-1.388 5.128-2.804-.033-.062-7.743-1.977-.953-1.742 8.087 2.149zm.958-21.617l.468 1.391-2.373.8 3.214 9.536-12.018 4.052-.505-1.499 10.669-3.597-2.168-6.43-10.669 3.597-.505-1.499 10.669-3.597-.505-1.499 3.722-1.255zm-2.79-2.438l.314 1.55-12.43 2.52-.314-1.551 12.43-2.52zm-7.472-9.249l-4.94.42.238 2.785c.154 1.813 1.126 2.762 2.702 2.628 1.585-.135 2.39-1.244 2.237-3.048l-.237-2.785zm1.635 2.42l5.157 3.071.159 1.874-5.361-3.195c-.26 1.821-1.57 3.123-3.452 3.283-2.286.195-4.022-1.342-4.224-3.716l-.406-4.772 12.637-1.075.134 1.576-4.86.413.216 2.54zm5.866-19.768l-3.774.745-.717 4.994 3.412 1.777-.235 1.645-11.89-6.43.222-1.549 13.218-2.827-.236 1.644zM3.667 70.816l5.436 2.831.585-4.072-6.013 1.189-.008.052zm6.45-10.2l8.21-4.095-.647 2.073-7.625 3.752-.02.067 5.88 1.835-.47 1.51-12.107-3.777.471-1.51 5.58 1.74.02-.067-3.956-6.943.592-1.896 4.072 7.31zM26.35 46.22l-.676 1.303-2.223-1.152-4.632 8.934L7.56 49.47l.728-1.405 9.996 5.181 3.123-6.024-9.996-5.181.728-1.404 9.996 5.18.728-1.404 3.488 1.808zm-.225-3.661l-.898 1.303-10.443-7.196.897-1.303 10.444 7.196zm1.384-11.749l-3.739-3.255-1.835 2.108c-1.194 1.373-1.2 2.731-.007 3.77 1.2 1.044 2.557.85 3.746-.515l1.835-2.108zm-.6 2.858l1.382 5.84-1.235 1.42-1.435-6.075c-1.49 1.081-3.335 1.047-4.76-.194-1.73-1.506-1.835-3.823-.271-5.619l3.145-3.613 9.566 8.328-1.04 1.193-3.678-3.203-1.674 1.923zM45 24.225l-3.166-2.186-4.08 2.968 1.105 3.685-1.344.977-3.68-13.006 1.266-.92 11.242 7.505-1.344.977zm-9.42-6.45l1.76 5.87 3.326-2.419-5.044-3.482-.043.03zM47.684 15.1l8.654 3.048-1.938.978-8-2.865-.063.031 2.774 5.501-1.413.713-5.71-11.324 1.412-.713 2.632 5.219.063-.032 2.233-7.672 1.774-.894-2.417 8.01zm21.23 1.737l-1.405.427-.728-2.397-9.629 2.925-3.686-12.134 1.513-.46 3.273 10.772 6.492-1.972-3.272-10.773 1.513-.46 3.273 10.773 1.514-.46 1.142 3.76zm2.912-2.812l-1.56.261-2.09-12.51 1.56-.26 2.09 12.51zm9.18-7.161l-.267-4.95-2.791.151c-1.817.098-2.796 1.04-2.71 2.62.085 1.588 1.17 2.428 2.977 2.33l2.791-.151zm-2.468 1.56l-3.23 5.059-1.878.101 3.36-5.26c-1.813-.316-3.074-1.664-3.176-3.551C73.49 2.483 75.08.794 77.458.666l4.783-.26.685 12.665-1.58.085-.263-4.87-2.545.137zm20.012 6.508l-.615-3.798-4.966-.888-1.894 3.349-1.635-.293 6.836-11.66 1.54.275 2.37 13.308-1.636-.293zM96.681 3.67l-3.017 5.335 4.05.725-.981-6.05-.052-.01zm9.852 6.753l3.814 8.345-2.049-.717-3.492-7.748-.066-.023-2.034 5.816-1.494-.523 4.187-11.971 1.494.522-1.93 5.517.066.023 7.074-3.718 1.875.656-7.445 3.82zm13.87 16.706l-1.28-.719 1.226-2.184-8.776-4.926 6.208-11.06 1.379.775-5.51 9.818 5.916 3.321 5.511-9.818 1.38.775-5.511 9.817 1.38.775-1.923 3.426zm3.645-.126l-1.273-.94 7.536-10.202 1.272.94-7.535 10.202zm11.724 1.785l3.375-3.63-2.047-1.904c-1.332-1.238-2.689-1.289-3.767-.13-1.083 1.165-.934 2.528.392 3.76l2.047 1.904zm-2.836-.693l-5.884 1.19-1.377-1.28 6.118-1.237c-1.032-1.523-.937-3.367.349-4.751 1.563-1.68 3.881-1.708 5.625-.087l3.508 3.262-8.636 9.288-1.158-1.077 3.321-3.572-1.866-1.736zm8.894 18.456l2.289-3.092-2.832-4.175-3.719.983-.933-1.375 13.121-3.25.878 1.295-7.872 10.989-.932-1.375zm6.757-9.203l-5.926 1.566 2.309 3.404 3.647-4.926-.03-.044zm2.272 12.207l-3.335 8.548-.912-1.97 3.131-7.9-.03-.065-5.591 2.59-.664-1.436 11.508-5.33.665 1.436-5.304 2.456.03.064 7.593 2.488.835 1.803-7.926-2.684zm-2.412 21.34l-.378-1.418 2.42-.646-2.595-9.723 12.253-3.271.408 1.528-10.878 2.904 1.75 6.556 10.878-2.904.408 1.529-10.878 2.903.408 1.529-3.796 1.013zm2.681 2.972l-.207-1.569 12.574-1.656.207 1.568-12.574 1.657zm6.832 9.591l4.956-.096-.054-2.794c-.035-1.819-.942-2.83-2.524-2.8-1.59.031-2.467 1.086-2.432 2.896l.054 2.794zm-1.473-2.52l-4.944-3.404-.036-1.88 5.14 3.54c.379-1.8 1.77-3.014 3.66-3.051 2.293-.044 3.925 1.603 3.971 3.985l.092 4.789-12.68.245-.03-1.582 4.877-.094-.05-2.549z" fill="#C6C4EC" fill-opacity=".4"/></svg>