<svg width="167" height="167" fill="none" xmlns="http://www.w3.org/2000/svg"><path d="M146.781 93.803l.14-1.576 5.752.512.616-6.934-5.751-.512.14-1.575 12.633 1.123-.141 1.576-5.462-.486-.617 6.934 5.463.486-.14 1.575-12.633-1.123zm10.608 10.573c-1.006 3.451-4.065 4.903-7.93 3.776-3.865-1.126-5.657-3.992-4.651-7.443 1.006-3.451 4.057-4.905 7.922-3.78 3.864 1.127 5.665 3.996 4.659 7.447zm-1.401-.409c.726-2.489-.709-4.6-3.713-5.476-2.996-.873-5.341.137-6.066 2.626-.726 2.489.709 4.601 3.705 5.474 3.004.876 5.349-.134 6.074-2.624zm-15.506 8.266l2.173-4.269 11.303 5.753-2.181 4.284c-.985 1.935-2.779 2.669-4.47 1.808-1.175-.598-1.833-2.018-1.475-3.206l-.063-.032c-.977 1.435-2.56 1.872-4.064 1.106-1.99-1.012-2.447-3.04-1.223-5.444zm11.513 2.26l-3.627-1.846-1.076 2.115c-.85 1.668-.646 2.915.576 3.537 1.12.571 2.129.118 2.827-1.253l1.3-2.553zm-8.812-4.486l-1.348 2.648c-.865 1.7-.63 2.943.678 3.609 1.308.666 2.444.081 3.361-1.721l1.28-2.514-3.971-2.022zm-10.74 14.463l8.05 6.084.085-.112-3.917-11.553.943-1.248 10.119 7.646-.944 1.248-8.077-6.104-.085.112 3.944 11.574-.943 1.248-10.118-7.646.943-1.249zm-9.675 9.415l1.17-1.064 3.886 4.271 5.149-4.684-3.886-4.271 1.171-1.065 8.534 9.382-1.17 1.064-3.691-4.057-5.149 4.684 3.691 4.057-1.17 1.065-8.535-9.382zm-.809 8.459l-8.898-2.238 1.84-1.152 8.231 2.117.06-.038-3.27-5.222 1.341-.839 6.73 10.75-1.341.839-3.101-4.954-.06.037-1.518 7.846-1.683 1.054 1.669-8.2zm-17.992 1.523l3.756 9.365.131-.053 2.607-11.916 1.452-.583 4.721 11.771-1.452.583-3.769-9.398-.131.053-2.593 11.949-1.452.582-4.722-11.771 1.452-.582zm-17.683 3.392l1.57-.195.71 5.731 6.908-.856-.71-5.731 1.57-.195 1.56 12.587-1.57.194-.675-5.442-6.908.856.675 5.443-1.57.194-1.56-12.586zm-8.285 12.553c-3.585-.263-5.644-2.953-5.35-6.967.296-4.015 2.724-6.366 6.31-6.102 3.584.263 5.644 2.943 5.349 6.958-.295 4.014-2.724 6.374-6.31 6.111zm.107-1.455c2.585.19 4.351-1.655 4.58-4.775.229-3.112-1.249-5.195-3.835-5.384-2.585-.19-4.351 1.654-4.58 4.766-.229 3.12 1.249 5.203 3.835 5.393zM66.804 144.92l4.633 1.218-3.224 12.266-4.65-1.223c-2.1-.552-3.197-2.149-2.715-3.985.336-1.275 1.584-2.219 2.82-2.121l.019-.068c-1.61-.651-2.373-2.105-1.944-3.737.567-2.159 2.452-3.036 5.061-2.35zm.234 11.73l1.035-3.936-2.295-.603c-1.811-.476-2.987-.013-3.336 1.313-.32 1.216.337 2.106 1.825 2.497l2.771.729zm2.514-9.563l-2.873-.755c-1.845-.485-3.01.008-3.384 1.428-.373 1.419.44 2.405 2.395 2.919l2.729.718 1.133-4.31zm-16.399-7.486l-4.274 9.14.127.059 10.484-6.236 1.417.663-5.372 11.489-1.417-.663 4.289-9.172-.128-.059-10.499 6.267-1.417-.662 5.373-11.489 1.417.663zm-11.159-7.495l1.283.926-3.38 4.682 5.644 4.074 3.38-4.682 1.282.926-7.423 10.283-1.282-.926 3.21-4.447-5.645-4.074-3.21 4.447-1.282-.926 7.423-10.283zm-8.434.977l.354-9.168 1.506 1.562-.371 8.49.048.051 4.435-4.277 1.099 1.139-9.13 8.804-1.098-1.139 4.207-4.057-.048-.051-7.99.135-1.38-1.43 8.368-.059zm-5.185-17.205l-8.37 5.633.078.116 12.198.055.873 1.298-10.522 7.08-.873-1.298 8.4-5.652-.078-.117-12.228-.035-.873-1.298 10.522-7.08.873 1.298zm-7.035-16.57l.516 1.495-5.458 1.886 2.273 6.579 5.458-1.885.516 1.495-11.987 4.142-.516-1.496 5.183-1.791-2.273-6.579-5.184 1.791-.516-1.495 11.987-4.142zM7.366 94.136c-.496-3.56 1.7-6.138 5.686-6.695 3.987-.556 6.796 1.323 7.293 4.884.497 3.56-1.69 6.137-5.677 6.694-3.987.556-6.805-1.323-7.302-4.883zm1.445-.201c.359 2.567 2.533 3.906 5.632 3.473 3.09-.431 4.816-2.314 4.457-4.882-.358-2.567-2.533-3.906-5.623-3.474-3.099.432-4.824 2.315-4.466 4.882zm10.751-14.198l-.24 4.784-12.667-.636.241-4.802c.11-2.168 1.447-3.57 3.343-3.475 1.317.066 2.497 1.093 2.655 2.325l.07.003c.306-1.71 1.573-2.755 3.259-2.67 2.23.112 3.475 1.776 3.34 4.471zM8.13 82.375l4.065.204.119-2.37c.093-1.87-.602-2.925-1.97-2.994-1.256-.063-1.993.762-2.07 2.298l-.144 2.862zm9.876.496l.149-2.967c.095-1.905-.627-2.944-2.093-3.018-1.466-.073-2.264.925-2.365 2.944l-.142 2.817 4.45.224zm3.854-17.458l-9.832-2.267-.031.137 8.291 8.948-.351 1.524-12.358-2.85.351-1.524 9.866 2.275.032-.137-8.326-8.955.352-1.525 12.358 2.85-.352 1.524zm4.998-12.575l-.639 1.448-5.284-2.329-2.807 6.37 5.285 2.329-.639 1.447L11.17 56.99l.638-1.448 5.018 2.212 2.808-6.37-5.02-2.212.639-1.447 11.606 5.114zm-2.835-7.882l9.038-1.577-1.212 1.801-8.38 1.417-.039.058 5.112 3.44-.884 1.313-10.522-7.081.884-1.313 4.849 3.264.039-.059-1.807-7.784 1.11-1.648 1.812 8.17zm15.822-8.783l-7.237-7.03-.098.1 2.46 11.948-1.09 1.122-9.097-8.836 1.09-1.123 7.263 7.055.098-.1-2.486-11.973 1.09-1.122 9.097 8.837-1.09 1.122zm14.604-10.318l-1.354.82-2.991-4.94-5.954 3.607 2.992 4.939-1.354.82-6.57-10.848 1.353-.82 2.841 4.691 5.954-3.606-2.841-4.691 1.353-.82 6.57 10.848zm2.035-14.768c3.375-1.238 6.359.364 7.745 4.144 1.386 3.779.142 6.922-3.233 8.16-3.376 1.237-6.356-.357-7.742-4.136-1.386-3.78-.145-6.93 3.23-8.168zm.502 1.37c-2.434.892-3.283 3.3-2.206 6.238 1.075 2.93 3.279 4.218 5.713 3.325 2.434-.892 3.283-3.3 2.21-6.23-1.078-2.937-3.282-4.226-5.717-3.333zm16.166 7.481l-4.727.77-2.042-12.516 4.745-.774c2.143-.35 3.795.663 4.1 2.537.213 1.3-.543 2.67-1.714 3.084l.012.07c1.735-.06 3.023.958 3.295 2.624.36 2.203-1.006 3.77-3.669 4.205zM68.17 9.316l.656 4.016 2.342-.382c1.847-.301 2.733-1.202 2.513-2.556-.203-1.24-1.165-1.787-2.683-1.54l-2.828.462zm1.592 9.759l2.932-.478c1.883-.307 2.747-1.232 2.51-2.68-.236-1.45-1.38-2.02-3.375-1.694l-2.784.454.717 4.398zm18.316.112L88.273 9.1l-.14-.003-7.05 9.956-1.564-.03.245-12.68 1.564.03-.195 10.123.14.003 7.05-9.991 1.564.03-.245 12.68-1.564-.03zm13.186 2.233l-1.55-.32 1.169-5.655-6.817-1.409-1.168 5.655-1.55-.32 2.567-12.42 1.55.32-1.11 5.37 6.816 1.41 1.11-5.372 1.549.32-2.566 12.42zm7.026-4.464l3.434 8.508-2.015-.808-3.139-7.897-.065-.026-2.294 5.718-1.468-.589 4.721-11.771 1.468.589-2.175 5.425.065.026 7.233-3.396 1.844.74-7.609 3.481zm12.103 13.763l5.385-8.533-.119-.075-11.183 4.874-1.323-.835 6.769-10.725 1.323.835-5.404 8.562.119.075 11.202-4.903 1.323.835-6.769 10.725-1.323-.835zm13.123 12.196l-1.082-1.155 4.215-3.947-4.759-5.08-4.214 3.947-1.082-1.155 9.257-8.67 1.081 1.155-4.002 3.749 4.758 5.08 4.003-3.749 1.081 1.155-9.256 8.67zm14.994-.849c1.907 3.047.955 6.297-2.457 8.433s-6.743 1.567-8.651-1.48c-1.907-3.047-.963-6.292 2.449-8.428 3.412-2.136 6.751-1.572 8.659 1.475zm-1.237.774c-1.376-2.197-3.907-2.531-6.559-.87-2.645 1.655-3.451 4.078-2.075 6.275 1.376 2.198 3.907 2.532 6.552.876 2.652-1.66 3.458-4.083 2.082-6.28zm-4.172 16.966l-1.749-4.46 11.806-4.632 1.756 4.475c.793 2.02.151 3.85-1.616 4.543-1.227.482-2.726.031-3.377-1.026l-.065.026c.424 1.684-.3 3.158-1.871 3.774-2.078.816-3.898-.189-4.884-2.7zm9.334-7.11l-3.788 1.487.867 2.21c.683 1.742 1.751 2.418 3.028 1.917 1.17-.459 1.501-1.514.939-2.946l-1.046-2.667zm-9.205 3.613l1.086 2.765c.696 1.776 1.782 2.426 3.149 1.89 1.366-.536 1.683-1.775.944-3.657l-1.03-2.626-4.149 1.628zm3.666 17.521l9.896-1.966-.027-.138-11.232-4.758-.305-1.535 12.439-2.47.305 1.534-9.931 1.973.028.138 11.266 4.75.305 1.535-12.439 2.472-.305-1.535z" fill="#C6C4EC" fill-opacity=".4"/></svg>