<svg width="38" height="38" fill="none" xmlns="http://www.w3.org/2000/svg"><g clip-path="url(#clip0_180_5882)"><path d="M18.208 30.083a.792.792 0 01-.791-.791V13.458a.792.792 0 011.583 0v15.834a.792.792 0 01-.792.791zm0 3.167a1.584 1.584 0 10.001 3.168 1.584 1.584 0 000-3.168zm10.525-21.864a2.316 2.316 0 01-1.584-1.213c-2.558-5.105-8.08-7.828-13.735-6.775-4.964.921-8.976 4.878-9.985 9.845a12.82 12.82 0 00-.13 4.427c.13.898-.093 1.699-.614 2.196A8.602 8.602 0 000 26.125c0 4.8 3.906 8.708 8.708 8.708h3.167a.792.792 0 000-1.583H8.708c-3.928 0-7.125-3.197-7.125-7.123a7.035 7.035 0 012.198-5.116c.896-.855 1.29-2.155 1.085-3.569a11.246 11.246 0 01.117-3.882c.88-4.342 4.386-7.8 8.72-8.606 4.957-.921 9.794 1.462 12.03 5.928a3.893 3.893 0 002.655 2.05 10.29 10.29 0 018.02 10.425c-.202 5.455-5.003 9.893-10.701 9.893h-1.165a.792.792 0 000 1.583h1.165c6.54 0 12.05-5.12 12.283-11.417.213-5.72-3.68-10.78-9.257-12.03z" fill="#8D89DA"/></g><defs><clipPath id="clip0_180_5882"><path fill="#fff" d="M0 0h38v38H0z"/></clipPath></defs></svg>