<svg width="40" height="40" fill="none" xmlns="http://www.w3.org/2000/svg"><g clip-path="url(#clip0_439_11080)"><path d="M35.368 1.452a3.128 3.128 0 00-4.07 0c-1.821 1.545-4.63 5.938-4.63 8.613 0 1.747.595 3.157 1.875 4.435 1.355 1.355 3.149 2.167 4.792 2.167 1.678 0 3.41-.769 4.748-2.11 1.29-1.29 1.919-2.76 1.919-4.494 0-2.673-2.812-7.066-4.634-8.611zm1.535 11.926C35.89 14.393 34.555 15 33.333 15c-1.193 0-2.578-.643-3.613-1.678-.958-.959-1.387-1.964-1.387-3.257 0-1.942 2.352-5.91 4.042-7.342a1.474 1.474 0 011.915-.001c1.692 1.435 4.043 5.401 4.043 7.341 0 1.285-.453 2.339-1.43 3.315zm-20.236-1.63c0-3.345-3.562-8.886-5.87-10.846a3.793 3.793 0 00-4.927 0C3.56 2.863 0 8.403 0 11.75c0 2.18.743 3.938 2.34 5.535C4.042 18.987 6.282 20 8.333 20c2.094 0 4.257-.962 5.937-2.642 1.613-1.611 2.397-3.446 2.397-5.608v-.002zm-8.334 6.584c-1.595 0-3.438-.854-4.815-2.227-1.281-1.282-1.851-2.625-1.851-4.357 0-2.761 3.243-7.846 5.28-9.575a2.133 2.133 0 012.771-.001C11.757 3.902 15 8.987 15 11.748c0 1.72-.605 3.129-1.908 4.43-1.35 1.349-3.129 2.154-4.759 2.154zm17.89-.612a4.464 4.464 0 00-5.78 0c-2.898 2.452-7.11 8.507-7.11 12.417 0 2.601.892 4.7 2.809 6.61 2.043 2.036 4.733 3.251 7.191 3.251 2.51 0 5.107-1.151 7.124-3.161 1.935-1.927 2.876-4.119 2.876-6.702 0-3.908-4.21-9.963-7.11-12.415zm3.059 17.935c-1.684 1.677-3.907 2.677-5.949 2.677-2.03 0-4.276-1.034-6.016-2.767C15.715 33.968 15 32.295 15 30.137c0-3.267 3.895-8.924 6.52-11.145a2.79 2.79 0 011.813-.665 2.81 2.81 0 011.815.665c2.625 2.221 6.519 7.878 6.519 11.143 0 2.145-.759 3.9-2.385 5.52z" fill="#8D89DA"/></g><defs><clipPath id="clip0_439_11080"><path fill="#fff" d="M0 0h40v40H0z"/></clipPath></defs></svg>