<svg width="58" height="60" fill="none" xmlns="http://www.w3.org/2000/svg"><path d="M28.59 22.59a5.556 5.556 0 110-11.115 5.556 5.556 0 010 11.118m0-10.588a5.033 5.033 0 105.031 5.032 5.04 5.04 0 00-5.031-5.032zm10.234 17.023H35.87a7.53 7.53 0 00-13.517-2.287s-.004 0-.006.005c-.157.197-3.85 4.867-3.773 8.057.065 2.745 1.865 3.607 2.484 3.822v7.28a.261.261 0 10.523 0v-14.95a7.02 7.02 0 014.596-6.58l2.39 5.455a.261.261 0 00.24.157h.008a.262.262 0 00.238-.172l1.961-5.433a7.042 7.042 0 014.313 4.645h-4.091a.261.261 0 00-.261.261v10.588a.261.261 0 00.26.26h4.362v5.769a.261.261 0 10.524 0v-5.768h2.704a.262.262 0 00.26-.261V29.288a.26.26 0 00-.16-.242.26.26 0 00-.1-.02m-19.728 5.762c-.04-1.709 1.14-3.96 2.17-5.59a7.524 7.524 0 00-.208 1.757v7.115c-.615-.251-1.909-1.045-1.962-3.282zm9.686-5.768l-2.105-4.806a6.982 6.982 0 013.84 0l-1.735 4.806zm9.781 10.591h-7.065V29.55h7.066l-.001 10.063zM4.388 23.415L0 21.924l.456-1.344a2.321 2.321 0 114.389 1.491l-.457 1.343zm-3.265-2.599l-.2.59 3.044 1.033.2-.59a1.55 1.55 0 00-.984-2.102 1.55 1.55 0 00-2.059 1.07m1.427-5.199l1.507-2.508.603.362-1.1 1.831 1.039.624.952-1.586.603.362-.952 1.586 1.125.676 1.1-1.831.603.362-1.506 2.508-3.974-2.386zm7.226-2.307l-.536.58-3.4-3.147 1.05-1.135c.65-.703 1.444-.862 2.073-.28a1.22 1.22 0 01.255 1.549l2.424.417-.6.65-2.32-.403-.395.426 1.45 1.343zm-1.405-2.395c.345-.373.365-.72.06-1.001-.305-.282-.654-.24-1 .133l-.545.59.939.868.546-.59zm6.205-3.035l-.54.36-2.205-1.238 1.787 2.687-.652.434-2.567-3.86.68-.452 2.787 1.59-.389-3.185.686-.456 2.566 3.86-.652.433-1.787-2.688.286 2.514zm6.152-3.247l-1.677.602-.014 1.348-.788.284.107-4.96.788-.284 3.234 3.762-.788.284-.862-1.036zm-1.674-.118l1.217-.437-1.2-1.44-.017 1.877zM26.18.78l-1.403.213.595 3.886-.781.12-.596-3.882-1.397.213-.107-.692 3.583-.55.106.692zm4.282 4.028a2.393 2.393 0 01-2.279-2.572 2.448 2.448 0 114.639 1.253 2.395 2.395 0 01-2.36 1.32zM30.746.7a1.65 1.65 0 00-1.753 1.591 1.642 1.642 0 103.274.224A1.652 1.652 0 0030.742.7m5.35.217l.758.223-1.104 3.752 1.934.567-.204.694-2.692-.79L36.092.917zm4.683 6.89a2.407 2.407 0 113.3-.95 2.394 2.394 0 01-3.3.95zm1.968-3.62a1.652 1.652 0 00-2.257.716 1.644 1.644 0 102.883 1.568 1.652 1.652 0 00-.626-2.284zm3.115 3.976a2.384 2.384 0 013.42-.086 2.187 2.187 0 01.557 2.614l-.63-.592a1.37 1.37 0 00-.41-1.518 1.633 1.633 0 00-2.343.137 1.597 1.597 0 000 2.399c.629.591 1.349.638 1.718.246l.151-.161-.99-.932.458-.487 1.556 1.463-1.684 1.79-.542-.509.597-.634-.005-.004a1.596 1.596 0 01-1.831-.4 2.273 2.273 0 01-.022-3.326zm3.493 7.177l-.464-.64 3.75-2.722.464.64-3.75 2.722zm2.31 1.022l.372.728a.798.798 0 00-.323 1.09.626.626 0 00.86.373c.298-.152.415-.482.366-.962l-.055-.52a1.482 1.482 0 01.729-1.59 1.306 1.306 0 011.76.715 1.42 1.42 0 01-.516 1.948l-.371-.727a.723.723 0 00.294-.955.586.586 0 00-.79-.296c-.284.146-.389.446-.349.892l.05.524a1.51 1.51 0 01-.724 1.655 1.38 1.38 0 01-1.845-.781 1.532 1.532 0 01.545-2.099m5.553 7.087l-.397-1.363-3.774 1.1-.22-.76 3.773-1.099-.395-1.355.675-.197 1.013 3.478-.675.196zM2.485 41.463l-.289-.736 4.315-1.688.564 1.44c.349.892.145 1.676-.653 1.988a1.22 1.22 0 01-1.505-.446l-1.431 1.998-.322-.823 1.373-1.91-.213-.543-1.84.72zm2.768-.219c.185.474.489.64.875.491.387-.147.5-.484.316-.957l-.294-.748-1.19.466.293.748zm3.373 2.524l1.621 2.437-.585.389-1.183-1.78-1.01.672 1.024 1.539-.586.39-1.021-1.541-1.093.727 1.182 1.779-.586.389-1.621-2.436 3.859-2.565zm.901 5.285a2.38 2.38 0 013.418-.086 2.229 2.229 0 01.538 2.712l-.624-.587a1.41 1.41 0 00-.396-1.622 1.714 1.714 0 00-2.343 2.492 1.41 1.41 0 001.644.295l.623.587a2.23 2.23 0 01-2.74-.37 2.383 2.383 0 01-.119-3.421m6.01 7.628a2.409 2.409 0 113.296-.958 2.392 2.392 0 01-3.297.958zm1.958-3.62a1.713 1.713 0 10.63 2.282 1.652 1.652 0 00-.63-2.282zm5.788 5.313l-.634-.142-.639-2.446-.696 3.152-.765-.169 1-4.525.798.176.787 3.109 2.025-2.485.804.178-.997 4.524-.766-.17.697-3.151-1.614 1.949zm7.477.488l-.648.04-1.291-2.173.202 3.221-.781.05-.287-4.63.816-.05 1.616 2.768 1.258-2.95.822-.052.29 4.625-.781.05-.202-3.223-1.014 2.324zm3.7-4.253l2.792-.876.213.671-2.038.639.363 1.156 1.763-.553.213.671-1.763.553.392 1.252 2.038-.639.213.671-2.798.876-1.388-4.42zm6.833 2.409l-2.338-4 .67-.392 3.62 1.864-1.731-2.967.67-.392 2.338 4-.676.395-3.59-1.817 1.704 2.92-.667.389zm5.75-3.824l-3.237-3.31 1.014-.994a2.322 2.322 0 113.243 3.31l-1.02.994zm-1.737-3.792l-.442.432 2.25 2.295.447-.432a1.606 1.606 0 00-.467-2.673 1.608 1.608 0 00-1.782.377m2.342-3.684l1.58-2.462.592.38-1.157 1.797 1.022.654.998-1.554.591.379-.998 1.555 1.104.71 1.154-1.797.59.38-1.58 2.461-3.896-2.503zm6.773-2.509l-4.353-1.59.487-1.334a2.323 2.323 0 114.353 1.59l-.487 1.334zm-3.204-2.674l-.213.586 3.019 1.103.213-.585a1.61 1.61 0 10-3.02-1.104z" fill="#1B1B1B"/></svg>