<svg width="40" height="40" fill="none" xmlns="http://www.w3.org/2000/svg"><path d="M21.275 34.027l-15.3-15.302m15.3 15.302a9.012 9.012 0 006.403 2.737 9.017 9.017 0 006.347-15.489m-12.75 12.752l12.75-12.752m-28.05-2.55a9.016 9.016 0 0112.75-12.75m-12.75 12.75l12.75-12.75m15.3 15.3l-15.3-15.3" stroke="#8D89DA" stroke-width="1.5" stroke-linecap="round"/><path d="M16.426 20.86a1.104 1.104 0 10-1.562-1.561 1.104 1.104 0 001.562 1.561zm4.714 4.715a1.104 1.104 0 10-1.561-1.561 1.104 1.104 0 001.561 1.561zm0-9.43a1.104 1.104 0 10-1.561-1.561 1.104 1.104 0 001.561 1.561zm4.713 4.715a1.104 1.104 0 10-1.562-1.561 1.104 1.104 0 001.562 1.561z" fill="#8D89DA"/></svg>