<svg width="71" height="60" fill="none" xmlns="http://www.w3.org/2000/svg"><path d="M6.416 50.073l1.512 2.658 2.233-1.272.32.566-4.824 2.747-.323-.566 2.095-1.19-1.512-2.658-2.095 1.192-.322-.564 4.826-2.746.322.565-2.232 1.268zm-4.283-2.364l-1.018-3.145.55-.178.818 2.528 1.74-.564-.716-2.215.55-.178.716 2.215 1.894-.613-.819-2.527.55-.178L7.417 46l-5.284 1.709z" fill="#1B1B1B"/><mask id="a" style="mask-type:luminance" maskUnits="userSpaceOnUse" x="0" y="0" width="71" height="60"><path d="M70.659 0H0v60h70.659V0z" fill="#fff"/></mask><g mask="url(#a)" fill="#1B1B1B"><path d="M2.63 39.469a1.341 1.341 0 00-.34-.84.863.863 0 00-.719-.184.858.858 0 00-.65.358 1.334 1.334 0 00-.122.897l.139 1.098 1.832-.23-.14-1.1zm.6.134l.112.893 2.537-.32.082.643-5.51.695-.222-1.72a2.715 2.715 0 010-.751c.03-.214.102-.42.211-.606.105-.172.249-.317.419-.425.191-.116.406-.189.628-.212a1.36 1.36 0 011.02.222c.288.224.495.534.591.886l2.36-2.021.091.732-2.32 1.984zm2.497-6.94a2.811 2.811 0 01-.992 1.917 2.89 2.89 0 01-2.11.646 2.86 2.86 0 01-1.969-.994 2.781 2.781 0 01-.646-2.056c.023-.283.087-.56.19-.825.1-.258.239-.499.411-.715a2.314 2.314 0 011.397-.843l-.06.711a1.455 1.455 0 00-.548.232c-.16.11-.3.246-.416.402a2.018 2.018 0 00-.274.517 2.266 2.266 0 00-.125.57 2.083 2.083 0 00.511 1.561 2.319 2.319 0 001.587.774c.314.03.632 0 .934-.093.279-.082.539-.219.765-.401a2.084 2.084 0 00.768-1.452 2.15 2.15 0 00-.026-.583 2.013 2.013 0 00-.183-.554 1.716 1.716 0 00-.342-.468 1.47 1.47 0 00-.5-.322l.06-.712a2.323 2.323 0 011.233 1.067c.133.242.229.502.284.773.057.279.074.564.05.848zm.747-6.553a1.388 1.388 0 00-.086-1.215 1.96 1.96 0 00-1.111-.753l-3.171-1.018.198-.62 3.263 1.048c.3.093.584.235.837.421.222.165.407.375.54.616.13.24.204.507.216.78a2.819 2.819 0 01-.56 1.741 1.78 1.78 0 01-.628.511 1.92 1.92 0 01-.797.188 2.802 2.802 0 01-.928-.148L.984 26.615l.199-.617 3.175 1.017c.43.169.904.18 1.342.034a1.39 1.39 0 00.777-.938m-2.729-6.728l.316-.57 4.35 2.412 1.234-2.223.505.28-1.55 2.793-4.855-2.692zm4.891-6.065l1.37 2.374 1.213-1.464-2.583-.91zm2.132 4.976l-2.92-5.182.444-.531 5.63 1.903-.444.531-1.68-.59-1.486 1.792.894 1.544-.438.533zm4.474-5.044L11.81 8.888l.523-.412 5.048 1.765-2.79-3.544.51-.402 3.436 4.362-.524.412-5.05-1.772 2.794 3.55-.51.403zm2.865-8.797l2.953-1.482.26.517-2.373 1.191.82 1.635 2.08-1.043.26.516-2.08 1.044.892 1.779 2.375-1.192.259.516-2.953 1.484-2.494-4.965zm8.626-3.433l.105.568 1.745-.323.913 4.89.64-.119-.914-4.892L30.97.82l-.107-.567-4.127.767zM33.763 0l-.097 5.553.65.012.045-2.568 3.058.054-.05 2.569.65.01.102-5.555-.65-.009-.043 2.407-3.058-.053.046-2.408L33.763 0zm6.632 5.985l3.225.722.13-.565-2.592-.579.435-1.943 2.27.508.126-.564-2.27-.507.4-1.787 2.593.58.126-.562L41.61.565l-1.215 5.42zm8.077-.789c.274.149.59.197.896.135a.85.85 0 00.524-.524.852.852 0 00.026-.738 1.335 1.335 0 00-.71-.563l-1.015-.443-.738 1.693 1.017.44zm-.42.448l-.825-.359-1.018 2.34-.596-.258 2.215-5.095 1.589.692c.232.097.45.227.646.385.169.134.31.3.413.49.095.178.147.376.152.577a1.5 1.5 0 01-.138.65 1.362 1.362 0 01-.712.763 1.708 1.708 0 01-1.063.059l.536 3.059-.68-.296-.52-3.007zm5.751 5.232l-.543-.402.634-3.623-2.495 3.374-.524-.386 3.302-4.466.536.397-.79 4.374 3.952-2.039.536.397-3.306 4.465-.517-.386 2.495-3.374-3.28 1.669zm7.853 2.064l-2.572.941 1.235 1.447 1.337-2.389zm-5.267 1.246l5.605-1.989.448.525-2.843 5.224-.45-.527.87-1.55-1.511-1.772-1.67.613-.45-.524zm8.986 2.552l.323.566-4.321 2.468 1.263 2.215-.502.285-1.585-2.773 4.822-2.761zm3.885 8.281l.13.629-4.18 1.892 4.303.394.131.63-3.791 2.07 4.588.074.131.628-5.7-.129-.125-.603 3.943-2.172-4.481-.422-.125-.605 5.176-2.386zm.653 11.017l-2.55-1.002-.035 1.9 2.585-.898zm-4.77-2.56l5.514 2.227-.012.691-5.592 2.025.013-.691 1.68-.59.043-2.32-1.657-.649.011-.694zm3.887 10.671l.339-1.744-4.883-.95.125-.637 4.884.955.34-1.742.567.112-.804 4.118-.568-.112zm-.273 2.792l-1.208 3.078-.538-.211.971-2.474-1.703-.665-.85 2.163-.537-.21.85-2.168-1.852-.73-.972 2.471-.537-.21 1.208-3.073 5.168 2.029zm-5.632 6.07a1.341 1.341 0 00-.27.864 1.01 1.01 0 001.167.738c.285-.122.52-.34.664-.616l.59-.935-1.56-.99-.59.939zm-.374-.486l.481-.76-2.155-1.365.346-.549 4.693 2.969-.929 1.468a2.73 2.73 0 01-.48.578c-.16.147-.345.26-.548.333a1.29 1.29 0 01-.59.06 1.51 1.51 0 01-.62-.234 1.362 1.362 0 01-.645-.822 1.698 1.698 0 01.105-1.058l-3.104.059.395-.626 3.051-.053zM52.694 17.992A24.558 24.558 0 0035.32 10.77h-.029a24.62 24.62 0 00-23.94 30.228v.115h.03A24.655 24.655 0 0035.29 60h.029a24.655 24.655 0 0023.91-18.887h.018v-.115a24.524 24.524 0 00-6.554-23.007zM35.29 12.075h.029a23.355 23.355 0 0122.588 17.669c-7.935-.6-10-6.35-10.018-6.404l-.62-1.816-.618 1.816a9.156 9.156 0 01-2.34 3.323c-1.703 1.58-4.51 3.13-8.992 3.14h-.029c-8.982-.02-11.237-6.202-11.332-6.461l-.619-1.817-.618 1.817c-.02.057-2.084 5.804-10.019 6.403a23.354 23.354 0 0122.588-17.67zm.029 46.622h-.029a23.27 23.27 0 01-18.053-8.62 11.875 11.875 0 006.1-5.033 11.45 11.45 0 001.93 2.426c1.714 1.655 4.844 3.634 10.02 3.634h.028c5.168 0 8.307-1.98 10.02-3.634.744-.72 1.39-1.536 1.919-2.426a11.906 11.906 0 006.108 5.033 23.283 23.283 0 01-18.043 8.62zM54.197 49a10.16 10.16 0 01-6.308-5.67l-.629-1.8-.609 1.8a9.06 9.06 0 01-2.34 3.33c-1.703 1.579-4.51 3.13-8.992 3.14h-.029c-8.982-.02-11.236-6.202-11.332-6.47l-.609-1.799-.628 1.799A10.161 10.161 0 0116.414 49a23.162 23.162 0 01-3.701-7.934c6.441-.457 9.45-4.072 10.618-6.042a11.054 11.054 0 001.94 2.445c1.714 1.656 4.844 3.635 10.02 3.645h.028c5.168-.01 8.307-1.989 10.019-3.645a10.97 10.97 0 001.931-2.445c1.17 1.97 4.178 5.585 10.632 6.042A23.52 23.52 0 0154.197 49zm3.987-9.249c-8.164-.485-10.276-6.356-10.295-6.412l-.619-1.817-.619 1.817a9.067 9.067 0 01-2.34 3.322c-1.703 1.589-4.51 3.12-8.992 3.14h-.029c-8.982-.02-11.236-6.202-11.332-6.461l-.618-1.817-.619 1.817c-.02.057-2.141 5.928-10.295 6.413a22.947 22.947 0 01-.01-8.677c6.645-.362 9.725-4.054 10.914-6.054a11.054 11.054 0 001.941 2.445c1.713 1.655 4.853 3.635 10.019 3.644h.029c5.168-.01 8.306-1.988 10.018-3.644a10.976 10.976 0 001.932-2.445c1.19 1.998 4.272 5.69 10.923 6.054.271 1.42.408 2.864.409 4.31a23.598 23.598 0 01-.419 4.367"/></g></svg>