<svg width="40" height="40" fill="none" xmlns="http://www.w3.org/2000/svg"><g clip-path="url(#clip0_439_11101)"><path d="M20.52 13.844a3.353 3.353 0 00-.634 1.965 3.376 3.376 0 003.373 3.373c.733 0 1.411-.236 1.965-.634l2.825 2.825a.547.547 0 00.774 0l8.35-8.35a7.139 7.139 0 002.098-5.084 7.139 7.139 0 00-2.098-5.084A7.139 7.139 0 0032.09.757a7.139 7.139 0 00-5.084 2.098l-3.507 3.507a2.345 2.345 0 00-3.173 3.173l-1.67 1.67a.547.547 0 000 .774l1.865 1.865zm2.739 4.244a2.281 2.281 0 01-2.279-2.279 2.281 2.281 0 012.279-2.278 2.281 2.281 0 012.279 2.278 2.281 2.281 0 01-2.28 2.28zm-.873-10.914c.688 0 1.248.56 1.248 1.248a1.25 1.25 0 01-1.248 1.249 1.25 1.25 0 01-1.248-1.249c0-.688.56-1.248 1.248-1.248zm-1.328 3.176c.377.26.835.414 1.328.414a2.345 2.345 0 002.342-2.342c0-.493-.154-.95-.415-1.328l3.466-3.466a6.053 6.053 0 014.31-1.777c1.634 0 3.165.631 4.31 1.777a6.053 6.053 0 011.778 4.311 6.053 6.053 0 01-1.777 4.31l-7.964 7.964-2.439-2.439a3.353 3.353 0 00.634-1.965 3.376 3.376 0 00-3.372-3.372c-.733 0-1.411.236-1.965.634l-1.479-1.479 1.242-1.242zm-18.62 2.776a2.33 2.33 0 001.777-.234c.541-.312.91-.808 1.074-1.363a3.956 3.956 0 004.598.01c.17.582.55 1.069 1.077 1.373a2.344 2.344 0 003.433-2.634 2.327 2.327 0 00-1.091-1.422 2.326 2.326 0 00-1.75-.24A3.98 3.98 0 009.28 4.692a2.33 2.33 0 00.657-1.624A2.345 2.345 0 007.594.726a2.345 2.345 0 00-2.342 2.342c0 .63.25 1.203.657 1.624a3.98 3.98 0 00-2.278 3.905 2.326 2.326 0 00-1.757.239c-.542.313-.93.818-1.091 1.422a2.327 2.327 0 00.234 1.777c.313.542.818.93 1.422 1.091zm9.699-3.49a1.25 1.25 0 011.079 1.873 1.25 1.25 0 01-1.705.456 1.25 1.25 0 01.626-2.33zm-5.79-6.568c0-.688.559-1.248 1.247-1.248.689 0 1.248.56 1.248 1.248a1.25 1.25 0 01-1.248 1.248 1.25 1.25 0 01-1.248-1.248zM7.593 5.41a2.886 2.886 0 012.883 2.882 2.886 2.886 0 01-2.883 2.883 2.886 2.886 0 01-2.882-2.883A2.886 2.886 0 017.594 5.41zM1.84 10.54a1.24 1.24 0 01.582-.757 1.25 1.25 0 11-.582.758zm37.377 21.918a2.327 2.327 0 00-1.09-1.422 2.334 2.334 0 00-1.734-.244 3.98 3.98 0 00-2.279-3.947c.408-.421.66-.995.66-1.627a2.345 2.345 0 00-2.342-2.342 2.345 2.345 0 00-2.342 2.342c0 .632.252 1.206.66 1.627a3.98 3.98 0 00-2.28 3.93 2.325 2.325 0 00-1.75.24 2.33 2.33 0 00-1.09 1.423 2.343 2.343 0 003.433 2.634 2.333 2.333 0 001.077-1.379c.648.46 1.439.73 2.292.73.845 0 1.628-.265 2.272-.715.168.587.55 1.078 1.08 1.384a2.344 2.344 0 003.433-2.634zm-6.785-8.488c.689 0 1.249.56 1.249 1.248a1.25 1.25 0 01-1.248 1.248 1.25 1.25 0 01-1.249-1.248c0-.688.56-1.248 1.248-1.248zm-3.916 10.155a1.25 1.25 0 01-1.83-1.404 1.24 1.24 0 01.582-.758 1.24 1.24 0 01.947-.125 1.25 1.25 0 01.301 2.287zm3.916-.795a2.886 2.886 0 01-2.882-2.882 2.886 2.886 0 012.883-2.883 2.886 2.886 0 012.882 2.883 2.886 2.886 0 01-2.883 2.882zm5.604.358a1.25 1.25 0 01-1.705.457 1.25 1.25 0 01.627-2.33c.211 0 .425.055.621.168.29.167.496.436.582.758a1.24 1.24 0 01-.125.947zm-8.67-17.99a2.345 2.345 0 002.341-2.343 2.345 2.345 0 00-2.342-2.342 2.345 2.345 0 00-2.342 2.342 2.345 2.345 0 002.342 2.342zm0-3.591c.688 0 1.248.56 1.248 1.248a1.25 1.25 0 01-1.249 1.248 1.25 1.25 0 01-1.248-1.248c0-.688.56-1.248 1.248-1.248zM12.653 16.36a2.345 2.345 0 002.341 2.342 2.345 2.345 0 002.342-2.342 2.344 2.344 0 00-2.342-2.342 2.345 2.345 0 00-2.341 2.342zm2.341-1.248c.689 0 1.249.56 1.249 1.248a1.25 1.25 0 01-1.249 1.249 1.25 1.25 0 01-1.248-1.249c0-.688.56-1.248 1.248-1.248zm11.444 7.351a2.345 2.345 0 00-2.341-2.342 2.345 2.345 0 00-2.342 2.342 2.345 2.345 0 002.342 2.342 2.345 2.345 0 002.341-2.342zm-2.341 1.248a1.25 1.25 0 01-1.249-1.248 1.25 1.25 0 012.497 0 1.25 1.25 0 01-1.248 1.248zm-3.114 2.385c-.448 0-.867.127-1.223.346l-.698-.7a3.484 3.484 0 001.395-2.787 3.491 3.491 0 00-3.487-3.487 3.483 3.483 0 00-2.788 1.395l-2.207-2.206a.547.547 0 00-.773 0l-8.35 8.35a7.139 7.139 0 00-2.098 5.084c0 1.926.745 3.731 2.098 5.084a7.139 7.139 0 005.084 2.098 7.139 7.139 0 005.084-2.098l6.74-6.74a2.345 2.345 0 003.565-1.996 2.345 2.345 0 00-2.342-2.343zm-4.013-5.535a2.396 2.396 0 012.393 2.394 2.396 2.396 0 01-2.393 2.393 2.396 2.396 0 01-2.393-2.393 2.396 2.396 0 012.393-2.394zm-4.724 15.84a6.052 6.052 0 01-4.31 1.778 6.052 6.052 0 01-4.311-1.777 6.052 6.052 0 01-1.778-4.311c0-1.633.632-3.164 1.778-4.31l7.964-7.964 2.064 2.064a3.491 3.491 0 004.39 4.391l.944.943a2.328 2.328 0 00-.346 1.223c0 .448.127.867.346 1.223l-6.74 6.74zm8.737-6.715a1.25 1.25 0 01-1.248-1.248 1.249 1.249 0 012.496 0 1.25 1.25 0 01-1.248 1.248z" fill="#8D89DA"/></g><defs><clipPath id="clip0_439_11101"><path fill="#fff" d="M0 0h40v40H0z"/></clipPath></defs></svg>