<svg width="18" height="19" fill="none" xmlns="http://www.w3.org/2000/svg"><g clip-path="url(#clip0_180_6008)"><path d="M18 9.5c0-4.875-3.827-9-9-9-4.963 0-9 4.037-9 9s4.037 9 9 9c5.384 0 9-4.25 9-9zm-.773.625l-2.388-.966a.2.2 0 01-.104-.13l-.47-1.879a.207.207 0 01.105-.228l1.955-1.217a8.196 8.196 0 01.902 4.42zM9 1.25c.071 0 .143 0 .214.003-.482.647-1.23 1.653-1.369 1.867a1.41 1.41 0 00-.024 1.498l.55.917-.525-.263a1.341 1.341 0 00-1.556.253l-.396.397a1.337 1.337 0 00-.395.953c0 .128.017.254.053.375h-1.35a.303.303 0 01-.221-.096L2.012 5.12A8.25 8.25 0 019 1.25zm0 16.5C4.451 17.75.75 14.049.75 9.5c0-1.329.317-2.585.877-3.699l1.812 1.871c.198.208.475.328.763.328h1.46a.81.81 0 01.577.239l.28.28a.797.797 0 01.232.559V9.8c0 .292.113.565.318.769l.892.892c.187.187.29.435.29.698v1.774c0 .451.367.818.817.818h.16a.82.82 0 00.742-.475l1.68-3.641a.947.947 0 00-.358-1.201L9.371 8.232A1.526 1.526 0 008.563 8H7.49a.883.883 0 01-.622-.258l-.444-.444a.595.595 0 010-.846l.397-.398a.595.595 0 01.69-.11l.66.329a.698.698 0 00.813-.133.705.705 0 00.109-.861l-.629-1.047a.663.663 0 01.012-.705c.143-.221 1.122-1.536 1.623-2.204a8.264 8.264 0 015.85 3.732l-1.964 1.223a.955.955 0 00-.447 1.052l.47 1.879c.067.27.248.496.524.632l2.6 1.052c-.664 3.887-4.057 6.855-8.131 6.855L9 17.75zm-.51-6.82l-.892-.893a.333.333 0 01-.098-.238v-.722c0-.11-.013-.22-.036-.328h1.099c.144 0 .287.04.41.117l1.922 1.203c.084.052.116.16.075.25l-1.742 3.68h-.16a.068.068 0 01-.067-.067v-1.774c0-.463-.181-.9-.51-1.228z" fill="#000"/></g><defs><clipPath id="clip0_180_6008"><path fill="#fff" transform="translate(0 .5)" d="M0 0h18v18H0z"/></clipPath></defs></svg>