<svg width="17" height="17" fill="none" xmlns="http://www.w3.org/2000/svg"><path d="M16.417 11.817c0 2.882-1.718 4.6-4.6 4.6h-.942a.794.794 0 01-.792-.792v-4.568c0-.213.174-.396.388-.396l1.393-.023a.253.253 0 00.23-.198l.277-1.512a.24.24 0 00-.237-.277l-1.687.023a.402.402 0 01-.403-.388l-.032-1.94c0-.126.103-.237.237-.237l1.9-.031a.233.233 0 00.238-.238l-.032-1.9a.233.233 0 00-.237-.237l-2.138.031A2.372 2.372 0 007.645 6.15l.04 2.177a.392.392 0 01-.388.404l-.95.016a.233.233 0 00-.238.237l.024 1.504c0 .135.103.238.237.238l.95-.016c.222 0 .396.174.404.388l.071 4.512a.792.792 0 01-.791.808H5.183c-2.882 0-4.6-1.718-4.6-4.608V5.183c0-2.882 1.718-4.6 4.6-4.6h6.634c2.882 0 4.6 1.718 4.6 4.6v6.634z" fill="#8D89DA"/></svg>