<svg width="16" height="16" fill="none" xmlns="http://www.w3.org/2000/svg"><g clip-path="url(#clip0_269_2075)" fill="#8D89DA"><path fill-rule="evenodd" clip-rule="evenodd" d="M4.953 4.625a1.5 1.5 0 110-.75h10.172a.375.375 0 010 .75H4.953zM4.25 4.25a.75.75 0 11-1.5 0 .75.75 0 011.5 0z"/><path d="M.875 4.625h1.172a1.501 1.501 0 010-.75H.875a.375.375 0 100 .75z"/><path fill-rule="evenodd" clip-rule="evenodd" d="M9.453 11.375a1.5 1.5 0 00-2.906 0H.875a.375.375 0 000 .75h5.672a1.5 1.5 0 002.906 0h5.672a.375.375 0 000-.75H9.453zM8 12.5A.75.75 0 108 11a.75.75 0 000 1.5zm5.953-4.875a1.5 1.5 0 00-2.906 0H.875a.375.375 0 000 .75h10.172a1.5 1.5 0 002.906 0h1.172a.375.375 0 000-.75h-1.172zM12.5 8.75a.75.75 0 100-1.5.75.75 0 000 1.5z"/></g><defs><clipPath id="clip0_269_2075"><path fill="#fff" transform="translate(.5 .5)" d="M0 0h15v15H0z"/></clipPath></defs></svg>