<svg width="39" height="38" fill="none" xmlns="http://www.w3.org/2000/svg"><g clip-path="url(#clip0_245_1004)"><path d="M19.5 38C9.018 38 .5 29.482.5 19s8.518-19 19-19 19 8.518 19 19-8.518 19-19 19zm0-36.417C9.89 1.583 2.083 9.39 2.083 19c0 9.61 7.806 17.417 17.417 17.417 9.61 0 17.417-7.806 17.417-17.417 0-9.61-7.806-17.417-17.417-17.417zm0 26.917a2.893 2.893 0 01-1.852-.665C14.798 25.475 10 20.915 10 16.799c0-3.15 2.312-5.716 5.146-5.716 1.837 0 3.436 1.061 4.354 2.676.918-1.599 2.517-2.676 4.354-2.676 2.834 0 5.146 2.565 5.146 5.716 0 4.117-4.797 8.677-7.648 11.036a2.924 2.924 0 01-1.852.665zm-4.354-15.833c-1.964 0-3.563 1.852-3.563 4.132 0 3.594 4.94 8.06 7.078 9.817.49.412 1.187.412 1.694 0 2.122-1.758 7.062-6.223 7.062-9.817 0-2.28-1.6-4.132-3.563-4.132s-3.562 1.852-3.562 4.132a.784.784 0 01-.792.792.784.784 0 01-.792-.792c0-2.28-1.599-4.132-3.562-4.132z" fill="#8D89DA"/></g><defs><clipPath id="clip0_245_1004"><path fill="#fff" transform="translate(.5)" d="M0 0h38v38H0z"/></clipPath></defs></svg>