<svg width="18" height="19" fill="none" xmlns="http://www.w3.org/2000/svg"><g clip-path="url(#clip0_180_6000)"><path d="M14.625 2h-9A3.37 3.37 0 002.25 5.375v6.75A3.37 3.37 0 005.625 15.5h9A3.37 3.37 0 0018 12.125v-6.75A3.37 3.37 0 0014.625 2zm0 .75c.713 0 1.365.285 1.837.75l-4.477 4.478a2.62 2.62 0 01-3.712 0L3.787 3.5a2.616 2.616 0 011.838-.75h9zm2.625 9.375a2.628 2.628 0 01-2.625 2.625h-9A2.628 2.628 0 013 12.125v-6.75c0-.465.12-.893.33-1.275l4.41 4.41c.66.66 1.522.99 2.385.99.863 0 1.725-.33 2.385-.99l4.41-4.41c.21.375.33.81.33 1.275v6.75zm-3.75 5.25c0 .21-.165.375-.375.375h-9.75A3.38 3.38 0 010 14.375v-8.25c0-.21.165-.375.375-.375s.375.165.375.375v8.25A2.628 2.628 0 003.375 17h9.75c.21 0 .375.165.375.375z" fill="#000"/></g><defs><clipPath id="clip0_180_6000"><path fill="#fff" transform="translate(0 .5)" d="M0 0h18v18H0z"/></clipPath></defs></svg>