<svg width="48" height="40" fill="none" xmlns="http://www.w3.org/2000/svg"><g clip-path="url(#clip0_88_1587)"><path d="M4.87 33.382l1.008 1.772 1.488-.848.214.377-3.216 1.832-.216-.377 1.397-.794-1.008-1.772-1.397.795-.214-.376 3.217-1.831.215.377-1.488.845zm-2.855-1.576l-.68-2.097.367-.118.545 1.685 1.161-.376-.477-1.477.366-.118.477 1.476 1.263-.408-.546-1.685.367-.119.679 2.097-3.522 1.14z" fill="#1B1B1B"/><mask id="a" style="mask-type:luminance" maskUnits="userSpaceOnUse" x="0" y="0" width="48" height="40"><path d="M47.7 0H.594v40H47.7V0z" fill="#fff"/></mask><g mask="url(#a)" fill="#1B1B1B"><path d="M2.349 26.313a.894.894 0 00-.227-.56.575.575 0 00-.48-.123.572.572 0 00-.433.239.89.89 0 00-.081.598l.092.731 1.222-.153-.093-.733zm.4.089l.074.595 1.691-.213.055.429-3.673.463-.148-1.146a1.81 1.81 0 010-.502c.02-.142.067-.28.14-.403a.869.869 0 01.28-.284.987.987 0 01.419-.14.908.908 0 01.68.147c.191.15.33.356.394.59l1.572-1.347.062.488-1.547 1.323zm1.664-4.627a1.873 1.873 0 01-.662 1.278 1.927 1.927 0 01-1.406.431 1.906 1.906 0 01-1.313-.663 1.855 1.855 0 01-.43-1.37c.015-.189.057-.374.126-.55a1.85 1.85 0 01.275-.477 1.543 1.543 0 01.931-.562l-.04.474a.971.971 0 00-.365.155 1.16 1.16 0 00-.278.268 1.346 1.346 0 00-.183.345c-.044.122-.071.25-.083.38a1.388 1.388 0 00.34 1.04 1.546 1.546 0 001.059.516c.21.02.42 0 .622-.062.186-.055.36-.146.51-.268a1.387 1.387 0 00.513-.968c.011-.13.005-.26-.018-.388a1.342 1.342 0 00-.122-.37 1.145 1.145 0 00-.228-.312.981.981 0 00-.334-.214l.04-.475a1.548 1.548 0 01.823.712c.088.161.152.335.189.515a2 2 0 01.034.565zm.497-4.368a.926.926 0 00-.058-.81 1.307 1.307 0 00-.74-.502l-2.114-.679.132-.413 2.175.699c.2.061.39.156.558.28a1.202 1.202 0 01.504.93 1.88 1.88 0 01-.372 1.162c-.112.143-.255.26-.42.34a1.28 1.28 0 01-.53.125c-.211.002-.42-.03-.62-.098l-2.175-.698.132-.411 2.117.678c.286.112.603.12.895.023a.929.929 0 00.517-.626m-1.817-4.485l.21-.38 2.9 1.608.823-1.482.337.186-1.034 1.863-3.236-1.795zm3.259-4.043l.913 1.582.809-.975-1.722-.607zm1.421 3.317L5.828 8.741l.295-.354 3.753 1.269-.295.354-1.12-.393-.99 1.194.595 1.03-.292.355zm2.986-3.363L8.469 5.925l.349-.275 3.365 1.177-1.86-2.362.34-.269 2.29 2.909-.348.275-3.368-1.182 1.864 2.366-.341.27zm1.908-5.864l1.969-.988.173.344-1.581.795.546 1.09 1.386-.696.174.344-1.387.696.595 1.186 1.583-.795.173.345-1.969.988-1.662-3.31zM18.418.68l.07.379L19.65.843l.609 3.26.426-.079-.609-3.261L21.24.547l-.072-.379-2.751.512zM23.104 0l-.065 3.702.433.008.03-1.712 2.039.036-.033 1.713.433.006.068-3.703-.434-.006-.028 1.605-2.038-.036.03-1.605L23.103 0zm4.419 3.99l2.15.481.088-.376-1.729-.386.29-1.296 1.514.339.084-.376-1.514-.338.268-1.191 1.728.387.084-.376-2.153-.481-.81 3.613zm5.387-.526a.88.88 0 00.597.09.566.566 0 00.35-.35.569.569 0 00.016-.492.89.89 0 00-.473-.375l-.676-.295-.493 1.129.679.293zm-.28.298l-.55-.238-.679 1.56-.397-.173 1.476-3.396 1.06.46c.155.066.3.152.43.258.113.09.206.2.276.326.063.12.097.25.1.385a1 1 0 01-.091.433.91.91 0 01-.475.509 1.139 1.139 0 01-.708.04l.357 2.038-.453-.196-.347-2.006zm3.834 3.488l-.362-.267.422-2.416-1.663 2.25-.35-.257 2.202-2.978.358.265-.527 2.916 2.634-1.36.358.265-2.205 2.977-.344-.257 1.663-2.25-2.186 1.113zm5.235 1.376l-1.715.628.824.965.89-1.593zm-3.511.831l3.736-1.325.299.35-1.895 3.482-.3-.351.58-1.034L39.6 9.398l-1.113.409-.3-.35zm5.992 1.702l.215.377-2.88 1.645.841 1.477-.334.19L40.965 13l3.215-1.84zm2.587 5.521l.087.419-2.786 1.261 2.868.263.087.42-2.527 1.38 3.058.049.088.419-3.8-.086-.084-.402 2.63-1.448-2.988-.281-.084-.404 3.451-1.59zm.438 7.344l-1.7-.668-.023 1.267 1.723-.6zm-3.18-1.707l3.676 1.485-.008.46-3.728 1.35.009-.46 1.12-.394.028-1.546-1.105-.433.008-.462zm2.59 7.114l.226-1.162-3.255-.633.083-.425 3.256.637.226-1.162.378.075-.536 2.745-.378-.075zm-.18 1.862l-.806 2.051-.358-.14.647-1.65-1.136-.443-.566 1.442-.358-.14.566-1.445-1.234-.487-.648 1.648-.358-.14.805-2.05 3.446 1.354zM42.68 35.34a.894.894 0 00-.18.575.675.675 0 00.778.492.9.9 0 00.442-.41l.394-.624-1.04-.66-.394.626zm-.25-.325l.321-.506-1.437-.91.23-.366 3.13 1.979-.62.978a1.823 1.823 0 01-.32.386 1.08 1.08 0 01-.365.222.859.859 0 01-.394.04 1.006 1.006 0 01-.413-.156.908.908 0 01-.43-.548 1.132 1.132 0 01.07-.706l-2.07.04.264-.417 2.034-.035zm-6.707-23.021A16.373 16.373 0 0024.14 7.181h-.019a16.414 16.414 0 00-15.96 20.152v.076h.02a16.437 16.437 0 0015.94 12.592h.02a16.436 16.436 0 0015.94-12.592h.011v-.076a16.35 16.35 0 00-4.37-15.339zM24.12 8.05h.02a15.569 15.569 0 0115.058 11.78c-5.29-.4-6.667-4.234-6.679-4.27l-.412-1.211-.413 1.211a6.102 6.102 0 01-1.56 2.215c-1.136 1.053-3.007 2.087-5.995 2.094h-.019c-5.988-.013-7.491-4.135-7.554-4.308l-.413-1.211-.412 1.211c-.013.038-1.39 3.87-6.68 4.27A15.569 15.569 0 0124.122 8.05zm.02 31.081h-.02a15.513 15.513 0 01-12.035-5.747 7.917 7.917 0 004.066-3.355c.354.595.787 1.14 1.288 1.617 1.142 1.104 3.229 2.423 6.679 2.423h.019c3.445 0 5.538-1.32 6.68-2.423a7.784 7.784 0 001.279-1.617 7.937 7.937 0 004.072 3.355 15.522 15.522 0 01-12.029 5.747zm12.584-6.464a6.774 6.774 0 01-4.205-3.78l-.42-1.2-.405 1.2a6.04 6.04 0 01-1.56 2.22c-1.136 1.052-3.007 2.086-5.995 2.093h-.02c-5.987-.013-7.49-4.135-7.554-4.313l-.406-1.2-.419 1.2a6.773 6.773 0 01-4.205 3.78 15.441 15.441 0 01-2.467-5.29c4.294-.304 6.3-2.714 7.079-4.028a7.334 7.334 0 001.294 1.63c1.142 1.104 3.228 2.424 6.679 2.43h.019c3.445-.006 5.538-1.325 6.68-2.43a7.315 7.315 0 001.287-1.63c.78 1.314 2.785 3.724 7.087 4.029a15.68 15.68 0 01-2.469 5.289zm2.658-6.166c-5.442-.323-6.85-4.237-6.863-4.275l-.413-1.212-.412 1.212a6.045 6.045 0 01-1.56 2.215c-1.136 1.059-3.007 2.08-5.995 2.093h-.02c-5.987-.013-7.49-4.135-7.554-4.307l-.412-1.212-.413 1.212c-.013.038-1.427 3.952-6.863 4.275a15.3 15.3 0 01-.007-5.785c4.43-.241 6.483-2.702 7.276-4.036.352.602.788 1.15 1.294 1.63 1.142 1.104 3.235 2.423 6.68 2.43h.019c3.445-.007 5.537-1.326 6.679-2.43a7.313 7.313 0 001.287-1.63c.793 1.332 2.848 3.793 7.282 4.036a15.317 15.317 0 01-.006 5.785"/></g></g><defs><clipPath id="clip0_88_1587"><path fill="#fff" transform="translate(.594)" d="M0 0h47.106v40H0z"/></clipPath></defs></svg>