<svg width="40" height="40" fill="none" xmlns="http://www.w3.org/2000/svg"><g clip-path="url(#clip0_88_1623)"><mask id="a" style="mask-type:luminance" maskUnits="userSpaceOnUse" x="0" y="0" width="40" height="40"><path d="M39.77 0H.243v40h39.529V0z" fill="#fff"/></mask><g mask="url(#a)" fill="#1B1B1B"><path d="M31.308 29.867l-.566-.495a6.95 6.95 0 00.316-9.284l.568-.492c.043.05 4.262 5.04-.316 10.27"/><path d="M28.447 34.18a8.778 8.778 0 01-5.38-1.898l.463-.592a7.897 7.897 0 005.935 1.666 5.812 5.812 0 003.936-2.22c1.291-1.8 1.282-4.49-.024-6.853l.658-.363c1.446 2.616 1.437 5.62-.023 7.655A6.564 6.564 0 0129.57 34.1c-.372.054-.748.08-1.124.08z"/><path d="M24.284 32.044l-.077-.748c.895-.092 1.62-.585 2.587-1.758.36-.47.601-1.02.703-1.603a6.852 6.852 0 01.51-1.48c.587-1.165 1.49-2.125 3.994-3.023l.254.707c-2.526.905-3.15 1.807-3.578 2.653-.202.424-.354.87-.454 1.328a4.385 4.385 0 01-.854 1.897c-.799.97-1.727 1.887-3.09 2.027m-5.874 2.291c-.065-.005-6.577-.55-7.038-7.487l.75-.052a6.948 6.948 0 006.342 6.787l-.054.752z"/><path d="M13.645 32.984c-2.872-.826-4.99-2.957-5.397-5.429a6.56 6.56 0 011.354-4.925 8.65 8.65 0 015.885-3.315l.09.746a7.898 7.898 0 00-5.375 3.02 5.806 5.806 0 00-1.21 4.352c.359 2.187 2.267 4.082 4.862 4.83l-.21.721z"/><path d="M15.425 31.89l-.68-.322c1.145-2.425.95-3.505.653-4.404a6.14 6.14 0 00-.618-1.263 4.38 4.38 0 01-.736-1.944c-.121-1.251-.113-2.556.75-3.618l.583.473c-.567.698-.732 1.56-.586 3.072.077.587.295 1.147.636 1.631.28.442.51.915.684 1.409.41 1.238.45 2.555-.684 4.961m-.615-15.56l-.718-.221c.02-.063 2.018-6.284 8.877-5.174l-.12.742a6.945 6.945 0 00-8.039 4.653z"/><path d="M29.384 16.64l-.747-.08a7.901 7.901 0 00-1.732-5.916 5.812 5.812 0 00-3.968-2.161c-2.213-.137-4.488 1.29-5.8 3.651l-.657-.365c1.453-2.612 4.007-4.2 6.505-4.036a6.56 6.56 0 014.495 2.427 8.652 8.652 0 011.904 6.48"/><path d="M27.949 16.195c-.552-.71-1.355-1.064-2.862-1.263a3.674 3.674 0 00-1.732.253 6.865 6.865 0 01-1.526.35c-1.298.12-2.592-.136-4.68-1.784l.465-.59c2.104 1.66 3.2 1.715 4.145 1.627.467-.054.926-.16 1.368-.319a4.374 4.374 0 012.06-.281c1.246.164 2.516.464 3.357 1.546l-.595.461z"/><path d="M30.725 40H9.289a9.056 9.056 0 01-9.047-9.047V28.84a7.442 7.442 0 012-5.1l.194-.206a7.473 7.473 0 015.321-2.21h3.588a8.304 8.304 0 008.292-8.292v-5.52a7.536 7.536 0 011.716-4.776l.202-.228A7.509 7.509 0 0127.15 0h3.575a9.05 9.05 0 019.046 9.034v21.931A9.05 9.05 0 0130.725 40zM7.755 22.078a6.716 6.716 0 00-4.782 1.98l-.185.197A6.693 6.693 0 00.994 28.84v2.113a8.304 8.304 0 008.295 8.295h21.436a8.298 8.298 0 008.297-8.283V9.035A8.298 8.298 0 0030.725.75H27.15a6.755 6.755 0 00-5.034 2.253l-.192.218a6.775 6.775 0 00-1.535 4.29v5.52a9.057 9.057 0 01-9.044 9.046h-3.59z"/><path d="M21.643 2.972a7.123 7.123 0 00-1.631 4.541v5.519a8.666 8.666 0 01-8.67 8.671H7.755a7.12 7.12 0 00-5.048 2.09l18.936-20.82z"/><path d="M2.804 23.887l-.195-.185 18.936-20.82.203.175a7.025 7.025 0 00-1.6 4.455v5.52a8.815 8.815 0 01-8.805 8.805H7.756a6.955 6.955 0 00-4.952 2.052M20.64 4.275L3.923 22.656a7.23 7.23 0 013.833-1.087h3.587a8.546 8.546 0 008.537-8.536v-5.52c0-1.125.262-2.233.762-3.24"/></g></g><defs><clipPath id="clip0_88_1623"><path fill="#fff" transform="translate(.242)" d="M0 0h39.529v40H0z"/></clipPath></defs></svg>