<svg width="42" height="40" fill="none" xmlns="http://www.w3.org/2000/svg"><g clip-path="url(#clip0_88_1618)"><path d="M20.707 4.691a15.3 15.3 0 1015.3 15.301 15.319 15.319 0 00-15.3-15.3zm0 29.811a14.51 14.51 0 1114.51-14.51 14.526 14.526 0 01-14.51 14.51zm6.508-20.996a1.498 1.498 0 001.01-1.146c.02.009.041.016.063.02l.444.1a.395.395 0 00.17-.772l-.443-.099a.394.394 0 00-.23.018 3.134 3.134 0 00-1.128-1.933l.234-.423a.395.395 0 00-.69-.384l-.224.404a3.12 3.12 0 00-.976-.241 2.122 2.122 0 00-1.055.187.42.42 0 00-.05-.055l-.542-.493a.395.395 0 10-.532.585l.52.472a1.16 1.16 0 00-.152.336 1.39 1.39 0 00.59 1.522l-.341.372a.395.395 0 10.583.534l.474-.517c.248.21.445.475.574.774l-.19.764a.395.395 0 10.766.192l.078-.31c.208.094.434.144.664.145.129 0 .258-.017.383-.052zm-.962-1.022a2.553 2.553 0 00-1.381-1.431.647.647 0 01-.474-.768c.074-.28.504-.45.884-.45a2.27 2.27 0 012.185 2.016.796.796 0 01-.465.895.7.7 0 01-.749-.262zm3.677 7.526a2.43 2.43 0 00-.104.341l-.6-.266a.396.396 0 00-.321.722l.839.373-.003.153c.007.475-.045.948-.156 1.41a2.995 2.995 0 01-.841 1.535c-.056.06-.113.12-.169.184l-.867-.29a.394.394 0 00-.5.251.396.396 0 00.25.5l.663.221-.025.053a1.557 1.557 0 00.384 1.79 1.7 1.7 0 001.155.455c.295-.001.584-.076.843-.217.3-.159.583-.345.848-.557l.395.35a.396.396 0 10.525-.592l-.35-.31a6.42 6.42 0 001.27-2.684l.389.111a.395.395 0 00.217-.76l-.488-.14a5.222 5.222 0 00-.217-2.248l.618-.412a.397.397 0 00-.441-.659l-.576.384a2.004 2.004 0 00-.787-.585v-1.052a.395.395 0 00-.789 0v.949a1.474 1.474 0 00-1.162.99zm2.387.641a5.444 5.444 0 01-.093 3.228 4.231 4.231 0 01-2.121 2.649.93.93 0 01-1.086-.124.759.759 0 01-.197-.891c.124-.261.294-.498.503-.698a3.754 3.754 0 001.028-1.875c.127-.52.187-1.055.18-1.591a2.957 2.957 0 01.136-1.052.667.667 0 01.622-.498 1.221 1.221 0 011.028.852zm-17.489 6.632a2.247 2.247 0 00-.891-1.104 3.674 3.674 0 01-.395-.341 6.283 6.283 0 01-.977-1.54 1.266 1.266 0 00-1.521-.7 1.645 1.645 0 00-1.154 1.727 4.907 4.907 0 002.578 3.573c.297.164.63.25.97.253.362.007.716-.112 1.002-.336a1.363 1.363 0 00.39-1.53l-.002-.002zm-.888.917a1.025 1.025 0 01-1.093 0 4.15 4.15 0 01-2.17-2.952.843.843 0 01.582-.89.483.483 0 01.597.291 7.037 7.037 0 001.112 1.732c.15.151.311.291.482.419.276.168.493.417.623.713a.613.613 0 01-.135.687h.002zm8.01-8.526a2.812 2.812 0 10.006-5.623 2.812 2.812 0 00-.008 5.623h.003zm0-4.83a2.02 2.02 0 11-.002 0h.003zm-7.286 5.493a1.43 1.43 0 10-2.857 0 1.43 1.43 0 002.854 0h.003zm-2.073 0a.642.642 0 111.285 0 .642.642 0 01-1.285 0zm11.106.96a1.96 1.96 0 100 3.92 1.96 1.96 0 000-3.92zm0 3.128a1.168 1.168 0 110-2.339 1.168 1.168 0 010 2.341v-.002zm-5.566.488a.754.754 0 11.003-1.51.754.754 0 01-.003 1.511v-.001zm-1.844-12.288l-.535-.255c.053-.06.102-.122.148-.187a1.381 1.381 0 00-.025-1.624 1.512 1.512 0 00-.485-.427l.258-.664a.392.392 0 00-.095-.429.396.396 0 00-.642.142l-.296.76c-.146.003-.29.026-.43.068a4.118 4.118 0 00-1.56.846l-.427-.427a.396.396 0 00-.674.28.397.397 0 00.116.279l.444.444c-.191.243-.365.5-.52.767-.2.35-.36.722-.48 1.107l-.712-.251a.394.394 0 00-.527.393.395.395 0 00.263.352l.787.278a3.795 3.795 0 00-.028 1.293 1.759 1.759 0 001.295 1.47c.08.015.162.023.244.023a1.322 1.322 0 001.115-.663 2.26 2.26 0 00.063-.108l.406.243a.397.397 0 00.595-.28.396.396 0 00-.188-.398l-.493-.296a.377.377 0 00-.05-.023c.018-.075.035-.151.05-.228a4.77 4.77 0 01.357-1.135c.176-.418.465-.778.834-1.042l.856.407a.396.396 0 10.34-.714l-.004-.001zm-2.742 1.008a5.493 5.493 0 00-.417 1.31 2.481 2.481 0 01-.279.834.522.522 0 01-.539.286.976.976 0 01-.668-.833c-.07-.919.14-1.837.601-2.634a3.543 3.543 0 012.171-1.83.732.732 0 01.819.26.592.592 0 01.015.706 1.93 1.93 0 01-.519.484 3.28 3.28 0 00-1.185 1.418v-.002zm9.626 16.549l-.543-.05a.403.403 0 00-.098.006 2.002 2.002 0 00-.198-.625c.007-.006.015-.012.02-.019l.494-.592a.395.395 0 10-.608-.506l-.405.486a2.013 2.013 0 00-3.211.904h-.528a.395.395 0 000 .79h.43a2.018 2.018 0 001.727 1.841l.075.447a.394.394 0 10.78-.13l-.06-.362a2.023 2.023 0 001.445-1.465c.022.006.044.01.067.013l.543.05h.036a.395.395 0 00.036-.79l-.002.002zm-2.638 1.467a1.227 1.227 0 110-2.455 1.227 1.227 0 010 2.456zm20.51-2.41l-4.058 2.304a.396.396 0 01-.59-.316l-.313-4.417a.396.396 0 11.79-.056l.231 3.26a19.225 19.225 0 002.489-13.588c.057-.017.114-.038.168-.064.19-.09.382-.175.575-.258.945 4.78.115 9.74-2.333 13.952l2.65-1.506a.395.395 0 11.391.688zm-11.746 7.939c.021.272.08.54.174.796A19.993 19.993 0 0115.5 39.311c.09-.25.14-.513.148-.778a19.198 19.198 0 0013.648-1.355h.002zM11.5 36.856a2.149 2.149 0 00-.119.175c-.097.17-.171.351-.222.54a20.001 20.001 0 01-4.955-31.36l-3.138.765a.396.396 0 01-.187-.768l4.534-1.105h.014a.388.388 0 01.07-.008h.02c.03.001.06.005.089.013.005 0 .01.004.016.005a.376.376 0 01.068.028l.023.014a.36.36 0 01.054.04l.014.011.007.008.01.01a.386.386 0 01.04.053c0 .003.005.006.007.008a.4.4 0 01.037.084c0 .006.004.013.005.02.006.023.01.046.012.069v.026c0 .025-.002.05-.006.074v.024l-.906 4.32a.395.395 0 11-.774-.161l.642-3.06a19.21 19.21 0 004.647 30.178l-.002-.003zm22.24-2.204a.395.395 0 01-.044.558c-.59.502-1.209.97-1.853 1.4a3.352 3.352 0 00-.282-.75c0-.003-.005-.006-.007-.01a19.17 19.17 0 001.628-1.241.395.395 0 01.555.043h.003zM15.72 1.426c-.08-.252-.175-.5-.285-.74 1.47-.4 2.982-.63 4.506-.685.104.254.188.516.252.782a19.137 19.137 0 00-4.473.643zm-3.793 1.02a.395.395 0 01.186-.528 20.302 20.302 0 011.54-.654c.104.242.195.489.273.74a20.108 20.108 0 00-1.472.626.395.395 0 01-.528-.185zM22.265.837a8.086 8.086 0 00-.224-.808 20.05 20.05 0 0117.838 14.239c-.247.098-.49.204-.731.315A19.26 19.26 0 0022.265.838z" fill="#231F20"/></g><defs><clipPath id="clip0_88_1618"><path fill="#fff" transform="translate(.7)" d="M0 0h40.544v40H0z"/></clipPath></defs></svg>