<svg width="42" height="17" fill="none" xmlns="http://www.w3.org/2000/svg"><path d="M8.525 3.936c1.122 0 1.982.434 2.58 1.302l-.067.041-.141.108a2.126 2.126 0 00-.406.365c-.072.077-.15.166-.233.265a1.921 1.921 0 00-.215.332 5.14 5.14 0 00-.174.39 2.76 2.76 0 00-.125.456 3.276 3.276 0 00-.041.522c0 .365.06.705.182 1.02.122.31.26.559.415.747.155.188.326.353.514.497.188.144.329.24.423.29.1.05.168.08.207.092a6.567 6.567 0 01-.398.979 6.75 6.75 0 01-.49.878c-.176.255-.323.456-.439.606a6.258 6.258 0 01-.44.48 1.788 1.788 0 01-.555.39 1.463 1.463 0 01-.597.125c-.287 0-.627-.086-1.02-.257a2.773 2.773 0 00-1.111-.258c-.354 0-.74.089-1.161.266-.42.177-.755.265-1.003.265-.365 0-.697-.135-.996-.406-.293-.271-.635-.686-1.028-1.244-.398-.57-.727-1.244-.987-2.023A7.48 7.48 0 01.838 7.85c0-.608.094-1.164.282-1.667.188-.503.437-.912.746-1.227a3.37 3.37 0 011.045-.73 2.94 2.94 0 011.202-.257c.31 0 .7.094 1.17.282.475.188.79.282.945.282.133 0 .456-.1.97-.299.514-.199.957-.298 1.327-.298zm-.456-1.07c-.221.265-.5.487-.838.664-.331.176-.644.265-.937.265a.886.886 0 01-.174-.017 1.004 1.004 0 01-.025-.24c0-.315.07-.63.208-.946.138-.315.307-.588.506-.82.237-.277.533-.506.887-.689.36-.188.702-.287 1.028-.298.017.072.025.157.025.257 0 .658-.227 1.266-.68 1.824zm6.635-1.144h4.826c1.194 0 2.162.373 2.903 1.12.746.746 1.12 1.721 1.12 2.927 0 1.183-.385 2.145-1.154 2.885-.762.741-1.75 1.112-2.96 1.112h-2.596v3.922h-2.14V1.722zm2.14 1.79v4.479h2.114c.768 0 1.363-.194 1.783-.58.426-.388.638-.935.638-1.642 0-.73-.21-1.289-.63-1.676-.414-.387-1.009-.58-1.783-.58h-2.123zm10.722 8.708c.62 0 1.137-.177 1.551-.53.415-.36.622-.802.622-1.327V9.64l-2.048.133c-1.128.072-1.692.48-1.692 1.227 0 .376.144.675.431.896.293.215.672.323 1.136.323zm-.605 1.617c-.884 0-1.606-.248-2.164-.746-.559-.498-.838-1.155-.838-1.974 0-.818.296-1.46.887-1.924.598-.464 1.449-.73 2.555-.796l2.338-.14v-.764c0-.447-.146-.79-.44-1.028-.292-.238-.715-.356-1.268-.356-.476 0-.868.082-1.178.248a1.15 1.15 0 00-.605.697h-1.94c.082-.802.47-1.438 1.16-1.907.697-.476 1.584-.714 2.662-.714 1.161 0 2.057.269 2.687.805.636.536.954 1.288.954 2.255v6.195h-1.982v-1.244h-.141c-.254.437-.62.78-1.095 1.028-.47.244-1 .365-1.592.365zm7.1 3.143c-.426 0-.697-.01-.813-.033v-1.683c.105.022.293.033.564.033.436 0 .782-.091 1.036-.274.26-.182.456-.48.589-.896l.108-.398-3.243-9.113h2.256l2.123 7.082h.14l2.115-7.082h2.173l-3.276 9.362c-.381 1.123-.851 1.902-1.41 2.339-.552.442-1.34.663-2.363.663z" fill="#000"/></svg>