<svg width="46" height="18" fill="none" xmlns="http://www.w3.org/2000/svg"><path d="M21.75 8.758v5.225h-1.67V1.081h4.426c1.122 0 2.078.37 2.861 1.114.8.742 1.2 1.65 1.2 2.72 0 1.097-.4 2.004-1.2 2.738-.774.734-1.73 1.097-2.86 1.097H21.75v.008zm0-6.088v4.5h2.791c.661 0 1.218-.225 1.652-.666.444-.44.67-.976.67-1.58 0-.596-.226-1.123-.67-1.563-.434-.458-.982-.683-1.652-.683h-2.79V2.67zm11.182 2.193c1.235 0 2.209.328 2.922.985.713.656 1.07 1.554 1.07 2.694v5.441h-1.592v-1.226h-.07c-.686 1.01-1.608 1.511-2.756 1.511-.982 0-1.8-.285-2.46-.863-.661-.579-.992-1.296-.992-2.16 0-.915.348-1.64 1.044-2.176.695-.544 1.626-.812 2.782-.812.991 0 1.809.182 2.443.544v-.38c0-.578-.226-1.062-.687-1.468-.46-.406-1-.604-1.617-.604-.93 0-1.67.388-2.208 1.174l-1.47-.915c.809-1.166 2.009-1.745 3.591-1.745zm-2.156 6.408c0 .432.183.795.556 1.08.366.285.8.432 1.296.432.704 0 1.33-.26 1.878-.777.548-.519.826-1.123.826-1.823-.522-.406-1.243-.613-2.174-.613-.678 0-1.243.164-1.695.484-.46.336-.687.742-.687 1.217zM46 5.148l-5.565 12.713h-1.721l2.07-4.448-3.67-8.265h1.817l2.643 6.34h.035l2.574-6.34H46z" fill="#5F6368"/><path d="M15.11 7.705c0-.54-.049-1.058-.14-1.556H7.974V9l4.03.001a3.427 3.427 0 01-1.495 2.296v1.849h2.399c1.4-1.288 2.203-3.191 2.203-5.44z" fill="#4285F4"/><path d="M10.508 11.295c-.668.448-1.527.71-2.533.71-1.944 0-3.592-1.301-4.183-3.054H1.318v1.907a7.455 7.455 0 006.657 4.074c2.012 0 3.702-.657 4.932-1.788l-2.399-1.849z" fill="#34A853"/><path d="M3.56 7.536c0-.492.082-.968.232-1.415V4.214H1.318a7.32 7.32 0 00-.792 3.322 7.33 7.33 0 00.792 3.323l2.474-1.907a4.434 4.434 0 01-.233-1.416z" fill="#FABB05"/><path d="M7.975 3.067c1.098 0 2.081.376 2.858 1.11l2.125-2.11C11.668.872 9.984.139 7.975.139a7.455 7.455 0 00-6.657 4.075L3.792 6.12c.59-1.754 2.24-3.054 4.183-3.054z" fill="#E94235"/></svg>