<svg width="37" height="12" fill="none" xmlns="http://www.w3.org/2000/svg"><path d="M24.093.012c-2.624 0-4.97 1.36-4.97 3.874 0 2.882 4.16 3.081 4.16 4.53 0 .609-.699 1.155-1.892 1.155-1.693 0-2.96-.763-2.96-.763l-.54 2.536s1.457.645 3.393.645c2.87 0 5.128-1.428 5.128-3.984 0-3.046-4.177-3.239-4.177-4.583 0-.477.573-1 1.763-1 1.343 0 2.438.554 2.438.554l.53-2.45S25.774.012 24.093.012zM.082.197l-.064.37s1.104.202 2.099.605c1.28.462 1.371.731 1.587 1.567l2.35 9.059h3.15l4.853-11.6h-3.143L7.796 8.083 6.523 1.4C6.407.634 5.815.197 5.092.197H.082zm15.239 0l-2.466 11.6h2.997L18.31.198h-2.99zm16.715 0c-.723 0-1.106.387-1.387 1.063l-4.39 10.538H29.4l.608-1.756h3.83l.369 1.756h2.773L34.56.198h-2.525zm.408 3.134l.932 4.353H30.88l1.564-4.353z" fill="#1434CB"/></svg>