<svg width="18" height="19" fill="none" xmlns="http://www.w3.org/2000/svg"><g clip-path="url(#clip0_181_600)"><path d="M17.625 8.75a.375.375 0 01-.375-.375c0-3.928-3.197-7.125-7.125-7.125a.375.375 0 010-.75C14.467.5 18 4.032 18 8.375a.375.375 0 01-.375.375zM15 8.375A4.88 4.88 0 0010.125 3.5a.375.375 0 000 .75 4.13 4.13 0 014.125 4.125.375.375 0 00.75 0zm1.675 8.828l.734-.843c.381-.381.591-.888.591-1.427a2.02 2.02 0 00-.628-1.459l-1.834-1.405a2.021 2.021 0 00-2.853-.002l-1.149 1.12c-2.76-1.123-5.008-3.374-6.22-6.226l1.116-1.144c.787-.787.787-2.067.032-2.817L4.995 1.093C4.232.33 2.885.348 2.16 1.075l-.88.768C.454 2.664 0 3.78 0 4.982 0 10.794 7.706 18.5 13.518 18.5a4.407 4.407 0 003.157-1.297zM4.432 1.585L5.9 3.492a1.272 1.272 0 01-.003 1.797L4.606 6.613a.376.376 0 00-.079.402c1.297 3.229 3.835 5.766 6.965 6.96.136.053.29.02.395-.08l1.324-1.292.003-.004c.48-.48 1.278-.51 1.83.032l1.835 1.405a1.277 1.277 0 01-.018 1.812l-.734.844c-.68.682-1.608 1.058-2.609 1.058C8.148 17.75.75 10.352.75 4.982c0-1.001.376-1.928 1.04-2.592l.881-.769a1.29 1.29 0 01.912-.375 1.2 1.2 0 01.85.34l-.001-.002z" fill="#000"/></g><defs><clipPath id="clip0_181_600"><path fill="#fff" transform="translate(0 .5)" d="M0 0h18v18H0z"/></clipPath></defs></svg>