<svg width="18" height="18" fill="none" xmlns="http://www.w3.org/2000/svg"><g clip-path="url(#clip0_91_1680)" fill="#4E4E4E"><path d="M17.948 10.078c-.045-.089-.157-.134-.246-.156-.513 0-4.933-.179-4.933-5.313a.295.295 0 00-.29-.29.296.296 0 00-.29.29c0 5.134-4.42 5.313-4.911 5.313a.253.253 0 00-.179.067c-.044.022-.067.067-.089.09a.331.331 0 000 .29.31.31 0 00.268.156H7.3c.514 0 4.911.178 4.911 5.312 0 .156.134.29.29.29.156 0 .29-.133.29-.29 0-5.111 4.398-5.312 4.911-5.312.112 0 .201-.067.268-.157a.274.274 0 00-.022-.29zm-5.47 3.572c-.646-2.12-2.231-3.036-3.481-3.438 1.25-.402 2.835-1.317 3.482-3.437.647 2.12 2.232 3.035 3.482 3.437-1.25.402-2.835 1.317-3.482 3.438zM8.794 4.275c.156 0 .29-.134.29-.313a.295.295 0 00-.29-.29c-.268 0-2.678-.09-2.678-2.902a.295.295 0 00-.29-.29.295.295 0 00-.29.29c0 2.813-2.412 2.902-2.68 2.902h-.022c-.156.022-.268.134-.268.29 0 .156.134.29.29.29.29 0 2.68.09 2.68 2.902 0 .156.133.29.29.29.133.023.267-.111.267-.268 0-2.812 2.41-2.901 2.679-2.901h.022zM5.803 5.547c-.357-.848-1.004-1.317-1.607-1.585a3.003 3.003 0 001.607-1.585c.357.849 1.005 1.317 1.607 1.585a3.003 3.003 0 00-1.607 1.585zm.425 8.192c-.268 0-2.679-.09-2.679-2.902a.295.295 0 00-.29-.29.295.295 0 00-.29.29C2.969 13.65.558 13.74.29 13.74H.268c-.156.022-.268.134-.268.29 0 .156.134.29.29.29.29 0 2.679.09 2.679 2.902 0 .156.134.29.29.29.134.045.268-.089.268-.267 0-2.813 2.41-2.902 2.678-2.902h.023c.156 0 .29-.134.29-.313a.295.295 0 00-.29-.29zm-2.991 1.897c-.38-.848-1.005-1.317-1.608-1.584a3.003 3.003 0 001.608-1.585c.357.848 1.004 1.317 1.607 1.585a3.003 3.003 0 00-1.607 1.584z"/></g><defs><clipPath id="clip0_91_1680"><path fill="#fff" d="M0 0h18v18H0z"/></clipPath></defs></svg>