<svg width="18" height="18" fill="none" xmlns="http://www.w3.org/2000/svg"><g clip-path="url(#clip0_439_3662)"><path d="M15.916.653a1.408 1.408 0 00-1.832 0c-.82.696-2.083 2.673-2.083 3.876 0 .786.268 1.42.844 1.996.61.61 1.416.975 2.156.975.755 0 1.534-.346 2.136-.95.581-.58.864-1.241.864-2.021 0-1.203-1.266-3.18-2.085-3.876zm.69 5.367c-.456.457-1.056.73-1.606.73-.537 0-1.16-.29-1.626-.755-.431-.431-.624-.884-.624-1.466 0-.873 1.058-2.66 1.819-3.303a.664.664 0 01.861-.001c.762.646 1.82 2.43 1.82 3.304 0 .578-.204 1.052-.643 1.491zM7.5 5.287c0-1.505-1.603-4-2.641-4.881a1.707 1.707 0 00-2.217 0C1.602 1.289 0 3.782 0 5.288c0 .98.335 1.772 1.053 2.49C1.819 8.544 2.827 9 3.75 9c.942 0 1.915-.433 2.671-1.189.726-.725 1.079-1.55 1.079-2.523v-.001zM3.75 8.249c-.718 0-1.547-.384-2.167-1.002C1.006 6.671.75 6.066.75 5.287c0-1.243 1.46-3.531 2.376-4.309a.96.96 0 011.247 0c.917.778 2.377 3.066 2.377 4.309 0 .774-.272 1.408-.859 1.993-.607.607-1.407.97-2.141.97zm8.05-.275a2.009 2.009 0 00-2.6 0C7.895 9.077 6 11.802 6 13.562c0 1.17.401 2.115 1.264 2.974.92.916 2.13 1.463 3.236 1.463 1.13 0 2.298-.518 3.206-1.422.87-.868 1.294-1.854 1.294-3.016 0-1.759-1.895-4.484-3.2-5.587zm1.377 8.07c-.758.755-1.758 1.205-2.677 1.205-.914 0-1.925-.465-2.707-1.245-.721-.718-1.043-1.471-1.043-2.443 0-1.47 1.753-4.015 2.934-5.015a1.266 1.266 0 011.633 0c1.181 1 2.933 3.546 2.933 5.015 0 .965-.341 1.755-1.073 2.484z" fill="#4E4E4E"/></g><defs><clipPath id="clip0_439_3662"><path fill="#fff" d="M0 0h18v18H0z"/></clipPath></defs></svg>