<svg width="18" height="18" fill="none" xmlns="http://www.w3.org/2000/svg"><g clip-path="url(#clip0_439_11029)"><path d="M17.393 4.172c-.351-.131-.73-.03-1.005.287-.585.676-1.264 1.462-2.139 1.915V3.375a.375.375 0 00-.75 0V6.66c-.237.059-.486.09-.75.09H12V3.422c0-.55-.243-1.076-.668-1.441a2 2 0 00-1.608-.457 26.65 26.65 0 00-2.34.469C5.589.569 2.925.109 1.037.002A.953.953 0 00.129.5a.993.993 0 00.047 1.056c.12.174.286.372.47.59.493.589 1.095 1.306 1.209 2.106C.739 5.04 0 5.995 0 7.124c0 1.141.753 2.103 1.887 2.895L.084 15.13a2.233 2.233 0 00.368 1.976 2.232 2.232 0 001.797.895 2.245 2.245 0 002.169-1.65l1.52-4.491c1.331.411 2.677.698 3.786.867a1.998 1.998 0 001.606-.458c.425-.365.67-.89.67-1.44v-3.33h.75c.265 0 .514.03.75.085v3.29a.375.375 0 00.75 0V7.86c.871.44 1.538 1.216 2.154 1.932a.898.898 0 00.68.326.873.873 0 00.309-.057c.378-.14.622-.51.622-.941V5.114c0-.432-.244-.801-.622-.942zM1.22 1.664c-.166-.197-.317-.375-.425-.533A.25.25 0 01.782.867.226.226 0 01.995.75c1.63.093 3.833.432 5.452 1.49-1.378.393-2.776.918-3.916 1.58-.23-.868-.84-1.595-1.311-2.156zm2.48 14.47a1.502 1.502 0 01-2.649.519 1.483 1.483 0 01-.252-1.296l1.737-4.925c.802.466 1.73.863 2.69 1.194L3.7 16.136zm7.55-5.305c0 .331-.149.649-.408.872a1.25 1.25 0 01-1.004.285C6.324 11.449.75 9.655.75 7.126c0-2.53 5.574-4.325 9.087-4.861a1.246 1.246 0 011.004.284c.26.223.408.541.408.872v7.408zm6.015-1.71c0 .14-.069.216-.133.239-.06.02-.11.003-.168-.063-.636-.74-1.433-1.668-2.53-2.174 1.085-.51 1.89-1.439 2.54-2.192.05-.057.1-.076.158-.053.061.022.133.1.133.239v4.004z" fill="#4E4E4E"/></g><defs><clipPath id="clip0_439_11029"><path fill="#fff" d="M0 0h18v18H0z"/></clipPath></defs></svg>