<svg width="18" height="18" fill="none" xmlns="http://www.w3.org/2000/svg"><g clip-path="url(#clip0_439_11042)"><path d="M14.582 7.216A3.336 3.336 0 0015 5.625a3.38 3.38 0 00-3.375-3.375A3.38 3.38 0 008.25 5.625c0 .397.081.772.207 1.125H5.625A5.63 5.63 0 000 12.375 5.63 5.63 0 005.625 18h6.75A5.63 5.63 0 0018 12.375c0-2.25-1.366-4.278-3.418-5.159zM11.625 3a2.628 2.628 0 012.625 2.625 2.628 2.628 0 01-2.625 2.625A2.628 2.628 0 019 5.625 2.628 2.628 0 0111.625 3zm.75 14.25h-6.75A4.88 4.88 0 01.75 12.375 4.88 4.88 0 015.625 7.5h3.197A3.373 3.373 0 0011.625 9a3.35 3.35 0 002.525-1.159 4.888 4.888 0 013.1 4.534 4.88 4.88 0 01-4.875 4.875zM9.75 10.125a.375.375 0 01-.375.375h-3.75c-1.034 0-1.875.84-1.875 1.875 0 1.034.841 1.875 1.875 1.875a.375.375 0 010 .75A2.628 2.628 0 013 12.375 2.628 2.628 0 015.625 9.75h3.75c.207 0 .375.168.375.375zM5.25 4.5c1.24 0 2.25-1.01 2.25-2.25S6.49 0 5.25 0 3 1.01 3 2.25 4.01 4.5 5.25 4.5zm0-3.75c.827 0 1.5.673 1.5 1.5s-.673 1.5-1.5 1.5-1.5-.673-1.5-1.5.673-1.5 1.5-1.5zM16.5 3c.827 0 1.5-.673 1.5-1.5S17.327 0 16.5 0 15 .673 15 1.5 15.673 3 16.5 3zm0-2.25a.75.75 0 11-.002 1.502A.75.75 0 0116.5.75z" fill="#4E4E4E"/></g><defs><clipPath id="clip0_439_11042"><path fill="#fff" d="M0 0h18v18H0z"/></clipPath></defs></svg>