<svg width="18" height="18" fill="none" xmlns="http://www.w3.org/2000/svg"><g clip-path="url(#clip0_439_11038)"><path d="M8.25 5.38V3.75h1.875a.375.375 0 000-.75H8.25v-.375A2.628 2.628 0 005.625 0 2.628 2.628 0 003 2.625V5.38c-1.778.834-3 2.749-3 4.745v4.5A3.38 3.38 0 003.375 18h4.5a3.38 3.38 0 003.375-3.375v-4.5c0-1.996-1.222-3.911-3-4.745zm-4.5-2.755C3.75 1.591 4.591.75 5.625.75S7.5 1.591 7.5 2.625V5.25H3.75V2.625zm6.75 12a2.628 2.628 0 01-2.625 2.625h-4.5A2.628 2.628 0 01.75 14.625v-4.5C.75 8.392 1.881 6.669 3.45 6H7.8c1.569.669 2.7 2.392 2.7 4.125v4.5zM7.125 10.5h-3a1.878 1.878 0 00-1.875 1.875c0 1.034.841 1.875 1.875 1.875h3A1.878 1.878 0 009 12.375 1.878 1.878 0 007.125 10.5zm0 3h-3C3.505 13.5 3 12.995 3 12.375s.505-1.125 1.125-1.125h3c.62 0 1.125.505 1.125 1.125S7.745 13.5 7.125 13.5zM13.5 3.75a.75.75 0 11-1.5 0 .75.75 0 011.5 0zm4.5 0a.75.75 0 11-1.5 0 .75.75 0 011.5 0zm-1.5-3a.75.75 0 111.5 0 .75.75 0 01-1.5 0zm1.5 6a.75.75 0 11-1.5 0 .75.75 0 011.5 0zm-2.25-4.5a.75.75 0 11-1.5 0 .75.75 0 011.5 0zm0 3a.75.75 0 11-1.5 0 .75.75 0 011.5 0z" fill="#4E4E4E"/></g><defs><clipPath id="clip0_439_11038"><path fill="#fff" d="M0 0h18v18H0z"/></clipPath></defs></svg>