<svg width="18" height="18" fill="none" xmlns="http://www.w3.org/2000/svg"><g clip-path="url(#clip0_439_3653)"><path d="M17.534.358A1.362 1.362 0 0016.462.01c-4.963.597-6.79 4.547-7.458 7.116l-.005-.001h-.004C8.328 4.557 6.5.608 1.538.01A1.374 1.374 0 00.466.358 1.42 1.42 0 000 1.445c.067 2.611.896 4.664 2.467 6.1C4.643 9.535 7.57 9.744 8.625 9.75v7.874a.375.375 0 00.75 0V9.75c1.055-.006 3.982-.215 6.158-2.205 1.57-1.437 2.4-3.489 2.467-6.1a1.42 1.42 0 00-.466-1.087zM2.968 6.987C1.557 5.694.811 3.823.75 1.427A.67.67 0 01.97.912a.585.585 0 01.48-.158c5.977.72 6.984 6.645 7.146 8.244-.987-.016-3.687-.233-5.627-2.01v-.001zm12.063 0c-1.94 1.777-4.639 1.994-5.626 2.01.163-1.598 1.17-7.523 7.146-8.243a.6.6 0 01.479.158.672.672 0 01.22.514c-.06 2.397-.807 4.267-2.219 5.561z" fill="#4E4E4E"/></g><defs><clipPath id="clip0_439_3653"><path fill="#fff" d="M0 0h18v18H0z"/></clipPath></defs></svg>