<svg width="18" height="18" fill="none" xmlns="http://www.w3.org/2000/svg"><g clip-path="url(#clip0_439_3666)"><path d="M18 17.625a.375.375 0 01-.375.375h-3.434c-.553 0-1.03-.413-1.107-.96A4.143 4.143 0 009 13.5a4.142 4.142 0 00-4.084 3.54c-.078.547-.553.96-1.108.96H.376a.375.375 0 010-.75H3.81a.37.37 0 00.365-.317c.072-.505.221-.984.435-1.424l-3.224-1.918a.376.376 0 01.383-.645l3.22 1.915a4.94 4.94 0 011.253-1.248l-1.912-3.3a.375.375 0 01.649-.376l1.91 3.298a4.838 4.838 0 011.736-.47v-3.39a.375.375 0 01.75 0v3.39c.614.046 1.2.21 1.734.47l1.893-3.298a.376.376 0 01.65.374l-1.894 3.3c.49.337.917.763 1.257 1.253l3.26-1.882a.373.373 0 01.512.137.374.374 0 01-.138.512l-3.255 1.881c.213.44.361.917.433 1.421.026.183.18.317.365.317h3.433c.207 0 .376.168.376.375zM8.975 0c-.017-.002.015-.002 0 0zM6.646 2.885L8.486.964a.722.722 0 01.14-.11v5.522a.375.375 0 00.75 0V.853a.684.684 0 01.134.105l1.845 1.927a.375.375 0 00.542-.518L10.046.433C9.764.15 9.345.007 8.975 0c-.371.008-.74.153-1.026.438L6.104 2.366a.375.375 0 10.542.52z" fill="#4E4E4E"/></g><defs><clipPath id="clip0_439_3666"><path fill="#fff" d="M0 0h18v18H0z"/></clipPath></defs></svg>