<svg width="26" height="25" fill="none" xmlns="http://www.w3.org/2000/svg"><path d="M25.872 9.575a1.567 1.567 0 00-1.375-1.092l-6.765-.585a.228.228 0 01-.188-.139L14.901 1.46a1.593 1.593 0 00-2.93 0l-2.644 6.3a.228.228 0 01-.188.138l-6.765.585A1.568 1.568 0 001 9.575a1.593 1.593 0 00.467 1.707L6.6 15.759a.234.234 0 01.073.227L5.13 22.645a1.593 1.593 0 00.62 1.656 1.563 1.563 0 001.752.07l5.815-3.526a.217.217 0 01.228 0l5.815 3.527a1.593 1.593 0 002.381-1.727l-1.538-6.66a.234.234 0 01.073-.227l5.133-4.477a1.593 1.593 0 00.463-1.705zm-1.366.674l-5.132 4.477a1.592 1.592 0 00-.505 1.565l1.538 6.66a.229.229 0 01-.09.242.206.206 0 01-.244.01l-5.815-3.527a1.584 1.584 0 00-1.645 0l-5.815 3.527a.206.206 0 01-.244-.01.227.227 0 01-.09-.242l1.539-6.66a1.593 1.593 0 00-.506-1.565l-5.132-4.477a.228.228 0 01-.067-.25.212.212 0 01.193-.157l6.767-.584a1.593 1.593 0 001.333-.97l2.643-6.3a.227.227 0 01.412 0l2.634 6.3a1.594 1.594 0 001.329.97l6.766.584a.211.211 0 01.194.157.227.227 0 01-.063.25z" fill="#FBE173"/></svg>