<svg width="18" height="18" fill="none" xmlns="http://www.w3.org/2000/svg"><path d="M16.686 6.884a.969.969 0 00-.849-.675l-4.18-.362a.14.14 0 01-.117-.086L9.907 1.87a.984.984 0 00-1.811 0L6.462 5.76a.14.14 0 01-.116.086l-4.18.362a.969.969 0 00-.85.675.984.984 0 00.289 1.054l3.172 2.767a.145.145 0 01.045.14l-.954 4.115a.984.984 0 00.384 1.023.966.966 0 001.082.044l3.594-2.18a.134.134 0 01.14 0l3.594 2.18a.984.984 0 001.472-1.067l-.95-4.116a.145.145 0 01.044-.14L16.4 7.937a.984.984 0 00.286-1.053zm-.843.416l-3.172 2.767a.985.985 0 00-.312.967l.95 4.115a.141.141 0 01-.055.15.127.127 0 01-.15.007l-3.594-2.18a.979.979 0 00-1.017 0l-3.594 2.18a.128.128 0 01-.15-.007.14.14 0 01-.056-.15l.95-4.115a.984.984 0 00-.311-.967L2.16 7.3a.14.14 0 01-.042-.154.13.13 0 01.12-.097l4.181-.362a.984.984 0 00.824-.6l1.634-3.892a.14.14 0 01.254 0l1.628 3.893a.985.985 0 00.821.6l4.182.36a.13.13 0 01.12.098.14.14 0 01-.04.154z" fill="#FBE173"/></svg>