<svg width="65" height="64" fill="none" xmlns="http://www.w3.org/2000/svg"><path d="M33.688 2c6.922 16.615 18 23.538 18 36a18 18 0 11-36 0c0-12.462 11.077-19.385 18-36zM21.516 33a23.94 23.94 0 011.8-4m6.37 21.37a13.058 13.058 0 01-8.37-8.37m27.372-29a9.723 9.723 0 004.49-1.995c1.2-1.12 1.99-2.887 2.51-6.005.5 3 1.25 4.75 2.374 5.875C59.188 12 60.688 12.5 62.688 13c-2 .5-3.5 1-4.626 2.125C56.938 16.25 56.188 18 55.688 21c-.483-2.89-1.2-4.62-2.254-5.749-1.137-1.214-2.673-1.733-4.746-2.251zm-46 41.5a8.67 8.67 0 004.3-1.992c1.038-1.055 1.735-2.695 2.2-5.508.463 2.812 1.16 4.453 2.204 5.508a8.679 8.679 0 004.296 1.992c-2.227.562-3.786 1.124-4.878 2.694A11.716 11.716 0 009.188 62c-.434-2.636-1.073-4.243-2.012-5.3-1.064-1.2-2.513-1.7-4.487-2.2z" stroke="#464747" stroke-linecap="round" stroke-linejoin="round"/></svg>