<svg width="64" height="64" fill="none" xmlns="http://www.w3.org/2000/svg"><path d="M44.734 32A23.744 23.744 0 0147 42a20 20 0 11-40 0C7 28.154 19.308 20.462 27 2a74.227 74.227 0 003.364 7" stroke="#464747" stroke-linecap="round" stroke-linejoin="round"/><path d="M45 28c6.627 0 12-5.373 12-12S51.627 4 45 4 33 9.373 33 16s5.373 12 12 12z" stroke="#464747" stroke-linecap="round" stroke-linejoin="round"/><path d="M45 10v6h5M30 28v13h6l-9 10-9-10h6V28h6z" stroke="#464747" stroke-linecap="round" stroke-linejoin="round"/></svg>