<svg width="65" height="64" fill="none" xmlns="http://www.w3.org/2000/svg"><path d="M45.744 9c5.5 0 12.1 3.316 12.1 13.263S40.244 51 27.044 51c-8.8 0-13.2-5.526-13.2-11.053 0-9.947 7.7-11.047 12.1-15.473C30.344 20.048 34.744 9 45.744 9zM23.746 45.06a5.587 5.587 0 01-4.273-4.007m21.483-2.211a31.79 31.79 0 01-9.51 5.8m9.827-29.011a9.194 9.194 0 014.47-1.105M33.171 10a7 7 0 10-8.326 9.71M26.844 10a3 3 0 00-3 3m17.583-8a5 5 0 00-8.583-1m-24 24a6 6 0 100-12 6 6 0 000 12zm0-8a2 2 0 00-2 2m-.5 25a3.5 3.5 0 100-7 3.5 3.5 0 000 7zm53.5-6a3 3 0 100-6 3 3 0 000 6zM28.927 55a6 6 0 1010.39-3m-6.473 4a2 2 0 002 2m11.998-11a5 5 0 11-6.1 7.92" stroke="#464747" stroke-linecap="round" stroke-linejoin="round"/></svg>