<svg width="64" height="64" fill="none" xmlns="http://www.w3.org/2000/svg"><path d="M51.55 21.429c-5.75 0-2.3-6.858-14.95-6.858-12.65 0-12.65-10.285-12.65-10.285M13.602 32.857C15.902 43.143 21.652 51 32.002 51c10.35 0 16.1-7.857 18.4-18.143 0 0 4.6-2.286 4.6-6.857s-3.45-4.571-3.45-4.571M13.6 32.857S9 30.571 9 26s3.45-4.571 3.45-4.571c3.45 0 8.05-5.715 8.05-9.143" stroke="#464747" stroke-linecap="round" stroke-linejoin="round"/><path d="M45.8 2s8.05 5.714 8.05 13.714a19.163 19.163 0 01-.862 6.115M26.25 39.714A8.823 8.823 0 0032 42a8.823 8.823 0 005.75-2.286m0-12.571a8.4 8.4 0 003.45.571A4.317 4.317 0 0044.65 26l1.15.461m-19.55.682a8.4 8.4 0 01-3.45.571A4.318 4.318 0 0119.35 26l-1.15.461M2 52.5a8.817 8.817 0 004.235-1.933C7.313 49.514 8.027 47.865 8.5 45c.464 2.812 1.161 4.453 2.205 5.508A8.679 8.679 0 0015 52.5c-2.116.534-3.629 1.068-4.711 2.469A11.054 11.054 0 008.5 60c-.464-2.812-1.161-4.453-2.2-5.508A8.679 8.679 0 002 52.5zM52 46a6.56 6.56 0 003.3-1.594c.8-.843 1.339-2.156 1.7-4.406.357 2.25.893 3.562 1.7 4.406A6.56 6.56 0 0062 46a6.56 6.56 0 00-3.3 1.594c-.8.843-1.339 2.156-1.7 4.406a8.6 8.6 0 00-1.5-4.187A6.14 6.14 0 0052 46zm-9 .97V52a13.502 13.502 0 005 10M21 46.97V52a13.502 13.502 0 01-5 10" stroke="#464747" stroke-linecap="round" stroke-linejoin="round"/></svg>