<svg width="64" height="64" fill="none" xmlns="http://www.w3.org/2000/svg"><path d="M2 32A30 30 0 1032 2C21.565 2 12.374 7.916 7 16" stroke="#464747" stroke-linecap="round" stroke-linejoin="round"/><path d="M7 7v9h9m33 13c-5 0-2-6-13-6s-11-9-11-9m-9 25c2 9 7 16 16 16s14-7 16-16c0 0 4-2 4-6s-3-4-3-4M16 39s-4-2-4-6 3-4 3-4c3 0 7-5 7-8" stroke="#464747" stroke-linecap="round" stroke-linejoin="round"/><path d="M44 12s7 5 7 12a16.86 16.86 0 01-.75 5.35M26.984 44.99l.014.01a7.25 7.25 0 0010 0l.014-.01m6.989-11.59l-1-.4a3.751 3.751 0 01-3 1.5 7.257 7.257 0 01-3-.5l-.017-.006M20 33.4l1-.4a3.75 3.75 0 003 1.5 7.257 7.257 0 003-.5l.017-.006" stroke="#464747" stroke-linecap="round" stroke-linejoin="round"/></svg>