<svg width="28" height="27" fill="none" xmlns="http://www.w3.org/2000/svg"><g filter="url(#filter0_b_87_1037)"><circle cx="13.931" cy="13.466" r="13.209" fill="#fff" fill-opacity=".2"/></g><g clip-path="url(#clip0_87_1037)"><path d="M19.254 13.608c-.015-.034-.377-.834-1.185-1.643-.75-.749-2.037-1.642-3.923-1.642-1.886 0-3.174.893-3.923 1.642-.808.809-1.17 1.61-1.185 1.643a.18.18 0 000 .143c.015.034.377.835 1.185 1.643.75.751 2.038 1.642 3.923 1.642 1.885 0 3.174-.893 3.923-1.642.808-.808 1.17-1.609 1.185-1.643a.18.18 0 000-.143zm-1.444 1.545c-1.02 1.016-2.253 1.53-3.666 1.53-1.413 0-2.645-.515-3.665-1.53a5.99 5.99 0 01-1.083-1.474 5.993 5.993 0 011.085-1.474c1.02-1.014 2.252-1.528 3.665-1.528 1.413 0 2.645.514 3.665 1.528.435.433.801.93 1.085 1.474a5.996 5.996 0 01-1.085 1.474h-.001zm-3.664-3.417a1.943 1.943 0 100 3.886 1.943 1.943 0 000-3.886zm0 3.533a1.59 1.59 0 110-3.179 1.59 1.59 0 010 3.18z" fill="#fff"/></g><defs><clipPath id="clip0_87_1037"><path fill="#fff" transform="translate(8.492 8.027)" d="M0 0h11.305v11.305H0z"/></clipPath><filter id="filter0_b_87_1037" x="-33.824" y="-34.289" width="95.51" height="95.51" filterUnits="userSpaceOnUse" color-interpolation-filters="sRGB"><feFlood flood-opacity="0" result="BackgroundImageFix"/><feGaussianBlur in="BackgroundImageFix" stdDeviation="17.273"/><feComposite in2="SourceAlpha" operator="in" result="effect1_backgroundBlur_87_1037"/><feBlend in="SourceGraphic" in2="effect1_backgroundBlur_87_1037" result="shape"/></filter></defs></svg>