<svg width="76" height="77" viewBox="0 0 76 77" fill="none" xmlns="http://www.w3.org/2000/svg">
<g clip-path="url(#clip0_439_3385)">
<mask id="mask0_439_3385" style="mask-type:luminance" maskUnits="userSpaceOnUse" x="0" y="0" width="76" height="77">
<path d="M75.124 0H0V76.02H75.124V0Z" fill="white"/>
</mask>
<g mask="url(#mask0_439_3385)">
<path d="M59.0411 56.763L57.9661 55.822C60.2254 53.4732 61.5365 50.3721 61.6473 47.115C61.7581 43.8578 60.6606 40.6748 58.5661 38.178L59.6461 37.243C59.7281 37.338 67.7461 46.819 59.0461 56.762" fill="#1B1B1B"/>
<path d="M53.6039 64.958C49.8887 64.9281 46.2898 63.6586 43.3779 61.351L44.2589 60.227C45.8306 61.4842 47.639 62.4124 49.5766 62.9565C51.5143 63.5006 53.5416 63.6494 55.5379 63.394C57.0032 63.2257 58.42 62.7657 59.7047 62.0411C60.9894 61.3165 62.1159 60.342 63.0179 59.175C65.4729 55.753 65.4559 50.641 62.9739 46.15L64.2239 45.46C66.9719 50.431 66.9539 56.141 64.1799 60.008C63.1654 61.3317 61.8958 62.4385 60.4461 63.2629C58.9965 64.0874 57.3962 64.6128 55.7399 64.808C55.0324 64.9088 54.3186 64.9583 53.6039 64.958Z" fill="#1B1B1B"/>
<path d="M45.6899 60.899L45.5439 59.478C47.2439 59.304 48.6229 58.367 50.4599 56.138C51.1447 55.245 51.6031 54.1996 51.7959 53.091C52.011 52.1193 52.3368 51.1754 52.7669 50.278C53.8809 48.064 55.5969 46.239 60.3569 44.532L60.8389 45.876C56.0389 47.596 54.8519 49.31 54.0389 50.919C53.6557 51.7242 53.3661 52.5707 53.1759 53.442C52.9323 54.7564 52.376 55.9928 51.5539 57.047C50.0349 58.891 48.2709 60.633 45.6819 60.899" fill="#1B1B1B"/>
<path d="M34.5171 65.253C34.3921 65.244 22.0171 64.209 21.1411 51.025L22.5661 50.925C22.6293 54.1837 23.8953 57.3039 26.1205 59.6854C28.3458 62.0669 31.3732 63.5413 34.6201 63.825L34.5171 65.253Z" fill="#1B1B1B"/>
<path d="M25.4711 62.687C20.0131 61.116 15.9871 57.066 15.2151 52.369C14.9962 50.7161 15.1111 49.0361 15.5528 47.4284C15.9946 45.8207 16.7543 44.3179 17.7871 43.009C19.1336 41.2622 20.8179 39.8042 22.7396 38.7219C24.6614 37.6396 26.7813 36.955 28.9731 36.709L29.1441 38.127C27.1436 38.3496 25.2084 38.9723 23.4535 39.9581C21.6987 40.9438 20.16 42.2725 18.9291 43.865C18.0125 45.0202 17.3367 46.3474 16.9417 47.7681C16.5466 49.1889 16.4403 50.6744 16.6291 52.137C17.3111 56.292 20.9381 59.895 25.8691 61.315L25.4711 62.687Z" fill="#1B1B1B"/>
<path d="M28.8569 60.606L27.5659 59.996C29.7409 55.387 29.3709 53.334 28.8049 51.625C28.5067 50.7827 28.1128 49.9774 27.6309 49.225C26.8746 48.1238 26.3944 46.8568 26.2309 45.531C26.0019 43.152 26.0169 40.673 27.6589 38.654L28.7659 39.554C27.6879 40.879 27.3749 42.517 27.6519 45.392C27.7983 46.5077 28.2128 47.5714 28.8599 48.492C29.3942 49.3317 29.8303 50.2299 30.1599 51.169C30.9389 53.521 31.0159 56.024 28.8599 60.598" fill="#1B1B1B"/>
<path d="M27.6909 31.025L26.3259 30.605C26.3629 30.485 30.1609 18.663 43.1979 20.772L42.9699 22.182C39.7807 21.5096 36.4556 22.0409 33.6347 23.6736C30.8138 25.3062 28.6966 27.9248 27.6909 31.025Z" fill="#1B1B1B"/>
<path d="M55.387 31.624L53.968 31.472C54.2011 29.4728 54.0297 27.4472 53.4642 25.5156C52.8987 23.584 51.9505 21.7858 50.676 20.228C49.7568 19.0745 48.6159 18.1169 47.3205 17.4115C46.0252 16.7061 44.6017 16.2673 43.134 16.121C38.928 15.862 34.606 18.575 32.113 23.061L30.864 22.367C33.624 17.402 38.478 14.384 43.225 14.697C44.8851 14.8554 46.4965 15.3452 47.9639 16.1373C49.4312 16.9295 50.7248 18.008 51.768 19.309C53.1665 21.0142 54.2077 22.9833 54.8296 25.0991C55.4515 27.215 55.6414 29.4343 55.388 31.625" fill="#1B1B1B"/>
<path d="M52.653 30.779C51.604 29.429 50.079 28.756 47.215 28.379C46.0946 28.2713 44.9649 28.4359 43.922 28.859C42.9839 29.1912 42.0109 29.415 41.022 29.526C38.555 29.754 36.097 29.265 32.127 26.134L33.011 25.013C37.011 28.169 39.094 28.271 40.89 28.104C41.7769 28.0022 42.6492 27.7992 43.49 27.499C44.733 27.0086 46.0759 26.8251 47.405 26.964C49.773 27.276 52.186 27.847 53.785 29.903L52.653 30.779Z" fill="#1B1B1B"/>
<path d="M57.9321 76.02H17.1931C12.6347 76.015 8.26456 74.202 5.04134 70.9787C1.81811 67.7555 0.00509902 63.3853 6.99434e-05 58.827V54.81C-0.0112321 51.2141 1.34754 47.7488 3.80007 45.119L4.16907 44.727C5.49284 43.3924 7.06842 42.3339 8.80443 41.613C10.5404 40.892 12.4023 40.5229 14.2821 40.527H21.1001C25.2779 40.5209 29.2829 38.8585 32.237 35.9042C35.1911 32.9499 36.8532 28.9449 36.8591 24.767V14.278C36.8641 10.9659 38.0168 7.75782 40.1211 5.2L40.5051 4.766C41.8423 3.26817 43.4806 2.06944 45.3129 1.24816C47.1452 0.426889 49.1302 0.00156574 51.1381 0L57.9321 0C62.4874 0.00184698 66.8559 1.81068 70.0792 5.02962C73.3024 8.24856 75.1171 12.6147 75.1251 17.17V58.849C75.1174 63.4045 73.3028 67.7709 70.0795 70.99C66.8563 74.2092 62.4876 76.0182 57.9321 76.02ZM14.2781 41.96C12.5897 41.9549 10.9172 42.2848 9.35718 42.9305C7.79721 43.5763 6.38083 44.5251 5.19007 45.722L4.83807 46.097C2.63571 48.4626 1.41648 51.5779 1.42807 54.81V58.826C1.43257 63.0058 3.09497 67.013 6.0505 69.9686C9.00604 72.9241 13.0133 74.5865 17.1931 74.591H57.9321C62.1093 74.5902 66.1155 72.9323 69.0717 69.981C72.0278 67.0297 73.6924 63.0262 73.7001 58.849V17.17C73.6924 12.9928 72.0278 8.9893 69.0717 6.03802C66.1155 3.08674 62.1093 1.42879 57.9321 1.428H51.1381C49.3321 1.4288 47.5466 1.8106 45.8982 2.54845C44.2499 3.28631 42.7757 4.36361 41.5721 5.71L41.2061 6.123C39.3209 8.42282 38.2898 11.3043 38.2881 14.278V24.767C38.2828 29.3244 36.4704 33.6937 33.2483 36.9167C30.0262 40.1397 25.6574 41.9534 21.1001 41.96H14.2781Z" fill="#1B1B1B"/>
<path d="M40.6731 5.64899C38.6672 8.07741 37.5709 11.1293 37.5731 14.279V24.767C37.5749 26.9314 37.15 29.075 36.3226 31.0751C35.4953 33.0752 34.2817 34.8925 32.7513 36.4232C31.221 37.9538 29.4039 39.1677 27.4039 39.9954C25.404 40.8231 23.2605 41.2484 21.0961 41.247H14.2791C12.4973 41.2444 10.7325 41.5938 9.08611 42.2751C7.43971 42.9564 5.94407 43.9562 4.68506 45.217L40.6731 5.64899Z" fill="#1B1B1B"/>
<path d="M4.86607 45.397L4.49707 45.045L40.4841 5.47699L40.8701 5.80999C38.9077 8.19561 37.8333 11.1879 37.8301 14.277V24.769C37.8245 29.2052 36.0596 33.4582 32.9225 36.5949C29.7854 39.7316 25.5323 41.496 21.0961 41.501H14.2791C12.5301 41.496 10.7975 41.8382 9.18172 42.5076C7.56593 43.1771 6.09905 44.1605 4.86607 45.401M38.7661 8.12399L6.99307 43.058C9.18018 41.7001 11.7047 40.9839 14.2791 40.991H21.0961C25.397 40.986 29.5203 39.2753 32.5616 36.2342C35.6028 33.1931 37.3138 29.0699 37.3191 24.769V14.278C37.3208 12.1413 37.8171 10.0339 38.7691 8.12099" fill="#1B1B1B"/>
</g>
</g>
<defs>
<clipPath id="clip0_439_3385">
<rect width="75.124" height="76.02" fill="white"/>
</clipPath>
</defs>
</svg>
