<svg width="83" height="82" viewBox="0 0 83 82" fill="none" xmlns="http://www.w3.org/2000/svg">
<g clip-path="url(#clip0_439_3378)">
<path d="M40.5529 9.508C34.4195 9.5078 28.4238 11.3264 23.324 14.7337C18.2241 18.1411 14.2492 22.9842 11.9019 28.6507C9.55453 34.3171 8.94024 40.5524 10.1366 46.568C11.333 52.5835 14.2863 58.1093 18.6231 62.4464C22.9599 66.7835 28.4855 69.7372 34.501 70.9339C40.5165 72.1307 46.7518 71.5168 52.4184 69.1698C58.085 66.8228 62.9284 62.8482 66.3361 57.7486C69.7438 52.649 71.5627 46.6534 71.5629 40.52C71.5537 32.2983 68.2836 24.4159 62.4702 18.6021C56.6567 12.7883 48.7746 9.51779 40.5529 9.508ZM40.5529 69.928C34.7364 69.9278 29.0506 68.2028 24.2144 64.9712C19.3783 61.7396 15.609 57.1465 13.3833 51.7726C11.1575 46.3988 10.5752 40.4857 11.7101 34.781C12.845 29.0763 15.646 23.8362 19.759 19.7233C23.8719 15.6105 29.1121 12.8097 34.8168 11.675C40.5216 10.5403 46.4347 11.1228 51.8085 13.3487C57.1822 15.5746 61.7752 19.3441 65.0067 24.1803C68.2381 29.0166 69.9629 34.7025 69.9629 40.519C69.9542 48.3162 66.8528 55.7916 61.3392 61.305C55.8257 66.8184 48.3502 69.9195 40.5529 69.928ZM53.7429 27.374C54.2614 27.2064 54.7252 26.9024 55.0857 26.4939C55.4462 26.0853 55.6902 25.5873 55.7919 25.052C55.8327 25.0691 55.8749 25.0828 55.9179 25.093L56.8179 25.293C57.0253 25.339 57.2425 25.3007 57.4217 25.1866C57.6009 25.0725 57.7274 24.8919 57.7734 24.6845C57.8194 24.4771 57.7812 24.2599 57.6671 24.0807C57.5529 23.9015 57.3723 23.775 57.1649 23.729L56.2649 23.529C56.11 23.4951 55.9485 23.5079 55.8009 23.566C55.5466 22.0223 54.7315 20.6268 53.5119 19.647L53.9879 18.791C54.0391 18.6991 54.0716 18.598 54.0837 18.4935C54.0958 18.389 54.0871 18.2831 54.0583 18.1819C54.0295 18.0807 53.981 17.9863 53.9157 17.9038C53.8503 17.8214 53.7694 17.7526 53.6774 17.7015C53.5855 17.6503 53.4844 17.6178 53.3799 17.6057C53.2754 17.5936 53.1695 17.6023 53.0684 17.6311C52.9672 17.6599 52.8727 17.7084 52.7902 17.7737C52.7078 17.8391 52.6391 17.9201 52.5879 18.012L52.1339 18.83C51.5056 18.5616 50.838 18.3968 50.1569 18.342C49.4232 18.2835 48.6866 18.4143 48.0179 18.722C47.988 18.6817 47.9545 18.6443 47.9179 18.61L46.8179 17.61C46.7401 17.5392 46.649 17.4844 46.5499 17.4489C46.4509 17.4133 46.3459 17.3975 46.2407 17.4025C46.1356 17.4075 46.0325 17.4332 45.9373 17.4781C45.8421 17.5229 45.7567 17.5861 45.6859 17.664C45.6151 17.7418 45.5604 17.8329 45.5248 17.9319C45.4892 18.031 45.4735 18.1361 45.4785 18.2412C45.4835 18.3463 45.5092 18.4494 45.554 18.5446C45.5989 18.6398 45.6621 18.7252 45.7399 18.796L46.7929 19.753C46.6552 19.9622 46.5519 20.1921 46.4869 20.434C46.3357 21.0083 46.3698 21.6157 46.5842 22.1695C46.7986 22.7233 47.1824 23.1952 47.6809 23.518L46.9899 24.272C46.9188 24.3496 46.8636 24.4405 46.8276 24.5394C46.7917 24.6383 46.7755 24.7433 46.7801 24.8485C46.7847 24.9536 46.81 25.0569 46.8544 25.1523C46.8989 25.2477 46.9618 25.3334 47.0394 25.4045C47.1171 25.4756 47.2079 25.5307 47.3068 25.5667C47.4057 25.6027 47.5108 25.6189 47.6159 25.6143C47.7211 25.6097 47.8243 25.5844 47.9197 25.5399C48.0151 25.4954 48.1008 25.4326 48.1719 25.355L49.1329 24.307C49.6361 24.7337 50.0344 25.2706 50.2969 25.876L49.9099 27.424C49.8842 27.5261 49.8788 27.6323 49.8942 27.7365C49.9096 27.8406 49.9454 27.9407 49.9996 28.031C50.0537 28.1213 50.1252 28.2001 50.2099 28.2627C50.2945 28.3253 50.3907 28.3706 50.4929 28.396C50.5567 28.4121 50.6222 28.4202 50.6879 28.42C50.8665 28.4199 51.0398 28.3601 51.1804 28.2501C51.3211 28.1401 51.4209 27.9862 51.4639 27.813L51.6209 27.185C52.044 27.3764 52.5026 27.4765 52.9669 27.479C53.2291 27.4791 53.4902 27.4438 53.7429 27.374ZM51.7949 25.302C51.5461 24.6558 51.17 24.0662 50.689 23.568C50.2081 23.0699 49.6319 22.6734 48.9949 22.402C48.6634 22.3189 48.3775 22.1097 48.1982 21.8188C48.0188 21.5279 47.9602 21.1784 48.0349 20.845C48.1839 20.279 49.0559 19.934 49.8269 19.934C49.8949 19.934 49.9619 19.934 50.0269 19.942C51.0967 20.0219 52.105 20.4733 52.8772 21.2179C53.6495 21.9626 54.1372 22.9538 54.2559 24.02C54.3325 24.3849 54.2802 24.765 54.1081 25.0957C53.936 25.4264 53.6546 25.6873 53.3119 25.834C53.0349 25.9088 52.7417 25.8981 52.471 25.8031C52.2002 25.7082 51.9645 25.5334 51.7949 25.302ZM59.2459 40.555C59.1589 40.7805 59.0887 41.0121 59.0359 41.248L57.8199 40.707C57.7238 40.6642 57.6202 40.6409 57.515 40.6382C57.4099 40.6354 57.3052 40.6535 57.207 40.6912C57.1088 40.729 57.019 40.7857 56.9427 40.8581C56.8664 40.9306 56.8051 41.0174 56.7624 41.1135C56.7197 41.2096 56.6963 41.3132 56.6936 41.4184C56.6908 41.5236 56.7089 41.6282 56.7467 41.7264C56.7844 41.8246 56.8411 41.9144 56.9136 41.9907C56.986 42.067 57.0728 42.1282 57.1689 42.171L58.8689 42.927C58.8689 43.0296 58.8669 43.133 58.8629 43.237C58.8779 44.1991 58.7721 45.1592 58.5479 46.095C58.3015 47.2784 57.7075 48.3613 56.8419 49.205C56.7289 49.327 56.6139 49.45 56.5009 49.579L54.7439 48.993C54.644 48.9597 54.5386 48.9464 54.4336 48.9539C54.3286 48.9613 54.2261 48.9894 54.1319 49.0365C54.0378 49.0835 53.9538 49.1487 53.8848 49.2282C53.8159 49.3078 53.7632 49.4001 53.7299 49.5C53.6966 49.5999 53.6833 49.7053 53.6908 49.8103C53.6983 49.9153 53.7263 50.0178 53.7734 50.112C53.8205 50.2062 53.8856 50.2901 53.9652 50.3591C54.0447 50.4281 54.137 50.4807 54.2369 50.514L55.5809 50.962C55.5639 50.998 55.5469 51.032 55.5299 51.069C55.2602 51.6783 55.1903 52.3573 55.33 53.0088C55.4698 53.6603 55.8121 54.2509 56.3079 54.696C56.9437 55.2882 57.7801 55.6176 58.6489 55.618C59.2459 55.6159 59.8329 55.465 60.3569 55.179C60.9637 54.8569 61.5393 54.479 62.0759 54.05L62.8759 54.76C63.0351 54.9011 63.2437 54.9732 63.456 54.9604C63.6683 54.9477 63.8668 54.8511 64.0079 54.692C64.149 54.5329 64.2211 54.3242 64.2084 54.1119C64.1956 53.8996 64.099 53.7011 63.9399 53.56L63.2319 52.931C64.5023 51.3438 65.3832 49.481 65.8039 47.492L66.5929 47.717C66.7972 47.7753 67.0164 47.7501 67.2022 47.6469C67.3879 47.5436 67.525 47.3708 67.5834 47.1665C67.6417 46.9621 67.6166 46.743 67.5133 46.5572C67.4101 46.3715 67.2373 46.2343 67.0329 46.176L66.0449 45.894C66.2321 44.361 66.0815 42.8056 65.6039 41.337L66.8569 40.502C66.9446 40.4433 67.0199 40.3679 67.0785 40.2801C67.1371 40.1923 67.1778 40.0938 67.1983 39.9903C67.2188 39.8867 67.2188 39.7801 67.1981 39.6766C67.1775 39.5731 67.1366 39.4747 67.0779 39.387C67.0192 39.2993 66.9438 39.224 66.856 39.1654C66.7682 39.1068 66.6697 39.0661 66.5662 39.0456C66.4626 39.025 66.3561 39.0251 66.2526 39.0458C66.1491 39.0664 66.0506 39.1073 65.9629 39.166L64.7959 39.944C64.371 39.4228 63.8233 39.0152 63.2019 38.758V36.627C63.2019 36.4148 63.1176 36.2113 62.9676 36.0613C62.8176 35.9113 62.6141 35.827 62.4019 35.827C62.1898 35.827 61.9863 35.9113 61.8363 36.0613C61.6862 36.2113 61.6019 36.4148 61.6019 36.627V38.549C61.0636 38.6367 60.5595 38.8699 60.1442 39.2235C59.729 39.5771 59.4183 40.0375 59.2459 40.555ZM64.0839 41.855C64.6848 44.0047 64.6196 46.2861 63.8969 48.398C63.5895 49.5411 63.0487 50.6081 62.3087 51.532C61.5686 52.4558 60.6454 53.2165 59.5969 53.766C59.2505 53.961 58.8513 54.0417 58.4563 53.9966C58.0613 53.9516 57.6906 53.783 57.3969 53.515C57.1432 53.2982 56.967 53.0047 56.8948 52.6789C56.8227 52.3531 56.8585 52.0126 56.9969 51.709C57.2474 51.1794 57.5928 50.7002 58.0159 50.295C59.0644 49.2572 59.7884 47.9369 60.0999 46.495C60.3564 45.4392 60.4793 44.3554 60.4659 43.269C60.4284 42.5479 60.5216 41.8259 60.7409 41.138C60.8143 40.8565 60.9766 40.6061 61.2036 40.4242C61.4306 40.2422 61.7102 40.1384 62.0009 40.128C62.4786 40.1822 62.93 40.3744 63.3001 40.6811C63.6702 40.9878 63.942 41.3957 64.0839 41.855ZM28.6389 55.296C28.2939 54.3748 27.66 53.59 26.8319 53.059C26.5492 52.8476 26.2819 52.6163 26.0319 52.367C25.2236 51.4285 24.5565 50.3771 24.0519 49.246C23.7985 48.6748 23.3455 48.2157 22.7777 47.9548C22.2099 47.6939 21.5663 47.6492 20.9679 47.829C20.2356 48.0551 19.6035 48.5266 19.1779 49.164C18.7523 49.8014 18.5591 50.5659 18.6309 51.329C18.8774 52.8595 19.4781 54.3112 20.3853 55.5682C21.2925 56.8253 22.481 57.8529 23.8559 58.569C24.4574 58.9017 25.1326 59.0784 25.8199 59.083C26.5551 59.0967 27.2726 58.8561 27.8509 58.402C28.2885 58.0315 28.6 57.534 28.7421 56.9785C28.8842 56.423 28.8499 55.8371 28.6439 55.302L28.6389 55.296ZM26.8389 57.155C26.5074 57.3641 26.1234 57.4751 25.7314 57.4751C25.3394 57.4751 24.9555 57.3641 24.6239 57.155C23.4815 56.561 22.4908 55.7126 21.7279 54.6754C20.9651 53.6381 20.4505 52.4395 20.2239 51.172C20.1833 50.7812 20.2786 50.3884 20.4937 50.0596C20.7088 49.7309 21.0306 49.4862 21.4049 49.367C21.5085 49.3361 21.6158 49.3199 21.7239 49.319C21.9191 49.3242 22.1084 49.3878 22.2672 49.5015C22.426 49.6152 22.5471 49.7738 22.6149 49.957C23.1897 51.2318 23.9488 52.4151 24.8679 53.469C25.1724 53.7752 25.4989 54.0587 25.8449 54.317C26.4045 54.6578 26.8455 55.1626 27.1079 55.763C27.2098 55.9952 27.2382 56.2531 27.1892 56.502C27.1402 56.7508 27.0163 56.9787 26.8339 57.155H26.8389ZM43.0739 39.875C44.2013 39.875 45.3033 39.5407 46.2407 38.9144C47.178 38.288 47.9086 37.3978 48.34 36.3563C48.7715 35.3148 48.8843 34.1686 48.6644 33.063C48.4444 31.9573 47.9016 30.9416 47.1044 30.1445C46.3073 29.3473 45.2916 28.8044 44.1859 28.5845C43.0802 28.3646 41.9341 28.4775 40.8926 28.9089C39.8511 29.3403 38.9609 30.0709 38.3345 31.0082C37.7082 31.9456 37.3739 33.0476 37.3739 34.175C37.3739 35.6859 37.9738 37.1349 39.0416 38.2037C40.1095 39.2725 41.5581 39.8737 43.0689 39.875H43.0739ZM43.0739 30.085C43.8837 30.0848 44.6753 30.3247 45.3487 30.7745C46.0221 31.2242 46.547 31.8635 46.857 32.6116C47.167 33.3596 47.2482 34.1829 47.0903 34.9771C46.9325 35.7713 46.5427 36.5009 45.9702 37.0735C45.3976 37.6462 44.6682 38.0362 43.874 38.1942C43.0798 38.3523 42.2566 38.2713 41.5084 37.9615C40.7603 37.6516 40.1209 37.1269 39.671 36.4536C39.2211 35.7803 38.9809 34.9887 38.9809 34.179C38.9825 33.0947 39.4135 32.0552 40.1796 31.288C40.9458 30.5207 41.9847 30.0882 43.0689 30.085H43.0739ZM28.3049 41.218C28.3049 40.6444 28.1348 40.0837 27.8162 39.6068C27.4975 39.1299 27.0446 38.7582 26.5147 38.5387C25.9848 38.3192 25.4017 38.2618 24.8391 38.3737C24.2766 38.4856 23.7599 38.7618 23.3543 39.1674C22.9487 39.573 22.6725 40.0897 22.5606 40.6522C22.4487 41.2148 22.5062 41.7979 22.7257 42.3278C22.9452 42.8577 23.3169 43.3106 23.7938 43.6292C24.2707 43.9479 24.8314 44.118 25.4049 44.118C26.1732 44.1167 26.9095 43.8105 27.4523 43.2668C27.9951 42.7231 28.2999 41.9862 28.2999 41.218H28.3049ZM24.1049 41.218C24.1049 40.9609 24.1811 40.7095 24.324 40.4958C24.4668 40.282 24.6699 40.1153 24.9074 40.0169C25.145 39.9185 25.4063 39.8928 25.6585 39.943C25.9107 39.9931 26.1424 40.1169 26.3242 40.2987C26.506 40.4805 26.6298 40.7122 26.6799 40.9644C26.7301 41.2165 26.7044 41.4779 26.606 41.7155C26.5076 41.953 26.3409 42.156 26.1271 42.2989C25.9134 42.4417 25.662 42.518 25.4049 42.518C25.2341 42.5181 25.065 42.4846 24.9071 42.4193C24.7493 42.354 24.6059 42.2583 24.4851 42.1376C24.3642 42.0168 24.2683 41.8735 24.203 41.7157C24.1376 41.5579 24.1039 41.3888 24.1039 41.218H24.1049ZM46.6139 43.166C45.8285 43.166 45.0608 43.3989 44.4077 43.8352C43.7547 44.2715 43.2458 44.8917 42.9452 45.6173C42.6446 46.3429 42.566 47.1414 42.7192 47.9117C42.8724 48.682 43.2506 49.3896 43.806 49.9449C44.3613 50.5003 45.0689 50.8785 45.8392 51.0317C46.6095 51.1849 47.408 51.1063 48.1336 50.8057C48.8592 50.5052 49.4793 49.9962 49.9157 49.3431C50.352 48.6901 50.5849 47.9224 50.5849 47.137C50.5836 46.0842 50.1648 45.075 49.4204 44.3305C48.6759 43.5861 47.6667 43.1673 46.6139 43.166ZM46.6139 49.505C46.1456 49.505 45.6878 49.3661 45.2984 49.1059C44.9089 48.8457 44.6054 48.4759 44.4262 48.0432C44.2469 47.6105 44.2 47.1344 44.2914 46.675C44.3828 46.2157 44.6083 45.7937 44.9395 45.4626C45.2706 45.1314 45.6926 44.9059 46.1519 44.8145C46.6113 44.7231 47.0874 44.77 47.5201 44.9492C47.9528 45.1285 48.3226 45.432 48.5828 45.8214C48.843 46.2108 48.9819 46.6686 48.9819 47.137C48.9819 47.7653 48.7325 48.3679 48.2885 48.8125C47.8445 49.257 47.2422 49.5072 46.6139 49.508V49.505ZM35.3329 50.493C35.031 50.4924 34.7361 50.4023 34.4854 50.2342C34.2346 50.066 34.0394 49.8274 33.9243 49.5483C33.8092 49.2692 33.7794 48.9623 33.8386 48.6663C33.8979 48.3702 34.0435 48.0984 34.2572 47.8852C34.4709 47.6719 34.743 47.5268 35.0391 47.4681C35.3353 47.4094 35.6421 47.4398 35.921 47.5555C36.1998 47.6712 36.4381 47.8669 36.6058 48.118C36.7734 48.369 36.8629 48.6641 36.8629 48.966C36.8633 49.167 36.824 49.3662 36.7473 49.552C36.6705 49.7378 36.5578 49.9066 36.4157 50.0487C36.2735 50.1909 36.1047 50.3036 35.9189 50.3803C35.7331 50.4571 35.5339 50.4964 35.3329 50.496V50.493ZM31.5959 25.588L30.5119 25.071C30.6186 24.9501 30.7188 24.8236 30.8119 24.692C31.1518 24.2082 31.3298 23.6292 31.3205 23.038C31.3112 22.4468 31.1149 21.8738 30.7599 21.401C30.4985 21.0448 30.1632 20.7494 29.7769 20.535L30.2999 19.189C30.3381 19.091 30.3565 18.9864 30.3543 18.8812C30.352 18.776 30.329 18.6723 30.2867 18.576C30.2443 18.4798 30.1835 18.3927 30.1075 18.32C30.0315 18.2472 29.942 18.1901 29.8439 18.152C29.7459 18.1138 29.6413 18.0954 29.5361 18.0976C29.431 18.0999 29.3273 18.1229 29.231 18.1652C29.1347 18.2076 29.0477 18.2685 28.9749 18.3444C28.9022 18.4204 28.845 18.5099 28.8069 18.608L28.2069 20.149C27.9113 20.1551 27.6179 20.2015 27.3349 20.287C26.1693 20.6216 25.0906 21.2062 24.1739 22L23.3089 21.135C23.2345 21.0606 23.1462 21.0016 23.049 20.9613C22.9518 20.921 22.8477 20.9003 22.7424 20.9003C22.6372 20.9003 22.533 20.921 22.4358 20.9613C22.3386 21.0016 22.2503 21.0606 22.1759 21.135C22.1015 21.2094 22.0425 21.2977 22.0023 21.3949C21.962 21.4921 21.9412 21.5963 21.9412 21.7015C21.9412 21.8067 21.962 21.9109 22.0023 22.0081C22.0425 22.1053 22.1015 22.1936 22.1759 22.268L23.0759 23.168C22.689 23.6605 22.3375 24.1798 22.0239 24.722C21.6193 25.4329 21.293 26.1856 21.0509 26.967L19.6069 26.457C19.5077 26.4219 19.4026 26.4067 19.2975 26.4123C19.1924 26.4179 19.0895 26.4441 18.9945 26.4895C18.8996 26.5348 18.8145 26.5985 18.7441 26.6767C18.6737 26.7549 18.6195 26.8463 18.5844 26.9455C18.5494 27.0447 18.5342 27.1498 18.5397 27.2549C18.5453 27.36 18.5715 27.4629 18.6169 27.5579C18.6623 27.6528 18.7259 27.7379 18.8041 27.8083C18.8824 27.8787 18.9737 27.9329 19.0729 27.968L20.6669 28.531C20.4985 29.3947 20.4796 30.2809 20.6109 31.151C20.7035 31.8519 21.0025 32.5095 21.47 33.04C21.9374 33.5705 22.5522 33.9499 23.2359 34.13C23.3983 34.1621 23.5634 34.1782 23.7289 34.178C24.1894 34.1671 24.6393 34.0378 25.0352 33.8023C25.431 33.5669 25.7595 33.2334 25.9889 32.834C26.0349 32.761 26.0759 32.688 26.1169 32.614L26.9399 33.108C27.0301 33.1621 27.1301 33.198 27.2342 33.2136C27.3383 33.2291 27.4444 33.2239 27.5465 33.1985C27.6486 33.173 27.7447 33.1276 27.8292 33.065C27.9138 33.0024 27.9853 32.9237 28.0394 32.8335C28.0936 32.7433 28.1294 32.6433 28.145 32.5392C28.1605 32.4351 28.1554 32.329 28.1299 32.2269C28.1044 32.1248 28.059 32.0287 27.9964 31.9441C27.9338 31.8596 27.8551 31.7881 27.7649 31.734L26.7649 31.134C26.7328 31.1159 26.6994 31.1002 26.6649 31.087C26.6999 30.934 26.7349 30.78 26.7649 30.625C26.9097 29.8311 27.1533 29.0584 27.4899 28.325C27.8467 27.478 28.4313 26.7466 29.1789 26.212L30.9139 27.038C31.0089 27.0832 31.1119 27.1093 31.217 27.1147C31.3221 27.1202 31.4272 27.1049 31.5264 27.0697C31.6255 27.0345 31.7168 26.9801 31.795 26.9096C31.8731 26.8392 31.9366 26.754 31.9819 26.659C32.0271 26.564 32.0532 26.461 32.0587 26.3559C32.0641 26.2508 32.0488 26.1457 32.0136 26.0465C31.9784 25.9473 31.9241 25.856 31.8536 25.7779C31.7831 25.6997 31.6979 25.6362 31.6029 25.591L31.5959 25.588ZM26.0369 27.63C25.6455 28.4761 25.362 29.3681 25.1929 30.285C25.1068 30.8778 24.9154 31.4504 24.6279 31.976C24.5298 32.175 24.3715 32.3382 24.1755 32.4425C23.9796 32.5467 23.7558 32.5868 23.5359 32.557C23.1702 32.4375 22.8473 32.214 22.6066 31.9138C22.366 31.6137 22.2181 31.2499 22.1809 30.867C22.0396 29.0057 22.4645 27.1453 23.3999 25.53C23.8379 24.6417 24.4548 23.8537 25.212 23.2154C25.9693 22.5771 26.8504 22.1023 27.7999 21.821C27.954 21.7726 28.1144 21.7477 28.2759 21.747C28.5063 21.7481 28.7333 21.8029 28.9389 21.907C29.1444 22.0112 29.3228 22.1618 29.4599 22.347C29.618 22.5506 29.7062 22.7998 29.7116 23.0575C29.717 23.3153 29.6393 23.5679 29.4899 23.778C29.2029 24.1672 28.8462 24.4998 28.4379 24.759C27.3784 25.4666 26.5446 26.4639 26.0359 27.632L26.0369 27.63ZM45.5479 61.172L44.4479 61.072C44.381 61.0677 44.3139 61.0717 44.2479 61.084C44.1851 60.6425 44.0499 60.2145 43.8479 59.817C43.8609 59.804 43.8769 59.793 43.8889 59.778L44.8889 58.578C45.025 58.4146 45.0906 58.2039 45.0712 57.9922C45.0519 57.7804 44.9493 57.585 44.7859 57.449C44.6225 57.3129 44.4118 57.2473 44.2001 57.2667C43.9884 57.286 43.793 57.3886 43.6569 57.552L42.8359 58.538C42.3265 58.1065 41.7191 57.8067 41.0668 57.6647C40.4146 57.5227 39.7375 57.543 39.0949 57.7238C38.4523 57.9045 37.8638 58.2403 37.3812 58.7015C36.8986 59.1627 36.5366 59.7352 36.3269 60.369H35.2579C35.0457 60.369 34.8422 60.4533 34.6922 60.6033C34.5422 60.7533 34.4579 60.9568 34.4579 61.169C34.4579 61.3811 34.5422 61.5847 34.6922 61.7347C34.8422 61.8847 35.0457 61.969 35.2579 61.969H36.1299C36.2016 62.8966 36.5875 63.772 37.2238 64.4507C37.8602 65.1293 38.7089 65.5708 39.6299 65.702L39.7809 66.609C39.8119 66.7959 39.9083 66.9657 40.0527 67.0882C40.1972 67.2107 40.3805 67.2779 40.5699 67.278C40.6141 67.2782 40.6583 67.2745 40.7019 67.267C40.8058 67.2499 40.9053 67.2125 40.9947 67.1568C41.0841 67.1012 41.1616 67.0285 41.2229 66.9428C41.2841 66.8572 41.3278 66.7602 41.3515 66.6577C41.3751 66.5551 41.3784 66.4488 41.3609 66.345L41.2389 65.611C41.9484 65.4237 42.5947 65.0494 43.1103 64.5272C43.6259 64.0049 43.9918 63.3539 44.1699 62.642C44.2141 62.6545 44.2593 62.6632 44.3049 62.668L45.4049 62.768C45.4299 62.768 45.4539 62.768 45.4789 62.768C45.6911 62.7775 45.8983 62.7024 46.0551 62.5591C46.2119 62.4158 46.3053 62.2162 46.3149 62.004C46.3244 61.7918 46.2493 61.5845 46.106 61.4278C45.9628 61.271 45.7631 61.1775 45.5509 61.168L45.5479 61.172ZM40.2019 64.146C39.7101 64.1462 39.2294 64.0005 38.8204 63.7274C38.4114 63.4544 38.0927 63.0661 37.9044 62.6118C37.7161 62.1575 37.6668 61.6576 37.7626 61.1752C37.8585 60.6929 38.0953 60.2499 38.4431 59.9021C38.7908 59.5544 39.2338 59.3176 39.7161 59.2217C40.1985 59.1258 40.6984 59.1751 41.1527 59.3634C41.607 59.5517 41.9953 59.8705 42.2684 60.2794C42.5415 60.6884 42.6871 61.1692 42.6869 61.661C42.6866 62.3201 42.4248 62.9523 41.9589 63.4185C41.493 63.8848 40.8611 64.1472 40.2019 64.148V64.146ZM81.7689 59.259L73.5459 63.93C73.4283 63.9972 73.2955 64.0334 73.16 64.0353C73.0245 64.0371 72.8908 64.0045 72.7714 63.9406C72.6519 63.8766 72.5507 63.7834 72.4771 63.6696C72.4036 63.5558 72.3602 63.4252 72.3509 63.29L71.7159 54.338C71.7085 54.2329 71.7218 54.1274 71.7552 54.0275C71.7885 53.9276 71.8412 53.8353 71.9103 53.7557C72.0497 53.5951 72.2472 53.4965 72.4594 53.4815C72.6716 53.4665 72.881 53.5364 73.0416 53.6758C73.2023 53.8153 73.3009 54.0128 73.3159 54.225L73.7849 60.831C78.8203 52.593 80.6178 42.7789 78.8289 33.291C78.9457 33.258 79.0594 33.2152 79.1689 33.163C79.5539 32.979 79.9439 32.807 80.3359 32.64C82.2498 42.3272 80.5683 52.38 75.6059 60.917L80.9789 57.865C81.1637 57.76 81.3828 57.7327 81.5878 57.7891C81.7928 57.8456 81.9669 57.9811 82.0719 58.166C82.1769 58.3508 82.2042 58.5698 82.1478 58.7748C82.0913 58.9798 81.9557 59.1539 81.7709 59.259H81.7689ZM57.9629 75.351C58.0066 75.9026 58.1257 76.4457 58.3169 76.965C49.5153 81.261 39.4556 82.2237 29.9989 79.675C30.1802 79.1677 30.2814 78.6354 30.2989 78.097C39.5424 80.6189 49.3914 79.6415 57.9589 75.352L57.9629 75.351ZM21.8929 74.698C21.8089 74.813 21.7259 74.929 21.6529 75.053C21.4559 75.3969 21.3046 75.7649 21.2029 76.148C15.7348 73.1801 11.0232 68.9935 7.43299 63.9124C3.84277 58.8312 1.47025 52.9918 0.499217 46.8464C-0.471813 40.7011 -0.015285 34.4147 1.83338 28.4741C3.68205 22.5335 6.87328 17.0982 11.1599 12.589L4.79994 14.139C4.6977 14.1639 4.59153 14.1684 4.48756 14.1523C4.38358 14.1361 4.28381 14.0996 4.19392 14.045C4.10403 13.9903 4.02581 13.9184 3.96369 13.8335C3.90158 13.7485 3.85681 13.6522 3.83192 13.55C3.80703 13.4478 3.80254 13.3416 3.81868 13.2376C3.83481 13.1337 3.87122 13.0339 3.92591 12.944C3.98061 12.8541 4.05247 12.7759 4.1374 12.7138C4.22233 12.6517 4.31868 12.6069 4.42091 12.582L13.6099 10.343C13.6189 10.343 13.6289 10.343 13.6389 10.343C13.6853 10.3334 13.7325 10.3281 13.7799 10.327C13.7939 10.327 13.8079 10.327 13.8219 10.327C13.8823 10.3284 13.9424 10.3368 14.0009 10.352C14.0119 10.352 14.0229 10.36 14.0339 10.363C14.0813 10.3775 14.1272 10.3966 14.1709 10.42C14.1869 10.428 14.2019 10.438 14.2179 10.448C14.2566 10.4721 14.2931 10.4995 14.3269 10.53C14.3359 10.538 14.3469 10.543 14.3559 10.552C14.3649 10.561 14.3639 10.563 14.3689 10.567C14.3739 10.571 14.3839 10.58 14.3919 10.587C14.422 10.6209 14.4491 10.6574 14.4729 10.696C14.4729 10.702 14.4819 10.707 14.4849 10.712C14.5166 10.7652 14.5421 10.8219 14.5609 10.881C14.5609 10.894 14.5679 10.909 14.5709 10.923C14.5832 10.9685 14.5912 11.015 14.5949 11.062C14.5949 11.08 14.5949 11.097 14.5949 11.114C14.5957 11.1646 14.5917 11.2151 14.5829 11.265C14.5833 11.2733 14.5833 11.2816 14.5829 11.29V11.314L12.7459 20.071C12.7085 20.251 12.6101 20.4126 12.4675 20.5286C12.3249 20.6446 12.1467 20.7079 11.9629 20.708C11.9074 20.708 11.8521 20.702 11.7979 20.69C11.6949 20.6686 11.5971 20.627 11.5101 20.5678C11.4232 20.5085 11.3488 20.4327 11.2912 20.3446C11.2336 20.2565 11.194 20.158 11.1746 20.0546C11.1551 19.9512 11.1563 19.8449 11.1779 19.742L12.4779 13.542C8.32852 17.8577 5.23029 23.0722 3.42408 28.7802C1.61787 34.4881 1.15234 40.5357 2.06367 46.4529C2.975 52.37 5.23862 57.9972 8.6786 62.8972C12.1186 67.7971 16.6422 71.8378 21.8979 74.705L21.8929 74.698ZM66.9679 70.232C67.0364 70.312 67.0885 70.4046 67.1212 70.5048C67.1538 70.6049 67.1664 70.7105 67.1581 70.8155C67.1498 70.9204 67.1209 71.0228 67.073 71.1165C67.0251 71.2103 66.9591 71.2937 66.8789 71.362C65.6832 72.3799 64.4291 73.3272 63.1229 74.199C62.9938 73.6724 62.8021 73.163 62.5519 72.682C62.5519 72.674 62.5419 72.668 62.5379 72.66C63.6819 71.8807 64.7835 71.0408 65.8379 70.144C65.999 70.007 66.2078 69.9394 66.4186 69.9558C66.6294 69.9723 66.8251 70.0716 66.9629 70.232H66.9679ZM30.4479 2.89099C30.2854 2.37961 30.0917 1.87867 29.8679 1.39099C32.8491 0.58009 35.9135 0.114369 39.0009 0.00299072C39.2109 0.517381 39.3817 1.04687 39.5119 1.58698C36.4491 1.66172 33.4059 2.09912 30.4459 2.88998L30.4479 2.89099ZM22.7579 4.95599C22.7123 4.86102 22.6859 4.75797 22.6802 4.65277C22.6746 4.54757 22.6897 4.44228 22.7248 4.34296C22.7599 4.24363 22.8144 4.15222 22.8849 4.07397C22.9554 3.99573 23.0408 3.93218 23.1359 3.88699C23.4119 3.75366 23.6899 3.62532 23.9699 3.50198C24.7259 3.16298 25.4889 2.85197 26.2589 2.56097C26.4681 3.05136 26.6523 3.55199 26.8109 4.06097C26.0776 4.33831 25.3493 4.63833 24.6259 4.961C24.3579 5.081 24.0919 5.20299 23.8259 5.32999C23.7311 5.37585 23.6281 5.40254 23.523 5.40851C23.4178 5.41448 23.3124 5.39962 23.213 5.36478C23.1136 5.32993 23.0221 5.2758 22.9436 5.20547C22.8652 5.13515 22.8014 5.05002 22.7559 4.95499L22.7579 4.95599ZM43.7119 1.69897C43.5887 1.14514 43.4368 0.598099 43.2569 0.0599976C51.5029 0.623096 59.3812 3.68712 65.8408 8.84335C72.3005 13.9996 77.0343 21.0028 79.4109 28.919C78.9109 29.119 78.4189 29.334 77.9289 29.558C75.7007 22.0049 71.2403 15.3022 65.1335 10.3303C59.0266 5.3583 51.5589 2.34949 43.7109 1.69897H43.7119Z" fill="#231F20"/>
</g>
<defs>
<clipPath id="clip0_439_3378">
<rect width="82.174" height="81.071" fill="white"/>
</clipPath>
</defs>
</svg>
