<svg width="82" height="85" viewBox="0 0 82 85" fill="none" xmlns="http://www.w3.org/2000/svg">
<g clip-path="url(#clip0_439_3335)">
<mask id="mask0_439_3335" style="mask-type:luminance" maskUnits="userSpaceOnUse" x="0" y="0" width="82" height="85">
<path d="M81.55 0H0V84.521H81.55V0Z" fill="white"/>
</mask>
<g mask="url(#mask0_439_3335)">
<path d="M40.274 31.823C38.726 31.823 37.2128 31.3639 35.9258 30.5038C34.6388 29.6438 33.6357 28.4214 33.0434 26.9912C32.4512 25.561 32.2964 23.9873 32.5986 22.4691C32.9008 20.9509 33.6465 19.5565 34.7412 18.4621C35.836 17.3677 37.2308 16.6226 38.7491 16.321C40.2674 16.0194 41.841 16.1748 43.271 16.7676C44.7009 17.3603 45.923 18.3639 46.7825 19.6513C47.6421 20.9386 48.1006 22.452 48.1 24C48.0976 26.0748 47.2723 28.064 45.8052 29.5312C44.338 30.9983 42.3489 31.8236 40.274 31.826M40.274 16.911C38.8719 16.9108 37.5012 17.3264 36.3353 18.1052C35.1694 18.884 34.2606 19.9911 33.7239 21.2864C33.1872 22.5818 33.0467 24.0072 33.3201 25.3824C33.5935 26.7576 34.2686 28.0208 35.26 29.0123C36.2513 30.0038 37.5145 30.6791 38.8896 30.9527C40.2648 31.2263 41.6902 31.086 42.9856 30.5495C44.281 30.0129 45.3882 29.1043 46.1672 27.9385C46.9462 26.7727 47.362 25.4021 47.362 24C47.3591 22.1207 46.6113 20.3193 45.2825 18.9905C43.9537 17.6617 42.1532 16.9139 40.274 16.911ZM54.691 40.891H50.528C50.0066 38.9222 48.9294 37.1452 47.4251 35.7723C45.9208 34.3994 44.053 33.4886 42.045 33.1488C40.0369 32.809 37.9735 33.0546 36.1012 33.8562C34.229 34.6577 32.6271 35.9814 31.487 37.669C31.487 37.669 31.481 37.669 31.478 37.676C31.257 37.954 26.056 44.532 26.163 49.026C26.255 52.894 28.791 54.107 29.663 54.411V64.665C29.663 64.7627 29.7018 64.8564 29.7709 64.9255C29.84 64.9947 29.9338 65.0335 30.0315 65.0335C30.1292 65.0335 30.223 64.9947 30.2921 64.9255C30.3612 64.8564 30.4 64.7627 30.4 64.665V43.606C30.4023 41.5846 31.024 39.6125 32.1813 37.9553C33.3387 36.298 34.9761 35.0352 36.873 34.337L40.24 42.021C40.2687 42.0868 40.3159 42.1427 40.376 42.182C40.436 42.2212 40.5062 42.2421 40.578 42.242H40.59C40.6637 42.2398 40.735 42.2156 40.7947 42.1724C40.8544 42.1293 40.8998 42.0692 40.925 42L43.688 34.346C45.1417 34.8858 46.4486 35.7591 47.5037 36.8956C48.5587 38.0321 49.3326 39.4002 49.763 40.89H44C43.9024 40.89 43.8088 40.9287 43.7398 40.9978C43.6708 41.0668 43.632 41.1604 43.632 41.258V56.172C43.632 56.2696 43.6708 56.3632 43.7398 56.4322C43.8088 56.5012 43.9024 56.54 44 56.54H50.144V64.665C50.144 64.7627 50.1828 64.8564 50.2519 64.9255C50.321 64.9947 50.4148 65.0335 50.5125 65.0335C50.6102 65.0335 50.704 64.9947 50.7731 64.9255C50.8422 64.8564 50.881 64.7627 50.881 64.665V56.54H54.69C54.7383 56.54 54.7862 56.5305 54.8308 56.512C54.8755 56.4935 54.916 56.4664 54.9502 56.4322C54.9844 56.398 55.0115 56.3574 55.03 56.3128C55.0485 56.2682 55.058 56.2203 55.058 56.172V41.257C55.058 41.2086 55.0485 41.1608 55.03 41.1161C55.0115 41.0715 54.9844 41.0309 54.9502 40.9968C54.916 40.9626 54.8755 40.9355 54.8308 40.917C54.7862 40.8985 54.7383 40.889 54.69 40.889M26.9 49.006C26.843 46.598 28.506 43.428 29.958 41.132C29.7631 41.9422 29.6644 42.7726 29.664 43.606V53.629C28.798 53.275 26.975 52.157 26.9 49.006ZM40.545 40.88L37.58 34.11C39.3473 33.6047 41.2207 33.6047 42.988 34.11L40.545 40.88ZM54.323 55.8H44.371V41.625H54.324L54.323 55.8ZM6.182 32.983L0 30.885L0.643 28.991C0.75975 28.5595 0.963679 28.1566 1.2422 27.8071C1.52072 27.4575 1.86793 27.1687 2.26239 26.9586C2.65685 26.7484 3.09019 26.6213 3.53568 26.5851C3.98116 26.549 4.42933 26.6045 4.85253 26.7482C5.27573 26.892 5.66498 27.121 5.99626 27.421C6.32753 27.721 6.5938 28.0858 6.77863 28.4927C6.96346 28.8997 7.06294 29.3402 7.07091 29.787C7.07889 30.2339 6.99519 30.6777 6.825 31.091L6.182 32.983ZM1.582 29.322L1.3 30.153L5.588 31.608L5.87 30.777C5.9926 30.4933 6.05361 30.1869 6.049 29.8779C6.04439 29.5689 5.97427 29.2645 5.84327 28.9846C5.71227 28.7047 5.52337 28.4559 5.28906 28.2544C5.05474 28.053 4.78035 27.9035 4.484 27.816C4.19569 27.7052 3.88715 27.6569 3.57879 27.6742C3.27042 27.6916 2.96924 27.7741 2.69514 27.9165C2.42105 28.0588 2.18028 28.2577 1.98873 28.5C1.79719 28.7423 1.65924 29.0224 1.584 29.322M3.594 22L5.717 18.466L6.566 18.976L5.016 21.556L6.48 22.435L7.821 20.2L8.67 20.71L7.329 22.945L8.914 23.897L10.464 21.317L11.313 21.827L9.191 25.361L3.594 22ZM13.773 18.749L13.017 19.566L8.227 15.134L9.707 13.534C10.623 12.544 11.742 12.32 12.628 13.14C12.935 13.4033 13.1393 13.7665 13.2049 14.1656C13.2706 14.5647 13.1934 14.9742 12.987 15.322L16.401 15.91L15.555 16.824L12.289 16.258L11.732 16.858L13.773 18.749ZM11.793 15.376C12.279 14.85 12.307 14.362 11.878 13.965C11.449 13.568 10.957 13.627 10.47 14.153L9.702 14.984L11.024 16.207L11.793 15.376ZM20.535 11.1L19.773 11.607L16.667 9.86297L19.185 13.649L18.266 14.26L14.65 8.82397L15.609 8.18697L19.534 10.426L18.987 5.94097L19.953 5.29797L23.568 10.735L22.649 11.346L20.131 7.55897L20.535 11.1ZM29.2 6.52697L26.838 7.37397L26.819 9.27397L25.709 9.67397L25.859 2.68597L26.969 2.28597L31.525 7.58597L30.415 7.98597L29.2 6.52697ZM26.843 6.35997L28.557 5.74497L26.867 3.71597L26.843 6.35997ZM36.878 1.09997L34.901 1.39997L35.739 6.87497L34.639 7.04297L33.8 1.57497L31.832 1.87497L31.682 0.899974L36.728 0.124974L36.878 1.09997ZM42.91 6.77497C42.4589 6.75472 42.0165 6.64403 41.609 6.4495C41.2015 6.25497 40.8372 5.98055 40.5378 5.64253C40.2384 5.30451 40.01 4.90978 39.866 4.48178C39.7221 4.05377 39.6657 3.60122 39.7 3.15097C39.7625 2.23863 40.1848 1.38846 40.8741 0.787503C41.5634 0.186543 42.4632 -0.115985 43.3755 -0.0535261C44.2878 0.00893239 45.138 0.43126 45.739 1.12055C46.3399 1.80984 46.6425 2.70963 46.58 3.62197C46.5523 4.07222 46.4345 4.51232 46.2338 4.91627C46.033 5.32022 45.7532 5.67981 45.4111 5.97377C45.0689 6.26773 44.6713 6.49009 44.2417 6.62771C43.8121 6.76533 43.3593 6.8154 42.91 6.77497ZM43.31 0.986974C42.9996 0.967398 42.6884 1.01031 42.3948 1.11317C42.1013 1.21603 41.8313 1.37675 41.601 1.58581C41.3707 1.79486 41.1847 2.04801 41.054 2.33025C40.9232 2.6125 40.8505 2.9181 40.84 3.22897C40.8072 3.53829 40.8371 3.85104 40.9279 4.14853C41.0188 4.44602 41.1687 4.72214 41.3687 4.96035C41.5687 5.19857 41.8147 5.39399 42.092 5.53494C42.3693 5.67589 42.6721 5.75946 42.9825 5.78065C43.2928 5.80185 43.6042 5.76023 43.8981 5.6583C44.192 5.55636 44.4623 5.3962 44.6928 5.18739C44.9234 4.97858 45.1094 4.72542 45.2399 4.44304C45.3703 4.16066 45.4425 3.85488 45.452 3.54397C45.4839 3.23427 45.4532 2.92132 45.3618 2.62369C45.2705 2.32606 45.1203 2.04981 44.9201 1.81133C44.72 1.57285 44.474 1.377 44.1967 1.23539C43.9194 1.09378 43.6165 1.00931 43.306 0.986974M50.842 1.29297L51.91 1.60697L50.355 6.89197L53.079 7.69197L52.792 8.66897L49 7.55497L50.842 1.29297ZM57.439 11C56.8567 10.6716 56.3844 10.1786 56.0815 9.58272C55.7785 8.98685 55.6583 8.31474 55.7361 7.65081C55.8138 6.98687 56.086 6.36071 56.5184 5.85096C56.9509 5.34122 57.5243 4.97061 58.1667 4.78569C58.8091 4.60077 59.4918 4.60978 60.1291 4.81159C60.7663 5.0134 61.3298 5.39901 61.7486 5.91999C62.1675 6.44097 62.4231 7.0741 62.4833 7.73985C62.5435 8.40561 62.4056 9.07431 62.087 9.66197C61.8745 10.0597 61.5843 10.4108 61.2337 10.6944C60.8831 10.9781 60.4791 11.1885 60.0458 11.3132C59.6124 11.438 59.1584 11.4745 58.7106 11.4207C58.2629 11.3669 57.8305 11.2238 57.439 11ZM60.212 5.89997C59.9379 5.75301 59.6372 5.66246 59.3275 5.6337C59.0179 5.60493 58.7056 5.63853 58.4092 5.7325C58.1127 5.82646 57.8381 5.9789 57.6016 6.1808C57.365 6.3827 57.1714 6.62996 57.032 6.90797C56.8697 7.17562 56.7634 7.47342 56.7196 7.78333C56.6757 8.09324 56.6951 8.40884 56.7768 8.71101C56.8584 9.01319 57.0004 9.29567 57.1944 9.54136C57.3883 9.78705 57.63 9.99084 57.905 10.1404C58.18 10.29 58.4824 10.3822 58.794 10.4115C59.1057 10.4408 59.42 10.4066 59.718 10.3109C60.016 10.2153 60.2916 10.0601 60.5279 9.85489C60.7642 9.64967 60.9565 9.39863 61.093 9.11697C61.2508 8.84901 61.3532 8.55213 61.3943 8.24389C61.4354 7.93564 61.4142 7.62229 61.3321 7.32237C61.2499 7.02244 61.1085 6.74203 60.9161 6.49772C60.7237 6.25341 60.4843 6.05015 60.212 5.89997ZM64.6 11.5C64.9048 11.1699 65.2727 10.9044 65.682 10.7192C66.0912 10.5339 66.5335 10.4327 66.9826 10.4215C67.4317 10.4103 67.8785 10.4894 68.2965 10.654C68.7145 10.8187 69.0952 11.0655 69.416 11.38C69.9354 11.8204 70.2943 12.4205 70.4365 13.0865C70.5787 13.7525 70.4962 14.4468 70.202 15.061L69.315 14.227C69.4497 13.8543 69.4663 13.4492 69.3627 13.0666C69.2592 12.6841 69.0403 12.3428 68.736 12.089C68.5089 11.8803 68.2422 11.7195 67.9516 11.616C67.6611 11.5125 67.3528 11.4685 67.0449 11.4866C66.737 11.5047 66.4359 11.5845 66.1595 11.7213C65.8831 11.8581 65.6371 12.0491 65.436 12.283C65.1962 12.4942 65.0042 12.7541 64.8726 13.0453C64.7411 13.3365 64.673 13.6524 64.673 13.972C64.673 14.2915 64.7411 14.6074 64.8726 14.8986C65.0042 15.1899 65.1962 15.4497 65.436 15.661C66.322 16.495 67.336 16.561 67.856 16.008L68.069 15.781L66.674 14.469L67.32 13.782L69.512 15.844L67.139 18.366L66.376 17.648L67.217 16.755L67.21 16.749C66.7756 16.9393 66.2922 16.9874 65.8288 16.8865C65.3655 16.7855 64.9459 16.5407 64.63 16.187C64.306 15.8896 64.0467 15.5285 63.8685 15.1264C63.6902 14.7243 63.5968 14.2898 63.594 13.85C63.5911 13.4102 63.679 12.9745 63.8521 12.5702C64.0252 12.1658 64.2798 11.8015 64.6 11.5ZM69.52 21.61L68.866 20.71L74.148 16.875L74.802 17.775L69.52 21.61ZM72.775 23.051L73.298 24.076C73.1666 24.1461 73.0504 24.2416 72.9562 24.357C72.862 24.4725 72.7917 24.6054 72.7493 24.7483C72.707 24.8911 72.6935 25.0409 72.7096 25.189C72.7256 25.3371 72.771 25.4806 72.843 25.611C72.8816 25.7297 72.9449 25.8389 73.0289 25.9313C73.1128 26.0237 73.2154 26.0972 73.3299 26.1469C73.4444 26.1967 73.5682 26.2215 73.693 26.2198C73.8179 26.2181 73.9409 26.1898 74.054 26.137C74.474 25.922 74.639 25.457 74.57 24.782L74.492 24.049C74.403 23.6148 74.4546 23.1636 74.6393 22.7606C74.8239 22.3577 75.132 22.0241 75.519 21.808C75.7471 21.7035 75.9942 21.6468 76.245 21.6414C76.4958 21.636 76.7451 21.682 76.9775 21.7765C77.2099 21.871 77.4205 22.0121 77.5963 22.191C77.7722 22.3699 77.9095 22.583 78 22.817C78.1334 23.0447 78.2203 23.2966 78.2559 23.558C78.2915 23.8195 78.275 24.0855 78.2073 24.3405C78.1396 24.5956 78.0221 24.8348 77.8616 25.0442C77.7011 25.2537 77.5007 25.4293 77.272 25.561L76.749 24.536C76.9779 24.4082 77.1488 24.1971 77.226 23.9466C77.3033 23.6961 77.2811 23.4255 77.164 23.191C77.1201 23.089 77.056 22.997 76.9757 22.9204C76.8953 22.8439 76.8003 22.7843 76.6963 22.7454C76.5924 22.7064 76.4816 22.6889 76.3708 22.6938C76.2599 22.6987 76.1511 22.726 76.051 22.774C75.651 22.98 75.503 23.403 75.559 24.031L75.629 24.769C75.733 25.2154 75.69 25.6836 75.5064 26.1036C75.3228 26.5237 75.0084 26.8731 74.61 27.1C74.368 27.206 74.1068 27.2616 73.8426 27.2633C73.5784 27.2649 73.3165 27.2127 73.0732 27.1097C72.8298 27.0068 72.61 26.8553 72.4272 26.6644C72.2444 26.4736 72.1024 26.2475 72.01 26C71.8663 25.7555 71.7721 25.485 71.7329 25.2041C71.6937 24.9232 71.7102 24.6374 71.7815 24.3629C71.8529 24.0883 71.9776 23.8306 72.1486 23.6043C72.3195 23.378 72.5334 23.1876 72.778 23.044M80.6 33.027L80.041 31.107L74.725 32.655L74.414 31.586L79.73 30.038L79.174 28.128L80.125 27.851L81.551 32.751L80.6 33.027ZM3.5 58.408L3.094 57.372L9.172 54.993L9.966 57.022C10.458 58.278 10.171 59.383 9.047 59.822C8.67621 59.9834 8.26038 60.0089 7.87264 59.894C7.48489 59.7792 7.15005 59.5313 6.927 59.194L4.91 62.009L4.457 60.85L6.391 58.158L6.091 57.394L3.5 58.408ZM7.4 58.1C7.661 58.767 8.088 59 8.633 58.792C9.178 58.584 9.338 58.11 9.077 57.443L8.664 56.389L6.986 57.046L7.4 58.1ZM12.152 61.655L14.435 65.088L13.61 65.636L11.944 63.13L10.522 64.075L11.964 66.243L11.139 66.792L9.7 64.622L8.16 65.646L9.826 68.152L9 68.7L6.716 65.268L12.152 61.655ZM13.421 69.1C13.7252 68.7693 14.0927 68.5032 14.5018 68.3175C14.9109 68.1318 15.3532 68.0303 15.8024 68.019C16.2515 68.0077 16.6983 68.0869 17.1162 68.2518C17.5341 68.4167 17.9146 68.664 18.235 68.979C18.7728 69.4375 19.1402 70.064 19.2778 70.7573C19.4153 71.4505 19.315 72.1699 18.993 72.799L18.114 71.972C18.2765 71.5813 18.31 71.149 18.2097 70.738C18.1093 70.327 17.8803 69.9587 17.556 69.687C17.0831 69.2955 16.4788 69.099 15.8661 69.1373C15.2533 69.1756 14.6782 69.446 14.2578 69.8933C13.8373 70.3407 13.6031 70.9314 13.6028 71.5453C13.6025 72.1592 13.836 72.7502 14.256 73.198C14.5473 73.5047 14.929 73.7105 15.3453 73.7853C15.7617 73.8601 16.1911 73.8001 16.571 73.614L17.45 74.441C16.8417 74.801 16.1298 74.9453 15.4293 74.8506C14.7289 74.7558 14.0808 74.4276 13.59 73.919C13.2564 73.6174 12.9868 73.2518 12.7971 72.844C12.6075 72.4362 12.5017 71.9945 12.486 71.545C12.4703 71.0956 12.5451 70.6475 12.7059 70.2275C12.8667 69.8075 13.1102 69.4241 13.422 69.1M21.887 79.846C21.3038 79.5192 20.8302 79.0274 20.5256 78.4323C20.221 77.8373 20.099 77.1654 20.175 76.5013C20.251 75.8371 20.5215 75.2102 20.9526 74.6993C21.3837 74.1884 21.9562 73.8162 22.5981 73.6296C23.2401 73.443 23.9228 73.4503 24.5607 73.6504C25.1985 73.8506 25.763 74.2348 26.1831 74.7547C26.6033 75.2747 26.8605 75.9071 26.9224 76.5728C26.9843 77.2384 26.8481 77.9075 26.531 78.496C26.3197 78.8944 26.0306 79.2464 25.6808 79.531C25.3309 79.8157 24.9276 80.0272 24.4945 80.1531C24.0614 80.279 23.6075 80.3167 23.1596 80.2639C22.7117 80.2112 22.279 80.069 21.887 79.846ZM24.646 74.746C24.2322 74.4991 23.754 74.3818 23.273 74.4091C22.7919 74.4364 22.33 74.6071 21.9469 74.8992C21.5637 75.1913 21.2767 75.5915 21.1229 76.0481C20.9692 76.5047 20.9556 76.9969 21.084 77.4613C21.2124 77.9257 21.4769 78.341 21.8435 78.6538C22.21 78.9666 22.6617 79.1624 23.1406 79.2162C23.6194 79.2699 24.1033 79.1791 24.5301 78.9554C24.9568 78.7317 25.3068 78.3853 25.535 77.961C25.6923 77.6926 25.7941 77.3955 25.8345 77.0871C25.8749 76.7787 25.853 76.4653 25.7701 76.1656C25.6872 75.8658 25.545 75.5857 25.3519 75.3418C25.1588 75.098 24.9188 74.8954 24.646 74.746ZM32.8 82.23L31.907 82.03L31.007 78.585L30.026 83.025L28.948 82.787L30.357 76.412L31.481 76.66L32.59 81.04L35.442 77.54L36.575 77.791L35.17 84.163L34.092 83.925L35.074 79.485L32.8 82.23ZM43.332 82.918L42.419 82.975L40.601 79.913L40.885 84.451L39.785 84.52L39.381 78L40.53 77.928L42.807 81.828L44.579 77.671L45.737 77.598L46.145 84.114L45.045 84.183L44.761 79.644L43.332 82.918ZM48.545 76.927L52.478 75.693L52.778 76.638L49.907 77.538L50.418 79.167L52.902 78.388L53.202 79.333L50.718 80.112L51.271 81.876L54.142 80.976L54.442 81.921L50.5 83.155L48.545 76.927ZM58.17 80.32L54.876 74.686L55.82 74.134L60.92 76.759L58.481 72.58L59.425 72.028L62.719 77.662L61.767 78.219L56.709 75.659L59.109 79.771L58.17 80.32ZM66.27 74.933L61.71 70.27L63.138 68.87C63.437 68.5386 63.8006 68.2718 64.2066 68.0863C64.6125 67.9007 65.0522 67.8002 65.4984 67.791C65.9447 67.7818 66.3881 67.864 66.8014 68.0326C67.2147 68.2012 67.589 68.4527 67.9015 68.7715C68.2139 69.0902 68.4577 69.4696 68.618 69.8862C68.7783 70.3028 68.8515 70.7478 68.8333 71.1938C68.8151 71.6397 68.7058 72.0773 68.5121 72.4794C68.3184 72.8815 68.0444 73.2397 67.707 73.532L66.27 74.933ZM63.823 69.592L63.2 70.2L66.369 73.434L67 72.824C67.2247 72.6189 67.4058 72.3706 67.5325 72.094C67.6592 71.8174 67.7288 71.5181 67.7373 71.214C67.7457 70.9099 67.6928 70.6071 67.5817 70.3239C67.4706 70.0407 67.3036 69.7828 67.0907 69.5655C66.8777 69.3482 66.6231 69.1761 66.3422 69.0593C66.0612 68.9426 65.7596 68.8837 65.4554 68.8861C65.1512 68.8884 64.8506 68.9521 64.5715 69.0732C64.2924 69.1943 64.0405 69.3704 63.831 69.591M67.131 64.401L69.357 60.933L70.191 61.468L68.561 64L70 64.921L71.406 62.731L72.239 63.265L70.833 65.456L72.388 66.456L74.013 63.924L74.846 64.459L72.62 67.927L67.131 64.401ZM76.672 60.867L70.54 58.627L71.226 56.748C71.352 56.3187 71.5648 55.9199 71.851 55.5761C72.1373 55.2324 72.4911 54.951 72.8904 54.7494C73.2898 54.5478 73.7263 54.4303 74.1729 54.404C74.6195 54.3778 75.0667 54.4435 75.4869 54.597C75.9071 54.7505 76.2913 54.9886 76.6159 55.2965C76.9404 55.6044 77.1983 55.9756 77.3737 56.3871C77.5491 56.7987 77.6382 57.2418 77.6355 57.6892C77.6328 58.1365 77.5383 58.5786 77.358 58.988L76.672 60.867ZM72.158 57.1L71.858 57.925L76.111 59.479L76.411 58.655C76.5272 58.3727 76.5852 58.0699 76.5815 57.7647C76.5778 57.4595 76.5125 57.1582 76.3895 56.8789C76.2665 56.5996 76.0883 56.348 75.8657 56.1392C75.643 55.9304 75.3805 55.7688 75.0938 55.664C74.8072 55.5592 74.5023 55.5133 74.1975 55.5293C73.8927 55.5452 73.5942 55.6225 73.32 55.7566C73.0459 55.8907 72.8016 56.0789 72.6019 56.3097C72.4022 56.5405 72.2512 56.8093 72.158 57.1Z" fill="#1B1B1B"/>
</g>
</g>
<defs>
<clipPath id="clip0_439_3335">
<rect width="81.55" height="84.521" fill="white"/>
</clipPath>
</defs>
</svg>
