<svg width="96" height="82" viewBox="0 0 96 82" fill="none" xmlns="http://www.w3.org/2000/svg">
<g clip-path="url(#clip0_439_3345)">
<path d="M8.68999 67.822L10.738 71.422L13.762 69.7L14.196 70.466L7.66199 74.187L7.22399 73.421L10.062 71.808L8.01399 68.208L5.17599 69.823L4.73999 69.059L11.277 65.339L11.713 66.105L8.68999 67.822Z" fill="#1B1B1B"/>
<path d="M2.88901 64.62L1.51001 60.36L2.25401 60.12L3.36201 63.543L5.72001 62.779L4.75001 59.779L5.49501 59.538L6.46401 62.538L9.03001 61.708L7.92101 58.286L8.66601 58.044L10.045 62.305L2.88901 64.62Z" fill="#1B1B1B"/>
<mask id="mask0_439_3345" style="mask-type:luminance" maskUnits="userSpaceOnUse" x="0" y="0" width="96" height="82">
<path d="M95.705 0H0V81.268H95.705V0Z" fill="white"/>
</mask>
<g mask="url(#mask0_439_3345)">
<path d="M3.56304 53.459C3.54612 53.0381 3.38352 52.6362 3.10303 52.322C2.96963 52.2103 2.81291 52.1298 2.64437 52.0866C2.47583 52.0433 2.29975 52.0383 2.12904 52.072C1.95506 52.0815 1.78547 52.1301 1.6328 52.214C1.48012 52.298 1.34828 52.4152 1.24704 52.557C1.05245 52.9305 0.99444 53.3602 1.08304 53.772L1.27104 55.259L3.75203 54.947L3.56304 53.459ZM4.37503 53.641L4.52704 54.85L7.96304 54.416L8.07403 55.288L0.611035 56.23L0.311035 53.9C0.263835 53.5623 0.263835 53.2197 0.311035 52.882C0.350937 52.5924 0.448164 52.3136 0.597035 52.062C0.738995 51.8287 0.933072 51.6316 1.16404 51.486C1.42286 51.3283 1.71357 51.2302 2.01504 51.199C2.2538 51.1555 2.4988 51.1596 2.73597 51.2111C2.97314 51.2625 3.1978 51.3604 3.39704 51.499C3.78588 51.8025 4.06644 52.2233 4.19703 52.699L7.39204 49.962L7.51704 50.954L4.37503 53.641Z" fill="#1B1B1B"/>
<path d="M7.75806 44.241C7.7181 44.7513 7.57343 45.248 7.33306 45.7C7.10317 46.1351 6.79108 46.5216 6.41406 46.838C5.61486 47.4959 4.58763 47.8105 3.55706 47.713C3.03088 47.673 2.51808 47.5278 2.04906 47.286C1.60729 47.0569 1.21379 46.7449 0.890064 46.367C0.566128 45.9842 0.321872 45.5406 0.17162 45.0622C0.0213672 44.5838 -0.0318584 44.0802 0.0150638 43.581C0.0458574 43.1982 0.132091 42.8219 0.271064 42.464C0.407741 42.115 0.595819 41.7884 0.829064 41.495C1.06103 41.2067 1.33993 40.9595 1.65406 40.764C1.98153 40.5627 2.34321 40.4234 2.72106 40.353L2.63906 41.317C2.37311 41.3696 2.12087 41.4765 1.89806 41.631C1.68074 41.7796 1.49006 41.9639 1.33406 42.176C1.17709 42.3901 1.05211 42.6259 0.963064 42.876C0.873695 43.1249 0.816891 43.3844 0.794064 43.648C0.759857 44.0313 0.804438 44.4175 0.925064 44.783C1.04554 45.1432 1.23621 45.4759 1.48606 45.762C1.74652 46.0552 2.05958 46.297 2.40906 46.475C2.79172 46.6663 3.20831 46.7805 3.63506 46.811C4.06091 46.8521 4.4907 46.8093 4.90006 46.685C5.27779 46.5727 5.63002 46.3879 5.93706 46.141C6.23467 45.9007 6.48032 45.6024 6.65911 45.2643C6.83789 44.9262 6.94606 44.5552 6.97706 44.174C7.00071 43.9106 6.98893 43.6452 6.94206 43.385C6.89603 43.1239 6.81214 42.8709 6.69306 42.634C6.57578 42.3979 6.41922 42.1835 6.23006 42C6.03617 41.8099 5.80544 41.6615 5.55206 41.564L5.63406 40.6C5.99408 40.7338 6.32656 40.9324 6.61506 41.186C6.89221 41.4311 7.12525 41.722 7.30406 42.046C7.48448 42.3732 7.61428 42.7259 7.68906 43.092C7.7665 43.4697 7.78974 43.8566 7.75806 44.241Z" fill="#1B1B1B"/>
<path d="M8.76996 35.366C8.87723 35.1007 8.92254 34.8145 8.90244 34.5291C8.88234 34.2437 8.79735 33.9666 8.65396 33.719C8.28774 33.2129 7.75485 32.8521 7.14896 32.7L2.85396 31.321L3.12196 30.482L7.54196 31.901C7.94924 32.0261 8.33259 32.2188 8.67596 32.471C8.97677 32.6935 9.22638 32.9779 9.40796 33.305C9.58382 33.6307 9.68333 33.9922 9.69896 34.362C9.71592 35.2102 9.44993 36.0398 8.94296 36.72C8.71574 37.0125 8.42466 37.2492 8.09196 37.412C7.75443 37.5734 7.38604 37.66 7.01196 37.666C6.58469 37.6706 6.1597 37.603 5.75496 37.466L1.33496 36.049L1.60396 35.213L5.90396 36.591C6.48577 36.8193 7.12935 36.8356 7.72196 36.637C7.98224 36.5188 8.21223 36.343 8.39449 36.1228C8.57675 35.9026 8.70652 35.6438 8.77396 35.366" fill="#1B1B1B"/>
<path d="M5.0791 26.254L5.5071 25.482L11.4001 28.749L13.0701 25.737L13.7541 26.116L11.6541 29.9L5.0791 26.254Z" fill="#1B1B1B"/>
<path d="M11.702 18.039L13.557 21.254L15.201 19.272L11.702 18.039ZM14.59 24.779L10.636 17.76L11.236 17.04L18.861 19.618L18.261 20.338L15.985 19.538L13.973 21.965L15.183 24.057L14.59 24.779Z" fill="#1B1B1B"/>
<path d="M20.6511 17.947L15.9961 12.038L16.7051 11.48L23.5421 13.871L19.7631 9.071L20.4541 8.526L25.1081 14.435L24.3991 14.993L17.5571 12.593L21.3431 17.4L20.6511 17.947Z" fill="#1B1B1B"/>
<path d="M24.53 6.03199L28.53 4.02399L28.882 4.72399L25.669 6.33799L26.779 8.55199L29.596 7.13899L29.948 7.83899L27.131 9.25299L28.34 11.662L31.556 10.047L31.907 10.747L27.907 12.756L24.53 6.03199Z" fill="#1B1B1B"/>
<path d="M36.2141 1.38198L36.3561 2.15098L38.7201 1.71298L39.9561 8.33698L40.8231 8.17598L39.5851 1.54998L41.9491 1.11098L41.8041 0.34198L36.2141 1.38198Z" fill="#1B1B1B"/>
<path d="M45.7321 0.000976562L45.6011 7.52198L46.4811 7.53698L46.5421 4.05898L50.6841 4.13198L50.6171 7.61198L51.4961 7.62498L51.6351 0.100977L50.7541 0.0899766L50.6971 3.34998L46.5551 3.27798L46.6171 0.0159766L45.7321 0.000976562Z" fill="#1B1B1B"/>
<path d="M54.7141 8.10595L59.0831 9.08395L59.2591 8.31895L55.7481 7.53495L56.3381 4.90295L59.4131 5.59095L59.5831 4.82695L56.5081 4.13995L57.0511 1.71995L60.5621 2.50695L60.7331 1.74395L56.3591 0.764954L54.7141 8.10595Z" fill="#1B1B1B"/>
<path d="M65.655 7.038C66.0257 7.23939 66.4554 7.30416 66.869 7.221C67.0331 7.16386 67.1821 7.07029 67.3049 6.94733C67.4277 6.82436 67.521 6.67519 67.578 6.511C67.6584 6.35761 67.7033 6.18809 67.7094 6.01499C67.7154 5.84189 67.6825 5.66964 67.613 5.511C67.3912 5.15279 67.0513 4.88328 66.652 4.749L65.277 4.149L64.277 6.442L65.655 7.038ZM65.085 7.644L63.969 7.159L62.59 10.329L61.783 9.978L64.783 3.078L66.935 4.014C67.2496 4.14614 67.5442 4.32186 67.81 4.536C68.0387 4.7179 68.2287 4.94365 68.369 5.2C68.4973 5.44119 68.5678 5.7089 68.575 5.982C68.579 6.28529 68.5151 6.58563 68.388 6.861C68.3031 7.08824 68.1743 7.29652 68.0089 7.47394C67.8435 7.65136 67.6447 7.79444 67.424 7.895C66.9647 8.07439 66.4602 8.10242 65.984 7.975L66.71 12.118L65.79 11.718L65.085 7.644Z" fill="#1B1B1B"/>
<path d="M72.8762 14.731L72.1412 14.187L72.9992 9.27895L69.6202 13.85L68.9102 13.327L73.3822 7.27795L74.1092 7.81495L73.0392 13.74L78.3912 10.978L79.1182 11.515L74.6392 17.564L73.9392 17.041L77.3182 12.47L72.8762 14.731Z" fill="#1B1B1B"/>
<path d="M83.5132 17.526L80.0292 18.802L81.7031 20.762L83.5132 17.526ZM76.3792 19.214L83.9712 16.521L84.5781 17.232L80.7271 24.307L80.1192 23.594L81.2962 21.494L79.2492 19.094L76.9872 19.924L76.3792 19.214Z" fill="#1B1B1B"/>
<path d="M88.5501 22.671L88.9871 23.437L83.1341 26.78L84.8451 29.78L84.1651 30.167L82.0181 26.41L88.5501 22.671Z" fill="#1B1B1B"/>
<path d="M93.813 33.887L93.99 34.739L88.328 37.302L94.156 37.836L94.333 38.688L89.198 41.493L95.412 41.593L95.59 42.444L87.87 42.269L87.7 41.452L93.041 38.51L86.971 37.939L86.802 37.119L93.813 33.887Z" fill="#1B1B1B"/>
<path d="M94.697 48.809L91.242 47.452L91.196 50.027L94.697 48.809ZM88.237 45.341L95.705 48.359L95.688 49.295L88.114 52.037L88.132 51.101L90.408 50.301L90.465 47.159L88.221 46.281L88.237 45.341Z" fill="#1B1B1B"/>
<path d="M93.5012 59.795L93.9602 57.434L87.3472 56.147L87.5162 55.284L94.1312 56.578L94.5912 54.218L95.3592 54.37L94.2702 59.947L93.5012 59.795Z" fill="#1B1B1B"/>
<path d="M93.1311 63.577L91.4941 67.746L90.7661 67.46L92.0811 64.109L89.7741 63.209L88.6231 66.139L87.8951 65.853L89.0461 62.917L86.5381 61.929L85.2221 65.276L84.4941 64.991L86.1311 60.829L93.1311 63.577Z" fill="#1B1B1B"/>
<path d="M85.5031 71.799C85.2493 72.1348 85.1199 72.5484 85.1371 72.969C85.2248 73.3048 85.4367 73.5948 85.73 73.7804C86.0233 73.9661 86.3761 74.0334 86.7171 73.969C87.1042 73.8029 87.4221 73.5083 87.6171 73.135L88.4171 71.868L86.3041 70.528L85.5031 71.799ZM84.9961 71.141L85.6481 70.111L82.7281 68.263L83.1971 67.519L89.5541 71.54L88.2961 73.528C88.116 73.8182 87.8966 74.082 87.6441 74.312C87.4296 74.5099 87.1777 74.663 86.9031 74.762C86.6465 74.8511 86.3725 74.8792 86.1031 74.844C85.8031 74.8019 85.5162 74.6936 85.2631 74.527C85.0517 74.408 84.8658 74.2484 84.7162 74.0574C84.5666 73.8664 84.4561 73.6477 84.3911 73.414C84.2836 72.9331 84.3334 72.4304 84.5331 71.98L80.3281 72.06L80.8631 71.213L84.9961 71.141Z" fill="#1B1B1B"/>
<path d="M71.3721 24.369C68.2851 21.2721 64.6177 18.8143 60.5799 17.1361C56.542 15.4579 52.2129 14.5924 47.8401 14.589H47.8011C42.7801 14.5962 37.8256 15.7371 33.3071 17.9265C28.7886 20.1159 24.8228 23.2974 21.7055 27.2335C18.5883 31.1696 16.4001 35.7589 15.3041 40.6588C14.2082 45.5587 14.2328 50.6429 15.3761 55.532V55.687H15.4151C17.1659 62.9634 21.3102 69.4408 27.1831 74.0799C33.056 78.719 40.3171 81.2507 47.8011 81.269H47.8401C55.3242 81.2507 62.5852 78.719 68.4581 74.0799C74.3311 69.4408 78.4754 62.9634 80.2261 55.687H80.2491V55.532C81.5533 50.0119 81.4221 44.2497 79.8682 38.7947C78.3143 33.3396 75.3894 28.3733 71.3721 24.369ZM47.8011 16.355H47.8401C54.8749 16.374 61.7027 18.7375 67.2437 23.0718C72.7847 27.4061 76.7227 33.4638 78.4351 40.287C67.6871 39.475 64.8901 31.687 64.8651 31.614L64.0271 29.153L63.1891 31.614C62.483 33.3325 61.3996 34.8704 60.0191 36.114C57.7121 38.253 53.9101 40.354 47.8401 40.367H47.8011C35.6351 40.341 32.5811 31.967 32.4521 31.616L31.6141 29.155L30.7761 31.616C30.7501 31.693 27.9541 39.477 17.2061 40.289C18.9182 33.4654 22.8561 27.4073 28.3971 23.0726C33.9382 18.7379 40.7661 16.3741 47.8011 16.355ZM47.8401 79.503H47.8011C43.1136 79.4977 38.4863 78.4469 34.2563 76.427C30.0262 74.4071 26.3 71.4691 23.3491 67.827C26.8008 66.5652 29.7161 64.1594 31.6101 61.01C32.3291 62.2189 33.2092 63.3243 34.2261 64.296C36.5461 66.538 40.7861 69.219 47.7961 69.219H47.8351C54.8351 69.219 59.0861 66.538 61.4051 64.296C62.4137 63.3208 63.2881 62.2158 64.0051 61.01C65.905 64.1594 68.8244 66.5647 72.2791 67.827C69.3286 71.4663 65.6043 74.4025 61.3769 76.4222C57.1495 78.4419 52.5252 79.4943 47.8401 79.503ZM73.4081 66.369C71.5147 65.7798 69.7709 64.7885 68.2963 63.4627C66.8216 62.137 65.6508 60.5083 64.8641 58.688L64.0131 56.252L63.1881 58.688C62.4872 60.4126 61.4032 61.9552 60.0181 63.199C57.7111 65.338 53.9091 67.439 47.8391 67.452H47.8001C35.6341 67.426 32.5801 59.052 32.4511 58.689L31.6261 56.253L30.7751 58.689C29.9885 60.509 28.8178 62.1375 27.3433 63.463C25.8688 64.7885 24.1253 65.7798 22.2321 66.369C19.8932 63.1382 18.1918 59.4911 17.2191 55.623C25.9441 55.004 30.0191 50.107 31.6011 47.439C32.3164 48.6618 33.2015 49.7769 34.2301 50.751C36.5501 52.993 40.7901 55.674 47.8001 55.687H47.8391C54.8391 55.674 59.0901 52.994 61.4091 50.751C62.4343 49.7771 63.3152 48.6618 64.0251 47.439C65.6101 50.107 69.6831 55.004 78.4251 55.623C77.4402 59.4874 75.7384 63.1326 73.4081 66.369ZM78.8081 53.842C67.7511 53.185 64.8901 45.233 64.8641 45.156L64.0261 42.695L63.1881 45.156C62.4855 46.8765 61.4016 48.4151 60.0181 49.656C57.7111 51.808 53.9091 53.883 47.8391 53.909H47.8001C35.6341 53.883 32.5801 45.509 32.4511 45.158L31.6131 42.697L30.7751 45.158C30.7491 45.235 27.8751 53.187 16.8311 53.844C16.0794 49.9628 16.075 45.9738 16.8181 42.091C25.8181 41.601 29.9891 36.601 31.6001 33.891C32.3154 35.1138 33.2005 36.2289 34.2291 37.203C36.5491 39.445 40.8021 42.126 47.7991 42.139H47.8381C54.8381 42.126 59.0891 39.446 61.4081 37.203C62.4333 36.2291 63.3142 35.1138 64.0241 33.891C65.6351 36.597 69.8101 41.598 78.8191 42.091C79.1871 44.0152 79.3726 45.9699 79.3731 47.929C79.3682 49.914 79.1784 51.8942 78.8061 53.844" fill="#1B1B1B"/>
</g>
</g>
<defs>
<clipPath id="clip0_439_3345">
<rect width="95.705" height="81.268" fill="white"/>
</clipPath>
</defs>
</svg>
