<svg width="18" height="18" viewBox="0 0 18 18" fill="none" xmlns="http://www.w3.org/2000/svg">
<g clip-path="url(#clip0_2018_689)">
<path d="M15.75 6.75C15.75 3.03 12.72 0 9.00003 0C5.28003 0 2.25003 3.03 2.25003 6.75H0.0300293L1.41003 16.3875C1.53753 17.3025 2.34003 18 3.26253 18H14.715C15.645 18 16.44 17.31 16.575 16.3875L17.955 6.75H15.75ZM9.00003 0.75C12.3075 0.75 15 3.4425 15 6.75H3.00003C3.00003 3.4425 5.69253 0.75 9.00003 0.75ZM15.8325 16.2825C15.7575 16.83 15.2775 17.25 14.715 17.25H3.26253C2.70753 17.25 2.22753 16.8375 2.15253 16.2825L0.892529 7.5H17.085L15.8325 16.2825Z" fill="#1B1B1B"/>
</g>
<defs>
<clipPath id="clip0_2018_689">
<rect width="18" height="18" fill="white"/>
</clipPath>
</defs>
</svg>
