<svg width="39" height="38" viewBox="0 0 39 38" fill="none" xmlns="http://www.w3.org/2000/svg">
<path d="M33.7492 14.25C33.7492 6.39667 27.3525 0 19.4992 0C11.6458 0 5.24917 6.39667 5.24917 14.25H0.5625L3.47583 34.5958C3.745 36.5275 5.43917 38 7.38667 38H31.5642C33.5275 38 35.2058 36.5433 35.4908 34.5958L38.4042 14.25H33.7492ZM19.4992 1.58333C26.4817 1.58333 32.1658 7.2675 32.1658 14.25H6.8325C6.8325 7.2675 12.5167 1.58333 19.4992 1.58333ZM33.9233 34.3742C33.765 35.53 32.7517 36.4167 31.5642 36.4167H7.38667C6.215 36.4167 5.20167 35.5458 5.04333 34.3742L2.38333 15.8333H36.5675L33.9233 34.3742Z" fill="#8D89DA"/>
</svg>
