<svg width="71" height="71" viewBox="0 0 71 71" fill="none" xmlns="http://www.w3.org/2000/svg">
<g clip-path="url(#clip0_439_3856)">
<mask id="mask0_439_3856" style="mask-type:luminance" maskUnits="userSpaceOnUse" x="0" y="0" width="71" height="71">
<path d="M0 0H71V71H0V0Z" fill="white"/>
</mask>
<g mask="url(#mask0_439_3856)">
<mask id="mask1_439_3856" style="mask-type:luminance" maskUnits="userSpaceOnUse" x="17" y="7" width="37" height="57">
<path d="M17.8777 7.10059H53.1221V63.9006H17.8777V7.10059Z" fill="white"/>
</mask>
<g mask="url(#mask1_439_3856)">
<path d="M18.5593 18.6519H52.4405L38.5813 35.486L52.4405 52.3982H18.5593L32.4185 35.486L18.5593 18.6519Z" stroke="#8D89DA" stroke-width="2" stroke-miterlimit="100" stroke-linecap="round"/>
<path d="M35.4999 38.8509C36.4158 38.8509 36.4158 37.438 35.4999 37.438C34.584 37.438 34.584 38.8509 35.4999 38.8509Z" fill="#8D89DA" stroke="#8D89DA" stroke-width="0.071" stroke-miterlimit="100"/>
<path d="M35.4999 33.505C36.4158 33.505 36.4158 32.085 35.4999 32.085C34.584 32.085 34.584 33.505 35.4999 33.505Z" fill="#8D89DA"/>
<path d="M35.4999 28.1514C36.4158 28.1514 36.4158 26.7314 35.4999 26.7314C34.584 26.7314 34.584 28.1514 35.4999 28.1514Z" fill="#17005D"/>
<path d="M35.4999 49.5792C36.4158 49.5792 36.4158 48.1592 35.4999 48.1592C34.584 48.1592 34.584 49.5792 35.4999 49.5792Z" fill="#8D89DA" stroke="#8D89DA" stroke-width="0.071" stroke-miterlimit="100"/>
<path d="M30.4094 49.5792C31.3253 49.5792 31.3253 48.1592 30.4094 48.1592C29.5006 48.1592 29.5006 49.5792 30.4094 49.5792Z" fill="#8D89DA" stroke="#8D89DA" stroke-width="0.071" stroke-miterlimit="100"/>
<path d="M40.5907 49.5792C41.5066 49.5792 41.5066 48.1592 40.5907 48.1592C39.6748 48.1592 39.6748 49.5792 40.5907 49.5792Z" fill="#8D89DA" stroke="#8D89DA" stroke-width="0.071" stroke-miterlimit="100"/>
<path d="M32.9582 46.9027C33.867 46.9027 33.867 45.4897 32.9582 45.4897C32.0423 45.4897 32.0423 46.9027 32.9582 46.9027Z" fill="#8D89DA" stroke="#8D89DA" stroke-width="0.071" stroke-miterlimit="100"/>
<path d="M38.049 46.9027C38.9578 46.9027 38.9578 45.4897 38.049 45.4897C37.1331 45.4897 37.1331 46.9027 38.049 46.9027Z" fill="#8D89DA" stroke="#8D89DA" stroke-width="0.071" stroke-miterlimit="100"/>
<path d="M30.4094 28.1375C31.3253 28.1375 31.3253 26.7246 30.4094 26.7246C29.5006 26.7246 29.5006 28.1375 30.4094 28.1375Z" fill="#8D89DA"/>
<path d="M40.5907 28.1375C41.5066 28.1375 41.5066 26.7246 40.5907 26.7246C39.6748 26.7246 39.6748 28.1375 40.5907 28.1375Z" fill="#8D89DA"/>
<path d="M32.9582 30.8138C33.867 30.8138 33.867 29.4009 32.9582 29.4009C32.0423 29.4009 32.0423 30.8138 32.9582 30.8138Z" fill="#8D89DA"/>
<path d="M38.049 30.8138C38.9578 30.8138 38.9578 29.4009 38.049 29.4009C37.1331 29.4009 37.1331 30.8138 38.049 30.8138Z" fill="#8D89DA"/>
<path d="M35.4999 28.1443C36.4158 28.1443 36.4158 26.7314 35.4999 26.7314C34.584 26.7314 34.584 28.1443 35.4999 28.1443Z" fill="#8D89DA"/>
<path d="M32.9582 25.4683C33.867 25.4683 33.867 24.0483 32.9582 24.0483C32.0423 24.0483 32.0423 25.4683 32.9582 25.4683Z" fill="#8D89DA"/>
<path d="M27.8676 25.4683C28.7835 25.4683 28.7835 24.0483 27.8676 24.0483C26.9517 24.0483 26.9517 25.4683 27.8676 25.4683Z" fill="#8D89DA"/>
<path d="M38.049 25.4683C38.9578 25.4683 38.9578 24.0483 38.049 24.0483C37.1331 24.0483 37.1331 25.4683 38.049 25.4683Z" fill="#8D89DA"/>
<path d="M43.1113 25.4683C44.0272 25.4683 44.0272 24.0483 43.1113 24.0483C42.2025 24.0483 42.2025 25.4683 43.1113 25.4683Z" fill="#8D89DA"/>
<path d="M35.4999 22.7987C36.4158 22.7987 36.4158 21.3857 35.4999 21.3857C34.584 21.3857 34.584 22.7987 35.4999 22.7987Z" fill="#8D89DA"/>
<path d="M30.4094 22.7913C31.3253 22.7913 31.3253 21.3784 30.4094 21.3784C29.5006 21.3784 29.5006 22.7913 30.4094 22.7913Z" fill="#8D89DA"/>
<path d="M40.5907 22.7913C41.5066 22.7913 41.5066 21.3784 40.5907 21.3784C39.6748 21.3784 39.6748 22.7913 40.5907 22.7913Z" fill="#8D89DA"/>
<path d="M45.6601 22.7913C46.576 22.7913 46.576 21.3784 45.6601 21.3784C44.7442 21.3784 44.7442 22.7913 45.6601 22.7913Z" fill="#8D89DA"/>
<path d="M25.3186 22.7913C26.2345 22.7913 26.2345 21.3784 25.3186 21.3784C24.4098 21.3784 24.4098 22.7913 25.3186 22.7913Z" fill="#8D89DA"/>
<path d="M52.4405 14.8173H18.5593V10.7774C18.5593 9.12315 19.8941 7.78125 21.5413 7.78125H49.4585C51.1057 7.78125 52.4405 9.12315 52.4405 10.7774V14.8173ZM18.5593 56.1819H52.4405V60.2218C52.4405 61.8761 51.1057 63.218 49.4585 63.218H21.5413C19.8941 63.218 18.5593 61.8761 18.5593 60.2218V56.1819Z" stroke="#8D89DA" stroke-width="2" stroke-miterlimit="100" stroke-linecap="round"/>
</g>
</g>
</g>
<defs>
<clipPath id="clip0_439_3856">
<rect width="71" height="71" fill="white"/>
</clipPath>
</defs>
</svg>
