<svg width="71" height="72" viewBox="0 0 71 72" fill="none" xmlns="http://www.w3.org/2000/svg">
<g clip-path="url(#clip0_439_3812)">
<mask id="mask0_439_3812" style="mask-type:luminance" maskUnits="userSpaceOnUse" x="0" y="0" width="71" height="72">
<path d="M0 0.5H71V71.5H0V0.5Z" fill="white"/>
</mask>
<g mask="url(#mask0_439_3812)">
<mask id="mask1_439_3812" style="mask-type:luminance" maskUnits="userSpaceOnUse" x="4" y="15" width="63" height="50">
<path d="M4.22461 15.9111H66.7756V64.3999H4.22461V15.9111Z" fill="white"/>
</mask>
<g mask="url(#mask1_439_3812)">
<path d="M66.0512 25.421H66.0867C53.7895 25.421 50.7862 16.5957 50.7862 16.5957H50.7791C50.7791 16.5957 47.7758 25.421 35.4786 25.421H35.5141C23.2169 25.421 20.2136 16.5957 20.2136 16.5957C20.2136 16.5957 17.2103 25.421 4.91309 25.421H4.95569M66.0512 38.1797H66.0867C53.7895 38.1797 50.7862 29.3615 50.7862 29.3615H50.7791C50.7791 29.3615 47.7758 38.1797 35.4786 38.1797H35.5141C23.2169 38.1797 20.2136 29.3615 20.2136 29.3615C20.2136 29.3615 17.2103 38.1797 4.91309 38.1797H4.95569M66.0512 50.9455H66.0867C53.7895 50.9455 50.7862 42.1273 50.7862 42.1273H50.7791C50.7791 42.1273 47.7758 50.9455 35.4786 50.9455H35.5141C23.2169 50.9455 20.2136 42.1273 20.2136 42.1273C20.2136 42.1273 17.2103 50.9455 4.91309 50.9455H4.95569M66.0512 63.7113H66.0867C53.7895 63.7113 50.7862 54.8931 50.7862 54.8931H50.7791C50.7791 54.8931 47.7758 63.7113 35.4786 63.7113H35.5141C23.2169 63.7113 20.2136 54.8931 20.2136 54.8931C20.2136 54.8931 17.2103 63.7113 4.91309 63.7113H4.95569" stroke="#8D89DA" stroke-width="2" stroke-miterlimit="100" stroke-linecap="round"/>
</g>
</g>
</g>
<defs>
<clipPath id="clip0_439_3812">
<rect width="71" height="71" fill="white" transform="translate(0 0.5)"/>
</clipPath>
</defs>
</svg>
