<svg width="71" height="72" viewBox="0 0 71 72" fill="none" xmlns="http://www.w3.org/2000/svg">
<g clip-path="url(#clip0_439_3793)">
<mask id="mask0_439_3793" style="mask-type:luminance" maskUnits="userSpaceOnUse" x="0" y="0" width="71" height="72">
<path d="M0 0.5H71V71.5H0V0.5Z" fill="white"/>
</mask>
<g mask="url(#mask0_439_3793)">
<mask id="mask1_439_3793" style="mask-type:luminance" maskUnits="userSpaceOnUse" x="9" y="7" width="53" height="58">
<path d="M9.37915 7.6001H61.6209V64.4001H9.37915V7.6001Z" fill="white"/>
</mask>
<g mask="url(#mask1_439_3793)">
<path fill-rule="evenodd" clip-rule="evenodd" d="M35.5 62C29.1589 62 24 56.3286 24 49.3632C24 41.6781 34.6905 29.6619 35.1466 29.1535C35.333 28.9488 35.667 28.9488 35.8534 29.1535C36.3095 29.6619 47 41.6781 47 49.3632C47 56.3286 41.8411 62 35.5 62ZM35.5 30.2891C33.6304 32.4547 24.9765 42.8533 24.9765 49.3632C24.9765 55.7476 29.6986 60.9436 35.5 60.9436C41.3014 60.9436 46.0235 55.7476 46.0235 49.3632C46.0235 42.8533 37.3696 32.4547 35.5 30.2891Z" fill="#8D89DA" stroke="#8D89DA" stroke-width="2" stroke-miterlimit="100"/>
<path fill-rule="evenodd" clip-rule="evenodd" d="M59.1381 17.7359C34.6286 3.0092 12.1068 17.5737 11.886 17.723C11.6183 17.8982 11.2635 17.8203 11.0895 17.5542C10.9222 17.2881 10.9958 16.9311 11.2569 16.7559C11.4844 16.6001 34.6018 1.64621 59.7204 16.7364C59.9881 16.9052 60.0818 17.2557 59.9212 17.5347C59.8141 17.7165 59.62 17.8203 59.4259 17.8203C59.3255 17.8203 59.2251 17.7944 59.1381 17.7359ZM59.4259 27.9973C59.3255 27.9973 59.2251 27.9713 59.1381 27.9194C34.6286 13.1927 12.1068 27.7571 11.886 27.9064C11.6183 28.0817 11.2635 28.0038 11.0895 27.7312C10.9222 27.4651 10.9958 27.1081 11.2569 26.9329C11.4844 26.7771 34.6018 11.8297 59.7204 26.9199C59.9881 27.0821 60.0818 27.4391 59.9212 27.7117C59.8141 27.8934 59.62 27.9973 59.4259 27.9973Z" fill="#8D89DA" stroke="#8D89DA" stroke-width="2" stroke-miterlimit="100"/>
</g>
</g>
</g>
<defs>
<clipPath id="clip0_439_3793">
<rect width="71" height="71" fill="white" transform="translate(0 0.5)"/>
</clipPath>
</defs>
</svg>
