<svg width="71" height="71" viewBox="0 0 71 71" fill="none" xmlns="http://www.w3.org/2000/svg">
<g clip-path="url(#clip0_439_3831)">
<mask id="mask0_439_3831" style="mask-type:luminance" maskUnits="userSpaceOnUse" x="0" y="0" width="71" height="71">
<path d="M0 0H71V71H0V0Z" fill="white"/>
</mask>
<g mask="url(#mask0_439_3831)">
<mask id="mask1_439_3831" style="mask-type:luminance" maskUnits="userSpaceOnUse" x="5" y="7" width="61" height="57">
<path d="M5.29663 7.1001H65.7034V63.9001H5.29663V7.1001Z" fill="white"/>
</mask>
<g mask="url(#mask1_439_3831)">
<path d="M64.8869 46.2069C64.5887 46.2069 64.2905 46.0365 64.1556 45.7383L62.4019 42.0605L58.717 43.8142C58.3123 44.0059 57.8224 43.8355 57.6307 43.4308C57.439 43.0261 57.6094 42.5362 58.0141 42.3445L62.4303 40.2358C62.6291 40.1435 62.8492 40.1364 63.0551 40.2074C63.261 40.2784 63.4243 40.4275 63.5166 40.6263L65.6253 45.0425C65.817 45.4472 65.6466 45.93 65.2419 46.1288C65.1283 46.1785 65.0076 46.2069 64.8869 46.2069Z" fill="#8D89DA" stroke="#8D89DA" stroke-width="0.5" stroke-miterlimit="100"/>
<path d="M8.17921 31.5738C8.08454 31.5738 7.98987 31.5573 7.89521 31.5241C7.69641 31.446 7.53311 31.2969 7.44081 31.0981L5.37471 26.6677C5.18301 26.2559 5.36051 25.7732 5.76521 25.5815C6.16991 25.3969 6.65981 25.5672 6.85151 25.979L8.56971 29.6781L12.2688 27.9528C12.6806 27.7611 13.1634 27.9387 13.3551 28.3505C13.5397 28.7552 13.3622 29.2379 12.9575 29.4296L8.52001 31.4957C8.41351 31.5454 8.29281 31.5738 8.17921 31.5738Z" fill="#8D89DA" stroke="#8D89DA" stroke-width="0.5" stroke-miterlimit="100"/>
<path d="M8.81112 29.7491C8.74486 29.7491 8.67859 29.7396 8.61233 29.7207C8.17923 29.6142 7.90942 29.174 8.01592 28.7409C11.1399 15.9964 22.4715 7.1001 35.571 7.1001C37.7862 7.1001 40.0085 7.3628 42.1811 7.8811L42.4438 7.945C42.884 8.0586 43.1467 8.4988 43.0331 8.939C42.9266 9.3721 42.4722 9.63479 42.0462 9.52829L41.8048 9.4644C39.7529 8.9745 37.6584 8.726 35.571 8.726C23.217 8.726 12.5386 17.1182 9.59922 29.1243C9.50692 29.5006 9.17322 29.7491 8.81112 29.7491ZM35.6136 63.9001C33.4055 63.9001 31.1761 63.6374 29.0106 63.1191C28.5704 63.0126 28.258 62.5653 28.3574 62.1322C28.4639 61.692 28.8473 61.4151 29.2946 61.5145C44.1833 65.0645 58.2555 55.8487 61.628 41.7126C61.7345 41.2724 62.1676 41.0026 62.6078 41.1091C63.048 41.2085 63.3178 41.6487 63.2113 42.0889C60.1512 54.9257 48.7983 63.9001 35.6136 63.9001Z" fill="#8D89DA" stroke="#8D89DA" stroke-width="0.5" stroke-miterlimit="100"/>
<path d="M62.48 30.1822C62.1108 30.1822 61.7771 29.9266 61.6919 29.5574L61.628 29.2947C58.7454 17.1892 48.0457 8.726 35.6136 8.726C33.5901 8.726 31.5524 8.96029 29.5573 9.42179C29.1242 9.52829 28.684 9.2514 28.5846 8.8112C28.4781 8.3781 28.755 7.9379 29.1881 7.8385C31.3039 7.3486 33.4623 7.1001 35.6136 7.1001C48.8054 7.1001 60.1583 16.0745 63.2113 28.9255L63.2752 29.1811C63.3746 29.6142 63.1048 30.0544 62.6717 30.1609C62.6055 30.1751 62.5416 30.1822 62.48 30.1822ZM35.571 63.9001C22.3792 63.9001 11.0334 54.9257 7.97333 42.0818C7.86683 41.6416 8.12243 41.1659 8.55553 41.0594C8.99573 40.9529 9.42173 41.1659 9.53533 41.599C9.53533 41.6061 9.55663 41.7055 9.55663 41.7126C12.4392 53.811 23.1389 62.2742 35.571 62.2742C37.6513 62.2742 39.7458 62.0257 41.7906 61.5358C42.2308 61.4364 42.671 61.7062 42.7775 62.1393C42.8769 62.5795 42.6071 63.0197 42.174 63.1191C40.0014 63.6374 37.7791 63.9001 35.571 63.9001Z" fill="#8D89DA" stroke="#8D89DA" stroke-width="0.5" stroke-miterlimit="100"/>
<path d="M35.5924 55.8205C35.1451 55.8205 34.7759 55.4513 34.7759 55.004V38.4042C33.4056 38.319 30.523 37.9853 27.5552 36.6292C23.7993 34.911 19.234 31.1764 18.8364 23.1605C18.8151 22.7061 19.163 22.3227 19.6103 22.3014C20.0505 22.273 20.441 22.628 20.4623 23.0753C20.7463 28.8405 23.3449 32.8946 28.18 35.124C31.872 36.828 35.5285 36.7996 35.5782 36.7996C35.7699 36.7996 36.0113 36.8777 36.1675 37.0339C36.3166 37.183 36.4089 37.396 36.4089 37.609V55.004C36.4089 55.4513 36.0397 55.8205 35.5924 55.8205Z" fill="#8D89DA" stroke="#8D89DA" stroke-width="0.5" stroke-miterlimit="100"/>
<path d="M35.5923 38.4254C35.1592 38.4254 34.8042 38.0846 34.7829 37.6515C34.4989 31.8863 31.9003 27.8322 27.0581 25.6028C23.3661 23.8988 19.7096 23.9343 19.6599 23.9343C19.1629 23.9272 18.8434 23.5793 18.8363 23.132C18.8292 22.6776 19.1842 22.3084 19.6386 22.3013C19.8019 22.3013 23.6785 22.2658 27.69 24.0976C31.4459 25.8158 36.0112 29.5504 36.4088 37.5734C36.4301 38.0207 36.0822 38.4041 35.6349 38.4254C35.6207 38.4254 35.6065 38.4254 35.5923 38.4254Z" fill="#8D89DA" stroke="#8D89DA" stroke-width="0.5" stroke-miterlimit="100"/>
<path d="M35.5924 55.8205C35.1451 55.8205 34.7759 55.4513 34.7759 55.004V37.609C34.7759 37.396 34.8682 37.183 35.0244 37.0339C35.1735 36.8777 35.4149 36.7996 35.6066 36.7996C35.6634 36.7996 39.3128 36.828 43.0048 35.124C47.8399 32.8946 50.4385 28.8405 50.7225 23.0753C50.7438 22.628 51.1485 22.273 51.5745 22.3014C52.0218 22.3227 52.3697 22.7061 52.3484 23.1605C51.9579 31.1764 47.3926 34.911 43.6296 36.6292C40.6689 37.9853 37.7792 38.319 36.4089 38.4042V55.004C36.4089 55.4513 36.0397 55.8205 35.5924 55.8205Z" fill="#8D89DA" stroke="#8D89DA" stroke-width="0.5" stroke-miterlimit="100"/>
<path d="M35.5923 38.4255C35.5781 38.4255 35.5639 38.4255 35.5497 38.4255C35.1024 38.4042 34.7545 38.0208 34.7829 37.5735C35.1734 29.5505 39.7387 25.8159 43.4946 24.0977C47.5203 22.2588 51.3898 22.3014 51.546 22.3014C52.0004 22.3085 52.3554 22.6777 52.3483 23.1321C52.3412 23.5794 51.9578 23.9202 51.5247 23.9344C51.4892 23.9344 47.8185 23.8989 44.1265 25.6029C39.2843 27.8323 36.6928 31.8864 36.4088 37.6516C36.3875 38.0847 36.0254 38.4255 35.5923 38.4255Z" fill="#8D89DA" stroke="#8D89DA" stroke-width="0.5" stroke-miterlimit="100"/>
</g>
</g>
</g>
<defs>
<clipPath id="clip0_439_3831">
<rect width="71" height="71" fill="white"/>
</clipPath>
</defs>
</svg>
