<svg width="165" height="165" viewBox="0 0 165 165" fill="none" xmlns="http://www.w3.org/2000/svg">
<path d="M156.329 99.173L148.399 103.788L148.911 101.678L156.279 97.4424L156.295 97.3741L150.308 95.9213L150.681 94.3838L163.006 97.3745L162.633 98.9119L156.953 97.5337L156.936 97.602L161.331 104.276L160.863 106.206L156.329 99.173Z" fill="#C6C4EC" fill-opacity="0.4"/>
<path d="M141.108 114.464L141.695 113.119L143.991 114.121L148.015 104.897L159.639 109.968L159.007 111.418L148.687 106.916L145.974 113.135L156.294 117.637L155.661 119.087L145.342 114.585L144.709 116.035L141.108 114.464Z" fill="#C6C4EC" fill-opacity="0.4"/>
<path d="M141.469 118.247L142.279 116.887L153.175 123.378L152.365 124.737L141.469 118.247Z" fill="#C6C4EC" fill-opacity="0.4"/>
<path d="M140.813 130.071L144.757 133.074L146.45 130.851C147.552 129.403 147.469 128.047 146.21 127.089C144.944 126.125 143.603 126.407 142.506 127.848L140.813 130.071ZM141.224 127.181L139.462 121.443L140.602 119.946L142.432 125.913C143.847 124.737 145.692 124.65 147.195 125.795C149.02 127.185 149.276 129.489 147.833 131.384L144.931 135.195L134.841 127.512L135.799 126.253L139.68 129.209L141.224 127.181Z" fill="#C6C4EC" fill-opacity="0.4"/>
<path d="M123.697 137.778L127 139.752L130.876 136.523L129.532 132.918L130.808 131.855L135.333 144.592L134.131 145.594L122.421 138.841L123.697 137.778ZM133.52 143.597L131.379 137.854L128.218 140.487L133.479 143.631L133.52 143.597Z" fill="#C6C4EC" fill-opacity="0.4"/>
<path d="M121.755 146.912L112.918 144.446L114.787 143.342L122.96 145.669L123.021 145.634L119.887 140.329L121.249 139.524L127.7 150.444L126.338 151.249L123.365 146.216L123.305 146.252L121.586 154.056L119.875 155.066L121.755 146.912Z" fill="#C6C4EC" fill-opacity="0.4"/>
<path d="M100.13 146.664L101.504 146.148L102.384 148.494L111.806 144.958L116.261 156.833L114.78 157.388L110.825 146.847L104.472 149.231L108.428 159.772L106.946 160.328L102.991 149.787L101.51 150.342L100.13 146.664Z" fill="#C6C4EC" fill-opacity="0.4"/>
<path d="M97.6544 149.554L99.1946 149.193L102.091 161.54L100.551 161.901L97.6544 149.554Z" fill="#C6C4EC" fill-opacity="0.4"/>
<path d="M88.7323 157.306L89.3231 162.228L92.0981 161.895C93.9045 161.678 94.8197 160.674 94.6311 159.103C94.4415 157.524 93.3049 156.757 91.5073 156.973L88.7323 157.306ZM91.0932 155.589L93.9849 150.329L95.8524 150.105L92.8441 155.573C94.6735 155.77 96.0203 157.033 96.2455 158.91C96.5189 161.187 95.0428 162.975 92.678 163.259L87.9221 163.83L86.4104 151.238L87.9812 151.05L88.5626 155.893L91.0932 155.589Z" fill="#C6C4EC" fill-opacity="0.4"/>
<path d="M71.041 150.346L71.917 154.092L76.9325 154.635L78.5906 151.164L80.242 151.343L74.2272 163.448L72.6718 163.279L69.3895 150.167L71.041 150.346ZM73.6831 161.453L76.3245 155.922L72.2352 155.479L73.6306 161.447L73.6831 161.453Z" fill="#C6C4EC" fill-opacity="0.4"/>
<path d="M63.1574 155.287L58.8164 147.204L60.9073 147.788L64.8887 155.296L64.9565 155.315L66.613 149.38L68.1368 149.806L64.7268 162.021L63.203 161.596L64.7745 155.966L64.7068 155.947L57.8867 160.112L55.9735 159.578L63.1574 155.287Z" fill="#C6C4EC" fill-opacity="0.4"/>
<path d="M48.3596 139.542L49.6845 140.173L48.6066 142.435L57.6907 146.765L52.2332 158.213L50.8051 157.533L55.65 147.369L49.5251 144.45L44.6803 154.613L43.2522 153.932L48.0971 143.769L46.669 143.088L48.3596 139.542Z" fill="#C6C4EC" fill-opacity="0.4"/>
<path d="M44.5719 139.771L45.9036 140.625L39.0561 151.3L37.7245 150.446L44.5719 139.771Z" fill="#C6C4EC" fill-opacity="0.4"/>
<path d="M32.8186 138.749L29.6878 142.593L31.8547 144.358C33.2653 145.507 34.6232 145.468 35.6224 144.241C36.6271 143.008 36.3892 141.658 34.9855 140.515L32.8186 138.749ZM35.694 139.255L41.4868 137.683L42.9451 138.871L36.9211 140.504C38.0503 141.957 38.0765 143.803 36.883 145.268C35.4342 147.047 33.1224 147.227 31.2757 145.723L27.562 142.697L35.5721 132.864L36.7986 133.864L33.7178 137.645L35.694 139.255Z" fill="#C6C4EC" fill-opacity="0.4"/>
<path d="M25.7292 121.444L23.6486 124.68L26.7486 128.66L30.3955 127.435L31.4162 128.746L18.5373 132.85L17.576 131.616L24.7085 120.134L25.7292 121.444ZM19.5914 131.071L25.4015 129.119L22.874 125.874L19.559 131.029L19.5914 131.071Z" fill="#C6C4EC" fill-opacity="0.4"/>
<path d="M16.6622 119.212L19.4202 110.461L20.4618 112.366L17.8644 120.458L17.8982 120.519L23.3039 117.563L24.0629 118.951L12.9353 125.036L12.1763 123.648L17.3044 120.844L17.2707 120.782L9.52813 118.805L8.57513 117.063L16.6622 119.212Z" fill="#C6C4EC" fill-opacity="0.4"/>
<path d="M17.6194 97.5952L18.0883 98.9861L15.7146 99.7862L18.9292 109.322L6.91098 113.374L6.40564 111.875L17.0746 108.278L14.9072 101.848L4.23827 105.445L3.73292 103.946L14.4019 100.349L13.8965 98.8501L17.6194 97.5952Z" fill="#C6C4EC" fill-opacity="0.4"/>
<path d="M14.8299 95.1568L15.1441 96.7073L2.71408 99.2261L2.39988 97.6756L14.8299 95.1568Z" fill="#C6C4EC" fill-opacity="0.4"/>
<path d="M7.35806 85.9082L2.41886 86.3283L2.65572 89.1131C2.80991 90.9259 3.78156 91.8753 5.3579 91.7412C6.94299 91.6064 7.74836 90.4971 7.59492 88.693L7.35806 85.9082ZM8.99277 88.3272L14.1496 91.3992L14.309 93.2733L8.94759 90.0775C8.68794 91.899 7.37854 93.2012 5.49569 93.3614C3.21 93.5558 1.47388 92.0187 1.27202 89.6454L0.86608 84.8726L13.5031 83.7978L13.6371 85.3741L8.77676 85.7875L8.99277 88.3272Z" fill="#C6C4EC" fill-opacity="0.4"/>
<path d="M14.859 68.5595L11.085 69.3054L10.3684 74.2992L13.7805 76.0763L13.5446 77.7206L1.65462 71.2908L1.87683 69.7423L15.095 66.9152L14.859 68.5595ZM3.66727 70.816L9.10348 73.6471L9.6877 69.5755L3.67476 70.7638L3.66727 70.816Z" fill="#C6C4EC" fill-opacity="0.4"/>
<path d="M10.1166 60.6157L18.3272 56.5212L17.6805 58.5936L10.0554 62.3459L10.0344 62.413L15.9158 64.2484L15.4445 65.7586L3.33774 61.9805L3.80903 60.4703L9.38839 62.2114L9.40933 62.1443L5.45329 55.2014L6.04502 53.3052L10.1166 60.6157Z" fill="#C6C4EC" fill-opacity="0.4"/>
<path d="M26.3498 46.2202L25.6743 47.5233L23.4505 46.3706L18.8193 55.3051L7.55944 49.4686L8.28748 48.064L18.2832 53.2453L21.4057 47.2213L11.41 42.04L12.1381 40.6355L22.1338 45.8168L22.8618 44.4122L26.3498 46.2202Z" fill="#C6C4EC" fill-opacity="0.4"/>
<path d="M26.125 42.559L25.2274 43.8618L14.7837 36.6661L15.6813 35.3633L26.125 42.559Z" fill="#C6C4EC" fill-opacity="0.4"/>
<path d="M27.509 30.8104L23.7703 27.5554L21.9351 29.6634C20.7405 31.0356 20.7348 32.394 21.9279 33.4328C23.1278 34.4774 24.4849 34.2839 25.6738 32.9184L27.509 30.8104ZM26.9092 33.6677L28.2913 39.5089L27.0563 40.9275L25.6207 34.8532C24.1318 35.9342 22.2855 35.9 20.8603 34.6592C19.1302 33.1529 19.026 30.8364 20.59 29.04L23.7353 25.4273L33.3007 33.7551L32.2619 34.9483L28.5829 31.7453L26.9092 33.6677Z" fill="#C6C4EC" fill-opacity="0.4"/>
<path d="M44.9995 24.2252L41.8336 22.0394L37.7539 25.0071L38.8586 28.6922L37.5152 29.6693L33.8359 16.6627L35.101 15.7424L46.3428 23.248L44.9995 24.2252ZM35.5794 17.7746L37.3395 23.6456L40.6659 21.226L35.6221 17.7435L35.5794 17.7746Z" fill="#C6C4EC" fill-opacity="0.4"/>
<path d="M47.6845 15.1006L56.3384 18.1483L54.4001 19.1259L46.3993 16.2606L46.3365 16.2923L49.1109 21.7934L47.6983 22.5058L41.9873 11.1818L43.3998 10.4694L46.0317 15.688L46.0945 15.6564L48.3281 7.98396L50.1016 7.08951L47.6845 15.1006Z" fill="#C6C4EC" fill-opacity="0.4"/>
<path d="M68.9137 16.8374L67.5093 17.2641L66.7812 14.8673L57.1523 17.7925L53.4657 5.65755L54.9794 5.19769L58.2521 15.9703L64.7443 13.9981L61.4716 3.2254L62.9854 2.76554L66.258 13.5382L67.7717 13.0783L68.9137 16.8374Z" fill="#C6C4EC" fill-opacity="0.4"/>
<path d="M71.8259 14.0255L70.2655 14.2861L68.1759 1.77683L69.7363 1.51618L71.8259 14.0255Z" fill="#C6C4EC" fill-opacity="0.4"/>
<path d="M81.0061 6.86391L80.7385 1.91411L77.9476 2.06503C76.131 2.16326 75.1521 3.10518 75.2375 4.68491C75.3234 6.27341 76.4074 7.11258 78.2153 7.01483L81.0061 6.86391ZM78.5379 8.42329L75.3083 13.483L73.4302 13.5845L76.7898 8.32417C74.9771 8.0085 73.7159 6.65959 73.6139 4.7727C73.49 2.4821 75.0799 0.794185 77.4583 0.665578L82.2413 0.406942L82.9261 13.0711L81.3464 13.1565L81.083 8.28567L78.5379 8.42329Z" fill="#C6C4EC" fill-opacity="0.4"/>
<path d="M98.5504 14.9321L97.935 11.1345L92.9689 10.2462L91.0753 13.595L89.4401 13.3025L96.2759 1.64131L97.8159 1.91678L100.186 15.2245L98.5504 14.9321ZM96.6811 3.66913L93.6642 9.0045L97.7132 9.72875L96.733 3.67842L96.6811 3.66913Z" fill="#C6C4EC" fill-opacity="0.4"/>
<path d="M106.533 10.4229L110.347 18.7677L108.298 18.0511L104.806 10.303L104.74 10.2798L102.706 16.0956L101.212 15.5733L105.399 3.60167L106.893 4.12391L104.963 9.641L105.029 9.66421L112.103 5.94597L113.978 6.60168L106.533 10.4229Z" fill="#C6C4EC" fill-opacity="0.4"/>
<path d="M120.403 27.1288L119.123 26.4104L120.349 24.226L111.573 19.3003L117.781 8.24079L119.16 9.01514L113.65 18.8331L119.566 22.1542L125.077 12.3362L126.457 13.1106L120.946 22.9285L122.326 23.7029L120.403 27.1288Z" fill="#C6C4EC" fill-opacity="0.4"/>
<path d="M124.048 27.0026L122.775 26.0627L130.311 15.8612L131.583 16.8012L124.048 27.0026Z" fill="#C6C4EC" fill-opacity="0.4"/>
<path d="M135.772 28.7879L139.147 25.1577L137.1 23.2545C135.768 22.0156 134.411 21.9655 133.333 23.124C132.25 24.289 132.399 25.6518 133.725 26.8847L135.772 28.7879ZM132.936 28.095L127.052 29.2852L125.675 28.0044L131.793 26.7683C130.761 25.2449 130.856 23.4007 132.142 22.0168C133.705 20.3369 136.023 20.3086 137.767 21.9305L141.275 25.1923L132.639 34.4801L131.481 33.4028L134.802 29.8306L132.936 28.095Z" fill="#C6C4EC" fill-opacity="0.4"/>
<path d="M141.83 46.5511L144.119 43.4588L141.287 39.2837L137.568 40.2665L136.635 38.8917L149.756 35.6424L150.634 36.9371L142.762 47.9258L141.83 46.5511ZM148.587 37.3483L142.661 38.9143L144.97 42.3185L148.617 37.392L148.587 37.3483Z" fill="#C6C4EC" fill-opacity="0.4"/>
<path d="M150.859 49.5553L147.524 58.1026L146.612 56.1327L149.743 48.2321L149.713 48.1683L144.122 50.7573L143.458 49.3217L154.966 43.9922L155.631 45.4278L150.327 47.8839L150.357 47.9477L157.95 50.4363L158.785 52.2388L150.859 49.5553Z" fill="#C6C4EC" fill-opacity="0.4"/>
<path d="M148.447 70.895L148.069 69.4769L150.489 68.8309L147.894 59.1078L160.147 55.837L160.555 57.3655L149.677 60.2691L151.427 66.8248L162.305 63.9212L162.713 65.4497L151.835 68.3533L152.243 69.8818L148.447 70.895Z" fill="#C6C4EC" fill-opacity="0.4"/>
<path d="M151.128 73.8667L150.921 72.2982L163.495 70.6416L163.702 72.21L151.128 73.8667Z" fill="#C6C4EC" fill-opacity="0.4"/>
<path d="M157.96 83.4582L162.916 83.3625L162.862 80.5681C162.827 78.7491 161.92 77.7381 160.338 77.7687C158.748 77.7994 157.871 78.8536 157.906 80.6638L157.96 83.4582ZM156.487 80.9373L151.543 77.5341L151.507 75.6536L156.647 79.1937C157.026 77.3931 158.417 76.1795 160.307 76.143C162.6 76.0987 164.232 77.7463 164.278 80.1277L164.37 84.9168L151.69 85.1616L151.66 83.5798L156.537 83.4857L156.487 80.9373Z" fill="#C6C4EC" fill-opacity="0.4"/>
</svg>
