<svg width="167" height="167" viewBox="0 0 167 167" fill="none" xmlns="http://www.w3.org/2000/svg">
<path d="M146.781 93.8029L146.921 92.2271L152.673 92.7386L153.289 85.8051L147.538 85.2935L147.678 83.7177L160.311 84.8412L160.17 86.417L154.708 85.9312L154.091 92.8648L159.554 93.3506L159.414 94.9264L146.781 93.8029Z" fill="#C6C4EC" fill-opacity="0.4"/>
<path d="M157.389 104.376C156.383 107.827 153.324 109.279 149.459 108.152C145.594 107.026 143.802 104.16 144.808 100.709C145.814 97.2579 148.865 95.8036 152.73 96.9299C156.594 98.0562 158.395 100.925 157.389 104.376ZM155.988 103.967C156.714 101.478 155.279 99.3664 152.275 98.4909C149.279 97.6179 146.934 98.6281 146.209 101.117C145.483 103.606 146.918 105.718 149.914 106.591C152.918 107.467 155.263 106.457 155.988 103.967Z" fill="#C6C4EC" fill-opacity="0.4"/>
<path d="M140.482 112.233L142.655 107.964L153.958 113.717L151.777 118.001C150.792 119.936 148.998 120.67 147.307 119.809C146.132 119.211 145.474 117.791 145.832 116.603L145.769 116.571C144.792 118.006 143.209 118.443 141.705 117.677C139.715 116.665 139.258 114.637 140.482 112.233ZM151.995 114.493L148.368 112.647L147.292 114.762C146.442 116.43 146.646 117.677 147.868 118.299C148.988 118.87 149.997 118.417 150.695 117.046L151.995 114.493ZM143.183 110.007L141.835 112.655C140.97 114.355 141.205 115.598 142.513 116.264C143.821 116.93 144.957 116.345 145.874 114.543L147.154 112.029L143.183 110.007Z" fill="#C6C4EC" fill-opacity="0.4"/>
<path d="M132.443 124.47L140.493 130.554L140.578 130.442L136.661 118.889L137.604 117.641L147.723 125.287L146.779 126.535L138.702 120.431L138.617 120.543L142.561 132.117L141.618 133.365L131.5 125.719L132.443 124.47Z" fill="#C6C4EC" fill-opacity="0.4"/>
<path d="M122.768 133.885L123.938 132.821L127.824 137.092L132.973 132.408L129.087 128.137L130.258 127.072L138.792 136.454L137.622 137.518L133.931 133.461L128.782 138.145L132.473 142.202L131.303 143.267L122.768 133.885Z" fill="#C6C4EC" fill-opacity="0.4"/>
<path d="M121.959 142.344L113.061 140.106L114.901 138.954L123.132 141.071L123.192 141.033L119.922 135.811L121.263 134.972L127.993 145.722L126.652 146.561L123.551 141.607L123.491 141.644L121.973 149.49L120.29 150.544L121.959 142.344Z" fill="#C6C4EC" fill-opacity="0.4"/>
<path d="M103.967 143.867L107.723 153.232L107.854 153.179L110.461 141.263L111.913 140.68L116.634 152.451L115.182 153.034L111.413 143.636L111.282 143.689L108.689 155.638L107.237 156.22L102.515 144.449L103.967 143.867Z" fill="#C6C4EC" fill-opacity="0.4"/>
<path d="M86.284 147.259L87.854 147.064L88.5643 152.795L95.4724 151.939L94.7621 146.208L96.3321 146.013L97.8921 158.6L96.3221 158.794L95.6475 153.352L88.7394 154.208L89.414 159.651L87.844 159.845L86.284 147.259Z" fill="#C6C4EC" fill-opacity="0.4"/>
<path d="M77.9988 159.812C74.4137 159.549 72.3551 156.859 72.6499 152.845C72.9446 148.83 75.3733 146.479 78.9584 146.743C82.5435 147.006 84.6027 149.686 84.3079 153.701C84.0132 157.715 81.5838 160.075 77.9988 159.812ZM78.1056 158.357C80.6914 158.547 82.4572 156.702 82.6863 153.582C82.9148 150.47 81.4374 148.387 78.8515 148.198C76.2657 148.008 74.4999 149.852 74.2715 152.964C74.0423 156.084 75.5198 158.167 78.1056 158.357Z" fill="#C6C4EC" fill-opacity="0.4"/>
<path d="M66.8044 144.92L71.4371 146.138L68.2128 158.404L63.5632 157.181C61.4636 156.629 60.3658 155.032 60.8484 153.196C61.1836 151.921 62.4315 150.977 63.6689 151.075L63.6867 151.007C62.0765 150.356 61.3139 148.902 61.7429 147.27C62.3104 145.111 64.1949 144.234 66.8044 144.92ZM67.0381 156.65L68.0726 152.714L65.7775 152.111C63.967 151.635 62.791 152.098 62.4424 153.424C62.1229 154.64 62.7794 155.53 64.267 155.921L67.0381 156.65ZM69.5518 147.087L66.6787 146.332C64.8341 145.847 63.6685 146.34 63.2953 147.76C62.9222 149.179 63.7353 150.165 65.6903 150.679L68.4189 151.397L69.5518 147.087Z" fill="#C6C4EC" fill-opacity="0.4"/>
<path d="M53.1527 139.601L48.8787 148.741L49.0061 148.8L59.4901 142.564L60.9073 143.227L55.535 154.716L54.1178 154.053L58.4067 144.881L58.2793 144.822L47.7804 151.089L46.3632 150.427L51.7355 138.938L53.1527 139.601Z" fill="#C6C4EC" fill-opacity="0.4"/>
<path d="M41.9939 132.106L43.2766 133.032L39.8969 137.714L45.541 141.788L48.9207 137.106L50.2034 138.032L42.7804 148.315L41.4977 147.389L44.7076 142.942L39.0635 138.868L35.8536 143.315L34.5708 142.389L41.9939 132.106Z" fill="#C6C4EC" fill-opacity="0.4"/>
<path d="M33.5605 133.083L33.9136 123.915L35.4205 125.477L35.0487 133.967L35.0975 134.018L39.5325 129.741L40.6306 130.88L31.5012 139.684L30.4031 138.545L34.6103 134.488L34.5615 134.437L26.5717 134.572L25.1929 133.142L33.5605 133.083Z" fill="#C6C4EC" fill-opacity="0.4"/>
<path d="M28.3752 115.878L20.0042 121.511L20.0827 121.627L32.281 121.682L33.1545 122.98L22.6324 130.06L21.759 128.762L30.1591 123.11L30.0806 122.993L17.8531 122.958L16.9797 121.66L27.5018 114.58L28.3752 115.878Z" fill="#C6C4EC" fill-opacity="0.4"/>
<path d="M21.3392 99.3082L21.8558 100.803L16.3979 102.689L18.6711 109.268L24.1289 107.383L24.6455 108.878L12.6582 113.02L12.1416 111.524L17.3253 109.733L15.0522 103.154L9.86845 104.945L9.35183 103.45L21.3392 99.3082Z" fill="#C6C4EC" fill-opacity="0.4"/>
<path d="M7.36641 94.1362C6.8695 90.576 9.06542 87.9977 13.0522 87.4412C17.0389 86.8848 19.8482 88.7645 20.3451 92.3247C20.842 95.8849 18.6548 98.462 14.668 99.0185C10.6813 99.5749 7.86332 97.6964 7.36641 94.1362ZM8.81138 93.9345C9.16979 96.5024 11.3444 97.8406 14.4433 97.4081C17.5334 96.9768 19.2585 95.0943 18.9001 92.5264C18.5417 89.9585 16.3671 88.6203 13.2769 89.0516C10.1781 89.4841 8.45298 91.3666 8.81138 93.9345Z" fill="#C6C4EC" fill-opacity="0.4"/>
<path d="M19.5622 79.737L19.322 84.521L6.65533 83.8851L6.8964 79.0835C7.00526 76.9153 8.34289 75.5129 10.2389 75.6081C11.5556 75.6742 12.7361 76.7015 12.8943 77.9326L12.9645 77.9362C13.2703 76.2267 14.5372 75.1815 16.2226 75.2661C18.4522 75.378 19.6975 77.0422 19.5622 79.737ZM8.13036 82.3751L12.1946 82.5792L12.3136 80.2091C12.4074 78.3394 11.7124 77.2837 10.3431 77.2149C9.08781 77.1519 8.35116 77.9773 8.27403 79.5135L8.13036 82.3751ZM18.0056 82.8709L18.1546 79.904C18.2502 77.9991 17.528 76.9597 16.0621 76.8861C14.5961 76.8125 13.798 77.8108 13.6966 79.8297L13.5552 82.6475L18.0056 82.8709Z" fill="#C6C4EC" fill-opacity="0.4"/>
<path d="M21.8604 65.4135L12.0285 63.1464L11.9969 63.2834L20.2884 72.2307L19.9369 73.7552L7.57854 70.9055L7.93006 69.381L17.7962 71.656L17.8278 71.519L9.50203 62.5638L9.85356 61.0394L22.2119 63.8891L21.8604 65.4135Z" fill="#C6C4EC" fill-opacity="0.4"/>
<path d="M26.8575 52.838L26.2195 54.2857L20.9354 51.9571L18.1284 58.327L23.4125 60.6555L22.7745 62.1032L11.1688 56.9889L11.8068 55.5412L16.8254 57.7528L19.6325 51.383L14.6138 49.1714L15.2517 47.7237L26.8575 52.838Z" fill="#C6C4EC" fill-opacity="0.4"/>
<path d="M24.0225 44.9564L33.0609 43.3792L31.8489 45.1803L23.4694 46.597L23.4302 46.6553L28.5417 50.095L27.6585 51.4075L17.1364 44.327L18.0196 43.0144L22.8687 46.2775L22.9079 46.2191L21.1011 38.4352L22.2101 36.7872L24.0225 44.9564Z" fill="#C6C4EC" fill-opacity="0.4"/>
<path d="M39.8451 36.1728L32.6075 29.1426L32.5095 29.2435L34.9705 41.1911L33.8804 42.3133L24.7831 33.4766L25.8731 32.3544L33.1359 39.4091L33.2339 39.3082L30.7477 27.3361L31.8377 26.2139L40.9351 35.0506L39.8451 36.1728Z" fill="#C6C4EC" fill-opacity="0.4"/>
<path d="M54.4485 25.8549L53.0953 26.6745L50.1036 21.7355L44.1498 25.342L47.1415 30.2809L45.7883 31.1006L39.2175 20.2528L40.5707 19.4332L43.4121 24.1241L49.3659 20.5177L46.5245 15.8268L47.8777 15.0071L54.4485 25.8549Z" fill="#C6C4EC" fill-opacity="0.4"/>
<path d="M56.484 11.0869C59.859 9.84932 62.8429 11.4512 64.2287 15.2306C65.6145 19.0099 64.3705 22.1528 60.9955 23.3903C57.6205 24.6279 54.6396 23.0342 53.2538 19.2549C51.868 15.4755 53.109 12.3244 56.484 11.0869ZM56.9863 12.4567C54.552 13.3493 53.7032 15.7574 54.7804 18.6951C55.8545 21.6245 58.0589 22.9131 60.4932 22.0205C62.9275 21.1279 63.7763 18.7197 62.7021 15.7903C61.6249 12.8527 59.4206 11.5641 56.9863 12.4567Z" fill="#C6C4EC" fill-opacity="0.4"/>
<path d="M73.1523 19.9377L68.4248 20.7088L66.3831 8.19158L71.128 7.41764C73.2706 7.06817 74.923 8.081 75.2286 9.95468C75.4408 11.2558 74.6847 12.6259 73.5143 13.0394L73.5256 13.1088C75.2612 13.0484 76.5494 14.0672 76.8211 15.7327C77.1805 17.936 75.8154 19.5033 73.1523 19.9377ZM68.1695 9.31614L68.8245 13.3324L71.1666 12.9504C73.0143 12.649 73.9003 11.7476 73.6795 10.3943C73.4772 9.15391 72.5153 8.60728 70.9973 8.85489L68.1695 9.31614ZM69.7612 19.0749L72.6931 18.5966C74.5755 18.2896 75.4399 17.365 75.2036 15.9163C74.9673 14.4677 73.8235 13.8973 71.8283 14.2228L69.0438 14.6769L69.7612 19.0749Z" fill="#C6C4EC" fill-opacity="0.4"/>
<path d="M88.078 19.1871L88.2727 9.09915L88.1321 9.09643L81.0832 19.0521L79.5191 19.0219L79.7638 6.34165L81.328 6.37184L81.1326 16.495L81.2732 16.4977L88.3228 6.50685L89.8869 6.53705L89.6422 19.2173L88.078 19.1871Z" fill="#C6C4EC" fill-opacity="0.4"/>
<path d="M101.264 21.4198L99.7149 21.0997L100.883 15.4447L94.0664 14.0362L92.8979 19.6912L91.3486 19.3711L93.9149 6.95078L95.4642 7.2709L94.3545 12.6418L101.171 14.0503L102.281 8.67941L103.83 8.99952L101.264 21.4198Z" fill="#C6C4EC" fill-opacity="0.4"/>
<path d="M108.29 16.9563L111.724 25.4643L109.709 24.6562L106.57 16.7588L106.505 16.7326L104.211 22.4509L102.743 21.862L107.464 10.0909L108.932 10.6799L106.757 16.1045L106.822 16.1307L114.055 12.7346L115.899 13.4741L108.29 16.9563Z" fill="#C6C4EC" fill-opacity="0.4"/>
<path d="M120.393 30.719L125.778 22.1864L125.659 22.1114L114.476 26.9851L113.153 26.1501L119.922 15.4249L121.245 16.2599L115.841 24.8222L115.96 24.8973L127.162 19.9938L128.485 20.8288L121.716 31.554L120.393 30.719Z" fill="#C6C4EC" fill-opacity="0.4"/>
<path d="M133.516 42.9148L132.434 41.7602L136.649 37.8127L131.89 32.7323L127.676 36.6798L126.594 35.5251L135.851 26.8552L136.932 28.0098L132.93 31.759L137.688 36.8394L141.691 33.0902L142.772 34.2449L133.516 42.9148Z" fill="#C6C4EC" fill-opacity="0.4"/>
<path d="M148.51 42.0661C150.417 45.1131 149.465 48.3633 146.053 50.4992C142.641 52.6351 139.31 52.0664 137.402 49.0195C135.495 45.9725 136.439 42.727 139.851 40.5911C143.263 38.4551 146.602 39.0192 148.51 42.0661ZM147.273 42.8403C145.897 40.6426 143.366 40.309 140.714 41.9693C138.069 43.6248 137.263 46.0477 138.639 48.2453C140.015 50.443 142.546 50.7766 145.191 49.121C147.843 47.4608 148.649 45.038 147.273 42.8403Z" fill="#C6C4EC" fill-opacity="0.4"/>
<path d="M143.101 59.8057L141.352 55.3467L153.158 50.7136L154.914 55.189C155.707 57.2098 155.065 59.0385 153.298 59.732C152.071 60.2136 150.572 59.7631 149.921 58.7062L149.856 58.7319C150.28 60.4157 149.556 61.8897 147.985 62.5061C145.907 63.3217 144.087 62.3174 143.101 59.8057ZM152.435 52.6968L148.647 54.1834L149.514 56.3924C150.197 58.1351 151.265 58.8113 152.542 58.3104C153.712 57.8513 154.043 56.7958 153.481 55.364L152.435 52.6968ZM143.23 56.3089L144.316 59.0743C145.012 60.8497 146.098 61.4998 147.465 60.9636C148.831 60.4275 149.148 59.1891 148.409 57.3073L147.379 54.681L143.23 56.3089Z" fill="#C6C4EC" fill-opacity="0.4"/>
<path d="M146.896 73.83L156.792 71.8639L156.765 71.726L145.533 66.968L145.228 65.4335L157.667 62.9622L157.972 64.4967L148.041 66.4696L148.069 66.6076L159.335 71.3587L159.64 72.8931L147.201 75.3645L146.896 73.83Z" fill="#C6C4EC" fill-opacity="0.4"/>
</svg>
