<svg width="21" height="21" viewBox="0 0 21 21" fill="none" xmlns="http://www.w3.org/2000/svg">
<g clip-path="url(#clip0_439_10589)">
<path d="M11.3224 10.5L16.1582 5.66416C16.2538 5.55257 16.3037 5.40903 16.2981 5.26222C16.2924 5.1154 16.2315 4.97614 16.1276 4.87225C16.0238 4.76836 15.8845 4.7075 15.7377 4.70183C15.5909 4.69616 15.4473 4.7461 15.3357 4.84166L10.4999 9.6775L5.66407 4.83583C5.55423 4.72599 5.40525 4.66428 5.2499 4.66428C5.09456 4.66428 4.94558 4.72599 4.83574 4.83583C4.72589 4.94567 4.66418 5.09465 4.66418 5.25C4.66418 5.40534 4.72589 5.55432 4.83574 5.66416L9.6774 10.5L4.83574 15.3358C4.77467 15.3881 4.72508 15.4525 4.69006 15.5248C4.65505 15.5972 4.63537 15.676 4.63227 15.7564C4.62917 15.8367 4.6427 15.9168 4.67203 15.9917C4.70136 16.0665 4.74584 16.1345 4.80269 16.1914C4.85954 16.2482 4.92752 16.2927 5.00238 16.322C5.07724 16.3514 5.15735 16.3649 5.23768 16.3618C5.31802 16.3587 5.39685 16.339 5.46922 16.304C5.54159 16.269 5.60594 16.2194 5.65824 16.1583L10.4999 11.3225L15.3357 16.1583C15.4473 16.2539 15.5909 16.3038 15.7377 16.2982C15.8845 16.2925 16.0238 16.2316 16.1276 16.1277C16.2315 16.0239 16.2924 15.8846 16.2981 15.7378C16.3037 15.591 16.2538 15.4474 16.1582 15.3358L11.3224 10.5Z" fill="#1B1B1B"/>
</g>
<defs>
<clipPath id="clip0_439_10589">
<rect width="21" height="21" fill="white"/>
</clipPath>
</defs>
</svg>
