<svg width="38" height="38" viewBox="0 0 38 38" fill="none" xmlns="http://www.w3.org/2000/svg">
<g clip-path="url(#clip0_180_5882)">
<path d="M18.2083 30.0833C17.7713 30.0833 17.4167 29.7287 17.4167 29.2917V13.4583C17.4167 13.0213 17.7713 12.6667 18.2083 12.6667C18.6453 12.6667 19 13.0213 19 13.4583V29.2917C19 29.7287 18.6453 30.0833 18.2083 30.0833ZM18.2083 33.25C17.3343 33.25 16.625 33.9593 16.625 34.8333C16.625 35.7073 17.3343 36.4167 18.2083 36.4167C19.0823 36.4167 19.7917 35.7073 19.7917 34.8333C19.7917 33.9593 19.0823 33.25 18.2083 33.25ZM28.7327 11.3857C28.0361 11.2306 27.4582 10.7888 27.1494 10.1729C24.5907 5.06825 19.0681 2.34492 13.414 3.39783C8.45025 4.31933 4.43808 8.27608 3.4295 13.243C3.12867 14.7203 3.08433 16.2086 3.29808 17.67C3.4295 18.5677 3.20625 19.3689 2.68533 19.8661C0.956333 21.5207 0.00158333 23.7437 0 26.125C0 30.9257 3.90608 34.8333 8.70833 34.8333H11.875C12.312 34.8333 12.6667 34.4787 12.6667 34.0417C12.6667 33.6047 12.312 33.25 11.875 33.25H8.70833C4.78008 33.25 1.58333 30.0532 1.58333 26.1266C1.58492 24.1807 2.36708 22.3646 3.781 21.0108C4.67717 20.1558 5.07142 18.8559 4.86558 17.442C4.67875 16.1627 4.71833 14.8564 4.98275 13.5597C5.86308 9.21817 9.36858 5.76017 13.7037 4.95425C18.6596 4.03275 23.4967 6.41567 25.7339 10.8822C26.2564 11.9257 27.2238 12.673 28.3876 12.9327C33.2183 14.0173 36.5924 18.3999 36.4087 23.3573C36.2061 28.8119 31.4054 33.25 25.707 33.25H24.5417C24.1047 33.25 23.75 33.6047 23.75 34.0417C23.75 34.4787 24.1047 34.8333 24.5417 34.8333H25.707C32.2462 34.8333 37.7577 29.7128 37.9905 23.4159C38.2027 17.6969 34.3092 12.6366 28.7327 11.3857Z" fill="#8D89DA"/>
</g>
<defs>
<clipPath id="clip0_180_5882">
<rect width="38" height="38" fill="white"/>
</clipPath>
</defs>
</svg>
