<svg width="71" height="60" viewBox="0 0 71 60" fill="none" xmlns="http://www.w3.org/2000/svg">
<path d="M6.41628 50.0728L7.92831 52.7307L10.1609 51.4593L10.4813 52.0249L5.65731 54.7721L5.33393 54.2065L7.42922 53.0157L5.91719 50.3578L3.8219 51.5502L3.5 50.9861L8.32625 48.2396L8.64815 48.8052L6.41628 50.0728Z" fill="#1B1B1B"/>
<path d="M2.13335 47.7088L1.11523 44.5637L1.66453 44.3865L2.48256 46.9137L4.22347 46.3496L3.50732 44.1347L4.05735 43.9568L4.77276 46.1717L6.66724 45.5589L5.84846 43.0324L6.39849 42.8538L7.41661 45.9996L2.13335 47.7088Z" fill="#1B1B1B"/>
<mask id="mask0_201_909" style="mask-type:luminance" maskUnits="userSpaceOnUse" x="0" y="0" width="71" height="60">
<path d="M70.6588 0H0V60H70.6588V0Z" fill="white"/>
</mask>
<g mask="url(#mask0_201_909)">
<path d="M2.63021 39.4687C2.61772 39.1579 2.49767 38.8612 2.29059 38.6292C2.19209 38.5468 2.07639 38.4874 1.95196 38.4554C1.82753 38.4235 1.69753 38.4198 1.57149 38.4446C1.44304 38.4517 1.31783 38.4875 1.20511 38.5495C1.0924 38.6115 0.99506 38.698 0.920308 38.8027C0.776645 39.0785 0.733818 39.3958 0.799227 39.6998L0.938027 40.7976L2.76974 40.5673L2.63021 39.4687ZM3.2297 39.603L3.34193 40.4956L5.87872 40.1752L5.96067 40.819L0.45075 41.5145L0.229261 39.7943C0.194413 39.5449 0.194413 39.292 0.229261 39.0427C0.25872 38.8288 0.330503 38.623 0.440414 38.4373C0.545223 38.2651 0.68851 38.1195 0.859029 38.012C1.05012 37.8956 1.26475 37.8232 1.48732 37.8001C1.6636 37.768 1.84449 37.771 2.01959 37.809C2.19469 37.8471 2.36055 37.9193 2.50765 38.0216C2.79473 38.2457 3.00187 38.5564 3.09829 38.9076L5.45715 36.8868L5.54944 37.6192L3.2297 39.603Z" fill="#1B1B1B"/>
<path d="M5.72689 32.663C5.69739 33.0398 5.59058 33.4065 5.41312 33.7402C5.24338 34.0615 5.01297 34.3468 4.73462 34.5804C4.14457 35.0661 3.38616 35.2984 2.6253 35.2264C2.23682 35.1969 1.85822 35.0897 1.51195 34.9112C1.18579 34.7421 0.895266 34.5117 0.656261 34.2327C0.417099 33.9501 0.236766 33.6226 0.125835 33.2694C0.0149037 32.9162 -0.0243926 32.5444 0.01025 32.1758C0.0329848 31.8932 0.096651 31.6154 0.199254 31.3511C0.300163 31.0934 0.439021 30.8523 0.611225 30.6357C0.782482 30.4228 0.9884 30.2404 1.22032 30.096C1.46209 29.9474 1.72912 29.8445 2.00808 29.7925L1.94754 30.5043C1.75119 30.5431 1.56496 30.622 1.40047 30.7361C1.24002 30.8458 1.09924 30.9819 0.984065 31.1385C0.868172 31.2965 0.775903 31.4706 0.710157 31.6553C0.644176 31.8391 0.602237 32.0307 0.585384 32.2252C0.560129 32.5082 0.593043 32.7934 0.682101 33.0632C0.771047 33.3291 0.911821 33.5748 1.09629 33.786C1.28858 34.0025 1.51971 34.181 1.77774 34.3124C2.06025 34.4537 2.36782 34.538 2.68289 34.5605C2.99729 34.5909 3.3146 34.5593 3.61684 34.4674C3.89571 34.3846 4.15576 34.2482 4.38245 34.0658C4.60217 33.8884 4.78354 33.6682 4.91553 33.4186C5.04753 33.1689 5.12739 32.895 5.15028 32.6136C5.16774 32.4191 5.15904 32.2232 5.12444 32.0311C5.09045 31.8383 5.02852 31.6515 4.9406 31.4766C4.85402 31.3023 4.73843 31.144 4.59877 31.0085C4.45562 30.8682 4.28527 30.7586 4.09821 30.6866L4.15875 29.9749C4.42455 30.0737 4.67002 30.2203 4.88302 30.4075C5.08763 30.5885 5.25969 30.8033 5.3917 31.0425C5.5249 31.2841 5.62074 31.5444 5.67595 31.8147C5.73312 32.0937 5.75028 32.3793 5.72689 32.663Z" fill="#1B1B1B"/>
<path d="M6.47362 26.1107C6.55282 25.9148 6.58627 25.7035 6.57143 25.4928C6.55659 25.2821 6.49384 25.0775 6.38798 24.8947C6.1176 24.521 5.72417 24.2547 5.27684 24.1424L2.10585 23.1243L2.30371 22.5048L5.56699 23.5525C5.86769 23.6448 6.15071 23.7871 6.40422 23.9733C6.62631 24.1376 6.8106 24.3475 6.94466 24.589C7.07449 24.8295 7.14796 25.0964 7.1595 25.3694C7.17202 25.9956 6.97564 26.6081 6.60135 27.1103C6.43359 27.3263 6.21869 27.501 5.97305 27.6212C5.72386 27.7404 5.45188 27.8043 5.17569 27.8088C4.86024 27.8122 4.54647 27.7622 4.24765 27.6611L0.984375 26.6149L1.18298 25.9977L4.35766 27.0151C4.78721 27.1836 5.26236 27.1956 5.69988 27.049C5.89205 26.9618 6.06185 26.832 6.19641 26.6694C6.33098 26.5068 6.42678 26.3158 6.47657 26.1107" fill="#1B1B1B"/>
<path d="M3.74805 19.3833L4.06404 18.8133L8.41483 21.2253L9.64779 19.0016L10.1528 19.2814L8.60236 22.0751L3.74805 19.3833Z" fill="#1B1B1B"/>
<path d="M8.63859 13.3181L10.0081 15.6918L11.2219 14.2284L8.63859 13.3181ZM10.7708 18.2943L7.85156 13.1121L8.29454 12.5806L13.9241 14.4839L13.4811 15.0155L11.8007 14.4248L10.3153 16.2167L11.2086 17.7612L10.7708 18.2943Z" fill="#1B1B1B"/>
<path d="M15.2454 13.2502L11.8086 8.88764L12.332 8.47567L17.3798 10.2409L14.5898 6.69711L15.0999 6.29474L18.536 10.6573L18.0125 11.0693L12.9611 9.2974L15.7563 12.8464L15.2454 13.2502Z" fill="#1B1B1B"/>
<path d="M18.1094 4.45339L21.0626 2.97089L21.3224 3.48769L18.9503 4.67931L19.7698 6.3139L21.8496 5.27068L22.1095 5.78749L20.0297 6.83145L20.9223 8.61001L23.2967 7.41766L23.5558 7.93446L20.6026 9.4177L18.1094 4.45339Z" fill="#1B1B1B"/>
<path d="M26.7363 1.02033L26.8412 1.58808L28.5865 1.26471L29.499 6.1552L30.1391 6.03633L29.2251 1.14437L30.9705 0.820254L30.8634 0.252502L26.7363 1.02033Z" fill="#1B1B1B"/>
<path d="M33.7627 0.000732422L33.666 5.55347L34.3157 5.56455L34.3608 2.99675L37.4188 3.05064L37.3693 5.61992L38.0183 5.62952L38.1209 0.0745622L37.4705 0.0664409L37.4284 2.47329L34.3704 2.42014L34.4161 0.0118069L33.7627 0.000732422Z" fill="#1B1B1B"/>
<path d="M40.3945 5.98466L43.6202 6.70672L43.7501 6.14192L41.1579 5.5631L41.5935 3.6199L43.8638 4.12785L43.9893 3.56379L41.719 3.05658L42.1199 1.26989L44.7121 1.85093L44.8383 1.28761L41.609 0.564819L40.3945 5.98466Z" fill="#1B1B1B"/>
<path d="M48.472 5.19612C48.7457 5.3448 49.0629 5.39262 49.3683 5.33123C49.4894 5.28904 49.5995 5.21996 49.6901 5.12918C49.7808 5.03839 49.8497 4.92826 49.8917 4.80704C49.9511 4.69379 49.9843 4.56863 49.9887 4.44083C49.9932 4.31303 49.9689 4.18586 49.9176 4.06874C49.7538 3.80428 49.5029 3.60529 49.2081 3.50616L48.1929 3.06318L47.4546 4.7561L48.472 5.19612ZM48.0511 5.64353L47.2272 5.28545L46.2091 7.62586L45.6133 7.36672L47.8282 2.27246L49.417 2.96351C49.6493 3.06107 49.8668 3.1908 50.063 3.3489C50.2318 3.4832 50.3722 3.64987 50.4757 3.83913C50.5705 4.0172 50.6225 4.21484 50.6278 4.41648C50.6308 4.64039 50.5836 4.86214 50.4897 5.06544C50.4271 5.23321 50.332 5.38698 50.2099 5.51797C50.0877 5.64896 49.941 5.7546 49.778 5.82884C49.439 5.96128 49.0665 5.98198 48.7149 5.88791L49.2509 8.94668L48.5716 8.65136L48.0511 5.64353Z" fill="#1B1B1B"/>
<path d="M53.8031 10.8759L53.2604 10.4743L53.8939 6.85069L51.3992 10.2254L50.875 9.83932L54.1767 5.37335L54.7134 5.76982L53.9234 10.1442L57.8748 8.10505L58.4115 8.50152L55.1047 12.9675L54.5879 12.5814L57.0826 9.2066L53.8031 10.8759Z" fill="#1B1B1B"/>
<path d="M61.6557 12.9394L59.0835 13.8814L60.3194 15.3285L61.6557 12.9394ZM56.3887 14.1856L61.9938 12.1974L62.442 12.7223L59.5988 17.9458L59.1499 17.4194L60.0189 15.8689L58.5076 14.097L56.8376 14.7098L56.3887 14.1856Z" fill="#1B1B1B"/>
<path d="M65.3753 16.738L65.6979 17.3035L61.3767 19.7716L62.6399 21.9865L62.1379 22.2723L60.5527 19.4985L65.3753 16.738Z" fill="#1B1B1B"/>
<path d="M69.2602 25.0187L69.3909 25.6477L65.2106 27.54L69.5134 27.9342L69.6441 28.5632L65.8529 30.6342L70.4407 30.708L70.5721 31.3363L64.8725 31.2071L64.747 30.6039L68.6902 28.4318L64.2088 28.0103L64.084 27.4049L69.2602 25.0187Z" fill="#1B1B1B"/>
<path d="M69.913 36.0356L67.3621 35.0337L67.3282 36.9348L69.913 36.0356ZM65.1435 33.4752L70.6572 35.7033L70.6446 36.3944L65.0527 38.4188L65.066 37.7278L66.7464 37.1371L66.7885 34.8174L65.1317 34.1692L65.1435 33.4752Z" fill="#1B1B1B"/>
<path d="M69.0298 44.1465L69.3687 42.4034L64.4863 41.4532L64.6111 40.8161L69.4949 41.7714L69.8346 40.0291L70.4016 40.1413L69.5976 44.2588L69.0298 44.1465Z" fill="#1B1B1B"/>
<path d="M68.7575 46.9388L67.5489 50.0167L67.0115 49.8056L67.9823 47.3315L66.2791 46.6671L65.4293 48.8303L64.8918 48.6191L65.7416 46.4515L63.8899 45.722L62.9183 48.1931L62.3809 47.9827L63.5894 44.9099L68.7575 46.9388Z" fill="#1B1B1B"/>
<path d="M63.1254 53.009C62.938 53.257 62.8424 53.5623 62.8552 53.8728C62.9199 54.1208 63.0763 54.3349 63.2929 54.4719C63.5094 54.609 63.7699 54.6587 64.0217 54.6111C64.3075 54.4885 64.5422 54.271 64.6861 53.9954L65.2768 53.06L63.7168 52.0707L63.1254 53.009ZM62.7511 52.5232L63.2324 51.7628L61.0766 50.3984L61.4229 49.8491L66.1162 52.8178L65.1874 54.2856C65.0545 54.4998 64.8925 54.6946 64.7061 54.8644C64.5477 55.0105 64.3617 55.1235 64.159 55.1966C63.9695 55.2624 63.7673 55.2832 63.5684 55.2572C63.3468 55.2261 63.135 55.1461 62.9482 55.0231C62.7921 54.9352 62.6549 54.8174 62.5444 54.6764C62.4339 54.5354 62.3524 54.374 62.3044 54.2014C62.225 53.8464 62.2618 53.4752 62.4092 53.1427L59.3047 53.2017L59.6997 52.5764L62.7511 52.5232Z" fill="#1B1B1B"/>
<path d="M52.6937 17.9916C50.4145 15.7051 47.7069 13.8905 44.7257 12.6515C41.7446 11.4125 38.5484 10.7735 35.32 10.771H35.2912C31.5843 10.7763 27.9263 11.6186 24.5903 13.2351C21.2543 14.8515 18.3264 17.2004 16.0249 20.1064C13.7234 23.0125 12.1079 26.4007 11.2988 30.0183C10.4896 33.6359 10.5078 37.3895 11.3519 40.9991V41.1136H11.3807C12.6733 46.4858 15.7331 51.268 20.069 54.693C24.405 58.118 29.7658 59.9872 35.2912 60.0007H35.32C40.8455 59.9872 46.2063 58.118 50.5423 54.693C54.8782 51.268 57.938 46.4858 59.2306 41.1136H59.2475V40.9991C60.2104 36.9236 60.1135 32.6695 58.9663 28.642C57.819 24.6145 55.6596 20.9479 52.6937 17.9916ZM35.2912 12.0748H35.32C40.5138 12.0889 45.5547 13.8339 49.6456 17.0338C53.7365 20.2338 56.644 24.7062 57.9083 29.7438C49.973 29.1443 47.908 23.3944 47.8896 23.3405L47.2709 21.5236L46.6522 23.3405C46.1308 24.6093 45.331 25.7447 44.3118 26.6629C42.6085 28.2421 39.8015 29.7932 35.32 29.8028H35.2912C26.3091 29.7836 24.0544 23.6011 23.9591 23.342L23.3404 21.525L22.7217 23.342C22.7025 23.3988 20.6382 29.1458 12.703 29.7453C13.967 24.7074 16.8744 20.2347 20.9653 17.0344C25.0562 13.8342 30.0973 12.089 35.2912 12.0748ZM35.32 58.6969H35.2912C31.8305 58.693 28.4141 57.9171 25.2911 56.4259C22.1681 54.9346 19.417 52.7655 17.2384 50.0765C19.7867 49.1449 21.9391 47.3687 23.3375 45.0435C23.8683 45.936 24.518 46.7522 25.2689 47.4696C26.9817 49.1248 30.1121 51.1042 35.2876 51.1042H35.3163C40.4844 51.1042 43.6229 49.1248 45.3351 47.4696C46.0797 46.7496 46.7252 45.9338 47.2546 45.0435C48.6573 47.3687 50.8127 49.1446 53.3633 50.0765C51.1849 52.7634 48.4353 54.9312 45.3142 56.4223C42.1931 57.9135 38.779 58.6905 35.32 58.6969ZM54.1968 49.0001C52.7989 48.5651 51.5115 47.8332 50.4228 46.8544C49.334 45.8756 48.4696 44.6731 47.8888 43.3292L47.2605 41.5307L46.6514 43.3292C46.134 44.6025 45.3336 45.7414 44.311 46.6597C42.6078 48.2389 39.8008 49.79 35.3193 49.7996H35.2905C26.3084 49.7804 24.0536 43.5979 23.9584 43.3299L23.3493 41.5314L22.721 43.3299C22.1402 44.6736 21.2759 45.8759 20.1873 46.8546C19.0986 47.8332 17.8114 48.5651 16.4137 49.0001C14.6869 46.6148 13.4307 43.9221 12.7126 41.0663C19.1543 40.6093 22.1628 36.9939 23.3308 35.0241C23.8589 35.9269 24.5124 36.7502 25.2718 37.4693C26.9847 39.1246 30.115 41.104 35.2905 41.1136H35.3193C40.4874 41.104 43.6259 39.1253 45.338 37.4693C46.0949 36.7503 46.7452 35.9269 47.2694 35.0241C48.4396 36.9939 51.4467 40.6093 57.9009 41.0663C57.1737 43.9194 55.9172 46.6106 54.1968 49.0001ZM58.1837 39.7514C50.0203 39.2663 47.908 33.3954 47.8888 33.3386L47.2701 31.5216L46.6514 33.3386C46.1327 34.6088 45.3325 35.7448 44.311 36.6609C42.6078 38.2497 39.8008 39.7817 35.3193 39.8009H35.2905C26.3084 39.7817 24.0536 33.5992 23.9584 33.34L23.3397 31.5231L22.721 33.34C22.7018 33.3969 20.5799 39.2678 12.4262 39.7529C11.8712 36.8874 11.8679 33.9424 12.4166 31.0757C19.0612 30.7139 22.1407 27.0224 23.3301 25.0216C23.8581 25.9244 24.5117 26.7477 25.2711 27.4669C26.9839 29.1221 30.1239 31.1015 35.2898 31.1111H35.3186C40.4867 31.1015 43.6252 29.1229 45.3373 27.4669C46.0941 26.7478 46.7445 25.9244 47.2687 25.0216C48.4581 27.0195 51.5405 30.7117 58.1918 31.0757C58.4634 32.4963 58.6004 33.9395 58.6008 35.3859C58.5972 36.8514 58.457 38.3134 58.1822 39.7529" fill="#1B1B1B"/>
</g>
</svg>
