<svg width="40" height="40" viewBox="0 0 40 40" fill="none" xmlns="http://www.w3.org/2000/svg">
<path d="M21.2748 34.0267L5.97479 18.725M21.2748 34.0267C22.1072 34.885 23.1021 35.5675 24.2014 36.0377C25.3008 36.508 26.4827 36.7548 27.6784 36.764C28.874 36.7731 30.0596 36.5444 31.166 36.091C32.2724 35.6377 33.2776 34.9688 34.1231 34.1233C34.9686 33.2778 35.6374 32.2726 36.0908 31.1662C36.5441 30.0598 36.7729 28.8743 36.7637 27.6786C36.7546 26.4829 36.5077 25.301 36.0375 24.2017C35.5673 23.1023 34.8831 22.1075 34.0248 21.275M21.2748 34.0267L34.0248 21.275M5.97479 18.725C4.32654 17.0256 3.41282 14.746 3.43093 12.3786C3.44904 10.0112 4.39753 7.74589 6.07159 6.07183C7.74564 4.39777 10.011 3.44928 12.3784 3.43117C14.7458 3.41306 17.0253 4.32678 18.7248 5.97504M5.97479 18.725L18.7248 5.97504M34.0248 21.275L18.7248 5.97504" stroke="#8D89DA" stroke-width="1.5" stroke-linecap="round"/>
<path d="M16.4264 20.8602C16.8576 20.4289 16.8576 19.7298 16.4264 19.2985C15.9952 18.8673 15.296 18.8673 14.8648 19.2985C14.4336 19.7298 14.4336 20.4289 14.8648 20.8602C15.296 21.2914 15.9952 21.2914 16.4264 20.8602Z" fill="#8D89DA"/>
<path d="M21.1403 25.5752C21.5715 25.144 21.5715 24.4449 21.1403 24.0136C20.709 23.5824 20.0099 23.5824 19.5787 24.0136C19.1474 24.4449 19.1474 25.144 19.5787 25.5752C20.0099 26.0065 20.709 26.0065 21.1403 25.5752Z" fill="#8D89DA"/>
<path d="M21.1403 16.1453C21.5715 15.7141 21.5715 15.0149 21.1403 14.5837C20.709 14.1525 20.0099 14.1525 19.5787 14.5837C19.1474 15.0149 19.1474 15.7141 19.5787 16.1453C20.0099 16.5765 20.709 16.5765 21.1403 16.1453Z" fill="#8D89DA"/>
<path d="M25.8532 20.8602C26.2844 20.4289 26.2844 19.7298 25.8532 19.2985C25.4219 18.8673 24.7228 18.8673 24.2915 19.2985C23.8603 19.7298 23.8603 20.4289 24.2915 20.8602C24.7228 21.2914 25.4219 21.2914 25.8532 20.8602Z" fill="#8D89DA"/>
</svg>
