<svg width="40" height="40" viewBox="0 0 40 40" fill="none" xmlns="http://www.w3.org/2000/svg">
<g clip-path="url(#clip0_439_11101)">
<path d="M20.5205 13.8444C20.122 14.3982 19.8863 15.0766 19.8863 15.8094C19.8863 17.6691 21.3993 19.182 23.2589 19.182C23.9917 19.182 24.6701 18.9463 25.2239 18.5478L28.0495 21.3734C28.1521 21.476 28.2911 21.5336 28.4362 21.5336C28.5813 21.5336 28.7204 21.4761 28.8229 21.3734L37.1733 13.023C38.5261 11.6702 39.2711 9.86467 39.2711 7.93904C39.2711 6.01342 38.5261 4.20779 37.1733 2.85506C35.8205 1.50225 34.015 0.757168 32.0893 0.757168C30.1636 0.757168 28.3581 1.50217 27.0053 2.85498L23.4983 6.36193C23.1672 6.1824 22.7883 6.08037 22.3859 6.08037C21.0946 6.08037 20.044 7.13092 20.044 8.42225C20.044 8.82467 20.1461 9.20365 20.3256 9.53475L18.6549 11.2054C18.5524 11.3079 18.4947 11.4471 18.4947 11.5921C18.4947 11.7371 18.5524 11.8762 18.6549 11.9787L20.5205 13.8444ZM23.2589 18.0883C22.0023 18.0883 20.9801 17.0661 20.9801 15.8095C20.9801 14.5529 22.0023 13.5307 23.2589 13.5307C24.5154 13.5307 25.5377 14.5529 25.5377 15.8095C25.5377 17.0661 24.5154 18.0883 23.2589 18.0883ZM22.3858 7.17428C23.0741 7.17428 23.634 7.7342 23.634 8.4224C23.634 9.11068 23.0741 9.67061 22.3858 9.67061C21.6976 9.67061 21.1376 9.11068 21.1376 8.4224C21.1377 7.7342 21.6976 7.17428 22.3858 7.17428ZM21.0575 10.3496C21.4352 10.6108 21.8929 10.7643 22.3858 10.7643C23.6772 10.7643 24.7278 9.71373 24.7278 8.42232C24.7278 7.92936 24.5743 7.4717 24.3131 7.09397L27.7786 3.62842C28.9248 2.48225 30.4557 1.85107 32.0892 1.851C33.7228 1.851 35.2536 2.48225 36.3999 3.6285C37.5461 4.77475 38.1774 6.30568 38.1774 7.9392C38.1774 9.57271 37.5461 11.1036 36.4 12.2498L28.4362 20.2135L25.9972 17.7745C26.3958 17.2208 26.6315 16.5423 26.6315 15.8095C26.6315 13.9498 25.1185 12.4369 23.2589 12.4369C22.5261 12.4369 21.8476 12.6726 21.2939 13.0712L19.815 11.5922L21.0575 10.3496ZM2.43888 13.1261C2.64068 13.1801 2.84537 13.2069 3.0488 13.2069C3.45458 13.2069 3.85513 13.1004 4.21599 12.8922C4.75599 12.5804 5.12427 12.0843 5.28872 11.5289C5.93958 11.9939 6.73521 12.2687 7.59427 12.2687C8.44763 12.2687 9.23841 11.9976 9.88685 11.5382C10.0561 12.1212 10.4366 12.608 10.964 12.9125C11.3319 13.1249 11.7339 13.2258 12.131 13.2258C12.9409 13.2258 13.7298 12.8057 14.1631 12.0553C14.4758 11.5135 14.559 10.8824 14.3971 10.2782C14.2352 9.67396 13.8477 9.16897 13.306 8.85615C12.7724 8.54826 12.1523 8.46334 11.5565 8.61553C11.5651 8.50889 11.5707 8.40131 11.5707 8.29248C11.5707 6.70209 10.6318 5.3274 9.27943 4.69201C9.68568 4.27061 9.93638 3.69826 9.93638 3.06803C9.93638 1.7767 8.88576 0.726074 7.59443 0.726074C6.3031 0.726074 5.25232 1.77662 5.25232 3.06795C5.25232 3.69811 5.50294 4.27053 5.90927 4.69193C4.55693 5.3274 3.61802 6.70201 3.61802 8.2924C3.61802 8.39498 3.62318 8.49631 3.63083 8.59693C3.03287 8.44225 2.40974 8.52654 1.87412 8.83576C1.3324 9.14857 0.944819 9.65357 0.782944 10.2578C0.621069 10.862 0.704116 11.4931 1.01693 12.0349C1.32974 12.5767 1.83466 12.9642 2.43888 13.1261ZM12.1369 9.63553C12.3532 9.63553 12.5666 9.69225 12.759 9.80326C13.355 10.1473 13.5599 10.9122 13.2158 11.5083C12.8717 12.1043 12.1068 12.3093 11.5108 11.9651C10.9147 11.6211 10.7098 10.8562 11.0539 10.2601C11.2206 9.97139 11.4897 9.76482 11.8118 9.67857C11.9194 9.64975 12.0285 9.63553 12.1369 9.63553ZM6.34607 3.06795C6.34607 2.37967 6.90599 1.81975 7.59427 1.81975C8.28255 1.81975 8.84247 2.37967 8.84247 3.06795C8.84247 3.75623 8.28255 4.31615 7.59427 4.31615C6.90599 4.31615 6.34607 3.75623 6.34607 3.06795ZM7.59427 5.4099C9.18372 5.4099 10.4768 6.70303 10.4768 8.2924C10.4768 9.88178 9.18365 11.1749 7.59427 11.1749C6.0049 11.1749 4.71177 9.88186 4.71177 8.2924C4.71177 6.70295 6.00482 5.4099 7.59427 5.4099ZM1.83935 10.5409C1.9256 10.2189 2.13224 9.94975 2.42091 9.78303C2.61701 9.66982 2.83123 9.616 3.04287 9.616C3.47451 9.616 3.89498 9.8399 4.12591 10.2398C4.46998 10.8359 4.26505 11.6008 3.66904 11.9448C3.38029 12.1115 3.0438 12.1558 2.72185 12.0696C2.39982 11.9833 2.13068 11.7768 1.96396 11.488C1.79732 11.1994 1.7531 10.8629 1.83935 10.5409ZM39.2164 32.4576C39.0545 31.8533 38.6669 31.3483 38.1252 31.0355C37.58 30.7208 36.9595 30.6515 36.3918 30.7922C36.4016 30.6784 36.4076 30.5637 36.4076 30.4474C36.4076 28.8558 35.4672 27.4802 34.113 26.8454C34.5213 26.4237 34.7733 25.8499 34.7733 25.2179C34.7733 23.9266 33.7226 22.876 32.4313 22.876C31.14 22.876 30.0893 23.9265 30.0893 25.2179C30.0893 25.8499 30.3414 26.4237 30.7496 26.8454C29.3954 27.4802 28.455 28.8557 28.455 30.4474C28.455 30.5579 28.4607 30.6671 28.4696 30.7754C27.8736 30.6229 27.2533 30.7077 26.7196 31.0158C26.1779 31.3287 25.7903 31.8337 25.6284 32.4379C25.4665 33.042 25.5496 33.6732 25.8624 34.2149C26.2957 34.9654 27.0844 35.3854 27.8945 35.3854C28.2915 35.3854 28.6937 35.2844 29.0615 35.0721C29.6066 34.7573 29.9767 34.2549 30.1388 33.6932C30.7872 34.1525 31.5779 34.4236 32.4312 34.4236C33.2755 34.4236 34.0586 34.1583 34.7031 33.7078C34.8709 34.2951 35.2528 34.7856 35.783 35.0918C36.1509 35.3042 36.5529 35.4051 36.9501 35.4051C37.76 35.4051 38.5489 34.985 38.9822 34.2346C39.2952 33.6929 39.3783 33.0618 39.2164 32.4576ZM32.4315 23.9698C33.1197 23.9698 33.6797 24.5297 33.6797 25.218C33.6797 25.9063 33.1197 26.4662 32.4315 26.4662C31.7432 26.4662 31.1833 25.9063 31.1833 25.218C31.1833 24.5297 31.7433 23.9698 32.4315 23.9698ZM28.5149 34.125C27.9187 34.4692 27.154 34.2641 26.8098 33.668C26.6431 33.3794 26.5988 33.0429 26.6851 32.7209C26.7715 32.3989 26.978 32.1298 27.2667 31.9631C27.459 31.852 27.6725 31.7954 27.8887 31.7954C27.9972 31.7954 28.1063 31.8096 28.2138 31.8384C28.5358 31.9247 28.805 32.1312 28.9717 32.42C29.3158 33.016 29.1108 33.7808 28.5149 34.125ZM32.4315 33.33C30.842 33.33 29.549 32.0369 29.549 30.4475C29.549 28.8581 30.8421 27.565 32.4315 27.565C34.0208 27.565 35.314 28.858 35.314 30.4475C35.314 32.0369 34.0209 33.33 32.4315 33.33ZM38.0353 33.6878C37.6911 34.2838 36.9262 34.4888 36.3302 34.1447C35.7342 33.8006 35.5292 33.0357 35.8733 32.4397C36.1043 32.0397 36.5247 31.8158 36.9565 31.8158C37.168 31.8158 37.3824 31.8696 37.5784 31.9829C37.8672 32.1496 38.0737 32.4187 38.16 32.7408C38.2462 33.0628 38.202 33.399 38.0353 33.6878ZM29.3643 15.6971C30.6557 15.6971 31.7063 14.6465 31.7063 13.3551C31.7063 12.0637 30.6557 11.0131 29.3643 11.0131C28.073 11.0131 27.0224 12.0637 27.0224 13.3551C27.0224 14.6465 28.073 15.6971 29.3643 15.6971ZM29.3643 12.1069C30.0526 12.1069 30.6126 12.6669 30.6126 13.3551C30.6126 14.0435 30.0526 14.6034 29.3643 14.6034C28.6761 14.6034 28.1161 14.0435 28.1161 13.3551C28.1161 12.6669 28.6761 12.1069 29.3643 12.1069ZM12.6535 16.3613C12.6535 17.6526 13.7041 18.7033 14.9954 18.7033C16.2868 18.7033 17.3373 17.6527 17.3373 16.3613C17.3373 15.0699 16.2868 14.0194 14.9954 14.0194C13.7041 14.0194 12.6535 15.07 12.6535 16.3613ZM14.9954 15.1132C15.6836 15.1132 16.2436 15.6731 16.2436 16.3614C16.2436 17.0497 15.6836 17.6096 14.9954 17.6096C14.3072 17.6096 13.7472 17.0497 13.7472 16.3614C13.7472 15.6731 14.3072 15.1132 14.9954 15.1132ZM26.4395 22.4642C26.4395 21.1729 25.3889 20.1222 24.0976 20.1222C22.8062 20.1222 21.7556 21.1728 21.7556 22.4642C21.7556 23.7556 22.8062 24.8062 24.0976 24.8062C25.3889 24.8062 26.4395 23.7556 26.4395 22.4642ZM24.0976 23.7124C23.4093 23.7124 22.8493 23.1525 22.8493 22.4642C22.8493 21.7759 23.4093 21.216 24.0976 21.216C24.7858 21.216 25.3458 21.7759 25.3458 22.4642C25.3458 23.1525 24.7858 23.7124 24.0976 23.7124ZM20.9843 26.0969C20.5363 26.0969 20.1175 26.2236 19.7613 26.4426L19.0626 25.7438C19.9093 25.107 20.458 24.0942 20.458 22.9556C20.458 21.0329 18.8937 19.4686 16.971 19.4686C15.8323 19.4686 14.8196 20.0172 14.1828 20.864L11.9764 18.6576C11.7629 18.444 11.4165 18.444 11.203 18.6576L2.85248 27.008C1.49966 28.3608 0.754663 30.1663 0.754663 32.092C0.754663 34.0177 1.49974 35.8233 2.85255 37.176C4.20537 38.5288 6.01091 39.2739 7.93662 39.2738C9.86232 39.2738 11.6678 38.5288 13.0206 37.176L19.7614 30.4352C20.1176 30.6542 20.5364 30.7808 20.9843 30.7808C22.2756 30.7808 23.3262 29.7303 23.3262 28.4389C23.3262 27.1475 22.2756 26.0969 20.9843 26.0969ZM16.9709 20.5624C18.2906 20.5624 19.3642 21.636 19.3642 22.9557C19.3642 24.2754 18.2906 25.349 16.9709 25.349C15.6512 25.349 14.5776 24.2754 14.5776 22.9557C14.5776 21.636 15.6512 20.5624 16.9709 20.5624ZM12.2472 36.4027C11.101 37.5489 9.57013 38.1801 7.93662 38.1801C6.30302 38.1801 4.77216 37.5489 3.62591 36.4027C2.47966 35.2565 1.84841 33.7255 1.84841 32.092C1.84841 30.4585 2.47966 28.9276 3.62591 27.7813L11.5897 19.8176L13.6539 21.8818C13.544 22.2203 13.484 22.5809 13.484 22.9556C13.484 24.8783 15.0483 26.4427 16.971 26.4427C17.3456 26.4427 17.7062 26.3826 18.0447 26.2728L18.9879 27.216C18.769 27.5722 18.6424 27.9909 18.6424 28.4388C18.6424 28.8868 18.769 29.3056 18.988 29.6618L12.2472 36.4027ZM20.9843 29.6871C20.296 29.6871 19.7361 29.1272 19.7361 28.4389C19.7361 27.7506 20.296 27.1907 20.9843 27.1907C21.6726 27.1907 22.2325 27.7506 22.2325 28.4389C22.2325 29.1272 21.6725 29.6871 20.9843 29.6871Z" fill="#8D89DA"/>
</g>
<defs>
<clipPath id="clip0_439_11101">
<rect width="40" height="40" fill="white"/>
</clipPath>
</defs>
</svg>
