<svg width="40" height="40" viewBox="0 0 40 40" fill="none" xmlns="http://www.w3.org/2000/svg">
<g clip-path="url(#clip0_439_11080)">
<path d="M35.3683 1.45167C34.19 0.448337 32.4767 0.448337 31.2983 1.45167C29.4767 2.99667 26.6683 7.39 26.6683 10.065C26.6683 11.8117 27.2633 13.2217 28.5433 14.5C29.8983 15.855 31.6917 16.6667 33.335 16.6667C35.0133 16.6667 36.745 15.8983 38.0833 14.5567C39.3733 13.2667 40.0017 11.7967 40.0017 10.0633C40.0017 7.39 37.19 2.99667 35.3683 1.45167ZM36.9033 13.3783C35.89 14.3933 34.555 15 33.3333 15C32.14 15 30.755 14.3567 29.72 13.3217C28.7617 12.3633 28.3333 11.3583 28.3333 10.065C28.3333 8.12334 30.685 4.155 32.375 2.72334C32.6533 2.48667 32.9933 2.37 33.3333 2.37C33.6733 2.37 34.0133 2.48667 34.29 2.72167C35.9817 4.15667 38.3333 8.12334 38.3333 10.0633C38.3333 11.3483 37.88 12.4017 36.9033 13.3783ZM16.6667 11.7483C16.6667 8.40334 13.105 2.86167 10.7967 0.90167C9.37167 -0.309997 7.29833 -0.309997 5.87 0.90167C3.56 2.86334 0 8.40334 0 11.75C0 13.93 0.743333 15.6883 2.34 17.285C4.04167 18.9867 6.28167 20 8.33333 20C10.4267 20 12.59 19.0383 14.27 17.3583C15.8833 15.7467 16.6667 13.9117 16.6667 11.75V11.7483ZM8.33333 18.3317C6.73833 18.3317 4.895 17.4783 3.51833 16.105C2.23667 14.8233 1.66667 13.48 1.66667 11.7483C1.66667 8.98667 4.91 3.90167 6.94667 2.17334C7.34833 1.83167 7.84 1.66167 8.33333 1.66167C8.82667 1.66167 9.31667 1.83167 9.71833 2.17167C11.7567 3.90167 15 8.98667 15 11.7483C15 13.4683 14.395 14.8767 13.0917 16.1783C11.7417 17.5267 9.96333 18.3317 8.33333 18.3317ZM26.2233 17.72C24.55 16.3033 22.12 16.305 20.4433 17.72C17.545 20.1717 13.3333 26.2267 13.3333 30.1367C13.3333 32.7383 14.225 34.8367 16.1417 36.7467C18.185 38.7833 20.875 39.9983 23.3333 39.9983C25.8433 39.9983 28.44 38.8467 30.4567 36.8367C32.3917 34.91 33.3333 32.7183 33.3333 30.135C33.3333 26.2267 29.1233 20.1717 26.2233 17.72ZM29.2817 35.655C27.5983 37.3317 25.375 38.3317 23.3333 38.3317C21.3033 38.3317 19.0567 37.2983 17.3167 35.565C15.715 33.9683 15 32.295 15 30.1367C15 26.87 18.895 21.2133 21.52 18.9917C22.0433 18.5467 22.6883 18.3267 23.3333 18.3267C23.9783 18.3267 24.62 18.5483 25.1483 18.9917C27.7733 21.2133 31.6667 26.87 31.6667 30.135C31.6667 32.28 30.9083 34.035 29.2817 35.655Z" fill="#8D89DA"/>
</g>
<defs>
<clipPath id="clip0_439_11080">
<rect width="40" height="40" fill="white"/>
</clipPath>
</defs>
</svg>
