<svg width="58" height="60" viewBox="0 0 58 60" fill="none" xmlns="http://www.w3.org/2000/svg">
<path d="M28.5898 22.5906C27.4909 22.5906 26.4168 22.2647 25.5031 21.6542C24.5895 21.0436 23.8774 20.1758 23.457 19.1606C23.0365 18.1453 22.9266 17.0282 23.1412 15.9504C23.3557 14.8727 23.885 13.8828 24.6622 13.1059C25.4394 12.3291 26.4295 11.8001 27.5073 11.586C28.5851 11.3719 29.7022 11.4822 30.7173 11.903C31.7324 12.3238 32.5999 13.0362 33.2101 13.9501C33.8203 14.864 34.1458 15.9383 34.1454 17.0372C34.1437 18.5101 33.5578 19.9222 32.5163 20.9637C31.4748 22.0052 30.0627 22.591 28.5898 22.5927M28.5898 12.0048C27.5945 12.0047 26.6215 12.2997 25.7938 12.8526C24.9661 13.4055 24.321 14.1914 23.94 15.1109C23.559 16.0304 23.4593 17.0423 23.6534 18.0185C23.8475 18.9947 24.3267 19.8915 25.0304 20.5953C25.7342 21.2992 26.6309 21.7786 27.6071 21.9728C28.5833 22.167 29.5952 22.0674 30.5147 21.6865C31.4343 21.3057 32.2203 20.6607 32.7733 19.8331C33.3263 19.0055 33.6215 18.0325 33.6215 17.0372C33.6194 15.7032 33.0885 14.4244 32.1452 13.481C31.2019 12.5377 29.9238 12.0069 28.5898 12.0048ZM38.8242 29.0278H35.869C35.4988 27.6302 34.7341 26.3688 33.6663 25.3942C32.5984 24.4196 31.2725 23.773 29.847 23.5318C28.4215 23.2906 26.9567 23.4649 25.6276 24.0339C24.2986 24.6029 23.1614 25.5426 22.3521 26.7406C22.3521 26.7406 22.3478 26.7406 22.3457 26.7455C22.1888 26.9429 18.4967 31.6125 18.5727 34.8027C18.638 37.5485 20.4382 38.4096 21.0573 38.6254V45.9046C21.0573 45.9739 21.0848 46.0405 21.1339 46.0895C21.1829 46.1386 21.2495 46.1662 21.3188 46.1662C21.3882 46.1662 21.4548 46.1386 21.5038 46.0895C21.5529 46.0405 21.5804 45.9739 21.5804 45.9046V30.9551C21.5821 29.5202 22.0234 28.1202 22.845 26.9438C23.6665 25.7673 24.8289 24.8709 26.1755 24.3752L28.5657 29.83C28.586 29.8767 28.6196 29.9164 28.6622 29.9443C28.7048 29.9721 28.7547 29.987 28.8056 29.9869H28.8141C28.8664 29.9853 28.917 29.9681 28.9594 29.9375C29.0018 29.9069 29.0341 29.8642 29.052 29.8151L31.0134 24.3816C32.0453 24.7649 32.9731 25.3848 33.722 26.1915C34.471 26.9983 35.0203 27.9695 35.3259 29.0271H31.2348C31.1656 29.0271 31.0991 29.0546 31.0501 29.1036C31.0011 29.1526 30.9736 29.2191 30.9736 29.2883V39.8755C30.9736 39.9448 31.0011 40.0113 31.0501 40.0603C31.0991 40.1092 31.1656 40.1368 31.2348 40.1368H35.5964V45.9046C35.5964 45.9739 35.6239 46.0405 35.673 46.0895C35.722 46.1386 35.7886 46.1662 35.858 46.1662C35.9273 46.1662 35.9939 46.1386 36.0429 46.0895C36.092 46.0405 36.1195 45.9739 36.1195 45.9046V40.1368H38.8235C38.8578 40.1368 38.8918 40.13 38.9235 40.1169C38.9552 40.1038 38.984 40.0845 39.0082 40.0603C39.0325 40.036 39.0517 40.0072 39.0648 39.9755C39.078 39.9438 39.0847 39.9098 39.0847 39.8755V29.2876C39.0847 29.2533 39.078 29.2194 39.0648 29.1877C39.0517 29.156 39.0325 29.1272 39.0082 29.1029C38.984 29.0786 38.9552 29.0594 38.9235 29.0463C38.8918 29.0331 38.8578 29.0264 38.8235 29.0264M19.0958 34.7885C19.0554 33.0791 20.2359 30.8288 21.2667 29.1989C21.1283 29.7741 21.0583 30.3636 21.058 30.9551V38.0703C20.4432 37.819 19.1491 37.0254 19.0958 34.7885ZM28.7822 29.02L26.6774 24.2141C27.9319 23.8554 29.2619 23.8554 30.5164 24.2141L28.7822 29.02ZM38.563 39.6115H31.4982V29.5489H38.5637L38.563 39.6115ZM4.38849 23.4141L0 21.9247L0.456455 20.5802C0.539334 20.2739 0.684099 19.9879 0.881817 19.7398C1.07953 19.4916 1.32601 19.2866 1.60603 19.1374C1.88605 18.9882 2.19367 18.898 2.50992 18.8723C2.82616 18.8467 3.14431 18.8861 3.44473 18.9881C3.74515 19.0902 4.02147 19.2527 4.25664 19.4657C4.4918 19.6787 4.68082 19.9376 4.81203 20.2265C4.94324 20.5154 5.01386 20.8281 5.01952 21.1453C5.02518 21.4626 4.96577 21.7776 4.84495 22.071L4.38849 23.4141ZM1.12303 20.8152L0.922848 21.4051L3.96682 22.438L4.16701 21.8481C4.25404 21.6467 4.29735 21.4292 4.29408 21.2098C4.29081 20.9905 4.24103 20.7744 4.14804 20.5757C4.05504 20.377 3.92094 20.2003 3.75461 20.0573C3.58827 19.9143 3.39349 19.8082 3.18311 19.7461C2.97845 19.6675 2.75942 19.6332 2.54052 19.6455C2.32162 19.6578 2.10781 19.7164 1.91324 19.8174C1.71866 19.9185 1.54774 20.0597 1.41177 20.2317C1.2758 20.4036 1.17787 20.6025 1.12445 20.8152M2.55132 15.6174L4.0584 13.1087L4.66109 13.4707L3.56077 15.3022L4.60004 15.9262L5.55199 14.3396L6.15468 14.7017L5.20273 16.2883L6.32789 16.9641L7.42821 15.1326L8.0309 15.4946L6.52453 18.0033L2.55132 15.6174ZM9.77722 13.3096L9.24054 13.8896L5.84021 10.7434L6.89083 9.60755C7.54108 8.90477 8.33544 8.74575 8.9644 9.32786C9.18232 9.51481 9.32734 9.77261 9.37395 10.0559C9.42056 10.3392 9.36578 10.6299 9.21925 10.8768L11.6428 11.2942L11.0422 11.9431L8.72375 11.5413L8.32834 11.9672L9.77722 13.3096ZM8.37165 10.9152C8.71665 10.5418 8.73653 10.1953 8.43199 9.91351C8.12745 9.63169 7.77819 9.67357 7.43247 10.047L6.88728 10.6369L7.82575 11.5051L8.37165 10.9152ZM14.5774 7.8797L14.0365 8.23961L11.8316 7.00157L13.6191 9.68919L12.9667 10.1229L10.3998 6.264L11.0806 5.81181L13.8668 7.40124L13.4785 4.21741L14.1643 3.76096L16.7305 7.62059L16.0781 8.05433L14.2906 5.366L14.5774 7.8797ZM20.7286 4.6334L19.0518 5.23467L19.0383 6.58345L18.2504 6.8674L18.3569 1.90674L19.1448 1.62279L22.3791 5.38517L21.5911 5.66912L20.7286 4.6334ZM19.0554 4.51485L20.2721 4.07827L19.0724 2.63792L19.0554 4.51485ZM26.1791 0.780869L24.7756 0.993834L25.3705 4.88044L24.5896 4.9997L23.994 1.11806L22.597 1.33103L22.4905 0.638892L26.0726 0.0887334L26.1791 0.780869ZM30.4611 4.80945C30.1408 4.79507 29.8268 4.7165 29.5375 4.57841C29.2482 4.44031 28.9896 4.2455 28.7771 4.00555C28.5645 3.76559 28.4024 3.48539 28.3002 3.18155C28.198 2.87772 28.158 2.55646 28.1823 2.23684C28.2267 1.58918 28.5265 0.985663 29.0158 0.559051C29.5051 0.13244 30.1439 -0.0823189 30.7915 -0.0379807C31.4392 0.00635753 32.0427 0.306161 32.4693 0.795476C32.8959 1.28479 33.1107 1.92354 33.0663 2.57119C33.0467 2.89081 32.9631 3.20324 32.8205 3.48999C32.678 3.77675 32.4794 4.03202 32.2365 4.24069C31.9936 4.44937 31.7114 4.60722 31.4064 4.70491C31.1015 4.8026 30.78 4.83815 30.4611 4.80945ZM30.745 0.700652C30.5247 0.686756 30.3037 0.717219 30.0954 0.790238C29.887 0.863257 29.6954 0.977347 29.5319 1.12575C29.3684 1.27416 29.2363 1.45386 29.1435 1.65422C29.0507 1.85458 28.9991 2.07153 28.9916 2.29221C28.9683 2.51179 28.9895 2.73381 29.054 2.94499C29.1185 3.15617 29.2249 3.35218 29.3669 3.52129C29.5089 3.69039 29.6835 3.82912 29.8804 3.92918C30.0772 4.02923 30.2922 4.08856 30.5125 4.1036C30.7328 4.11865 30.9539 4.08911 31.1625 4.01674C31.3711 3.94438 31.563 3.83068 31.7267 3.68246C31.8903 3.53423 32.0224 3.35451 32.115 3.15405C32.2076 2.9536 32.2588 2.73653 32.2656 2.51582C32.2882 2.29597 32.2664 2.07381 32.2016 1.86253C32.1367 1.65125 32.0301 1.45514 31.888 1.28585C31.7459 1.11656 31.5713 0.977523 31.3745 0.876999C31.1776 0.776475 30.9626 0.716507 30.7422 0.700652M36.0919 0.917876L36.85 1.14078L35.7461 4.89251L37.6799 5.46042L37.4761 6.15397L34.7843 5.36316L36.0919 0.917876ZM40.775 7.80871C40.3616 7.57563 40.0263 7.22562 39.8113 6.80262C39.5962 6.37962 39.5109 5.90251 39.5661 5.43119C39.6213 4.95988 39.8145 4.51538 40.1215 4.15351C40.4285 3.79165 40.8355 3.52857 41.2915 3.39729C41.7476 3.26602 42.2322 3.27242 42.6846 3.41568C43.137 3.55894 43.537 3.83268 43.8343 4.20252C44.1316 4.57235 44.3131 5.0218 44.3558 5.49441C44.3985 5.96701 44.3007 6.44171 44.0745 6.85889C43.9236 7.14124 43.7176 7.39046 43.4687 7.59181C43.2198 7.79315 42.9331 7.94252 42.6254 8.03108C42.3178 8.11964 41.9955 8.14559 41.6777 8.10739C41.3598 8.0692 41.0529 7.96763 40.775 7.80871ZM42.7435 4.18831C42.5489 4.08398 42.3354 4.0197 42.1156 3.99928C41.8958 3.97886 41.6741 4.00271 41.4636 4.06942C41.2532 4.13612 41.0583 4.24434 40.8904 4.38766C40.7224 4.53098 40.585 4.70651 40.486 4.90387C40.3708 5.09387 40.2954 5.30527 40.2642 5.52527C40.2331 5.74527 40.2469 5.96931 40.3048 6.18382C40.3628 6.39833 40.4636 6.59885 40.6013 6.77326C40.739 6.94768 40.9106 7.09234 41.1058 7.19852C41.3009 7.30469 41.5156 7.37016 41.7369 7.39097C41.9581 7.41177 42.1812 7.38748 42.3928 7.31957C42.6044 7.25165 42.7999 7.14152 42.9677 6.99583C43.1355 6.85015 43.2719 6.67195 43.3689 6.472C43.4809 6.28178 43.5536 6.07103 43.5828 5.85221C43.6119 5.63339 43.5969 5.41095 43.5386 5.19804C43.4803 4.98513 43.3799 4.78607 43.2433 4.61264C43.1067 4.4392 42.9368 4.29492 42.7435 4.18831ZM45.8584 8.16365C46.0748 7.92936 46.336 7.74088 46.6265 7.60938C46.917 7.47788 47.231 7.40603 47.5498 7.39808C47.8686 7.39014 48.1858 7.44627 48.4825 7.56314C48.7792 7.68001 49.0495 7.85524 49.2772 8.07846C49.6459 8.39112 49.9007 8.81712 50.0016 9.28989C50.1026 9.76266 50.044 10.2556 49.8352 10.6915L49.2055 10.0995C49.3011 9.83492 49.3129 9.54734 49.2394 9.2758C49.1659 9.00427 49.0105 8.76195 48.7945 8.58177C48.6333 8.43365 48.4439 8.31946 48.2377 8.246C48.0315 8.17253 47.8126 8.1413 47.594 8.15414C47.3755 8.16699 47.1617 8.22366 46.9655 8.32078C46.7693 8.41791 46.5946 8.5535 46.4519 8.71949C46.2817 8.86945 46.1453 9.05393 46.052 9.26066C45.9586 9.46739 45.9103 9.69164 45.9103 9.91848C45.9103 10.1453 45.9586 10.3696 46.052 10.5763C46.1453 10.783 46.2817 10.9675 46.4519 11.1175C47.0808 11.7095 47.8007 11.7564 48.1698 11.3638L48.321 11.2027L47.3307 10.2713L47.7893 9.7836L49.3454 11.2474L47.6608 13.0377L47.1192 12.528L47.7162 11.8941L47.7112 11.8898C47.4029 12.0249 47.0597 12.0591 46.7308 11.9874C46.4018 11.9158 46.104 11.742 45.8797 11.4909C45.6497 11.2797 45.4657 11.0235 45.3391 10.738C45.2126 10.4526 45.1463 10.1441 45.1443 9.8319C45.1423 9.51968 45.2046 9.2104 45.3275 8.92336C45.4504 8.63633 45.6311 8.37771 45.8584 8.16365ZM49.351 15.3406L48.8868 14.7017L52.6364 11.9793L53.1007 12.6182L49.351 15.3406ZM51.6617 16.3635L52.033 17.0911C51.9397 17.1409 51.8572 17.2087 51.7903 17.2907C51.7235 17.3726 51.6736 17.467 51.6435 17.5684C51.6134 17.6698 51.6038 17.7761 51.6153 17.8813C51.6267 17.9864 51.6589 18.0882 51.71 18.1808C51.7374 18.2651 51.7823 18.3426 51.8419 18.4082C51.9015 18.4738 51.9744 18.526 52.0557 18.5613C52.1369 18.5966 52.2248 18.6142 52.3134 18.613C52.402 18.6118 52.4894 18.5917 52.5697 18.5542C52.8678 18.4016 52.9849 18.0715 52.936 17.5923L52.8806 17.072C52.8174 16.7637 52.8541 16.4434 52.9851 16.1574C53.1162 15.8714 53.3349 15.6345 53.6096 15.4811C53.7716 15.407 53.9469 15.3667 54.125 15.3629C54.3031 15.359 54.48 15.3917 54.645 15.4588C54.81 15.5259 54.9595 15.626 55.0843 15.753C55.2091 15.8801 55.3066 16.0313 55.3709 16.1974C55.4655 16.359 55.5273 16.5378 55.5525 16.7235C55.5778 16.9091 55.566 17.0979 55.518 17.2789C55.47 17.46 55.3866 17.6298 55.2726 17.7785C55.1587 17.9272 55.0164 18.0518 54.8541 18.1453L54.4828 17.4177C54.6453 17.327 54.7666 17.1771 54.8214 16.9993C54.8763 16.8215 54.8605 16.6294 54.7774 16.4629C54.7462 16.3905 54.7007 16.3252 54.6437 16.2708C54.5866 16.2165 54.5192 16.1742 54.4454 16.1466C54.3716 16.1189 54.293 16.1065 54.2143 16.11C54.1356 16.1134 54.0583 16.1328 53.9873 16.1669C53.7033 16.3131 53.5983 16.6134 53.638 17.0592L53.6877 17.5831C53.7616 17.9 53.731 18.2323 53.6007 18.5305C53.4703 18.8287 53.2471 19.0768 52.9644 19.2378C52.7925 19.3131 52.6072 19.3525 52.4196 19.3537C52.232 19.3549 52.0461 19.3178 51.8734 19.2448C51.7006 19.1717 51.5446 19.0641 51.4148 18.9286C51.285 18.7932 51.1843 18.6327 51.1187 18.4569C51.0166 18.2834 50.9498 18.0914 50.9219 17.892C50.8941 17.6926 50.9059 17.4897 50.9565 17.2948C51.0071 17.0999 51.0956 16.9169 51.217 16.7563C51.3384 16.5956 51.4902 16.4605 51.6638 16.3585M57.2165 23.4453L56.8197 22.0823L53.046 23.1812L52.8252 22.4224L56.599 21.3235L56.2043 19.9676L56.8794 19.7709L57.8916 23.2494L57.2165 23.4453ZM2.48459 41.4628L2.19638 40.7274L6.51104 39.0386L7.07469 40.4789C7.42395 41.3705 7.22022 42.155 6.42231 42.4666C6.15909 42.5812 5.8639 42.5993 5.58865 42.5178C5.31339 42.4362 5.0757 42.2603 4.91736 42.0208L3.48552 44.0191L3.16395 43.1964L4.53686 41.2854L4.3239 40.743L2.48459 41.4628ZM5.25313 41.2442C5.43841 41.7177 5.74153 41.8831 6.12842 41.7354C6.5153 41.5878 6.62888 41.2513 6.44361 40.7778L6.15042 40.0296L4.95924 40.496L5.25313 41.2442ZM8.6265 43.7678L10.2472 46.2048L9.6615 46.5939L8.47884 44.8149L7.46939 45.4857L8.49304 47.0248L7.90738 47.4145L6.88586 45.874L5.79264 46.601L6.97531 48.3799L6.38894 48.7689L4.76757 46.3326L8.6265 43.7678ZM9.52734 49.0529C9.74326 48.8182 10.0042 48.6293 10.2946 48.4974C10.585 48.3656 10.899 48.2935 11.2178 48.2855C11.5366 48.2775 11.8538 48.3337 12.1505 48.4508C12.4472 48.5679 12.7173 48.7434 12.9447 48.967C13.3265 49.2925 13.5873 49.7373 13.6849 50.2294C13.7826 50.7215 13.7114 51.2321 13.4828 51.6788L12.8588 51.0917C12.9742 50.8144 12.998 50.5075 12.9267 50.2157C12.8555 49.9239 12.6929 49.6625 12.4627 49.4696C12.127 49.1917 11.698 49.0522 11.263 49.0794C10.8281 49.1066 10.4198 49.2985 10.1214 49.6161C9.82289 49.9336 9.65662 50.353 9.65638 50.7888C9.65615 51.2246 9.82196 51.6441 10.1201 51.962C10.3269 52.1798 10.5978 52.3258 10.8934 52.3789C11.189 52.432 11.4938 52.3894 11.7635 52.2573L12.3875 52.8444C11.9556 53.0999 11.4502 53.2024 10.953 53.1351C10.4558 53.0679 9.99573 52.8349 9.64731 52.4738C9.41048 52.2597 9.21908 52.0002 9.08446 51.7107C8.94983 51.4212 8.87473 51.1077 8.86361 50.7886C8.85248 50.4695 8.90557 50.1515 9.0197 49.8533C9.13384 49.5552 9.30671 49.283 9.52805 49.0529M15.5372 56.6813C15.1232 56.4493 14.787 56.1002 14.5707 55.6778C14.3545 55.2553 14.2679 54.7784 14.3219 54.3069C14.3758 53.8355 14.5679 53.3904 14.8739 53.0277C15.1799 52.6651 15.5863 52.4009 16.042 52.2684C16.4977 52.136 16.9824 52.1411 17.4352 52.2832C17.888 52.4253 18.2887 52.698 18.587 53.0671C18.8853 53.4362 19.0678 53.8852 19.1118 54.3577C19.1557 54.8302 19.059 55.3052 18.8339 55.723C18.6839 56.0058 18.4787 56.2556 18.2303 56.4577C17.982 56.6598 17.6956 56.8099 17.3882 56.8993C17.0808 56.9887 16.7586 57.0154 16.4406 56.978C16.1227 56.9405 15.8155 56.8396 15.5372 56.6813ZM17.4958 53.0609C17.202 52.8857 16.8626 52.8024 16.5211 52.8218C16.1796 52.8411 15.8517 52.9623 15.5797 53.1697C15.3077 53.3771 15.104 53.6611 14.9948 53.9853C14.8856 54.3094 14.876 54.6588 14.9672 54.9885C15.0583 55.3181 15.2461 55.613 15.5063 55.835C15.7665 56.057 16.0872 56.1961 16.4271 56.2342C16.767 56.2724 17.1105 56.2079 17.4135 56.0491C17.7164 55.8903 17.9649 55.6444 18.1269 55.3432C18.2385 55.1527 18.3108 54.9417 18.3395 54.7228C18.3682 54.5039 18.3526 54.2814 18.2938 54.0686C18.2349 53.8558 18.134 53.657 17.9969 53.4839C17.8598 53.3108 17.6894 53.167 17.4958 53.0609ZM23.2842 58.3737L22.6502 58.2317L22.0113 55.7861L21.3149 58.938L20.5497 58.7691L21.5499 54.2436L22.3478 54.4196L23.1351 57.5289L25.1597 55.0443L25.964 55.2225L24.9666 59.7459L24.2013 59.5769L24.8984 56.425L23.2842 58.3737ZM30.7606 58.8621L30.1125 58.9025L28.822 56.7289L29.0236 59.9503L28.2427 59.9993L27.9559 55.3709L28.7715 55.3197L30.3879 58.0883L31.6459 55.1373L32.4679 55.0855L32.7575 59.7111L31.9767 59.7601L31.7751 56.5379L30.7606 58.8621ZM34.4613 54.6091L37.2532 53.7332L37.4662 54.404L35.4281 55.0429L35.7909 56.1993L37.5542 55.6463L37.7672 56.3171L36.0038 56.8701L36.3964 58.1224L38.4345 57.4835L38.6474 58.1543L35.8491 59.0303L34.4613 54.6091ZM41.2939 57.0178L38.9555 53.0183L39.6257 52.6264L43.2461 54.4899L41.5147 51.5233L42.1848 51.1314L44.5231 55.1309L43.8473 55.5263L40.2567 53.709L41.9605 56.6281L41.2939 57.0178ZM47.0439 53.1936L43.8069 49.8835L44.8206 48.8896C45.0328 48.6544 45.291 48.465 45.5791 48.3333C45.8673 48.2016 46.1794 48.1302 46.4962 48.1237C46.813 48.1171 47.1278 48.1755 47.4212 48.2952C47.7145 48.4149 47.9803 48.5934 48.2021 48.8197C48.4239 49.046 48.597 49.3153 48.7107 49.611C48.8245 49.9068 48.8765 50.2226 48.8636 50.5392C48.8507 50.8558 48.773 51.1664 48.6355 51.4519C48.498 51.7374 48.3035 51.9916 48.064 52.1991L47.0439 53.1936ZM45.3068 49.4022L44.8646 49.8338L47.1142 52.1295L47.5621 51.6965C47.7217 51.5509 47.8502 51.3747 47.9401 51.1783C48.0301 50.9819 48.0795 50.7695 48.0855 50.5536C48.0915 50.3377 48.054 50.1228 47.9751 49.9218C47.8962 49.7207 47.7777 49.5376 47.6265 49.3834C47.4753 49.2291 47.2946 49.1069 47.0952 49.0241C46.8957 48.9412 46.6816 48.8993 46.4657 48.901C46.2497 48.9027 46.0363 48.9479 45.8382 49.0339C45.64 49.1199 45.4613 49.2449 45.3125 49.4015M47.6551 45.7172L49.2353 43.2553L49.8274 43.6351L48.6703 45.4325L49.6918 46.0863L50.6899 44.5317L51.2812 44.9107L50.2831 46.4661L51.387 47.176L52.5406 45.3785L53.1319 45.7583L51.5517 48.2202L47.6551 45.7172ZM54.4281 43.2084L50.0751 41.6183L50.5621 40.2844C50.6516 39.9797 50.8026 39.6966 51.0058 39.4526C51.209 39.2085 51.4602 39.0088 51.7437 38.8657C52.0272 38.7226 52.337 38.6391 52.654 38.6205C52.9711 38.6019 53.2885 38.6485 53.5868 38.7575C53.8851 38.8664 54.1579 39.0354 54.3883 39.254C54.6187 39.4726 54.8018 39.7361 54.9263 40.0283C55.0508 40.3204 55.114 40.635 55.1121 40.9526C55.1102 41.2701 55.0431 41.5839 54.9151 41.8746L54.4281 43.2084ZM51.2237 40.5343L51.0108 41.12L54.0299 42.2231L54.2429 41.6382C54.3254 41.4378 54.3665 41.2229 54.3639 41.0062C54.3613 40.7896 54.3149 40.5757 54.2276 40.3774C54.1403 40.1791 54.0138 40.0005 53.8557 39.8523C53.6977 39.7041 53.5113 39.5893 53.3078 39.5149C53.1043 39.4405 52.8879 39.408 52.6715 39.4193C52.4551 39.4306 52.2433 39.4855 52.0486 39.5807C51.854 39.6759 51.6806 39.8094 51.5388 39.9733C51.3971 40.1372 51.2899 40.328 51.2237 40.5343Z" fill="#1B1B1B"/>
</svg>
