<svg width="18" height="19" viewBox="0 0 18 19" fill="none" xmlns="http://www.w3.org/2000/svg">
<g clip-path="url(#clip0_180_6008)">
<path d="M18 9.5C18 4.625 14.1727 0.5 9 0.5C4.03725 0.5 0 4.53725 0 9.5C0 14.4628 4.03725 18.5 9 18.5C14.3842 18.5 18 14.2498 18 9.5ZM17.2267 10.1248L14.8395 9.1595C14.7877 9.13325 14.7495 9.08675 14.7352 9.02975L14.265 7.15025C14.244 7.0655 14.283 6.9725 14.37 6.92225L16.3245 5.705C16.9163 6.842 17.2507 8.13275 17.2507 9.5C17.2507 9.71 17.2418 9.9185 17.2267 10.1248ZM9 1.25C9.07125 1.25 9.14325 1.25075 9.21375 1.253C8.7315 1.8995 7.98375 2.906 7.845 3.1205C7.55025 3.5765 7.54125 4.151 7.821 4.61825L8.37075 5.53475L7.8465 5.27225C7.3245 5.0105 6.699 5.11325 6.29025 5.525L5.8935 5.92175C5.6385 6.176 5.499 6.515 5.499 6.875C5.499 7.00325 5.51625 7.12925 5.5515 7.25H4.2015C4.11975 7.25 4.0395 7.21625 3.981 7.154L2.01225 5.12C3.4725 2.79725 6.05925 1.25 9 1.25ZM9 17.75C4.45125 17.75 0.75 14.0487 0.75 9.5C0.75 8.171 1.0665 6.91475 1.62675 5.801L3.43875 7.67225C3.63675 7.88 3.91425 8 4.2015 8H5.6625C5.88 8 6.08475 8.08475 6.23925 8.2385L6.51825 8.51825C6.666 8.666 6.75075 8.87 6.75075 9.07775V9.8C6.75075 10.0918 6.864 10.3647 7.0695 10.5688L7.96125 11.4613C8.148 11.648 8.25075 11.8962 8.25075 12.1595V13.9332C8.25075 14.384 8.6175 14.7507 9.06825 14.7507H9.228C9.546 14.7507 9.837 14.564 9.96975 14.276L11.6505 10.6347C11.8507 10.202 11.697 9.686 11.292 9.434L9.3705 8.23175C9.12825 8.081 8.84925 8.00075 8.5635 8.00075H7.49025C7.25775 8.00075 7.03125 7.907 6.86775 7.74275L6.42375 7.29875C6.31125 7.18625 6.249 7.0355 6.249 6.87575C6.249 6.716 6.31125 6.56525 6.42375 6.45275L6.82125 6.05525C7.00275 5.873 7.281 5.828 7.51125 5.94425L8.1705 6.2735C8.4435 6.4115 8.7735 6.3575 8.98425 6.1415C9.2145 5.91125 9.25875 5.55725 9.093 5.27975L8.4645 4.23275C8.3325 4.01225 8.337 3.74225 8.47575 3.52775C8.619 3.3065 9.5985 1.9925 10.0988 1.3235C12.552 1.65125 14.6677 3.0605 15.9487 5.0555L13.9845 6.27875C13.62 6.48875 13.4362 6.9215 13.5375 7.331L14.0077 9.20975C14.0745 9.47975 14.256 9.70625 14.532 9.842L17.1322 10.8942C16.4678 14.7815 13.0748 17.7493 9.00075 17.7493L9 17.75ZM8.49075 10.9303L7.59825 10.037C7.53525 9.974 7.5 9.89 7.5 9.79925V9.077C7.5 8.96675 7.48725 8.8565 7.464 8.74925C7.473 8.74925 7.4805 8.74925 7.4895 8.74925H8.56275C8.7075 8.74925 8.85 8.78975 8.97375 8.86625L10.8953 10.0685C10.9792 10.121 11.0108 10.2282 10.9695 10.3182L9.228 13.9993H9.06825C9.0315 13.9993 9.00075 13.9685 9.00075 13.9318V12.158C9.00075 11.6945 8.82 11.258 8.4915 10.9295L8.49075 10.9303Z" fill="black"/>
</g>
<defs>
<clipPath id="clip0_180_6008">
<rect width="18" height="18" fill="white" transform="translate(0 0.5)"/>
</clipPath>
</defs>
</svg>
