<svg width="17" height="17" viewBox="0 0 17 17" fill="none" xmlns="http://www.w3.org/2000/svg">
<path d="M16.4166 11.8172C16.4166 14.6989 14.6987 16.4168 11.817 16.4168H10.8749C10.4395 16.4168 10.0833 16.0606 10.0833 15.6252V11.0573C10.0833 10.8435 10.2574 10.6614 10.4712 10.6614L11.8645 10.6377C11.9753 10.6298 12.0703 10.5506 12.0941 10.4398L12.3712 8.92767C12.3949 8.78517 12.2841 8.65058 12.1337 8.65058L10.4474 8.67433C10.2257 8.67433 10.0516 8.50017 10.0437 8.28642L10.012 6.34683C10.012 6.22016 10.1149 6.10934 10.2495 6.10934L12.1495 6.07766C12.2841 6.07766 12.387 5.97476 12.387 5.84017L12.3553 3.94015C12.3553 3.80557 12.2524 3.70266 12.1178 3.70266L9.98033 3.73434C8.66616 3.75809 7.62118 4.83474 7.64493 6.14891L7.6845 8.32599C7.69242 8.54766 7.51826 8.72184 7.29659 8.72975L6.34658 8.74558C6.212 8.74558 6.10909 8.84848 6.10909 8.98307L6.13284 10.4873C6.13284 10.6218 6.23575 10.7247 6.37033 10.7247L7.32034 10.7089C7.54201 10.7089 7.71616 10.8831 7.72408 11.0968L7.79532 15.6093C7.80324 16.0527 7.44699 16.4168 7.00366 16.4168H5.18283C2.30117 16.4168 0.583252 14.6989 0.583252 11.8093V5.18308C0.583252 2.30141 2.30117 0.583496 5.18283 0.583496H11.817C14.6987 0.583496 16.4166 2.30141 16.4166 5.18308V11.8172V11.8172Z" fill="#8D89DA"/>
</svg>
