<svg width="16" height="16" viewBox="0 0 16 16" fill="none" xmlns="http://www.w3.org/2000/svg">
<g clip-path="url(#clip0_269_2075)">
<path fill-rule="evenodd" clip-rule="evenodd" d="M4.95269 4.62499C4.78616 5.27193 4.1989 5.74997 3.49997 5.74997C2.67155 5.74997 2 5.07842 2 4.25C2 3.42158 2.67155 2.75003 3.49997 2.75003C4.1989 2.75003 4.78616 3.22807 4.95269 3.87501H15.125C15.332 3.87501 15.5 4.04287 15.5 4.25C15.5 4.45712 15.332 4.62499 15.125 4.62499H4.95269ZM4.24995 4.25C4.24995 4.66425 3.91414 4.99998 3.49997 4.99998C3.0858 4.99998 2.74998 4.66417 2.74998 4.25C2.74998 3.83583 3.0858 3.50001 3.49997 3.50001C3.91414 3.50001 4.24995 3.83575 4.24995 4.25Z" fill="#8D89DA"/>
<path d="M0.874992 4.62498H2.04722C2.01635 4.50516 1.99997 4.37947 1.99997 4.24999C1.99997 4.12051 2.01635 3.99483 2.04722 3.875H0.874992C0.667868 3.875 0.5 4.04287 0.5 4.24999C0.5 4.45712 0.667868 4.62498 0.874992 4.62498Z" fill="#8D89DA"/>
<path fill-rule="evenodd" clip-rule="evenodd" d="M9.45272 11.375C9.2862 10.7281 8.69886 10.25 8 10.25C7.30114 10.25 6.71372 10.7281 6.54728 11.375H0.874992C0.667868 11.375 0.5 11.543 0.5 11.75C0.5 11.957 0.667868 12.125 0.874992 12.125H6.5472C6.71372 12.7719 7.30106 13.25 7.99992 13.25C8.69878 13.25 9.2862 12.7719 9.45264 12.125H15.1248C15.3319 12.125 15.4998 11.957 15.4998 11.75C15.4998 11.543 15.3319 11.375 15.1248 11.375H9.45272ZM8 12.5C8.41425 12.5 8.74998 12.1642 8.74998 11.75C8.74998 11.3358 8.41425 11 8 11C7.58575 11 7.25002 11.3358 7.25002 11.75C7.25002 12.1642 7.58575 12.5 8 12.5Z" fill="#8D89DA"/>
<path fill-rule="evenodd" clip-rule="evenodd" d="M13.9527 7.62501C13.7862 6.97807 13.1988 6.50003 12.5 6.50003C11.8011 6.50003 11.2137 6.97807 11.0473 7.62501H0.874992C0.667868 7.62501 0.5 7.79295 0.5 8C0.5 8.20704 0.667868 8.37499 0.874992 8.37499H11.0473C11.2138 9.02193 11.8011 9.49997 12.5 9.49997C13.1988 9.49997 13.7863 9.02193 13.9527 8.37499H15.1249C15.332 8.37499 15.4999 8.20704 15.4999 8C15.4999 7.79295 15.332 7.62501 15.1249 7.62501H13.9527ZM12.5 8.74998C12.9142 8.74998 13.25 8.41425 13.25 8C13.25 7.58575 12.9142 7.25002 12.5 7.25002C12.0857 7.25002 11.75 7.58575 11.75 8C11.75 8.41425 12.0857 8.74998 12.5 8.74998Z" fill="#8D89DA"/>
</g>
<defs>
<clipPath id="clip0_269_2075">
<rect width="15" height="15" fill="white" transform="translate(0.5 0.5)"/>
</clipPath>
</defs>
</svg>
