<svg width="19" height="19" viewBox="0 0 19 19" fill="none" xmlns="http://www.w3.org/2000/svg">
<path d="M13.0625 1.78125H5.9375C4.83556 1.78243 3.77908 2.2207 2.99989 2.99989C2.2207 3.77908 1.78243 4.83556 1.78125 5.9375V13.0625C1.78243 14.1644 2.2207 15.2209 2.99989 16.0001C3.77908 16.7793 4.83556 17.2176 5.9375 17.2188H13.0625C14.1644 17.2176 15.2209 16.7793 16.0001 16.0001C16.7793 15.2209 17.2176 14.1644 17.2188 13.0625V5.9375C17.2176 4.83556 16.7793 3.77908 16.0001 2.99989C15.2209 2.2207 14.1644 1.78243 13.0625 1.78125ZM9.5 13.0625C8.7954 13.0625 8.10663 12.8536 7.52078 12.4621C6.93493 12.0707 6.47832 11.5143 6.20868 10.8633C5.93904 10.2123 5.86849 9.49605 6.00595 8.80499C6.14341 8.11393 6.48271 7.47916 6.98093 6.98093C7.47916 6.48271 8.11393 6.14341 8.80499 6.00595C9.49605 5.86849 10.2123 5.93904 10.8633 6.20868C11.5143 6.47832 12.0707 6.93493 12.4621 7.52078C12.8536 8.10663 13.0625 8.7954 13.0625 9.5C13.0615 10.4445 12.6859 11.3501 12.018 12.018C11.3501 12.6859 10.4445 13.0615 9.5 13.0625ZM13.9531 5.9375C13.777 5.9375 13.6048 5.88527 13.4583 5.7874C13.3119 5.68954 13.1977 5.55044 13.1303 5.3877C13.0629 5.22496 13.0452 5.04589 13.0796 4.87312C13.114 4.70036 13.1988 4.54166 13.3234 4.41711C13.4479 4.29255 13.6066 4.20773 13.7794 4.17336C13.9521 4.139 14.1312 4.15664 14.294 4.22404C14.4567 4.29145 14.5958 4.40561 14.6937 4.55207C14.7915 4.69853 14.8438 4.87073 14.8438 5.04688C14.8438 5.28308 14.7499 5.50962 14.5829 5.67664C14.4159 5.84367 14.1893 5.9375 13.9531 5.9375ZM11.875 9.5C11.875 9.96973 11.7357 10.4289 11.4747 10.8195C11.2138 11.21 10.8428 11.5145 10.4089 11.6942C9.9749 11.874 9.49737 11.921 9.03666 11.8294C8.57596 11.7377 8.15277 11.5115 7.82062 11.1794C7.48847 10.8472 7.26227 10.424 7.17063 9.96334C7.07899 9.50263 7.12603 9.0251 7.30579 8.59113C7.48554 8.15715 7.78995 7.78623 8.18052 7.52526C8.57109 7.26429 9.03027 7.125 9.5 7.125C10.1299 7.125 10.734 7.37522 11.1794 7.82062C11.6248 8.26602 11.875 8.87011 11.875 9.5Z" fill="#8D89DA"/>
</svg>
