<svg width="35" height="34" viewBox="0 0 35 34" fill="none" xmlns="http://www.w3.org/2000/svg">
<circle cx="17.5" cy="17" r="16.5" stroke="#8D89DA"/>
<path d="M13.7031 11.75C13.7029 12.1478 13.5447 12.5293 13.2633 12.8104C12.9818 13.0916 12.6002 13.2494 12.2024 13.2493C11.8046 13.2491 11.4231 13.0908 11.1419 12.8094C10.8608 12.5279 10.7029 12.1463 10.7031 11.7485C10.7033 11.3507 10.8616 10.9692 11.143 10.6881C11.4244 10.4069 11.8061 10.2491 12.2039 10.2493C12.6017 10.2494 12.9832 10.4077 13.2643 10.6891C13.5455 10.9706 13.7033 11.3522 13.7031 11.75ZM13.7481 14.36H10.7481V23.75H13.7481V14.36ZM18.4881 14.36H15.5031V23.75H18.4581V18.8225C18.4581 16.0775 22.0356 15.8225 22.0356 18.8225V23.75H24.9981V17.8025C24.9981 13.175 19.7031 13.3475 18.4581 15.62L18.4881 14.36Z" fill="#8D89DA"/>
</svg>
