<svg width="39" height="38" viewBox="0 0 39 38" fill="none" xmlns="http://www.w3.org/2000/svg">
<g clip-path="url(#clip0_245_1004)">
<path d="M19.5 38C9.01833 38 0.5 29.4817 0.5 19C0.5 8.51833 9.01833 0 19.5 0C29.9817 0 38.5 8.51833 38.5 19C38.5 29.4817 29.9817 38 19.5 38ZM19.5 1.58333C9.88917 1.58333 2.08333 9.38917 2.08333 19C2.08333 28.6108 9.88917 36.4167 19.5 36.4167C29.1108 36.4167 36.9167 28.6108 36.9167 19C36.9167 9.38917 29.1108 1.58333 19.5 1.58333ZM19.5 28.5C18.835 28.5 18.1858 28.2783 17.6475 27.835C14.7975 25.4758 10 20.9158 10 16.7992C10 13.6483 12.3117 11.0833 15.1458 11.0833C16.9825 11.0833 18.5817 12.1442 19.5 13.7592C20.4183 12.16 22.0175 11.0833 23.8542 11.0833C26.6883 11.0833 29 13.6483 29 16.7992C29 20.9158 24.2025 25.4758 21.3525 27.835C20.8142 28.2783 20.1492 28.5 19.5 28.5ZM15.1458 12.6667C13.1825 12.6667 11.5833 14.5192 11.5833 16.7992C11.5833 20.3933 16.5233 24.8583 18.6608 26.6158C19.1517 27.0275 19.8483 27.0275 20.355 26.6158C22.4767 24.8583 27.4167 20.3933 27.4167 16.7992C27.4167 14.5192 25.8175 12.6667 23.8542 12.6667C21.8908 12.6667 20.2917 14.5192 20.2917 16.7992C20.2917 17.2425 19.9433 17.5908 19.5 17.5908C19.0567 17.5908 18.7083 17.2425 18.7083 16.7992C18.7083 14.5192 17.1092 12.6667 15.1458 12.6667Z" fill="#8D89DA"/>
</g>
<defs>
<clipPath id="clip0_245_1004">
<rect width="38" height="38" fill="white" transform="translate(0.5)"/>
</clipPath>
</defs>
</svg>
