<svg xmlns="http://www.w3.org/2000/svg" width="209.991" height="43.009" viewBox="0 0 209.991 43.009">
  <defs>
    <style>
      .cls-1 {
        fill: #480596;
      }
    </style>
  </defs>
  <path id="IVA_LOGO" data-name="IVA LOGO" class="cls-1" d="M203.391,24.737c0-4.879-1.883-6.982-5.859-6.982-3.556,0-5.951,2.26-5.951,7.028v17.5h-6.609V24.737c0-4.879-1.874-6.982-5.841-6.982-3.62,0-5.951,2.26-5.951,7.028v17.5h-6.618V12.775h6.618v2.417s1.984-3.025,7.623-3.025c4.57,0,7.678,2.2,8.748,4.464,0,0,2.751-4.464,9.351-4.464s11.088,4,11.088,11.492V42.281h-6.6ZM39.662,20.319c0,14.158-9.753,22.57-14.342,22.57s-13.739-8.412-13.739-22.57a26.639,26.639,0,0,1,.923-7.545h7.112a31.751,31.751,0,0,0-.859,7.9c0,8.873,4.726,15.283,6.865,15.283s6.865-6.41,6.865-15.283a31.751,31.751,0,0,0-.859-7.9h7.112a26.639,26.639,0,0,1,.923,7.545ZM8.995,4.63A4.4,4.4,0,0,1,4.47,9.242,4.362,4.362,0,0,1,0,4.63,4.446,4.446,0,0,1,4.47,0,4.485,4.485,0,0,1,8.995,4.63Zm154.58,14.564h-2.642c-4.068,0-6.865,2.26-6.865,8.366V42.281h-6.609V12.775h6.463v3.6s2.23-3.6,8.08-3.6h1.572v6.41Zm-40.987,5.589h14.808c-.155-4.409-3.108-7.287-7.166-7.287-4.333,0-7.13,2.767-7.633,7.287M131.344,43c-9.909,0-15.4-6.567-15.4-15.394s5.75-15.44,14.342-15.44,13.885,6.364,13.885,15.394v2.057H122.6c.311,4.713,3.931,7.591,9.159,7.591,6.106,0,9.351-2.822,9.351-2.822l1.993,5.036s-4.278,3.588-11.755,3.588M106.38,25.153c0-5.184-1.984-7.388-6.2-7.388-3.821,0-6.316,2.352-6.316,7.443V42.29H87.221V2.315h6.645V14.472s2.349-2.306,7.486-2.306c6.81,0,11.645,4.261,11.645,11.843V42.281H106.38V25.143ZM70.987,4.261H77.6v8.513h6.362v5.239H77.6V33.2c0,3.071.759,3.8,3.565,3.8H83.9v5.285H79.077c-6.4,0-8.08-2.924-8.08-8.725V4.261ZM60.667,28.427l-5.96.673c-5.137.563-7.175,1.946-7.175,4.87,0,2.509,1.636,4,4.826,4,4.333,0,8.3-2.361,8.3-6.567V28.427Zm-5.85-16.372c8.236,0,12.249,2.979,12.249,10.367V42.281H60.814V39.818S58.172,43,51.618,43s-10.384-3.588-10.384-8.772c0-6.06,4.223-8.781,12.057-9.749l7.267-.922V22.219c0-3.394-1.773-4.769-5.9-4.769a19.8,19.8,0,0,0-10.274,2.924l-1.828-5.027A25.222,25.222,0,0,1,54.817,12.055ZM7.687,42.281H1.069v-29.5H7.687V42.29Z"/>
</svg>
