<svg width="18" height="19" viewBox="0 0 18 19" fill="none" xmlns="http://www.w3.org/2000/svg">
<g clip-path="url(#clip0_180_6000)">
<path d="M14.625 2H5.625C3.7575 2 2.25 3.5075 2.25 5.375V12.125C2.25 13.9925 3.7575 15.5 5.625 15.5H14.625C16.4925 15.5 18 13.9925 18 12.125V5.375C18 3.5075 16.4925 2 14.625 2ZM14.625 2.75C15.3375 2.75 15.99 3.035 16.4625 3.5L11.985 7.9775C10.9575 9.005 9.3 9.005 8.2725 7.9775L3.7875 3.5C4.26 3.035 4.9125 2.75 5.625 2.75H14.625ZM17.25 12.125C17.25 13.5725 16.0725 14.75 14.625 14.75H5.625C4.1775 14.75 3 13.5725 3 12.125V5.375C3 4.91 3.12 4.4825 3.33 4.1L7.74 8.51C8.4 9.17 9.2625 9.5 10.125 9.5C10.9875 9.5 11.85 9.17 12.51 8.51L16.92 4.1C17.13 4.475 17.25 4.91 17.25 5.375V12.125ZM13.5 17.375C13.5 17.585 13.335 17.75 13.125 17.75H3.375C1.515 17.75 0 16.235 0 14.375V6.125C0 5.915 0.165 5.75 0.375 5.75C0.585 5.75 0.75 5.915 0.75 6.125V14.375C0.75 15.8225 1.9275 17 3.375 17H13.125C13.335 17 13.5 17.165 13.5 17.375Z" fill="black"/>
</g>
<defs>
<clipPath id="clip0_180_6000">
<rect width="18" height="18" fill="white" transform="translate(0 0.5)"/>
</clipPath>
</defs>
</svg>
