<svg width="42" height="40" viewBox="0 0 42 40" fill="none" xmlns="http://www.w3.org/2000/svg">
<g clip-path="url(#clip0_88_1618)">
<path d="M20.7066 4.69118C17.6804 4.69109 14.7222 5.58836 12.2059 7.26954C9.68971 8.95071 7.72849 11.3403 6.57033 14.1361C5.41217 16.9319 5.10908 20.0083 5.69936 22.9764C6.28965 25.9444 7.74679 28.6708 9.88656 30.8107C12.0263 32.9506 14.7526 34.4079 17.7206 34.9984C20.6886 35.5889 23.7651 35.286 26.561 34.128C29.3568 32.97 31.7465 31.009 33.4279 28.4928C35.1092 25.9767 36.0067 23.0185 36.0068 19.9923C36.0022 15.9358 34.3888 12.0467 31.5205 9.17817C28.6521 6.30967 24.7632 4.69602 20.7066 4.69118ZM20.7066 34.5021C17.8368 34.502 15.0314 33.6509 12.6453 32.0564C10.2592 30.462 8.39941 28.1957 7.30124 25.5443C6.20307 22.8929 5.91578 19.9754 6.47571 17.1607C7.03565 14.3461 8.41768 11.7606 10.447 9.73137C12.4763 7.70213 15.0618 6.32021 17.8765 5.76037C20.6912 5.20053 23.6087 5.4879 26.26 6.58616C28.9114 7.68442 31.1776 9.54425 32.772 11.9304C34.3663 14.3166 35.2173 17.122 35.2173 19.9918C35.213 23.839 33.6828 27.5273 30.9625 30.2475C28.2421 32.9678 24.5537 34.4979 20.7066 34.5021ZM27.2145 13.5062C27.4703 13.4235 27.6991 13.2735 27.877 13.0719C28.0549 12.8703 28.1753 12.6246 28.2255 12.3605C28.2456 12.3689 28.2664 12.3757 28.2876 12.3807L28.7317 12.4794C28.834 12.5021 28.9412 12.4832 29.0296 12.4269C29.118 12.3706 29.1804 12.2815 29.2031 12.1792C29.2258 12.0768 29.2069 11.9697 29.1506 11.8813C29.0943 11.7929 29.0052 11.7304 28.9029 11.7077L28.4588 11.6091C28.3824 11.5923 28.3027 11.5987 28.2299 11.6273C28.1044 10.8657 27.7022 10.1772 27.1005 9.6937L27.3354 9.27136C27.3606 9.22601 27.3767 9.17613 27.3826 9.12457C27.3886 9.07301 27.3843 9.02077 27.3701 8.97085C27.3559 8.92093 27.332 8.87432 27.2997 8.83365C27.2675 8.79298 27.2275 8.75904 27.1822 8.7338C27.1368 8.70857 27.0869 8.69251 27.0354 8.68655C26.9838 8.6806 26.9316 8.68486 26.8817 8.69908C26.8318 8.71331 26.7851 8.73721 26.7444 8.76946C26.7038 8.8017 26.6698 8.84166 26.6446 8.88701L26.4206 9.2906C26.1106 9.15818 25.7812 9.07686 25.4452 9.04982C25.0831 9.02096 24.7197 9.08552 24.3898 9.23732C24.375 9.21746 24.3585 9.19897 24.3405 9.18206L23.7977 8.68866C23.7593 8.65374 23.7144 8.62672 23.6655 8.60916C23.6166 8.5916 23.5648 8.58383 23.5129 8.5863C23.4611 8.58878 23.4102 8.60145 23.3632 8.62358C23.3163 8.64572 23.2741 8.67688 23.2392 8.7153C23.2043 8.75372 23.1773 8.79865 23.1597 8.84752C23.1421 8.89638 23.1344 8.94823 23.1368 9.00009C23.1393 9.05195 23.152 9.10282 23.1741 9.14979C23.1963 9.19676 23.2274 9.23891 23.2659 9.27383L23.7854 9.74601C23.7175 9.84924 23.6665 9.96267 23.6344 10.082C23.5598 10.3654 23.5766 10.665 23.6824 10.9383C23.7882 11.2115 23.9776 11.4444 24.2235 11.6036L23.8826 11.9757C23.8475 12.0139 23.8203 12.0588 23.8025 12.1076C23.7848 12.1564 23.7768 12.2082 23.7791 12.2601C23.7813 12.312 23.7938 12.3629 23.8157 12.41C23.8377 12.4571 23.8687 12.4993 23.907 12.5344C23.9453 12.5695 23.9901 12.5967 24.0389 12.6145C24.0877 12.6322 24.1396 12.6402 24.1915 12.6379C24.2433 12.6357 24.2943 12.6232 24.3413 12.6012C24.3884 12.5793 24.4307 12.5483 24.4658 12.51L24.9399 11.9929C25.1882 12.2035 25.3847 12.4684 25.5142 12.7671L25.3233 13.5308C25.3106 13.5812 25.308 13.6336 25.3156 13.685C25.3232 13.7364 25.3408 13.7858 25.3675 13.8304C25.3943 13.8749 25.4295 13.9138 25.4713 13.9447C25.5131 13.9756 25.5605 13.9979 25.611 14.0104C25.6424 14.0184 25.6747 14.0224 25.7072 14.0223C25.7953 14.0222 25.8808 13.9927 25.9502 13.9384C26.0195 13.8842 26.0688 13.8083 26.09 13.7228L26.1675 13.4129C26.3762 13.5073 26.6025 13.5567 26.8316 13.558C26.961 13.558 27.0898 13.5406 27.2145 13.5062ZM26.2534 12.4838C26.1306 12.165 25.945 11.8741 25.7077 11.6283C25.4704 11.3825 25.1861 11.1869 24.8718 11.053C24.7083 11.012 24.5672 10.9088 24.4787 10.7653C24.3903 10.6217 24.3613 10.4493 24.3982 10.2848C24.4717 10.0055 24.9019 9.83531 25.2824 9.83531C25.3159 9.83531 25.349 9.83531 25.381 9.83926C25.9089 9.8787 26.4063 10.1014 26.7873 10.4688C27.1684 10.8362 27.409 11.3253 27.4676 11.8513C27.5054 12.0314 27.4796 12.2189 27.3947 12.3821C27.3098 12.5452 27.1709 12.674 27.0018 12.7463C26.8652 12.7833 26.7205 12.778 26.5869 12.7311C26.4533 12.6843 26.337 12.5981 26.2534 12.4838ZM29.9296 20.0096C29.8867 20.1209 29.8521 20.2352 29.826 20.3515L29.226 20.0846C29.1786 20.0635 29.1275 20.052 29.0756 20.0506C29.0237 20.0493 28.9721 20.0582 28.9236 20.0768C28.8752 20.0954 28.8309 20.1234 28.7932 20.1592C28.7556 20.1949 28.7254 20.2377 28.7043 20.2852C28.6832 20.3326 28.6716 20.3837 28.6703 20.4356C28.669 20.4875 28.6779 20.5391 28.6965 20.5876C28.7151 20.636 28.7431 20.6803 28.7789 20.718C28.8146 20.7556 28.8574 20.7858 28.9048 20.8069L29.7436 21.1799C29.7436 21.2306 29.7426 21.2816 29.7407 21.3329C29.7481 21.8076 29.6958 22.2813 29.5852 22.743C29.4637 23.3269 29.1706 23.8612 28.7435 24.2775C28.6878 24.3377 28.631 24.3983 28.5753 24.462L27.7084 24.1729C27.6591 24.1564 27.6071 24.1499 27.5553 24.1536C27.5035 24.1572 27.4529 24.1711 27.4064 24.1943C27.36 24.2176 27.3185 24.2497 27.2845 24.2889C27.2505 24.3282 27.2245 24.3738 27.2081 24.423C27.1917 24.4723 27.1851 24.5243 27.1888 24.5761C27.1925 24.6279 27.2063 24.6785 27.2295 24.725C27.2527 24.7714 27.2849 24.8129 27.3241 24.8469C27.3634 24.8809 27.4089 24.9069 27.4582 24.9233L28.1214 25.1444C28.113 25.1621 28.1046 25.1789 28.0962 25.1972C27.9631 25.4978 27.9286 25.8328 27.9976 26.1542C28.0665 26.4757 28.2354 26.7671 28.4801 26.9867C28.7937 27.2789 29.2064 27.4414 29.6351 27.4416C29.9296 27.4406 30.2192 27.3661 30.4778 27.225C30.7772 27.0661 31.0612 26.8796 31.326 26.668L31.7207 27.0183C31.7992 27.0879 31.9021 27.1235 32.0069 27.1172C32.1116 27.1109 32.2095 27.0632 32.2792 26.9847C32.3488 26.9062 32.3844 26.8033 32.3781 26.6985C32.3718 26.5938 32.3241 26.4958 32.2456 26.4262L31.8963 26.1159C32.5231 25.3328 32.9578 24.4137 33.1653 23.4323L33.5546 23.5433C33.6554 23.5721 33.7635 23.5596 33.8552 23.5087C33.9469 23.4578 34.0145 23.3725 34.0433 23.2717C34.0721 23.1709 34.0597 23.0627 34.0087 22.9711C33.9578 22.8794 33.8725 22.8118 33.7717 22.783L33.2842 22.6438C33.3766 21.8875 33.3023 21.1201 33.0666 20.3954L33.6848 19.9835C33.7281 19.9545 33.7653 19.9173 33.7942 19.874C33.8231 19.8307 33.8432 19.7821 33.8533 19.731C33.8634 19.6799 33.8634 19.6273 33.8532 19.5762C33.843 19.5252 33.8229 19.4766 33.7939 19.4333C33.7649 19.39 33.7277 19.3529 33.6844 19.324C33.6411 19.2951 33.5925 19.275 33.5414 19.2649C33.4903 19.2547 33.4378 19.2548 33.3867 19.265C33.3356 19.2752 33.287 19.2953 33.2438 19.3243L32.668 19.7081C32.4583 19.451 32.1881 19.2499 31.8815 19.123V18.0715C31.8815 17.9669 31.8399 17.8665 31.7659 17.7924C31.6919 17.7184 31.5915 17.6768 31.4868 17.6768C31.3821 17.6768 31.2817 17.7184 31.2077 17.7924C31.1337 17.8665 31.0921 17.9669 31.0921 18.0715V19.0199C30.8265 19.0631 30.5778 19.1782 30.3729 19.3527C30.168 19.5271 30.0147 19.7543 29.9296 20.0096ZM32.3167 20.651C32.6132 21.7117 32.581 22.8373 32.2244 23.8793C32.0727 24.4433 31.8059 24.9698 31.4408 25.4256C31.0756 25.8814 30.6201 26.2567 30.1028 26.5278C29.9319 26.6241 29.7349 26.6639 29.54 26.6416C29.3452 26.6194 29.1622 26.5362 29.0174 26.404C28.8922 26.297 28.8052 26.1522 28.7696 25.9915C28.734 25.8307 28.7517 25.6627 28.82 25.5129C28.9436 25.2516 29.114 25.0152 29.3228 24.8153C29.8401 24.3032 30.1973 23.6518 30.351 22.9404C30.4776 22.4195 30.5382 21.8847 30.5316 21.3487C30.5131 20.9929 30.5591 20.6367 30.6673 20.2972C30.7035 20.1584 30.7835 20.0348 30.8955 19.9451C31.0075 19.8553 31.1455 19.804 31.2889 19.7989C31.5246 19.8257 31.7473 19.9205 31.93 20.0718C32.1126 20.2232 32.2467 20.4244 32.3167 20.651ZM14.8283 27.2827C14.6581 26.8282 14.3453 26.441 13.9367 26.179C13.7972 26.0747 13.6653 25.9606 13.542 25.8376C13.1432 25.3745 12.8141 24.8558 12.5651 24.2977C12.4401 24.0159 12.2165 23.7893 11.9364 23.6606C11.6562 23.5319 11.3387 23.5098 11.0435 23.5986C10.6821 23.7101 10.3703 23.9427 10.1603 24.2572C9.95028 24.5717 9.85499 24.9489 9.89042 25.3254C10.012 26.0806 10.3084 26.7968 10.756 27.4171C11.2036 28.0373 11.79 28.5443 12.4684 28.8976C12.7652 29.0618 13.0983 29.1489 13.4374 29.1512C13.8002 29.158 14.1541 29.0393 14.4395 28.8152C14.6554 28.6324 14.8091 28.387 14.8792 28.1129C14.9493 27.8388 14.9324 27.5497 14.8308 27.2857L14.8283 27.2827ZM13.9402 28.2C13.7766 28.3031 13.5871 28.3579 13.3937 28.3579C13.2003 28.3579 13.0109 28.3031 12.8473 28.2C12.2837 27.9069 11.7948 27.4883 11.4185 26.9765C11.0421 26.4647 10.7882 25.8734 10.6764 25.248C10.6563 25.0552 10.7033 24.8614 10.8095 24.6991C10.9156 24.5369 11.0744 24.4162 11.2591 24.3574C11.3102 24.3421 11.3631 24.3342 11.4165 24.3337C11.5128 24.3363 11.6062 24.3676 11.6845 24.4237C11.7629 24.4799 11.8226 24.5581 11.8561 24.6485C12.1397 25.2775 12.5142 25.8613 12.9677 26.3813C13.1179 26.5324 13.279 26.6722 13.4498 26.7997C13.7259 26.9678 13.9434 27.2169 14.0729 27.5131C14.1232 27.6277 14.1372 27.755 14.113 27.8778C14.0889 28.0005 14.0277 28.113 13.9377 28.2H13.9402ZM21.9505 19.6741C22.5067 19.6741 23.0504 19.5092 23.5129 19.2001C23.9754 18.8911 24.3359 18.4519 24.5487 17.938C24.7616 17.4241 24.8173 16.8586 24.7088 16.3131C24.6002 15.7675 24.3324 15.2664 23.9391 14.8731C23.5458 14.4798 23.0447 14.2119 22.4991 14.1034C21.9536 13.9949 21.3881 14.0506 20.8742 14.2635C20.3603 14.4763 19.9211 14.8368 19.6121 15.2993C19.3031 15.7618 19.1381 16.3055 19.1381 16.8617C19.1381 17.6072 19.4341 18.3222 19.961 18.8495C20.4878 19.3769 21.2025 19.6734 21.948 19.6741H21.9505ZM21.9505 14.8438C22.35 14.8437 22.7406 14.9621 23.0728 15.184C23.4051 15.4058 23.6641 15.7213 23.817 16.0904C23.97 16.4595 24.01 16.8656 23.9321 17.2575C23.8543 17.6494 23.6619 18.0093 23.3794 18.2919C23.097 18.5744 22.737 18.7668 22.3452 18.8448C21.9534 18.9228 21.5472 18.8828 21.1781 18.73C20.8089 18.5771 20.4934 18.3182 20.2715 17.986C20.0495 17.6538 19.931 17.2633 19.931 16.8637C19.9318 16.3287 20.1444 15.8159 20.5224 15.4373C20.9004 15.0587 21.413 14.8453 21.948 14.8438H21.9505ZM14.6635 20.3367C14.6635 20.0537 14.5796 19.7771 14.4224 19.5418C14.2651 19.3065 14.0417 19.1231 13.7802 19.0148C13.5188 18.9065 13.2311 18.8782 12.9535 18.9334C12.6759 18.9886 12.421 19.1249 12.2209 19.325C12.0208 19.5251 11.8845 19.78 11.8293 20.0576C11.7741 20.3351 11.8024 20.6228 11.9107 20.8843C12.019 21.1457 12.2024 21.3692 12.4377 21.5264C12.673 21.6836 12.9497 21.7676 13.2327 21.7676C13.6117 21.7669 13.975 21.6159 14.2428 21.3476C14.5106 21.0793 14.6611 20.7158 14.6611 20.3367H14.6635ZM12.5913 20.3367C12.5913 20.2099 12.6289 20.0859 12.6993 19.9804C12.7698 19.8749 12.87 19.7927 12.9872 19.7441C13.1044 19.6956 13.2334 19.6829 13.3578 19.7076C13.4822 19.7324 13.5965 19.7935 13.6862 19.8832C13.7759 19.9729 13.837 20.0872 13.8618 20.2116C13.8865 20.336 13.8738 20.465 13.8253 20.5822C13.7767 20.6994 13.6945 20.7996 13.589 20.87C13.4835 20.9405 13.3595 20.9781 13.2327 20.9781C13.1484 20.9782 13.0649 20.9617 12.9871 20.9295C12.9092 20.8972 12.8384 20.85 12.7788 20.7904C12.7192 20.7309 12.6719 20.6601 12.6396 20.5823C12.6074 20.5044 12.5907 20.421 12.5907 20.3367H12.5913ZM23.6971 21.2979C23.3096 21.2979 22.9308 21.4128 22.6086 21.628C22.2864 21.8433 22.0352 22.1493 21.8869 22.5073C21.7387 22.8654 21.6998 23.2593 21.7754 23.6394C21.851 24.0194 22.0376 24.3685 22.3117 24.6425C22.5857 24.9166 22.9348 25.1031 23.3148 25.1787C23.6949 25.2543 24.0888 25.2156 24.4469 25.0673C24.8049 24.919 25.1108 24.6678 25.3261 24.3456C25.5414 24.0234 25.6563 23.6446 25.6563 23.2571C25.6557 22.7377 25.4491 22.2397 25.0818 21.8724C24.7145 21.5051 24.2165 21.2985 23.6971 21.2979ZM23.6971 24.4255C23.466 24.4255 23.2401 24.357 23.048 24.2286C22.8558 24.1002 22.7061 23.9177 22.6176 23.7042C22.5292 23.4907 22.5061 23.2558 22.5512 23.0292C22.5962 22.8026 22.7075 22.5944 22.8709 22.431C23.0343 22.2676 23.2425 22.1563 23.4691 22.1112C23.6958 22.0661 23.9307 22.0893 24.1442 22.1777C24.3577 22.2661 24.5401 22.4159 24.6685 22.608C24.7969 22.8001 24.8654 23.0261 24.8654 23.2571C24.8654 23.5671 24.7424 23.8645 24.5233 24.0838C24.3042 24.3031 24.0071 24.4266 23.6971 24.427V24.4255ZM18.1311 24.913C17.9821 24.9127 17.8366 24.8682 17.7129 24.7853C17.5892 24.7023 17.4929 24.5845 17.4361 24.4468C17.3793 24.3092 17.3646 24.1577 17.3938 24.0117C17.4231 23.8656 17.4949 23.7315 17.6003 23.6263C17.7058 23.5211 17.84 23.4495 17.9861 23.4205C18.1322 23.3916 18.2836 23.4066 18.4212 23.4636C18.5588 23.5207 18.6764 23.6173 18.7591 23.7411C18.8418 23.865 18.886 24.0106 18.886 24.1595C18.8862 24.2587 18.8668 24.357 18.8289 24.4487C18.7911 24.5403 18.7354 24.6236 18.6653 24.6938C18.5952 24.7639 18.5119 24.8195 18.4202 24.8574C18.3285 24.8952 18.2303 24.9146 18.1311 24.9144V24.913ZM16.2873 12.625L15.7524 12.3699C15.8051 12.3102 15.8545 12.2478 15.9004 12.1829C16.0682 11.9442 16.156 11.6585 16.1514 11.3668C16.1468 11.0751 16.05 10.7924 15.8748 10.5591C15.7458 10.3834 15.5804 10.2376 15.3898 10.1318L15.6478 9.46774C15.6667 9.41937 15.6758 9.36776 15.6746 9.31587C15.6735 9.26398 15.6622 9.21282 15.6413 9.16531C15.6204 9.1178 15.5904 9.07487 15.5529 9.03897C15.5154 9.00307 15.4712 8.9749 15.4229 8.95608C15.3745 8.93726 15.3229 8.92814 15.271 8.92926C15.2191 8.93038 15.1679 8.94172 15.1204 8.96261C15.0729 8.98351 15.03 9.01355 14.9941 9.05103C14.9582 9.08851 14.93 9.1327 14.9112 9.18106L14.6152 9.94139C14.4693 9.94439 14.3246 9.9673 14.1849 10.0095C13.6098 10.1746 13.0776 10.463 12.6253 10.8547L12.1985 10.4279C12.1618 10.3912 12.1182 10.3621 12.0703 10.3422C12.0223 10.3223 11.9709 10.3121 11.919 10.3121C11.8671 10.3121 11.8157 10.3223 11.7677 10.3422C11.7198 10.3621 11.6762 10.3912 11.6395 10.4279C11.6028 10.4646 11.5737 10.5082 11.5538 10.5561C11.534 10.6041 11.5237 10.6555 11.5237 10.7074C11.5237 10.7593 11.534 10.8107 11.5538 10.8587C11.5737 10.9066 11.6028 10.9502 11.6395 10.9869L12.0836 11.431C11.8927 11.674 11.7192 11.9302 11.5645 12.1977C11.3649 12.5484 11.2039 12.9198 11.0844 13.3054L10.3719 13.0537C10.323 13.0364 10.2711 13.0289 10.2193 13.0317C10.1674 13.0344 10.1167 13.0474 10.0698 13.0698C10.023 13.0921 9.98096 13.1235 9.94625 13.1621C9.91153 13.2007 9.88477 13.2458 9.86747 13.2948C9.85017 13.3437 9.84268 13.3956 9.84543 13.4474C9.84818 13.4993 9.86111 13.5501 9.88349 13.5969C9.90587 13.6438 9.93728 13.6857 9.97588 13.7205C10.0145 13.7552 10.0595 13.7819 10.1085 13.7992L10.895 14.077C10.8119 14.5032 10.8025 14.9404 10.8673 15.3697C10.913 15.7156 11.0606 16.04 11.2912 16.3018C11.5218 16.5635 11.8251 16.7507 12.1625 16.8395C12.2426 16.8554 12.3241 16.8633 12.4057 16.8632C12.6329 16.8579 12.8549 16.794 13.0502 16.6779C13.2456 16.5617 13.4076 16.3972 13.5208 16.2001C13.5435 16.1641 13.5637 16.1281 13.584 16.0916L13.99 16.3353C14.0345 16.362 14.0839 16.3797 14.1352 16.3874C14.1866 16.395 14.2389 16.3925 14.2893 16.3799C14.3397 16.3674 14.3871 16.345 14.4288 16.3141C14.4705 16.2832 14.5058 16.2444 14.5325 16.1999C14.5593 16.1553 14.5769 16.106 14.5846 16.0546C14.5923 16.0033 14.5897 15.9509 14.5772 15.9006C14.5646 15.8502 14.5422 15.8028 14.5113 15.761C14.4804 15.7193 14.4416 15.6841 14.3971 15.6574L13.9037 15.3613C13.8878 15.3524 13.8713 15.3446 13.8543 15.3381C13.8716 15.2626 13.8889 15.1867 13.9037 15.1102C13.9751 14.7185 14.0953 14.3372 14.2614 13.9754C14.4374 13.5575 14.7259 13.1966 15.0947 12.9328L15.9508 13.3404C15.9976 13.3627 16.0485 13.3756 16.1003 13.3783C16.1522 13.3809 16.204 13.3734 16.253 13.356C16.3019 13.3387 16.3469 13.3118 16.3855 13.2771C16.4241 13.2423 16.4554 13.2003 16.4777 13.1534C16.5 13.1065 16.5129 13.0557 16.5156 13.0038C16.5183 12.952 16.5107 12.9001 16.4934 12.8512C16.476 12.8023 16.4492 12.7572 16.4144 12.7187C16.3796 12.6801 16.3376 12.6488 16.2907 12.6264L16.2873 12.625ZM13.5445 13.6325C13.3514 14.05 13.2115 14.4901 13.1281 14.9424C13.0856 15.2349 12.9912 15.5175 12.8493 15.7768C12.8009 15.875 12.7228 15.9555 12.6261 16.0069C12.5294 16.0584 12.419 16.0781 12.3105 16.0634C12.1301 16.0045 11.9707 15.8942 11.852 15.7461C11.7333 15.598 11.6603 15.4185 11.642 15.2296C11.5722 14.3113 11.7819 13.3933 12.2434 12.5964C12.4595 12.1581 12.7639 11.7693 13.1375 11.4543C13.5111 11.1394 13.9459 10.9052 14.4144 10.7663C14.4904 10.7425 14.5695 10.7302 14.6492 10.7298C14.7629 10.7304 14.8749 10.7574 14.9763 10.8088C15.0777 10.8602 15.1657 10.9345 15.2334 11.0259C15.3114 11.1264 15.3549 11.2493 15.3576 11.3764C15.3602 11.5036 15.3219 11.6283 15.2482 11.7319C15.1066 11.9239 14.9306 12.088 14.7291 12.2159C14.2064 12.5651 13.795 13.0571 13.544 13.6335L13.5445 13.6325ZM23.1711 30.1819L22.6284 30.1326C22.5954 30.1305 22.5622 30.1325 22.5297 30.1385C22.4987 29.9207 22.432 29.7095 22.3323 29.5134C22.3388 29.507 22.3467 29.5015 22.3526 29.4941L22.846 28.902C22.9131 28.8214 22.9455 28.7175 22.9359 28.613C22.9264 28.5085 22.8757 28.4121 22.7951 28.345C22.7145 28.2779 22.6106 28.2455 22.5061 28.2551C22.4016 28.2646 22.3052 28.3152 22.2381 28.3958L21.833 28.8823C21.5817 28.6694 21.282 28.5215 20.9602 28.4514C20.6384 28.3814 20.3043 28.3914 19.9872 28.4806C19.6702 28.5698 19.3798 28.7354 19.1417 28.963C18.9036 29.1905 18.725 29.473 18.6215 29.7857H18.0941C17.9894 29.7857 17.889 29.8273 17.815 29.9013C17.7409 29.9754 17.6994 30.0758 17.6994 30.1804C17.6994 30.2851 17.7409 30.3855 17.815 30.4596C17.889 30.5336 17.9894 30.5752 18.0941 30.5752H18.5243C18.5597 31.0328 18.7501 31.4647 19.0641 31.7996C19.378 32.1345 19.7968 32.3522 20.2512 32.417L20.3257 32.8645C20.341 32.9567 20.3885 33.0405 20.4598 33.1009C20.5311 33.1614 20.6215 33.1946 20.715 33.1946C20.7368 33.1947 20.7586 33.1929 20.7801 33.1892C20.8314 33.1807 20.8805 33.1623 20.9246 33.1348C20.9687 33.1074 21.0069 33.0715 21.0372 33.0292C21.0674 32.987 21.0889 32.9391 21.1006 32.8885C21.1123 32.8379 21.1139 32.7855 21.1053 32.7342L21.0451 32.3721C21.3952 32.2797 21.714 32.095 21.9684 31.8373C22.2228 31.5797 22.4033 31.2585 22.4912 30.9072C22.513 30.9134 22.5353 30.9177 22.5578 30.92L23.1006 30.9694C23.1129 30.9694 23.1247 30.9694 23.1371 30.9694C23.2417 30.9741 23.344 30.937 23.4214 30.8663C23.4987 30.7956 23.5448 30.6971 23.5495 30.5924C23.5542 30.4877 23.5172 30.3855 23.4465 30.3081C23.3758 30.2308 23.2773 30.1847 23.1726 30.18L23.1711 30.1819ZM20.5334 31.6493C20.2908 31.6494 20.0536 31.5775 19.8518 31.4428C19.65 31.308 19.4927 31.1165 19.3998 30.8923C19.3069 30.6682 19.2826 30.4215 19.3299 30.1835C19.3772 29.9455 19.494 29.727 19.6656 29.5554C19.8372 29.3838 20.0558 29.267 20.2937 29.2197C20.5317 29.1724 20.7784 29.1967 21.0025 29.2896C21.2267 29.3825 21.4183 29.5398 21.553 29.7415C21.6878 29.9433 21.7596 30.1806 21.7595 30.4232C21.7594 30.7484 21.6302 31.0603 21.4003 31.2904C21.1704 31.5204 20.8587 31.6499 20.5334 31.6503V31.6493ZM41.0424 29.2381L36.9852 31.5427C36.9271 31.5759 36.8616 31.5937 36.7948 31.5947C36.7279 31.5956 36.662 31.5795 36.603 31.5479C36.5441 31.5164 36.4941 31.4704 36.4578 31.4142C36.4216 31.3581 36.4001 31.2936 36.3956 31.2269L36.0823 26.8101C36.0786 26.7582 36.0852 26.7062 36.1016 26.6569C36.1181 26.6076 36.1441 26.562 36.1782 26.5228C36.247 26.4435 36.3444 26.3949 36.4491 26.3875C36.5538 26.3801 36.6571 26.4146 36.7364 26.4834C36.8156 26.5522 36.8643 26.6496 36.8717 26.7543L37.1031 30.0137C39.5875 25.9491 40.4744 21.1068 39.5918 16.4256C39.6494 16.4093 39.7055 16.3882 39.7595 16.3624C39.9495 16.2717 40.1419 16.1868 40.3353 16.1044C41.2797 20.884 40.45 25.844 38.0016 30.0561L40.6526 28.5503C40.7438 28.4984 40.8519 28.485 40.953 28.5128C41.0541 28.5407 41.14 28.6076 41.1919 28.6988C41.2437 28.79 41.2571 28.898 41.2293 28.9992C41.2014 29.1003 41.1345 29.1862 41.0433 29.2381H41.0424ZM29.2966 37.1778C29.3182 37.4499 29.3769 37.7179 29.4713 37.9741C25.1286 40.0937 20.1652 40.5687 15.4993 39.3112C15.5887 39.0609 15.6387 38.7983 15.6473 38.5326C20.208 39.777 25.0675 39.2947 29.2946 37.1782L29.2966 37.1778ZM11.4999 36.8556C11.4584 36.9123 11.4175 36.9696 11.3814 37.0307C11.2842 37.2004 11.2096 37.382 11.1594 37.571C8.46148 36.1067 6.13681 34.041 4.36541 31.534C2.59402 29.027 1.42343 26.1459 0.944325 23.1138C0.465224 20.0817 0.690473 16.98 1.6026 14.049C2.51472 11.1179 4.08925 8.43614 6.20426 6.21133L3.06628 6.97609C3.01584 6.98836 2.96345 6.99059 2.91215 6.98264C2.86085 6.97468 2.81162 6.95668 2.76727 6.92969C2.72292 6.90271 2.68433 6.86725 2.65368 6.82535C2.62303 6.78344 2.60094 6.73592 2.58866 6.68548C2.57638 6.63504 2.57417 6.58267 2.58213 6.53137C2.59009 6.48007 2.60805 6.43084 2.63504 6.38649C2.66202 6.34214 2.69748 6.30355 2.73939 6.2729C2.78129 6.24225 2.82883 6.22014 2.87927 6.20787L7.41308 5.10316C7.41752 5.10316 7.42245 5.10316 7.42739 5.10316C7.45029 5.09844 7.47357 5.0958 7.49695 5.09527C7.50386 5.09527 7.51076 5.09527 7.51767 5.09527C7.54749 5.09598 7.57713 5.10011 7.606 5.10761C7.61142 5.10761 7.61683 5.11155 7.62226 5.11303C7.64565 5.12018 7.6683 5.1296 7.68987 5.14115C7.69776 5.1451 7.70516 5.15004 7.71305 5.15498C7.73213 5.16686 7.75014 5.18039 7.76684 5.19543C7.77128 5.19938 7.7767 5.20184 7.78114 5.20628C7.78558 5.21072 7.78509 5.21171 7.78756 5.21368C7.79002 5.21566 7.79496 5.22009 7.79891 5.22355C7.81376 5.24028 7.82713 5.25828 7.83887 5.27733C7.83887 5.28029 7.84332 5.28275 7.8448 5.28522C7.86045 5.31149 7.87302 5.33947 7.8823 5.36861C7.8823 5.37502 7.88576 5.38242 7.88724 5.38933C7.89329 5.41177 7.89724 5.43474 7.89907 5.45791C7.89907 5.46679 7.89907 5.47518 7.89907 5.48357C7.89946 5.50853 7.89746 5.53348 7.89314 5.55807C7.89334 5.56218 7.89334 5.5663 7.89314 5.5704V5.58225L6.98678 9.90291C6.9683 9.99171 6.91979 10.0714 6.84943 10.1287C6.77907 10.1859 6.69115 10.2172 6.60045 10.2172C6.57307 10.2172 6.54578 10.2142 6.51905 10.2083C6.46822 10.1977 6.41995 10.1773 6.37706 10.148C6.33416 10.1188 6.29745 10.0814 6.26904 10.0379C6.24062 9.99446 6.22108 9.94584 6.21149 9.89482C6.20189 9.8438 6.20245 9.79138 6.21314 9.74057L6.85455 6.68154C4.80726 8.81089 3.27861 11.3837 2.38744 14.2C1.49626 17.0162 1.26657 20.0001 1.71622 22.9196C2.16586 25.8391 3.28272 28.6155 4.97999 31.0331C6.67726 33.4507 8.9092 35.4444 11.5023 36.859L11.4999 36.8556ZM33.7396 34.6521C33.7734 34.6915 33.7991 34.7373 33.8152 34.7867C33.8313 34.8361 33.8375 34.8882 33.8335 34.94C33.8294 34.9918 33.8151 35.0422 33.7915 35.0885C33.7678 35.1348 33.7353 35.1759 33.6957 35.2096C33.1057 35.7118 32.487 36.1792 31.8425 36.6094C31.7788 36.3495 31.6842 36.0982 31.5608 35.8609C31.5608 35.8569 31.5559 35.854 31.5539 35.85C32.1183 35.4656 32.6618 35.0512 33.1821 34.6087C33.2616 34.5411 33.3646 34.5077 33.4686 34.5158C33.5726 34.524 33.6692 34.573 33.7372 34.6521H33.7396ZM15.7208 1.42639C15.6407 1.17407 15.5451 0.926914 15.4347 0.686297C16.9056 0.286202 18.4175 0.0564184 19.9409 0.00146484C20.0445 0.255262 20.1287 0.516509 20.193 0.782994C18.6818 0.819875 17.1803 1.03568 15.7199 1.42589L15.7208 1.42639ZM11.9266 2.44525C11.9041 2.39839 11.8911 2.34755 11.8883 2.29564C11.8855 2.24374 11.893 2.19179 11.9103 2.14278C11.9276 2.09377 11.9545 2.04867 11.9893 2.01007C12.0241 1.97146 12.0662 1.94011 12.1132 1.91781C12.2493 1.85203 12.3865 1.7887 12.5246 1.72785C12.8977 1.56059 13.2741 1.40714 13.654 1.26356C13.7572 1.50551 13.8481 1.75252 13.9264 2.00365C13.5646 2.14049 13.2052 2.28852 12.8483 2.44772C12.7161 2.50693 12.5848 2.56712 12.4536 2.62978C12.4068 2.65241 12.356 2.66557 12.3041 2.66852C12.2522 2.67146 12.2002 2.66413 12.1512 2.64694C12.1021 2.62975 12.057 2.60304 12.0183 2.56834C11.9796 2.53365 11.9481 2.49164 11.9257 2.44475L11.9266 2.44525ZM22.2652 0.838254C22.2044 0.564997 22.1295 0.295088 22.0407 0.0295917C26.1093 0.307421 29.9964 1.8192 33.1835 4.36325C36.3707 6.90731 38.7063 10.3627 39.8789 14.2685C39.6322 14.3671 39.3895 14.4732 39.1477 14.5837C38.0484 10.8571 35.8476 7.55003 32.8345 5.09689C29.8214 2.64374 26.1369 1.15921 22.2647 0.838254H22.2652Z" fill="#231F20"/>
</g>
<defs>
<clipPath id="clip0_88_1618">
<rect width="40.5442" height="40" fill="white" transform="translate(0.699219)"/>
</clipPath>
</defs>
</svg>
