<svg width="39" height="40" viewBox="0 0 39 40" fill="none" xmlns="http://www.w3.org/2000/svg">
<g clip-path="url(#clip0_88_1579)">
<mask id="mask0_88_1579" style="mask-type:luminance" maskUnits="userSpaceOnUse" x="0" y="0" width="39" height="40">
<path d="M38.594 0H0V40H38.594V0Z" fill="white"/>
</mask>
<g mask="url(#mask0_88_1579)">
<path d="M19.0599 15.0604C18.3273 15.0604 17.6112 14.8432 17.0021 14.4361C16.393 14.0291 15.9183 13.4506 15.638 12.7737C15.3577 12.0969 15.2844 11.3521 15.4275 10.6336C15.5705 9.91516 15.9234 9.25523 16.4415 8.73731C16.9596 8.2194 17.6197 7.86677 18.3382 7.72402C19.0567 7.58127 19.8015 7.65482 20.4782 7.93536C21.1549 8.2159 21.7333 8.69084 22.1401 9.30009C22.5469 9.90935 22.7639 10.6256 22.7636 11.3581C22.7624 12.3401 22.3719 13.2815 21.6775 13.9758C20.9832 14.6701 20.0418 15.0607 19.0599 15.0618M19.0599 8.00324C18.3963 8.00314 17.7476 8.19983 17.1959 8.56841C16.6441 8.937 16.214 9.46093 15.96 10.0739C15.706 10.687 15.6395 11.3615 15.7689 12.0124C15.8983 12.6632 16.2178 13.261 16.687 13.7303C17.1561 14.1995 17.7539 14.5191 18.4047 14.6486C19.0555 14.778 19.7301 14.7116 20.3432 14.4577C20.9562 14.2038 21.4802 13.7738 21.8489 13.2221C22.2175 12.6704 22.4143 12.0217 22.4143 11.3581C22.4129 10.4688 22.059 9.61626 21.4302 8.98739C20.8013 8.35852 19.9492 8.00461 19.0599 8.00324ZM25.8828 19.3519H23.9126C23.6659 18.4202 23.1561 17.5792 22.4442 16.9295C21.7323 16.2797 20.8483 15.8487 19.898 15.6879C18.9477 15.5271 17.9711 15.6433 17.0851 16.0226C16.199 16.402 15.4409 17.0284 14.9014 17.8271C14.9014 17.8271 14.8985 17.8271 14.8971 17.8304C14.7925 17.9619 12.3311 21.075 12.3818 23.2018C12.4253 25.0324 13.6255 25.6064 14.0382 25.7503V30.6031C14.0382 30.6493 14.0565 30.6937 14.0892 30.7264C14.122 30.7591 14.1663 30.7775 14.2126 30.7775C14.2588 30.7775 14.3032 30.7591 14.3359 30.7264C14.3686 30.6937 14.387 30.6493 14.387 30.6031V20.6368C14.388 19.6802 14.6823 18.7469 15.23 17.9626C15.7777 17.1782 16.5526 16.5806 17.4503 16.2502L19.0438 19.8867C19.0574 19.9178 19.0797 19.9443 19.1081 19.9629C19.1366 19.9815 19.1698 19.9913 19.2037 19.9913H19.2094C19.2443 19.9902 19.278 19.9788 19.3063 19.9584C19.3346 19.9379 19.356 19.9095 19.368 19.8767L20.6756 16.2544C21.3636 16.5099 21.982 16.9232 22.4814 17.4611C22.9807 17.9989 23.3469 18.6464 23.5506 19.3514H20.8232C20.777 19.3514 20.7327 19.3698 20.7001 19.4024C20.6674 19.4351 20.6491 19.4794 20.6491 19.5256V26.5837C20.6491 26.6299 20.6674 26.6742 20.7001 26.7069C20.7327 26.7395 20.777 26.7579 20.8232 26.7579H23.7309V30.6031C23.7309 30.6493 23.7493 30.6937 23.782 30.7264C23.8147 30.7591 23.859 30.7775 23.9053 30.7775C23.9516 30.7775 23.9959 30.7591 24.0286 30.7264C24.0613 30.6937 24.0797 30.6493 24.0797 30.6031V26.7579H25.8823C25.9052 26.7579 25.9278 26.7534 25.949 26.7446C25.9701 26.7359 25.9893 26.723 26.0055 26.7069C26.0216 26.6907 26.0345 26.6715 26.0432 26.6504C26.052 26.6292 26.0565 26.6066 26.0565 26.5837V19.5251C26.0565 19.5022 26.052 19.4796 26.0432 19.4585C26.0345 19.4373 26.0216 19.4181 26.0055 19.402C25.9893 19.3858 25.9701 19.373 25.949 19.3642C25.9278 19.3555 25.9052 19.3509 25.8823 19.3509M12.7306 23.1924C12.7036 22.0528 13.4906 20.5525 14.1778 19.466C14.0855 19.8494 14.0388 20.2424 14.0386 20.6368V25.3802C13.6288 25.2127 12.7661 24.6836 12.7306 23.1924ZM19.1881 19.3467L17.7849 16.1428C18.6213 15.9036 19.5079 15.9036 20.3443 16.1428L19.1881 19.3467ZM25.7086 26.4077H20.9988V19.6993H25.7091L25.7086 26.4077ZM2.92566 15.6094L0 14.6165L0.304303 13.7202C0.359556 13.516 0.456066 13.3253 0.587878 13.1599C0.71969 12.9944 0.884006 12.8578 1.07069 12.7583C1.25737 12.6589 1.46245 12.5987 1.67328 12.5816C1.8841 12.5645 2.0962 12.5907 2.29649 12.6588C2.49677 12.7268 2.68098 12.8352 2.83776 12.9772C2.99454 13.1192 3.12055 13.2918 3.20802 13.4844C3.2955 13.6769 3.34257 13.8854 3.34635 14.0969C3.35012 14.3084 3.31051 14.5184 3.22997 14.714L2.92566 15.6094ZM0.74869 13.8768L0.615232 14.2701L2.64455 14.9587L2.77801 14.5654C2.83603 14.4312 2.8649 14.2861 2.86272 14.1399C2.86054 13.9937 2.82735 13.8496 2.76536 13.7171C2.70336 13.5847 2.61396 13.4669 2.50307 13.3716C2.39218 13.2762 2.26232 13.2055 2.12208 13.1641C1.98563 13.1117 1.83962 13.0888 1.69368 13.097C1.54774 13.1052 1.40521 13.1443 1.27549 13.2116C1.14577 13.279 1.03183 13.3731 0.941179 13.4878C0.850531 13.6025 0.785246 13.735 0.749636 13.8768M1.70088 10.4116L2.7056 8.73915L3.10739 8.98051L2.37385 10.2015L3.06669 10.6175L3.70133 9.55977L4.10312 9.80113L3.46849 10.8589L4.2186 11.3094L4.95214 10.0884L5.35394 10.3298L4.34969 12.0022L1.70088 10.4116ZM6.51814 8.87308L6.16036 9.25973L3.89347 7.16226L4.59389 6.40505C5.02739 5.93653 5.55696 5.83052 5.97627 6.21859C6.12154 6.34323 6.21822 6.51509 6.2493 6.70397C6.28038 6.89284 6.24386 7.08663 6.14616 7.25123L7.76186 7.52951L7.36148 7.96206L5.81583 7.6942L5.55223 7.97815L6.51814 8.87308ZM5.5811 7.27679C5.8111 7.02786 5.82435 6.79691 5.62132 6.60903C5.4183 6.42115 5.18546 6.44907 4.95498 6.698L4.59152 7.09127L5.21716 7.67007L5.5811 7.27679ZM9.71829 5.25315L9.35767 5.49309L7.88774 4.66773L9.0794 6.45948L8.64448 6.74864L6.93319 4.17602L7.38704 3.87456L9.24457 4.93418L8.98569 2.81163L9.44286 2.50732L11.1537 5.08041L10.7188 5.36957L9.5271 3.57735L9.71829 5.25315ZM13.819 3.08896L12.7012 3.4898L12.6922 4.38899L12.1669 4.57829L12.2379 1.27118L12.7632 1.08188L14.9194 3.59013L14.3941 3.77943L13.819 3.08896ZM12.7036 3.00992L13.5147 2.71887L12.7149 1.75864L12.7036 3.00992ZM17.4527 0.5206L16.5171 0.662576L16.9137 3.25365L16.3931 3.33316L15.996 0.745396L15.0647 0.887372L14.9937 0.425949L17.3817 0.0591759L17.4527 0.5206ZM20.3074 3.20632C20.0939 3.19674 19.8845 3.14435 19.6917 3.05229C19.4988 2.96023 19.3264 2.83036 19.1847 2.67039C19.043 2.51042 18.9349 2.32361 18.8668 2.12106C18.7987 1.9185 18.772 1.70433 18.7882 1.49125C18.8178 1.05947 19.0177 0.657129 19.3439 0.372721C19.6701 0.0883137 20.0959 -0.0548589 20.5277 -0.0253001C20.9594 0.0042587 21.3618 0.204128 21.6462 0.530338C21.9306 0.856548 22.0738 1.28238 22.0442 1.71415C22.0311 1.92723 21.9754 2.13551 21.8804 2.32668C21.7853 2.51785 21.653 2.68803 21.491 2.82715C21.3291 2.96627 21.1409 3.0715 20.9376 3.13663C20.7343 3.20176 20.52 3.22546 20.3074 3.20632ZM20.4967 0.467122C20.3498 0.457858 20.2025 0.478167 20.0636 0.526846C19.9246 0.575525 19.7969 0.651585 19.6879 0.750522C19.5789 0.84946 19.4909 0.969262 19.429 1.10284C19.3671 1.23641 19.3327 1.38104 19.3277 1.52816C19.3122 1.67454 19.3264 1.82256 19.3694 1.96335C19.4123 2.10414 19.4833 2.23481 19.5779 2.34754C19.6726 2.46028 19.789 2.55277 19.9203 2.61947C20.0515 2.68617 20.1948 2.72572 20.3417 2.73576C20.4885 2.74579 20.6359 2.72609 20.775 2.67785C20.9141 2.62961 21.042 2.55381 21.1511 2.45499C21.2602 2.35617 21.3483 2.23636 21.41 2.10272C21.4717 1.96909 21.5059 1.82437 21.5104 1.67724C21.5255 1.53067 21.511 1.38256 21.4677 1.24171C21.4245 1.10085 21.3534 0.970115 21.2587 0.857253C21.164 0.744391 21.0475 0.651703 20.9163 0.584687C20.7851 0.517671 20.6418 0.477692 20.4948 0.467122M24.0612 0.611938L24.5667 0.76054L23.8308 3.26169L25.1199 3.6403L24.9841 4.10267L23.1895 3.57546L24.0612 0.611938ZM27.1833 5.20583C26.9077 5.05044 26.6842 4.8171 26.5408 4.5351C26.3974 4.2531 26.3406 3.93503 26.3774 3.62082C26.4142 3.3066 26.543 3.01027 26.7476 2.76903C26.9523 2.52779 27.2237 2.3524 27.5277 2.26488C27.8317 2.17737 28.1548 2.18163 28.4564 2.27714C28.758 2.37265 29.0246 2.55514 29.2229 2.8017C29.4211 3.04826 29.542 3.34789 29.5705 3.66296C29.599 3.97803 29.5338 4.2945 29.383 4.57261C29.2824 4.76085 29.1451 4.927 28.9792 5.06122C28.8132 5.19545 28.6221 5.29503 28.417 5.35407C28.2119 5.41311 27.997 5.43041 27.7851 5.40495C27.5732 5.37949 27.3686 5.31178 27.1833 5.20583ZM28.4956 2.79222C28.3659 2.72267 28.2236 2.67982 28.0771 2.66621C27.9305 2.65259 27.7827 2.66849 27.6424 2.71296C27.5021 2.75744 27.3722 2.82958 27.2602 2.92513C27.1483 3.02068 27.0566 3.13769 26.9907 3.26927C26.9139 3.39593 26.8636 3.53686 26.8428 3.68353C26.8221 3.8302 26.8313 3.97956 26.8699 4.12256C26.9085 4.26557 26.9757 4.39926 27.0675 4.51553C27.1593 4.6318 27.2737 4.72825 27.4038 4.79903C27.534 4.86981 27.6771 4.91346 27.8246 4.92733C27.9721 4.9412 28.1208 4.92501 28.2619 4.87973C28.4029 4.83445 28.5333 4.76103 28.6451 4.66391C28.757 4.56679 28.848 4.44798 28.9126 4.31469C28.9872 4.18787 29.0357 4.04737 29.0552 3.90149C29.0746 3.75561 29.0646 3.60732 29.0257 3.46538C28.9868 3.32344 28.9199 3.19073 28.8289 3.07511C28.7378 2.95949 28.6245 2.8633 28.4956 2.79222ZM30.5723 5.44245C30.7165 5.28626 30.8906 5.16061 31.0843 5.07294C31.278 4.98527 31.4873 4.93737 31.6999 4.93208C31.9124 4.92678 32.1238 4.9642 32.3217 5.04211C32.5195 5.12002 32.6996 5.23685 32.8515 5.38566C33.0973 5.5941 33.2671 5.8781 33.3344 6.19328C33.4017 6.50846 33.3627 6.83706 33.2235 7.12772L32.8037 6.73302C32.8674 6.55664 32.8753 6.36491 32.8263 6.18389C32.7772 6.00287 32.6737 5.84132 32.5297 5.7212C32.4222 5.62245 32.296 5.54633 32.1585 5.49735C32.021 5.44838 31.875 5.42755 31.7293 5.43612C31.5836 5.44468 31.4411 5.48246 31.3103 5.54721C31.1795 5.61196 31.0631 5.70235 30.9679 5.81301C30.8544 5.91298 30.7636 6.03597 30.7013 6.17379C30.6391 6.31161 30.6068 6.46111 30.6068 6.61234C30.6068 6.76357 30.6391 6.91307 30.7013 7.05089C30.7636 7.18871 30.8544 7.3117 30.9679 7.41167C31.3872 7.80636 31.8671 7.8376 32.1132 7.57589L32.214 7.46846L31.5538 6.84755L31.8595 6.52242L32.8969 7.49827L31.7739 8.69182L31.4128 8.35203L31.8108 7.92941L31.8075 7.92657C31.6019 8.01663 31.3731 8.0394 31.1538 7.99164C30.9345 7.94387 30.736 7.828 30.5865 7.6606C30.4331 7.51984 30.3104 7.34899 30.2261 7.1587C30.1417 6.96841 30.0975 6.76277 30.0962 6.55462C30.0948 6.34647 30.1364 6.14028 30.2183 5.94893C30.3003 5.75757 30.4207 5.58516 30.5723 5.44245ZM32.9007 10.2271L32.5912 9.80113L35.0909 7.9862L35.4004 8.41213L32.9007 10.2271ZM34.4411 10.909L34.6887 11.3941C34.6264 11.4273 34.5715 11.4725 34.5269 11.5271C34.4823 11.5817 34.449 11.6447 34.429 11.7123C34.409 11.7799 34.4026 11.8508 34.4102 11.9209C34.4178 11.991 34.4392 12.0588 34.4733 12.1206C34.4916 12.1767 34.5216 12.2284 34.5613 12.2722C34.601 12.3159 34.6496 12.3507 34.7038 12.3742C34.758 12.3977 34.8165 12.4095 34.8756 12.4087C34.9347 12.4079 34.9929 12.3945 35.0464 12.3695C35.2452 12.2677 35.3233 12.0477 35.2906 11.7282L35.2537 11.3813C35.2116 11.1758 35.236 10.9623 35.3234 10.7716C35.4108 10.5809 35.5566 10.423 35.7398 10.3208C35.8477 10.2713 35.9646 10.2445 36.0833 10.2419C36.202 10.2394 36.32 10.2611 36.43 10.3059C36.54 10.3506 36.6396 10.4174 36.7229 10.502C36.8061 10.5867 36.8711 10.6875 36.9139 10.7983C36.977 10.9061 37.0182 11.0252 37.035 11.149C37.0518 11.2727 37.044 11.3986 37.012 11.5193C36.98 11.64 36.9244 11.7532 36.8484 11.8523C36.7724 11.9515 36.6776 12.0346 36.5694 12.0969L36.3219 11.6118C36.4302 11.5513 36.511 11.4514 36.5476 11.3329C36.5842 11.2144 36.5737 11.0863 36.5183 10.9753C36.4975 10.927 36.4672 10.8835 36.4291 10.8472C36.3911 10.811 36.3461 10.7828 36.2969 10.7644C36.2477 10.746 36.1953 10.7377 36.1428 10.74C36.0904 10.7423 36.0389 10.7552 35.9915 10.7779C35.8022 10.8754 35.7322 11.0756 35.7587 11.3728L35.7918 11.7221C35.841 11.9334 35.8207 12.1549 35.7338 12.3537C35.6469 12.5525 35.4981 12.7179 35.3096 12.8252C35.195 12.8754 35.0714 12.9017 34.9464 12.9025C34.8213 12.9033 34.6974 12.8786 34.5823 12.8299C34.4671 12.7811 34.3631 12.7094 34.2765 12.6191C34.19 12.5288 34.1228 12.4218 34.0791 12.3047C34.0111 12.1889 33.9665 12.061 33.948 11.928C33.9294 11.7951 33.9372 11.6598 33.971 11.5299C34.0047 11.4 34.0638 11.278 34.1447 11.1709C34.2256 11.0638 34.3268 10.9737 34.4426 10.9057M38.1444 15.6302L37.8798 14.7216L35.364 15.4542L35.2168 14.9483L37.7326 14.2157L37.4695 13.3117L37.9196 13.1806L38.5944 15.4996L38.1444 15.6302ZM1.65639 27.6419L1.46425 27.1516L4.3407 26.0257L4.71646 26.986C4.9493 27.5804 4.81348 28.1033 4.28154 28.3111C4.10606 28.3875 3.90927 28.3996 3.72576 28.3452C3.54226 28.2908 3.3838 28.1735 3.27824 28.0139L2.32368 29.3461L2.1093 28.7976L3.02457 27.5236L2.8826 27.162L1.65639 27.6419ZM3.50209 27.4961C3.62561 27.8118 3.82769 27.9221 4.08561 27.8236C4.34354 27.7252 4.41926 27.5009 4.29574 27.1852L4.10028 26.6864L3.30616 26.9973L3.50209 27.4961ZM5.751 29.1786L6.83144 30.8033L6.441 31.0626L5.65256 29.8766L4.97959 30.3238L5.66202 31.3499L5.27159 31.6097L4.59057 30.5827L3.86176 31.0673L4.65021 32.2533L4.2593 32.5126L3.17838 30.8884L5.751 29.1786ZM6.35156 32.702C6.4955 32.5455 6.66946 32.4195 6.86307 32.3316C7.05668 32.2438 7.26599 32.1957 7.47854 32.1904C7.6911 32.185 7.90256 32.2225 8.10034 32.3005C8.29812 32.3786 8.47818 32.4956 8.62981 32.6447C8.88433 32.8617 9.0582 33.1582 9.1233 33.4863C9.1884 33.8143 9.14091 34.1548 8.98853 34.4525L8.57254 34.0611C8.64946 33.8763 8.66532 33.6717 8.61782 33.4771C8.57032 33.2826 8.46193 33.1084 8.30847 32.9798C8.08465 32.7945 7.79866 32.7015 7.50869 32.7196C7.21872 32.7378 6.94655 32.8657 6.74757 33.0774C6.54859 33.2891 6.43775 33.5687 6.43759 33.8592C6.43743 34.1497 6.54797 34.4294 6.74673 34.6413C6.8846 34.7865 7.06521 34.8839 7.26226 34.9193C7.45931 34.9547 7.66252 34.9263 7.84231 34.8382L8.2583 35.2296C7.97043 35.4 7.6335 35.4683 7.302 35.4234C6.97051 35.3786 6.66382 35.2233 6.43154 34.9826C6.27365 34.8398 6.14605 34.6668 6.0563 34.4738C5.96655 34.2809 5.91649 34.0718 5.90907 33.8591C5.90166 33.6464 5.93704 33.4343 6.01313 33.2356C6.08923 33.0368 6.20447 32.8553 6.35203 32.702M10.3581 37.7876C10.0821 37.6329 9.85798 37.4002 9.71383 37.1185C9.56967 36.8369 9.51195 36.519 9.54791 36.2047C9.58387 35.8903 9.7119 35.5936 9.91593 35.3519C10.12 35.1101 10.3909 34.934 10.6947 34.8456C10.9985 34.7573 11.3216 34.7607 11.6235 34.8555C11.9253 34.9502 12.1924 35.132 12.3913 35.3781C12.5902 35.6241 12.7119 35.9235 12.7412 36.2385C12.7705 36.5535 12.706 36.8702 12.5559 37.1487C12.4559 37.3372 12.3191 37.5038 12.1536 37.6385C11.988 37.7732 11.7971 37.8733 11.5921 37.9329C11.3872 37.9925 11.1724 38.0103 10.9604 37.9853C10.7484 37.9604 10.5436 37.8931 10.3581 37.7876ZM11.6638 35.374C11.468 35.2571 11.2417 35.2016 11.014 35.2145C10.7864 35.2275 10.5678 35.3082 10.3865 35.4465C10.2051 35.5847 10.0693 35.7741 9.99654 35.9902C9.92376 36.2063 9.91735 36.4392 9.97812 36.659C10.0389 36.8788 10.1641 37.0753 10.3375 37.2233C10.511 37.3714 10.7248 37.4641 10.9514 37.4895C11.178 37.5149 11.407 37.4719 11.609 37.3661C11.8109 37.2602 11.9766 37.0963 12.0846 36.8955C12.159 36.7685 12.2072 36.6278 12.2263 36.4819C12.2454 36.3359 12.2351 36.1876 12.1958 36.0458C12.1566 35.9039 12.0893 35.7713 11.9979 35.6559C11.9066 35.5405 11.7929 35.4447 11.6638 35.374ZM15.5228 38.9158L15.1002 38.8211L14.6742 37.1908L14.21 39.292L13.6998 39.1794L14.3666 36.1624L14.8985 36.2798L15.4234 38.3526L16.7731 36.6962L17.3093 36.815L16.6444 39.8306L16.1342 39.718L16.599 37.6167L15.5228 38.9158ZM20.5071 39.2414L20.075 39.2684L19.2146 37.8193L19.349 39.9669L18.8285 39.9995L18.6373 36.9139L19.181 36.8798L20.2586 38.7255L21.0972 36.7582L21.6453 36.7237L21.8384 39.8074L21.3178 39.8401L21.1834 37.692L20.5071 39.2414ZM22.9742 36.4061L24.8355 35.8221L24.9775 36.2693L23.6187 36.6953L23.8606 37.4662L25.0361 37.0975L25.1781 37.5448L24.0026 37.9134L24.2643 38.7483L25.623 38.3223L25.765 38.7696L23.8994 39.3536L22.9742 36.4061ZM27.5292 38.0119L25.9703 35.3456L26.4171 35.0843L28.8307 36.3266L27.6764 34.3489L28.1232 34.0876L29.6821 36.754L29.2315 37.0176L26.8378 35.806L27.9736 37.7521L27.5292 38.0119ZM31.3626 35.4624L29.2046 33.2557L29.8804 32.5931C30.0219 32.4363 30.194 32.31 30.3861 32.2222C30.5782 32.1344 30.7863 32.0868 30.9975 32.0825C31.2087 32.0781 31.4185 32.117 31.6141 32.1968C31.8097 32.2766 31.9869 32.3956 32.1347 32.5465C32.2826 32.6973 32.398 32.8769 32.4738 33.074C32.5497 33.2712 32.5843 33.4818 32.5757 33.6928C32.5671 33.9039 32.5154 34.111 32.4237 34.3013C32.332 34.4916 32.2024 34.6611 32.0427 34.7994L31.3626 35.4624ZM30.2046 32.9348L29.9097 33.2225L31.4095 34.753L31.7081 34.4644C31.8144 34.3673 31.9001 34.2498 31.9601 34.1189C32.02 33.988 32.053 33.8463 32.057 33.7024C32.061 33.5585 32.036 33.4152 31.9834 33.2812C31.9308 33.1472 31.8518 33.0251 31.751 32.9223C31.6502 32.8194 31.5297 32.738 31.3968 32.6827C31.2638 32.6275 31.1211 32.5996 30.9771 32.6007C30.8331 32.6018 30.6909 32.632 30.5588 32.6893C30.4267 32.7466 30.3075 32.8299 30.2083 32.9343M31.7701 30.4781L32.8236 28.8369L33.2183 29.0901L32.4468 30.2884L33.1279 30.7242L33.7933 29.6878L34.1875 29.9405L33.5221 30.9774L34.258 31.4507L35.027 30.2524L35.4213 30.5056L34.3678 32.1468L31.7701 30.4781ZM36.2854 28.8056L33.3834 27.7455L33.7081 26.8563C33.7677 26.6532 33.8684 26.4644 34.0039 26.3017C34.1394 26.139 34.3068 26.0059 34.4958 25.9105C34.6848 25.8151 34.8913 25.7594 35.1027 25.747C35.314 25.7346 35.5257 25.7657 35.7246 25.8383C35.9234 25.911 36.1053 26.0236 36.2589 26.1694C36.4124 26.3151 36.5345 26.4908 36.6175 26.6855C36.7005 26.8803 36.7427 27.09 36.7414 27.3017C36.7401 27.5134 36.6954 27.7226 36.6101 27.9164L36.2854 28.8056ZM34.1491 27.0229L34.0072 27.4133L36.0199 28.1488L36.1619 27.7588C36.2169 27.6252 36.2443 27.4819 36.2426 27.3375C36.2408 27.1931 36.2099 27.0505 36.1517 26.9183C36.0935 26.7861 36.0092 26.667 35.9038 26.5682C35.7984 26.4694 35.6742 26.3929 35.5385 26.3433C35.4029 26.2937 35.2586 26.272 35.1143 26.2795C34.9701 26.2871 34.8288 26.3237 34.6991 26.3871C34.5693 26.4506 34.4537 26.5396 34.3592 26.6489C34.2647 26.7581 34.1933 26.8853 34.1491 27.0229Z" fill="#1B1B1B"/>
</g>
</g>
<defs>
<clipPath id="clip0_88_1579">
<rect width="38.594" height="40" fill="white"/>
</clipPath>
</defs>
</svg>
