<svg width="40" height="40" viewBox="0 0 40 40" fill="none" xmlns="http://www.w3.org/2000/svg">
<g clip-path="url(#clip0_88_1623)">
<mask id="mask0_88_1623" style="mask-type:luminance" maskUnits="userSpaceOnUse" x="0" y="0" width="40" height="40">
<path d="M39.7707 0H0.242188V40H39.7707V0Z" fill="white"/>
</mask>
<g mask="url(#mask0_88_1623)">
<path d="M31.3078 29.8674L30.7422 29.3723C31.931 28.1364 32.6209 26.5047 32.6792 24.7908C32.7375 23.077 32.16 21.4022 31.0579 20.0884L31.6262 19.5964C31.6693 19.6464 35.8882 24.6351 31.3105 29.8669" fill="#1B1B1B"/>
<path d="M28.4471 34.1795C26.4922 34.1637 24.5986 33.4957 23.0664 32.2815L23.53 31.6901C24.3569 32.3516 25.3085 32.84 26.328 33.1263C27.3476 33.4126 28.4143 33.4909 29.4647 33.3565C30.2357 33.268 30.9812 33.0259 31.6572 32.6446C32.3331 32.2634 32.9259 31.7506 33.4005 31.1366C34.6923 29.336 34.6833 26.6462 33.3774 24.2831L34.0351 23.92C35.481 26.5357 35.4716 29.5401 34.0119 31.5749C33.4781 32.2713 32.8101 32.8537 32.0473 33.2875C31.2845 33.7213 30.4425 33.9978 29.571 34.1005C29.1987 34.1536 28.8231 34.1796 28.4471 34.1795Z" fill="#1B1B1B"/>
<path d="M24.2839 32.0436L24.207 31.2959C25.1015 31.2044 25.8271 30.7114 26.7937 29.5385C27.154 29.0687 27.3952 28.5186 27.4967 27.9353C27.6099 27.424 27.7813 26.9273 28.0076 26.4551C28.5938 25.2902 29.4967 24.3299 32.0013 23.4317L32.2549 24.1389C29.7293 25.0439 29.1047 25.9458 28.6769 26.7924C28.4753 27.2161 28.3229 27.6615 28.2228 28.1199C28.0946 28.8115 27.8019 29.4621 27.3694 30.0168C26.5701 30.9871 25.6419 31.9037 24.2796 32.0436" fill="#1B1B1B"/>
<path d="M18.4053 34.3347C18.3396 34.3299 11.8281 33.7853 11.3672 26.8482L12.117 26.7956C12.1502 28.5103 12.8164 30.1521 13.9873 31.4051C15.1581 32.6582 16.7511 33.434 18.4595 33.5833L18.4053 34.3347Z" fill="#1B1B1B"/>
<path d="M13.6446 32.9845C10.7728 32.1578 8.65438 30.0268 8.24817 27.5554C8.13302 26.6857 8.19345 25.8017 8.42591 24.9558C8.65836 24.1098 9.05811 23.3191 9.6015 22.6303C10.31 21.7112 11.1963 20.9441 12.2074 20.3746C13.2186 19.8051 14.334 19.4449 15.4873 19.3154L15.5773 20.0615C14.5247 20.1787 13.5065 20.5063 12.5831 21.025C11.6597 21.5437 10.8501 22.2428 10.2024 23.0808C9.72011 23.6886 9.36453 24.3869 9.15667 25.1345C8.94881 25.8821 8.89288 26.6637 8.99219 27.4333C9.35104 29.6196 11.2595 31.5154 13.8541 32.2625L13.6446 32.9845Z" fill="#1B1B1B"/>
<path d="M15.4252 31.8895L14.7459 31.5685C15.8904 29.1434 15.6957 28.0631 15.3979 27.1639C15.241 26.7207 15.0337 26.297 14.7801 25.9011C14.3822 25.3217 14.1295 24.655 14.0435 23.9574C13.923 22.7056 13.9309 21.4012 14.7949 20.3389L15.3773 20.8124C14.8101 21.5096 14.6454 22.3715 14.7912 23.8843C14.8682 24.4713 15.0863 25.031 15.4268 25.5154C15.7079 25.9572 15.9374 26.4298 16.1108 26.924C16.5207 28.1615 16.5612 29.4786 15.4268 31.8853" fill="#1B1B1B"/>
<path d="M14.812 16.3246L14.0938 16.1036C14.1132 16.0405 16.1116 9.82003 22.9714 10.9297L22.8514 11.6717C21.1734 11.3179 19.4237 11.5974 17.9394 12.4565C16.4551 13.3155 15.3412 14.6934 14.812 16.3246Z" fill="#1B1B1B"/>
<path d="M29.3839 16.6398L28.6373 16.5599C28.7599 15.5079 28.6697 14.4421 28.3722 13.4257C28.0746 12.4094 27.5757 11.4632 26.9051 10.6435C26.4214 10.0366 25.8211 9.53269 25.1395 9.16154C24.4579 8.79039 23.7089 8.5595 22.9367 8.48252C20.7236 8.34624 18.4494 9.77376 17.1377 12.1342L16.4805 11.769C17.9327 9.15655 20.4868 7.56855 22.9845 7.73324C23.858 7.81657 24.7059 8.07428 25.478 8.49111C26.2501 8.90794 26.9308 9.47542 27.4797 10.16C28.2155 11.0572 28.7634 12.0933 29.0906 13.2066C29.4179 14.3199 29.5178 15.4877 29.3844 16.6404" fill="#1B1B1B"/>
<path d="M27.9488 16.1952C27.3968 15.4849 26.5944 15.1307 25.0874 14.9324C24.4979 14.8757 23.9035 14.9623 23.3547 15.1849C22.8611 15.3597 22.3491 15.4775 21.8288 15.5359C20.5307 15.6559 19.2374 15.3986 17.1484 13.7511L17.6136 13.1613C19.7183 14.8219 20.8143 14.8755 21.7593 14.7877C22.226 14.7341 22.685 14.6273 23.1274 14.4693C23.7814 14.2113 24.4881 14.1147 25.1874 14.1878C26.4334 14.352 27.703 14.6524 28.5444 15.7343L27.9488 16.1952Z" fill="#1B1B1B"/>
<path d="M30.7247 40H9.28879C6.89031 39.9974 4.59081 39.0434 2.89482 37.3474C1.19884 35.6514 0.24487 33.3519 0.242224 30.9534V28.8398C0.236277 26.9477 0.951234 25.1244 2.2417 23.7406L2.43586 23.5343C3.1324 22.8321 3.96143 22.2752 4.87488 21.8958C5.78832 21.5164 6.768 21.3222 7.75709 21.3244H11.3446C13.5429 21.3212 15.6502 20.4465 17.2046 18.892C18.7589 17.3375 19.6335 15.2301 19.6366 13.0318V7.51276C19.6392 5.76999 20.2458 4.08199 21.353 2.73612L21.555 2.50776C22.2587 1.71964 23.1207 1.08889 24.0848 0.656755C25.0489 0.224619 26.0934 0.000823858 27.1499 0L30.7247 0C33.1216 0.000971839 35.4203 0.952741 37.1163 2.64647C38.8123 4.34021 39.7671 6.63756 39.7713 9.03446V30.965C39.7673 33.362 38.8125 35.6595 37.1165 37.3533C35.4204 39.0472 33.1217 39.999 30.7247 40ZM7.75498 22.0784C6.86662 22.0757 5.98654 22.2493 5.16572 22.5891C4.3449 22.9289 3.59964 23.4281 2.97308 24.0579L2.78787 24.2552C1.62904 25.4999 0.987509 27.1391 0.993605 28.8398V30.9529C0.995973 33.1522 1.87069 35.2607 3.42582 36.8159C4.98096 38.371 7.0895 39.2457 9.28879 39.2481H30.7247C32.9227 39.2477 35.0307 38.3753 36.5861 36.8224C38.1416 35.2695 39.0174 33.1629 39.0215 30.965V9.03446C39.0174 6.83653 38.1416 4.72997 36.5861 3.17707C35.0307 1.62417 32.9227 0.751796 30.7247 0.751381H27.1499C26.1996 0.751804 25.2601 0.952698 24.3928 1.34094C23.5255 1.72918 22.7498 2.29604 22.1165 3.00447L21.9239 3.22178C20.9319 4.4319 20.3894 5.94805 20.3885 7.51276V13.0318C20.3857 15.4298 19.4321 17.7288 17.7367 19.4247C16.0413 21.1206 13.7426 22.0749 11.3446 22.0784H7.75498Z" fill="#1B1B1B"/>
<path d="M21.6431 2.97235C20.5877 4.25013 20.0108 5.85596 20.012 7.51326V13.0318C20.0129 14.1707 19.7893 15.2986 19.354 16.351C18.9187 17.4034 18.2801 18.3596 17.4749 19.165C16.6696 19.9704 15.7135 20.6091 14.6612 21.0447C13.6089 21.4802 12.481 21.704 11.3421 21.7032H7.75518C6.81764 21.7019 5.88907 21.8857 5.02277 22.2442C4.15647 22.6027 3.3695 23.1287 2.70703 23.7921L21.6431 2.97235Z" fill="#1B1B1B"/>
<path d="M2.80353 23.8869L2.60938 23.7017L21.5449 2.8819L21.748 3.05711C20.7155 4.31237 20.1501 5.88687 20.1484 7.51226V13.0329C20.1455 15.3672 19.2169 17.605 17.5662 19.2554C15.9155 20.9059 13.6776 21.8343 11.3434 21.8369H7.75644C6.83617 21.8343 5.92452 22.0143 5.07433 22.3666C4.22414 22.7188 3.4523 23.2363 2.80353 23.889M20.6409 4.27469L3.92271 22.6562C5.07352 21.9417 6.40189 21.5648 7.75644 21.5686H11.3434C13.6064 21.5659 15.776 20.6658 17.3763 19.0656C18.9765 17.4655 19.8768 15.2959 19.8796 13.0329V7.51278C19.8805 6.38848 20.1416 5.27965 20.6425 4.27311" fill="#1B1B1B"/>
</g>
</g>
<defs>
<clipPath id="clip0_88_1623">
<rect width="39.5285" height="40" fill="white" transform="translate(0.242188)"/>
</clipPath>
</defs>
</svg>
