<svg width="48" height="40" viewBox="0 0 48 40" fill="none" xmlns="http://www.w3.org/2000/svg">
<g clip-path="url(#clip0_88_1587)">
<path d="M4.86997 33.3819L5.87799 35.1538L7.3664 34.3063L7.58001 34.6833L4.36399 36.5148L4.1484 36.1377L5.54526 35.3438L4.53724 33.5719L3.14038 34.3668L2.92578 33.9908L6.14328 32.1598L6.35788 32.5368L4.86997 33.3819Z" fill="#1B1B1B"/>
<path d="M2.01468 31.8059L1.33594 29.7091L1.70213 29.591L2.24749 31.2758L3.40809 30.8997L2.93066 29.4231L3.29735 29.3045L3.77429 30.7811L5.03727 30.3726L4.49142 28.6883L4.85811 28.5692L5.53685 30.6664L2.01468 31.8059Z" fill="#1B1B1B"/>
<mask id="mask0_88_1587" style="mask-type:luminance" maskUnits="userSpaceOnUse" x="0" y="0" width="48" height="40">
<path d="M47.6996 0H0.59375V40H47.6996V0Z" fill="white"/>
</mask>
<g mask="url(#mask0_88_1587)">
<path d="M2.34852 26.3125C2.3402 26.1053 2.26016 25.9075 2.12211 25.7528C2.05645 25.6979 1.97931 25.6583 1.89636 25.637C1.8134 25.6157 1.72674 25.6132 1.64271 25.6298C1.55708 25.6345 1.47361 25.6584 1.39846 25.6997C1.32332 25.741 1.25843 25.7987 1.20859 25.8685C1.11282 26.0523 1.08426 26.2639 1.12787 26.4665L1.2204 27.1984L2.44155 27.0449L2.34852 26.3125ZM2.74819 26.402L2.823 26.9971L4.5142 26.7835L4.56883 27.2127L0.895552 27.6763L0.747893 26.5295C0.724661 26.3633 0.724661 26.1947 0.747893 26.0285C0.767532 25.8859 0.815387 25.7487 0.888662 25.6249C0.958534 25.5101 1.05406 25.413 1.16774 25.3414C1.29513 25.2637 1.43822 25.2155 1.5866 25.2001C1.70412 25.1787 1.82471 25.1807 1.94144 25.206C2.05818 25.2314 2.16875 25.2795 2.26682 25.3478C2.45821 25.4971 2.5963 25.7043 2.66058 25.9384L4.23315 24.5912L4.29468 25.0795L2.74819 26.402Z" fill="#1B1B1B"/>
<path d="M4.41298 21.7754C4.39331 22.0266 4.3221 22.271 4.2038 22.4935C4.09064 22.7077 3.93703 22.8979 3.75146 23.0536C3.3581 23.3774 2.85249 23.5323 2.34525 23.4843C2.08627 23.4646 1.83387 23.3931 1.60302 23.2741C1.38558 23.1614 1.1919 23.0078 1.03256 22.8218C0.873118 22.6334 0.752896 22.415 0.678942 22.1796C0.604988 21.9441 0.57879 21.6962 0.601885 21.4505C0.617042 21.2621 0.659486 21.0769 0.727888 20.9007C0.795161 20.7289 0.887732 20.5682 1.00254 20.4238C1.11671 20.2819 1.25399 20.1602 1.4086 20.064C1.56978 19.9649 1.7478 19.8964 1.93378 19.8617L1.89341 20.3362C1.76251 20.3621 1.63836 20.4147 1.5287 20.4907C1.42173 20.5639 1.32788 20.6546 1.2511 20.759C1.17383 20.8644 1.11232 20.9804 1.06849 21.1035C1.0245 21.2261 0.996544 21.3538 0.985308 21.4835C0.968472 21.6722 0.990414 21.8623 1.04979 22.0421C1.10908 22.2194 1.20293 22.3832 1.32591 22.524C1.45411 22.6683 1.6082 22.7873 1.78021 22.8749C1.96855 22.9691 2.1736 23.0253 2.38364 23.0403C2.59325 23.0606 2.80479 23.0395 3.00628 22.9783C3.19219 22.923 3.36556 22.8321 3.51669 22.7105C3.66317 22.5923 3.78408 22.4455 3.87207 22.279C3.96007 22.1126 4.01331 21.93 4.02857 21.7424C4.04021 21.6127 4.03442 21.4821 4.01135 21.354C3.98869 21.2255 3.9474 21.101 3.88879 20.9844C3.83106 20.8682 3.754 20.7627 3.6609 20.6723C3.56547 20.5788 3.4519 20.5058 3.32719 20.4577L3.36755 19.9833C3.54475 20.0491 3.7084 20.1469 3.8504 20.2717C3.98681 20.3924 4.10151 20.5355 4.18952 20.695C4.27832 20.856 4.34221 21.0296 4.37902 21.2098C4.41713 21.3958 4.42857 21.5862 4.41298 21.7754Z" fill="#1B1B1B"/>
<path d="M4.9095 17.4071C4.9623 17.2765 4.9846 17.1356 4.9747 16.9951C4.96481 16.8547 4.92298 16.7183 4.8524 16.5964C4.67215 16.3473 4.40986 16.1697 4.11164 16.0949L1.99765 15.4161L2.12956 15.0032L4.30508 15.7016C4.50554 15.7632 4.69422 15.858 4.86323 15.9822C5.01129 16.0917 5.13415 16.2316 5.22352 16.3927C5.31008 16.553 5.35905 16.7309 5.36675 16.9129C5.3751 17.3304 5.24418 17.7387 4.99465 18.0735C4.88281 18.2175 4.73954 18.334 4.57579 18.4141C4.40965 18.4935 4.22833 18.5362 4.04421 18.5391C3.83391 18.5414 3.62473 18.5081 3.42552 18.4407L1.25 17.7432L1.3824 17.3318L3.49886 18.01C3.78522 18.1224 4.10199 18.1304 4.39367 18.0327C4.52178 17.9745 4.63498 17.8879 4.72469 17.7796C4.8144 17.6712 4.87827 17.5438 4.91147 17.4071" fill="#1B1B1B"/>
<path d="M3.09375 12.9222L3.30441 12.5422L6.20494 14.1502L7.02691 12.6677L7.36357 12.8542L6.32996 14.7167L3.09375 12.9222Z" fill="#1B1B1B"/>
<path d="M6.35281 8.87879L7.26584 10.4612L8.07501 9.48567L6.35281 8.87879ZM7.77428 12.1962L5.82812 8.74147L6.12344 8.38708L9.87646 9.65597L9.58114 10.0104L8.4609 9.6166L7.47059 10.8112L8.06615 11.8408L7.77428 12.1962Z" fill="#1B1B1B"/>
<path d="M10.7599 8.83348L8.46875 5.92507L8.81772 5.65043L12.1829 6.82727L10.3229 4.46472L10.663 4.19647L12.9537 7.10487L12.6047 7.37952L9.23707 6.19824L11.1005 8.56424L10.7599 8.83348Z" fill="#1B1B1B"/>
<path d="M12.668 2.96893L14.6368 1.98059L14.81 2.32513L13.2286 3.11954L13.7749 4.20927L15.1614 3.51379L15.3347 3.85833L13.9482 4.5543L14.5432 5.74L16.1262 4.9451L16.2989 5.28964L14.3301 6.27847L12.668 2.96893Z" fill="#1B1B1B"/>
<path d="M18.418 0.680222L18.4879 1.05872L19.6514 0.843139L20.2598 4.10346L20.6865 4.02422L20.0772 0.762911L21.2407 0.546836L21.1694 0.168335L18.418 0.680222Z" fill="#1B1B1B"/>
<path d="M23.1035 0.000488281L23.0391 3.70231L23.4722 3.7097L23.5022 1.99783L25.5409 2.03376L25.5079 3.74661L25.9406 3.75301L26.009 0.0497082L25.5754 0.044294L25.5473 1.64886L23.5086 1.61342L23.5391 0.00787126L23.1035 0.000488281Z" fill="#1B1B1B"/>
<path d="M27.5234 3.98976L29.6739 4.47113L29.7605 4.09459L28.0324 3.70871L28.3228 2.41324L29.8363 2.75188L29.92 2.37584L28.4064 2.0377L28.6737 0.846576L30.4018 1.23394L30.486 0.858388L28.3331 0.376526L27.5234 3.98976Z" fill="#1B1B1B"/>
<path d="M32.9097 3.46406C33.0922 3.56318 33.3037 3.59506 33.5072 3.55413C33.588 3.52601 33.6614 3.47995 33.7218 3.41943C33.7822 3.35891 33.8282 3.28549 33.8562 3.20467C33.8958 3.12917 33.9179 3.04573 33.9209 2.96053C33.9239 2.87534 33.9076 2.79056 33.8734 2.71247C33.7643 2.53616 33.597 2.40351 33.4004 2.33742L32.7236 2.0421L32.2314 3.17071L32.9097 3.46406ZM32.6291 3.76233L32.0799 3.52362L31.4011 5.08389L31.0039 4.91112L32.4805 1.51495L33.5397 1.97565C33.6946 2.04069 33.8396 2.12718 33.9704 2.23258C34.083 2.32211 34.1765 2.43322 34.2455 2.5594C34.3087 2.67811 34.3434 2.80988 34.3469 2.9443C34.3489 3.09357 34.3175 3.2414 34.2549 3.37694C34.2131 3.48879 34.1497 3.5913 34.0683 3.67863C33.9869 3.76595 33.889 3.83638 33.7804 3.88587C33.5544 3.97417 33.3061 3.98796 33.0716 3.92525L33.429 5.96443L32.9761 5.76755L32.6291 3.76233Z" fill="#1B1B1B"/>
<path d="M36.4638 7.25057L36.102 6.98282L36.5243 4.5671L34.8612 6.81694L34.5117 6.55952L36.7128 3.58221L37.0707 3.84653L36.544 6.7628L39.1783 5.40335L39.5361 5.66766L37.3315 8.64497L36.987 8.38755L38.6501 6.13771L36.4638 7.25057Z" fill="#1B1B1B"/>
<path d="M41.6988 8.62625L39.984 9.2543L40.808 10.219L41.6988 8.62625ZM38.1875 9.45708L41.9243 8.13159L42.223 8.48154L40.3276 11.9639L40.0283 11.6129L40.6076 10.5793L39.6001 9.39802L38.4868 9.80654L38.1875 9.45708Z" fill="#1B1B1B"/>
<path d="M44.1799 11.1586L44.395 11.5357L41.5141 13.1811L42.3563 14.6577L42.0216 14.8482L40.9648 12.999L44.1799 11.1586Z" fill="#1B1B1B"/>
<path d="M46.7672 16.6791L46.8543 17.0985L44.0675 18.36L46.936 18.6228L47.0232 19.0422L44.4957 20.4228L47.5542 20.472L47.6418 20.8909L43.8421 20.8047L43.7584 20.4026L46.3872 18.9546L43.3996 18.6735L43.3164 18.2699L46.7672 16.6791Z" fill="#1B1B1B"/>
<path d="M47.205 24.0237L45.5044 23.3558L45.4818 24.6232L47.205 24.0237ZM44.0254 22.3168L47.7011 23.8022L47.6928 24.2629L43.9648 25.6125L43.9737 25.1518L45.0939 24.7581L45.122 23.2116L44.0175 22.7794L44.0254 22.3168Z" fill="#1B1B1B"/>
<path d="M46.6149 29.431L46.8408 28.2689L43.5859 27.6355L43.6691 27.2107L46.925 27.8476L47.1514 26.686L47.5294 26.7608L46.9934 29.5058L46.6149 29.431Z" fill="#1B1B1B"/>
<path d="M46.4347 31.2925L45.629 33.3445L45.2707 33.2037L45.9179 31.5544L44.7824 31.1114L44.2159 32.5535L43.8576 32.4127L44.4241 30.9677L43.1896 30.4814L42.5419 32.1287L42.1836 31.9885L42.9893 29.9399L46.4347 31.2925Z" fill="#1B1B1B"/>
<path d="M42.6799 35.3394C42.555 35.5047 42.4913 35.7082 42.4998 35.9153C42.543 36.0806 42.6473 36.2233 42.7916 36.3147C42.936 36.406 43.1096 36.4392 43.2775 36.4075C43.468 36.3257 43.6245 36.1807 43.7204 35.997L44.1142 35.3734L43.0742 34.7138L42.6799 35.3394ZM42.4304 35.0155L42.7513 34.5086L41.3141 33.599L41.5449 33.2328L44.6738 35.2119L44.0547 36.1904C43.966 36.3332 43.858 36.4631 43.7337 36.5763C43.6282 36.6737 43.5042 36.749 43.369 36.7978C43.2427 36.8417 43.1079 36.8555 42.9753 36.8381C42.8276 36.8174 42.6864 36.7641 42.5618 36.6821C42.4577 36.6235 42.3663 36.545 42.2926 36.451C42.219 36.357 42.1646 36.2494 42.1326 36.1343C42.0797 35.8976 42.1042 35.6502 42.2025 35.4285L40.1328 35.4679L40.3961 35.051L42.4304 35.0155Z" fill="#1B1B1B"/>
<path d="M35.7229 11.9944C34.2034 10.4701 32.3983 9.26033 30.4109 8.43435C28.4235 7.60836 26.2927 7.18234 24.1404 7.18066H24.1212C21.6499 7.18421 19.2113 7.74574 16.9873 8.82338C14.7633 9.90101 12.8113 11.4669 11.277 13.4043C9.74271 15.3416 8.66567 17.6005 8.12625 20.0122C7.58683 22.4239 7.59895 24.9264 8.16171 27.3328V27.409H8.1809C9.04263 30.9905 11.0825 34.1787 13.9731 36.462C16.8637 38.7454 20.4376 39.9915 24.1212 40.0005H24.1404C27.8241 39.9915 31.398 38.7454 34.2886 36.462C37.1792 34.1787 39.2191 30.9905 40.0808 27.409H40.0921V27.3328C40.734 24.6158 40.6694 21.7796 39.9046 19.0947C39.1398 16.4097 37.7001 13.9653 35.7229 11.9944ZM24.1212 8.04989H24.1404C27.603 8.05925 30.9636 9.22257 33.6908 11.3559C36.4181 13.4892 38.3564 16.4708 39.1993 19.8292C33.9091 19.4295 32.5324 15.5963 32.5201 15.5603L32.1077 14.349L31.6952 15.5603C31.3476 16.4062 30.8144 17.1632 30.1349 17.7752C28.9994 18.8281 27.1281 19.8622 24.1404 19.8686H24.1212C18.1332 19.8558 16.63 15.7341 16.5665 15.5613L16.154 14.35L15.7416 15.5613C15.7288 15.5992 14.3526 19.4305 9.06243 19.8302C9.90509 16.4716 11.8433 13.4898 14.5706 11.3563C17.2979 9.22277 20.6586 8.05931 24.1212 8.04989ZM24.1404 39.1313H24.1212C21.814 39.1287 19.5365 38.6114 17.4545 37.6173C15.3725 36.6231 13.5384 35.177 12.086 33.3843C13.7849 32.7633 15.2198 31.5791 16.1521 30.029C16.5059 30.624 16.9391 31.1681 17.4397 31.6464C18.5816 32.7499 20.6685 34.0695 24.1188 34.0695H24.138C27.5834 34.0695 29.6757 32.7499 30.8171 31.6464C31.3135 31.1664 31.7439 30.6225 32.0968 30.029C33.0319 31.5792 34.4689 32.7631 36.1693 33.3843C34.717 35.1756 32.884 36.6208 30.8032 37.6149C28.7225 38.609 26.4464 39.127 24.1404 39.1313ZM36.725 32.6667C35.793 32.3767 34.9348 31.8888 34.2089 31.2363C33.4831 30.5837 32.9068 29.7821 32.5196 28.8861L32.1008 27.6871L31.6947 28.8861C31.3497 29.735 30.8162 30.4942 30.1344 31.1064C28.9989 32.1593 27.1276 33.1934 24.14 33.1998H24.1208C18.1327 33.187 16.6295 29.0653 16.566 28.8866L16.1599 27.6876L15.7411 28.8866C15.3539 29.7824 14.7777 30.584 14.0519 31.2364C13.3262 31.8888 12.468 32.3767 11.5362 32.6667C10.385 31.0765 9.54758 29.2814 9.06883 27.3775C13.3633 27.0729 15.369 24.6626 16.1476 23.3494C16.4997 23.9513 16.9353 24.5001 17.4416 24.9796C18.5835 26.0831 20.6704 27.4026 24.1208 27.409H24.14C27.5853 27.4026 29.6777 26.0836 30.8191 24.9796C31.3237 24.5002 31.7572 23.9513 32.1067 23.3494C32.8868 24.6626 34.8915 27.0729 39.1943 27.3775C38.7095 29.2796 37.8719 31.0738 36.725 32.6667ZM39.3829 26.5009C33.9406 26.1776 32.5324 22.2636 32.5196 22.2257L32.1072 21.0144L31.6947 22.2257C31.3489 23.0725 30.8154 23.8298 30.1344 24.4406C28.9989 25.4998 27.1276 26.5211 24.14 26.5339H24.1208C18.1327 26.5211 16.6295 22.3994 16.566 22.2267L16.1535 21.0154L15.7411 22.2267C15.7283 22.2646 14.3137 26.1786 8.87785 26.5019C8.50787 24.5916 8.5057 22.6282 8.87146 20.7171C13.3012 20.4759 15.3542 18.0149 16.1471 16.6811C16.4992 17.2829 16.9349 17.8318 17.4411 18.3112C18.583 19.4148 20.6763 20.7343 24.1203 20.7407H24.1395C27.5849 20.7343 29.6772 19.4152 30.8186 18.3112C31.3232 17.8319 31.7567 17.283 32.1062 16.6811C32.8991 18.013 34.9541 20.4745 39.3883 20.7171C39.5694 21.6642 39.6607 22.6263 39.6609 23.5906C39.6585 24.5676 39.5651 25.5422 39.3819 26.5019" fill="#1B1B1B"/>
</g>
</g>
<defs>
<clipPath id="clip0_88_1587">
<rect width="47.1059" height="40" fill="white" transform="translate(0.59375)"/>
</clipPath>
</defs>
</svg>
