<svg width="27" height="18" viewBox="0 0 27 18" fill="none" xmlns="http://www.w3.org/2000/svg">
<path d="M17.2135 2.625H10.1167V15.3751H17.2135V2.625Z" fill="#FF5A00"/>
<path d="M10.589 8.99999C10.589 6.40956 11.8068 4.11046 13.6755 2.62496C12.3002 1.54365 10.5654 0.890137 8.67309 0.890137C4.19036 0.890137 0.563232 4.51726 0.563232 8.99999C0.563232 13.4827 4.19036 17.1098 8.67309 17.1098C10.5654 17.1098 12.3002 16.4563 13.6755 15.375C11.8042 13.9105 10.589 11.5904 10.589 8.99999Z" fill="#EB001B"/>
<path d="M26.787 8.99999C26.787 13.4827 23.1599 17.1098 18.6772 17.1098C16.7849 17.1098 15.0501 16.4563 13.6748 15.375C15.5671 13.8869 16.7613 11.5904 16.7613 8.99999C16.7613 6.40956 15.5435 4.11046 13.6748 2.62496C15.0474 1.54365 16.7823 0.890137 18.6746 0.890137C23.1599 0.890137 26.787 4.54088 26.787 8.99999Z" fill="#F79E1B"/>
</svg>
