<svg width="37" height="12" viewBox="0 0 37 12" fill="none" xmlns="http://www.w3.org/2000/svg">
<path d="M24.0934 0.012207C21.4689 0.012207 19.1235 1.37254 19.1235 3.88587C19.1235 6.76818 23.2831 6.96726 23.2831 8.41525C23.2831 9.02494 22.5844 9.57071 21.3911 9.57071C19.6975 9.57071 18.4317 8.80811 18.4317 8.80811L17.8901 11.3443C17.8901 11.3443 19.3482 11.9885 21.2842 11.9885C24.1536 11.9885 26.4115 10.5614 26.4115 8.00507C26.4115 4.95939 22.2346 4.76622 22.2346 3.42224C22.2346 2.94464 22.8081 2.42133 23.9981 2.42133C25.3407 2.42133 26.4361 2.97595 26.4361 2.97595L26.9662 0.526385C26.9662 0.526385 25.7743 0.012207 24.0934 0.012207ZM0.0816164 0.19708L0.0180664 0.566826C0.0180664 0.566826 1.12221 0.768901 2.11666 1.17199C3.39711 1.63422 3.48832 1.90331 3.70397 2.73908L6.05387 11.7978H9.20393L14.0568 0.19708H10.914L7.79572 8.0845L6.52328 1.39875C6.40658 0.633574 5.81549 0.19708 5.09196 0.19708H0.0816164ZM15.3206 0.19708L12.8552 11.7978H15.8521L18.3089 0.19708H15.3206ZM32.0357 0.19708C31.313 0.19708 30.9301 0.583987 30.6492 1.2601L26.2584 11.7978H29.4013L30.0093 10.0416H33.8382L34.208 11.7978H36.9811L34.5618 0.19708H32.0357ZM32.4445 3.33125L33.376 7.68443H30.8803L32.4445 3.33125Z" fill="#1434CB"/>
</svg>
