<svg width="42" height="17" viewBox="0 0 42 17" fill="none" xmlns="http://www.w3.org/2000/svg">
<path d="M8.52515 3.93585C9.64742 3.93585 10.5071 4.36983 11.1042 5.23779L11.0378 5.27926C10.9936 5.31243 10.9466 5.34836 10.8968 5.38706C10.8471 5.42023 10.7835 5.46999 10.7061 5.53633C10.6342 5.59714 10.5624 5.66901 10.4905 5.75194C10.4186 5.82933 10.3412 5.91779 10.2583 6.0173C10.1809 6.11128 10.109 6.22185 10.0427 6.34901C9.98189 6.47063 9.92384 6.60055 9.86856 6.73876C9.8188 6.87144 9.77734 7.02347 9.74417 7.19485C9.71653 7.36624 9.7027 7.54038 9.7027 7.71729C9.7027 8.08217 9.76352 8.42216 9.88514 8.73728C10.0068 9.04688 10.145 9.29566 10.2998 9.48362C10.4546 9.67159 10.626 9.83744 10.8139 9.98118C11.0019 10.1249 11.1429 10.2217 11.2368 10.2714C11.3364 10.3212 11.4055 10.3516 11.4442 10.3626C11.4331 10.4069 11.3999 10.5036 11.3446 10.6529C11.2949 10.8022 11.1954 11.0316 11.0461 11.3412C10.9024 11.6508 10.7393 11.9438 10.5568 12.2202C10.3799 12.4745 10.2334 12.6763 10.1173 12.8256C10.0012 12.9693 9.85474 13.1296 9.67783 13.3065C9.50092 13.4834 9.31572 13.6134 9.12222 13.6963C8.93425 13.7792 8.73523 13.8207 8.52515 13.8207C8.23767 13.8207 7.89767 13.735 7.50516 13.5636C7.11264 13.3922 6.74223 13.3065 6.39394 13.3065C6.04012 13.3065 5.65313 13.395 5.23297 13.5719C4.81281 13.7488 4.47834 13.8373 4.22957 13.8373C3.86469 13.8373 3.53298 13.7018 3.23445 13.4309C2.94144 13.16 2.59868 12.7454 2.20616 12.187C1.80812 11.6176 1.47917 10.9431 1.21934 10.1636C0.965031 9.37858 0.837877 8.60737 0.837877 7.84997C0.837877 7.24185 0.93186 6.68624 1.11983 6.18315C1.30779 5.68007 1.55657 5.27096 1.86616 4.95584C2.17576 4.64072 2.52405 4.39747 2.91104 4.22609C3.29803 4.05471 3.69884 3.96902 4.11347 3.96902C4.42306 3.96902 4.81281 4.063 5.28273 4.25097C5.75817 4.43894 6.07329 4.53292 6.22809 4.53292C6.36077 4.53292 6.68419 4.43341 7.19833 4.23438C7.71247 4.03536 8.15475 3.93585 8.52515 3.93585ZM8.06906 2.8661C7.84792 3.13146 7.56873 3.3526 7.2315 3.52951C6.89979 3.70642 6.58744 3.79487 6.29443 3.79487C6.23362 3.79487 6.17557 3.78935 6.12029 3.77829C6.1037 3.71195 6.09541 3.63179 6.09541 3.5378C6.09541 3.22268 6.16451 2.90756 6.30272 2.59244C6.44093 2.27732 6.60955 2.00366 6.80858 1.77147C7.0463 1.49505 7.34207 1.26562 7.69589 1.08318C8.05523 0.895215 8.398 0.795704 8.72417 0.784647C8.74076 0.856516 8.74905 0.942207 8.74905 1.04172C8.74905 1.6996 8.52239 2.30773 8.06906 2.8661ZM14.7039 1.72171H19.5302C20.7243 1.72171 21.6918 2.09488 22.4326 2.84122C23.1789 3.58756 23.5521 4.56332 23.5521 5.76852C23.5521 6.9516 23.1679 7.91355 22.3994 8.65436C21.6365 9.39517 20.6497 9.76557 19.439 9.76557H16.8434V13.688H14.7039V1.72171ZM16.8434 3.51292V7.99095H18.958C19.7264 7.99095 20.3207 7.79745 20.7409 7.41046C21.1666 7.02347 21.3794 6.47616 21.3794 5.76852C21.3794 5.03877 21.1693 4.4804 20.7492 4.09341C20.3346 3.70642 19.7403 3.51292 18.9663 3.51292H16.8434ZM27.5664 12.2202C28.1856 12.2202 28.7025 12.0433 29.1172 11.6895C29.5318 11.3301 29.7391 10.8878 29.7391 10.3626V9.64118L27.6908 9.77386C26.563 9.84573 25.9991 10.2548 25.9991 11.0012C25.9991 11.3771 26.1429 11.6756 26.4303 11.8968C26.7233 12.1124 27.102 12.2202 27.5664 12.2202ZM26.9611 13.8373C26.0765 13.8373 25.3551 13.5885 24.7967 13.0909C24.2383 12.5934 23.9591 11.9355 23.9591 11.1173C23.9591 10.2991 24.2549 9.65777 24.8464 9.19338C25.4435 8.72899 26.2949 8.46363 27.4006 8.39729L29.7391 8.25631V7.49339C29.7391 7.04559 29.5926 6.70282 29.2996 6.4651C29.0066 6.22738 28.5837 6.10852 28.0308 6.10852C27.5554 6.10852 27.1629 6.19145 26.8533 6.3573C26.5437 6.51762 26.3419 6.74982 26.2479 7.05388H24.3074C24.3904 6.25226 24.7773 5.61649 25.4684 5.14657C26.165 4.67113 27.0523 4.43341 28.1303 4.43341C29.2913 4.43341 30.1869 4.70154 30.8171 5.23779C31.4529 5.77405 31.7708 6.52592 31.7708 7.49339V13.688H29.7889V12.4441H29.6479C29.3936 12.8808 29.0287 13.2236 28.5533 13.4724C28.0833 13.7156 27.5526 13.8373 26.9611 13.8373ZM34.0603 16.9802C33.6346 16.9802 33.3637 16.9691 33.2476 16.947V15.2636C33.3526 15.2857 33.5406 15.2968 33.8115 15.2968C34.2482 15.2968 34.5937 15.2055 34.8481 15.0231C35.1079 14.8407 35.3041 14.5421 35.4368 14.1275L35.5446 13.7295L32.3022 4.61584H34.5578L36.6807 11.6978H36.8217L38.9363 4.61584H41.109L37.8334 13.9782C37.4519 15.1005 36.982 15.88 36.4237 16.3168C35.8708 16.759 35.083 16.9802 34.0603 16.9802Z" fill="black"/>
</svg>
