<svg width="46" height="18" viewBox="0 0 46 18" fill="none" xmlns="http://www.w3.org/2000/svg">
<path d="M21.7502 8.75825V13.9832H20.0808V1.08057H24.5064C25.6281 1.08057 26.5845 1.45193 27.367 2.19465C28.1669 2.93737 28.5669 3.84419 28.5669 4.91509C28.5669 6.0119 28.1669 6.91871 27.367 7.6528C26.5932 8.38688 25.6368 8.74961 24.5064 8.74961H21.7502V8.75825ZM21.7502 2.66965V7.16916H24.5412C25.202 7.16916 25.7585 6.94462 26.1932 6.50417C26.6367 6.06372 26.8627 5.52826 26.8627 4.92372C26.8627 4.32782 26.6367 3.80101 26.1932 3.36055C25.7585 2.90283 25.2107 2.67828 24.5412 2.67828H21.7502V2.66965Z" fill="#5F6368"/>
<path d="M32.9323 4.86328C34.167 4.86328 35.1408 5.19146 35.8538 5.84782C36.5667 6.50418 36.9232 7.40236 36.9232 8.54235V13.9832H35.3321V12.7569H35.2625C34.5756 13.7673 33.654 14.2682 32.5063 14.2682C31.5238 14.2682 30.7065 13.9832 30.0457 13.4046C29.3848 12.826 29.0544 12.1091 29.0544 11.2455C29.0544 10.3301 29.4022 9.60461 30.0978 9.06916C30.7934 8.52508 31.7237 8.25735 32.8801 8.25735C33.8714 8.25735 34.6887 8.43871 35.3234 8.80144V8.42144C35.3234 7.84281 35.0973 7.35917 34.6365 6.95327C34.1757 6.54736 33.6366 6.34873 33.0193 6.34873C32.0889 6.34873 31.3499 6.73736 30.8108 7.52326L29.3414 6.60781C30.15 5.44191 31.3499 4.86328 32.9323 4.86328ZM30.776 11.2714C30.776 11.7032 30.9586 12.066 31.3325 12.351C31.6977 12.636 32.1324 12.7828 32.628 12.7828C33.3323 12.7828 33.9583 12.5237 34.5061 12.0055C35.0538 11.4873 35.3321 10.8828 35.3321 10.1832C34.8104 9.77734 34.0887 9.57007 33.1584 9.57007C32.4802 9.57007 31.915 9.73416 31.4629 10.0537C31.0021 10.3905 30.776 10.7964 30.776 11.2714Z" fill="#5F6368"/>
<path d="M46.0001 5.14844L40.4354 17.8611H38.7139L40.7832 13.4134L37.114 5.14844H38.9312L41.5744 11.4875H41.6092L44.1829 5.14844H46.0001Z" fill="#5F6368"/>
<path d="M15.1098 7.70481C15.1098 7.16418 15.0611 6.64687 14.9707 6.14941H7.97314V8.9994L12.0032 9.00026C11.8397 9.94853 11.3137 10.7569 10.5077 11.2958V13.1448H12.9066C14.3073 11.8572 15.1098 9.95371 15.1098 7.70481Z" fill="#4285F4"/>
<path d="M10.5082 11.2954C9.84049 11.7428 8.98058 12.0045 7.97459 12.0045C6.03131 12.0045 4.38278 10.7039 3.7924 8.95068H1.31787V10.8576C2.54383 13.274 5.06358 14.9322 7.97459 14.9322C9.98656 14.9322 11.6768 14.275 12.9071 13.1436L10.5082 11.2954Z" fill="#34A853"/>
<path d="M3.55948 7.53626C3.55948 7.04399 3.64208 6.56813 3.7925 6.12077V4.21387H1.31797C0.811066 5.21309 0.525879 6.34099 0.525879 7.53626C0.525879 8.73152 0.811936 9.85942 1.31797 10.8586L3.7925 8.95175C3.64208 8.50439 3.55948 8.02853 3.55948 7.53626Z" fill="#FABB05"/>
<path d="M7.97459 3.06687C9.07274 3.06687 10.0561 3.44255 10.8326 4.17663L12.9584 2.06678C11.6673 0.872383 9.98395 0.13916 7.97459 0.13916C5.06445 0.13916 2.54383 1.79733 1.31787 4.21377L3.7924 6.12067C4.38278 4.3675 6.03131 3.06687 7.97459 3.06687Z" fill="#E94235"/>
</svg>
