<svg width="18" height="19" viewBox="0 0 18 19" fill="none" xmlns="http://www.w3.org/2000/svg">
<g clip-path="url(#clip0_181_600)">
<path d="M17.625 8.75C17.418 8.75 17.25 8.582 17.25 8.375C17.25 4.4465 14.0535 1.25 10.125 1.25C9.918 1.25 9.75 1.082 9.75 0.875C9.75 0.668 9.918 0.5 10.125 0.5C14.4675 0.5 18 4.0325 18 8.375C18 8.582 17.832 8.75 17.625 8.75ZM15 8.375C15 5.687 12.813 3.5 10.125 3.5C9.918 3.5 9.75 3.668 9.75 3.875C9.75 4.082 9.918 4.25 10.125 4.25C12.3997 4.25 14.25 6.10025 14.25 8.375C14.25 8.582 14.418 8.75 14.625 8.75C14.832 8.75 15 8.582 15 8.375ZM16.6755 17.2033L17.409 16.3595C17.79 15.9785 18 15.4715 18 14.933C18 14.3945 17.79 13.8868 17.3722 13.4742L15.5377 12.0695C14.7517 11.2835 13.473 11.2828 12.6855 12.0673L11.5365 13.1877C8.7765 12.0635 6.528 9.81275 5.316 6.9605L6.432 5.81675C7.21875 5.03 7.21875 3.74975 6.46425 2.99975L4.995 1.0925C4.23225 0.32975 2.88525 0.34775 2.16 1.07525L1.2795 1.84325C0.45375 2.6645 0 3.77975 0 4.982C0 10.7937 7.70625 18.5 13.518 18.5C14.7203 18.5 15.8347 18.0462 16.6755 17.2033ZM4.43175 1.5845L5.901 3.49175C6.39525 3.986 6.39525 4.79075 5.898 5.28875L4.6065 6.61325C4.503 6.71975 4.4715 6.87725 4.527 7.01525C5.82375 10.244 8.36175 12.7812 11.4915 13.9752C11.628 14.0277 11.7825 13.9955 11.8868 13.8942L13.2113 12.6027C13.2113 12.6027 13.2135 12.6005 13.2142 12.599C13.6935 12.119 14.4923 12.0882 15.0443 12.6312L16.8787 14.036C17.373 14.5303 17.373 15.3343 16.8615 15.848L16.1273 16.6917C15.4462 17.3743 14.5192 17.75 13.518 17.75C8.148 17.75 0.75 10.352 0.75 4.982C0.75 3.98075 1.12575 3.05375 1.79025 2.39L2.6715 1.62125C2.9235 1.36925 3.25575 1.24625 3.58275 1.24625C3.897 1.24625 4.206 1.36025 4.4325 1.58525L4.43175 1.5845Z" fill="black"/>
</g>
<defs>
<clipPath id="clip0_181_600">
<rect width="18" height="18" fill="white" transform="translate(0 0.5)"/>
</clipPath>
</defs>
</svg>
