<svg width="13" height="14" viewBox="0 0 13 14" fill="none" xmlns="http://www.w3.org/2000/svg">
<path d="M11.5781 7.33398C11.5781 7.4956 11.5139 7.6506 11.3996 7.76488C11.2854 7.87916 11.1304 7.94336 10.9688 7.94336H7.10937V11.8027C7.10937 11.9643 7.04517 12.1193 6.93089 12.2336C6.81661 12.3479 6.66162 12.4121 6.5 12.4121C6.33838 12.4121 6.18339 12.3479 6.06911 12.2336C5.95483 12.1193 5.89062 11.9643 5.89062 11.8027V7.94336H2.03125C1.86963 7.94336 1.71464 7.87916 1.60036 7.76488C1.48608 7.6506 1.42188 7.4956 1.42188 7.33398C1.42188 7.17237 1.48608 7.01737 1.60036 6.90309C1.71464 6.78881 1.86963 6.72461 2.03125 6.72461H5.89062V2.86523C5.89062 2.70362 5.95483 2.54862 6.06911 2.43434C6.18339 2.32006 6.33838 2.25586 6.5 2.25586C6.66162 2.25586 6.81661 2.32006 6.93089 2.43434C7.04517 2.54862 7.10937 2.70362 7.10937 2.86523V6.72461H10.9688C11.1304 6.72461 11.2854 6.78881 11.3996 6.90309C11.5139 7.01737 11.5781 7.17237 11.5781 7.33398Z" fill="#8D89DA"/>
</svg>
