<svg width="18" height="18" viewBox="0 0 18 18" fill="none" xmlns="http://www.w3.org/2000/svg">
<g clip-path="url(#clip0_91_1680)">
<path d="M17.9476 10.0782C17.903 9.98896 17.7914 9.94432 17.7021 9.922C17.1887 9.922 12.769 9.74342 12.769 4.60946C12.769 4.45321 12.6351 4.31928 12.4788 4.31928C12.3226 4.31928 12.1886 4.45321 12.1886 4.60946C12.1886 9.74342 7.76898 9.922 7.2779 9.922C7.21094 9.922 7.14397 9.94432 7.09933 9.98896C7.05469 10.0113 7.03237 10.0559 7.01004 10.0782C6.9654 10.1675 6.9654 10.2791 7.01004 10.3684C7.05469 10.4577 7.1663 10.5247 7.2779 10.5247C7.2779 10.5247 7.2779 10.5247 7.30023 10.5247C7.81362 10.5247 12.211 10.7033 12.211 15.8372C12.211 15.9935 12.3449 16.1274 12.5012 16.1274C12.6574 16.1274 12.7913 15.9935 12.7913 15.8372C12.7913 10.7256 17.1887 10.5247 17.7021 10.5247C17.8137 10.5247 17.903 10.4577 17.9699 10.3684C18.0146 10.2791 18.0146 10.1675 17.9476 10.0782ZM12.4788 13.6497C11.8315 11.5291 10.2467 10.614 8.99666 10.2122C10.2467 9.81039 11.8315 8.8952 12.4788 6.77465C13.1262 8.8952 14.711 9.81039 15.961 10.2122C14.711 10.614 13.1262 11.5291 12.4788 13.6497Z" fill="#4E4E4E"/>
<path d="M8.79412 4.27464C8.95037 4.27464 9.0843 4.14071 9.0843 3.96214C9.0843 3.80589 8.95037 3.67196 8.79412 3.67196C8.52627 3.67196 6.11554 3.58267 6.11554 0.770153C6.11554 0.613902 5.98161 0.479973 5.82536 0.479973C5.6691 0.479973 5.53517 0.613902 5.53517 0.770153C5.53517 3.58267 3.12445 3.67196 2.85659 3.67196C2.83427 3.67196 2.83427 3.67196 2.83427 3.67196C2.67801 3.69428 2.56641 3.80589 2.56641 3.96214C2.56641 4.11839 2.70034 4.25232 2.85659 4.25232C3.14677 4.25232 5.53517 4.3416 5.53517 7.15412C5.53517 7.31037 5.6691 7.4443 5.82536 7.4443C5.95928 7.46662 6.09321 7.33269 6.09321 7.17644C6.09321 4.36393 8.50394 4.27464 8.7718 4.27464H8.79412ZM5.80303 5.54697C5.44589 4.69875 4.79856 4.23 4.19588 3.96214C4.84321 3.69428 5.44589 3.18088 5.80303 2.37731C6.16018 3.22553 6.8075 3.69428 7.41019 3.96214C6.76286 4.23 6.16018 4.74339 5.80303 5.54697Z" fill="#4E4E4E"/>
<path d="M6.22772 13.739C5.95986 13.739 3.54913 13.6497 3.54913 10.8372C3.54913 10.6809 3.4152 10.547 3.25895 10.547C3.1027 10.547 2.96877 10.6809 2.96877 10.8372C2.96877 13.6497 0.558039 13.739 0.29018 13.739C0.267859 13.739 0.267859 13.739 0.267859 13.739C0.111608 13.7613 0 13.8729 0 14.0292C0 14.1854 0.133929 14.3193 0.29018 14.3193C0.580361 14.3193 2.96877 14.4086 2.96877 17.2211C2.96877 17.3774 3.1027 17.5113 3.25895 17.5113C3.39288 17.556 3.52681 17.422 3.52681 17.2435C3.52681 14.4309 5.93754 14.3417 6.2054 14.3417H6.22772C6.38397 14.3417 6.5179 14.2077 6.5179 14.0292C6.5179 13.8729 6.38397 13.739 6.22772 13.739ZM3.23663 15.6363C2.85716 14.7881 2.23216 14.3193 1.62947 14.0515C2.2768 13.7836 2.87948 13.2702 3.23663 12.4667C3.59377 13.3149 4.2411 13.7836 4.84378 14.0515C4.19645 14.3193 3.59377 14.8327 3.23663 15.6363Z" fill="#4E4E4E"/>
</g>
<defs>
<clipPath id="clip0_91_1680">
<rect width="18" height="18" fill="white"/>
</clipPath>
</defs>
</svg>
