<svg width="18" height="18" viewBox="0 0 18 18" fill="none" xmlns="http://www.w3.org/2000/svg">
<path d="M17.1737 17.8574C17.6161 18.2973 18.299 17.6183 17.8566 17.1879L14.2498 13.5917C15.515 12.1997 16.2144 10.3895 16.2119 8.51312C16.2119 4.31442 12.7782 0.899994 8.5559 0.899994C4.33356 0.899994 0.899902 4.31442 0.899902 8.51312C0.899902 12.7118 4.33356 16.1262 8.5559 16.1262C10.4603 16.1262 12.2204 15.4281 13.5669 14.2708L17.1737 17.8574ZM1.86075 8.51312C1.86075 4.84046 4.87121 1.85642 8.55493 1.85642C12.2483 1.85642 15.2491 4.84046 15.2491 8.51312C15.2491 12.1858 12.2483 15.1698 8.55493 15.1698C4.87121 15.1698 1.86075 12.1858 1.86075 8.51312Z" fill="#1B1B1B"/>
</svg>
