<svg width="18" height="18" viewBox="0 0 18 18" fill="none" xmlns="http://www.w3.org/2000/svg">
<g clip-path="url(#clip0_439_11029)">
<path d="M17.3935 4.17154C17.0418 4.04104 16.663 4.14229 16.3885 4.45879C15.8035 5.13529 15.124 5.92129 14.2495 6.37429V3.37504C14.2495 3.16804 14.0815 3.00004 13.8745 3.00004C13.6675 3.00004 13.4995 3.16804 13.4995 3.37504V6.66004C13.2625 6.71854 13.0135 6.75004 12.7495 6.75004H11.9995V3.42154C11.9995 2.87179 11.7558 2.34604 11.3305 1.98079C10.8888 1.60204 10.3038 1.43554 9.72327 1.52404C9.01752 1.63204 8.21502 1.78729 7.38252 1.99279C5.58927 0.568538 2.92452 0.108788 1.03677 0.00153843C0.661016 -0.0307116 0.313016 0.171038 0.128515 0.499538C-0.0597345 0.833288 -0.0417345 1.23829 0.175765 1.55554C0.295765 1.73029 0.461516 1.92829 0.645266 2.14654C1.13877 2.73454 1.74102 3.45154 1.85502 4.25179C0.739016 5.04004 -0.000484527 5.99479 -0.000484527 7.12429C-0.000484527 8.26504 0.752516 9.22654 1.88652 10.0193L0.0842655 15.1298C-0.111485 15.816 0.0220155 16.5353 0.451766 17.1045C0.880766 17.6738 1.53627 18 2.24877 18C3.26802 18 4.16352 17.3123 4.41777 16.3508L5.93802 11.859C7.26927 12.27 8.61477 12.5573 9.72402 12.726C9.82602 12.7418 9.92802 12.7493 10.0293 12.7493C10.5048 12.7493 10.9668 12.5805 11.3305 12.2685C11.755 11.9033 11.9995 11.3775 11.9995 10.8278V7.49929H12.7495C13.015 7.49929 13.264 7.52929 13.4995 7.58404V10.8743C13.4995 11.0813 13.6675 11.2493 13.8745 11.2493C14.0815 11.2493 14.2495 11.0813 14.2495 10.8743V7.85929C15.121 8.29954 15.7878 9.07504 16.4035 9.79129C16.5858 10.0028 16.831 10.1168 17.0845 10.1168C17.1873 10.1168 17.2908 10.0988 17.3928 10.0605C17.7708 9.92029 18.0153 9.55054 18.0153 9.11854V5.11429C18.0153 4.68229 17.7708 4.31254 17.3935 4.17154ZM1.21977 1.66429C1.05402 1.46704 0.903265 1.28929 0.794515 1.13104C0.712765 1.01179 0.764516 0.898539 0.781766 0.867039C0.808016 0.820539 0.875516 0.742539 0.994766 0.750039C2.62527 0.843038 4.82802 1.18204 6.44652 2.24029C5.06877 2.63329 3.67077 3.15754 2.53077 3.82054C2.30127 2.95204 1.69152 2.22529 1.21977 1.66429ZM3.70077 16.1348C3.52677 16.7918 2.92977 17.25 2.24952 17.25C1.77402 17.25 1.33752 17.0325 1.05102 16.653C0.764515 16.2728 0.675265 15.7935 0.799016 15.357L2.53602 10.4325C3.33777 10.8983 4.26627 11.295 5.22552 11.6265L3.70077 16.1348ZM11.2495 10.8293C11.2495 11.16 11.101 11.478 10.8423 11.7008C10.567 11.937 10.2033 12.0413 9.83802 11.9858C6.32427 11.4488 0.750266 9.65479 0.750266 7.12579C0.750266 4.59679 6.32352 2.80129 9.83727 2.26504C9.90177 2.25529 9.96552 2.25004 10.0293 2.25004C10.327 2.25004 10.615 2.35504 10.8415 2.54929C11.1003 2.77204 11.2488 3.09004 11.2488 3.42079V10.8285L11.2495 10.8293ZM17.2653 9.11929C17.2653 9.25954 17.1963 9.33454 17.1318 9.35779C17.0725 9.37879 17.0215 9.36079 16.9645 9.29479C16.3285 8.55529 15.5305 7.62679 14.4333 7.12129C15.5193 6.61129 16.3233 5.68204 16.9743 4.92904C17.0238 4.87204 17.0733 4.85329 17.1318 4.87579C17.1933 4.89829 17.2653 4.97554 17.2653 5.11504V9.11929Z" fill="#4E4E4E"/>
</g>
<defs>
<clipPath id="clip0_439_11029">
<rect width="18" height="18" fill="white"/>
</clipPath>
</defs>
</svg>
