<svg width="18" height="18" viewBox="0 0 18 18" fill="none" xmlns="http://www.w3.org/2000/svg">
<g clip-path="url(#clip0_439_3666)">
<path d="M18 17.6249C18 17.8319 17.832 17.9999 17.625 17.9999H14.1915C13.638 17.9999 13.1617 17.5867 13.0837 17.0392C12.7965 15.0217 11.0407 13.4999 9 13.4999C6.95925 13.4999 5.2035 15.0209 4.91625 17.0392C4.83825 17.5867 4.36275 17.9999 3.8085 17.9999H0.375C0.168 17.9999 0 17.8319 0 17.6249C0 17.4179 0.168 17.2499 0.375 17.2499H3.80925C3.9915 17.2499 4.14825 17.1134 4.17375 16.9334C4.24575 16.4279 4.395 15.9494 4.6095 15.5092L1.38525 13.5914C1.2075 13.4857 1.149 13.2554 1.25475 13.0769C1.3605 12.8992 1.5915 12.8414 1.7685 12.9464L4.98825 14.8612C5.32725 14.3729 5.75325 13.9492 6.24075 13.6132L4.329 10.3132C4.22475 10.1339 4.28625 9.90444 4.4655 9.80019C4.64475 9.69594 4.87425 9.75744 4.97775 9.93669L6.888 13.2352C7.42275 12.9757 8.01 12.8122 8.62425 12.7642V9.37419C8.62425 9.16719 8.79225 8.99919 8.99925 8.99919C9.20625 8.99919 9.37425 9.16719 9.37425 9.37419V12.7642C9.98775 12.8114 10.5743 12.9757 11.1082 13.2344L13.0005 9.93744C13.104 9.75744 13.3335 9.69594 13.5128 9.79869C13.692 9.90219 13.7542 10.1309 13.6515 10.3109L11.757 13.6109C12.2467 13.9484 12.6742 14.3737 13.014 14.8642L16.2735 12.9817C16.452 12.8767 16.6823 12.9389 16.7858 13.1189C16.89 13.2982 16.8285 13.5277 16.6485 13.6312L13.3927 15.5122C13.6058 15.9524 13.7542 16.4294 13.8263 16.9334C13.8517 17.1164 14.0055 17.2499 14.1908 17.2499H17.6243C17.8313 17.2499 18 17.4179 18 17.6249ZM8.9745 0.00144336C8.958 -0.000806641 8.99025 -0.000806641 8.9745 0.00144336V0.00144336ZM6.6465 2.88519L8.4855 0.963693C8.52825 0.920193 8.5755 0.884943 8.62575 0.854193V6.37569C8.62575 6.58269 8.79375 6.75069 9.00075 6.75069C9.20775 6.75069 9.37575 6.58269 9.37575 6.37569V0.852693C9.42375 0.881193 9.46875 0.916443 9.51 0.957693L11.355 2.88519C11.4983 3.03444 11.736 3.04044 11.8853 2.89719C12.0345 2.75394 12.0398 2.51619 11.8973 2.36694L10.0455 0.432693C9.7635 0.150693 9.345 0.00669336 8.9745 0.00144336C8.604 0.00894336 8.23425 0.153693 7.94925 0.438693L6.10425 2.36619C5.961 2.51544 5.96625 2.75319 6.11625 2.89644C6.2655 3.03894 6.50325 3.03519 6.6465 2.88519Z" fill="#4E4E4E"/>
</g>
<defs>
<clipPath id="clip0_439_3666">
<rect width="18" height="18" fill="white"/>
</clipPath>
</defs>
</svg>
