<svg width="18" height="18" viewBox="0 0 18 18" fill="none" xmlns="http://www.w3.org/2000/svg">
<g clip-path="url(#clip0_439_11042)">
<path d="M14.5823 7.2165C14.8395 6.74025 15 6.20325 15 5.625C15 3.76425 13.4858 2.25 11.625 2.25C9.76425 2.25 8.25 3.76425 8.25 5.625C8.25 6.02175 8.331 6.39675 8.457 6.75H5.625C2.523 6.75 0 9.273 0 12.375C0 15.477 2.523 18 5.625 18H12.375C15.477 18 18 15.477 18 12.375C18 10.125 16.6335 8.097 14.5823 7.2165ZM11.625 3C13.0725 3 14.25 4.1775 14.25 5.625C14.25 7.0725 13.0725 8.25 11.625 8.25C10.1775 8.25 9 7.0725 9 5.625C9 4.1775 10.1775 3 11.625 3ZM12.375 17.25H5.625C2.937 17.25 0.75 15.063 0.75 12.375C0.75 9.687 2.937 7.5 5.625 7.5H8.8215C9.4275 8.40375 10.458 9 11.625 9C12.6345 9 13.5308 8.5455 14.1503 7.84125C16.0065 8.56875 17.25 10.3733 17.25 12.375C17.25 15.063 15.063 17.25 12.375 17.25ZM9.75 10.125C9.75 10.332 9.582 10.5 9.375 10.5H5.625C4.5915 10.5 3.75 11.3407 3.75 12.375C3.75 13.4093 4.5915 14.25 5.625 14.25C5.832 14.25 6 14.418 6 14.625C6 14.832 5.832 15 5.625 15C4.1775 15 3 13.8225 3 12.375C3 10.9275 4.1775 9.75 5.625 9.75H9.375C9.582 9.75 9.75 9.918 9.75 10.125ZM5.25 4.5C6.4905 4.5 7.5 3.4905 7.5 2.25C7.5 1.0095 6.4905 0 5.25 0C4.0095 0 3 1.0095 3 2.25C3 3.4905 4.0095 4.5 5.25 4.5ZM5.25 0.75C6.07725 0.75 6.75 1.42275 6.75 2.25C6.75 3.07725 6.07725 3.75 5.25 3.75C4.42275 3.75 3.75 3.07725 3.75 2.25C3.75 1.42275 4.42275 0.75 5.25 0.75ZM16.5 3C17.3272 3 18 2.32725 18 1.5C18 0.67275 17.3272 0 16.5 0C15.6727 0 15 0.67275 15 1.5C15 2.32725 15.6727 3 16.5 3ZM16.5 0.75C16.9132 0.75 17.25 1.086 17.25 1.5C17.25 1.914 16.9132 2.25 16.5 2.25C16.0868 2.25 15.75 1.914 15.75 1.5C15.75 1.086 16.0868 0.75 16.5 0.75Z" fill="#4E4E4E"/>
</g>
<defs>
<clipPath id="clip0_439_11042">
<rect width="18" height="18" fill="white"/>
</clipPath>
</defs>
</svg>
