<svg width="18" height="18" viewBox="0 0 18 18" fill="none" xmlns="http://www.w3.org/2000/svg">
<g clip-path="url(#clip0_439_11038)">
<path d="M8.25 5.37975V3.75H10.125C10.332 3.75 10.5 3.582 10.5 3.375C10.5 3.168 10.332 3 10.125 3H8.25V2.625C8.25 1.1775 7.0725 0 5.625 0C4.1775 0 3 1.1775 3 2.625V5.37975C1.22175 6.21375 0 8.1285 0 10.125V14.625C0 16.4858 1.51425 18 3.375 18H7.875C9.73575 18 11.25 16.4858 11.25 14.625V10.125C11.25 8.1285 10.0282 6.21375 8.25 5.37975ZM3.75 2.625C3.75 1.5915 4.5915 0.75 5.625 0.75C6.6585 0.75 7.5 1.5915 7.5 2.625V5.25H3.75V2.625ZM10.5 14.625C10.5 16.0725 9.3225 17.25 7.875 17.25H3.375C1.9275 17.25 0.75 16.0725 0.75 14.625V10.125C0.75 8.39175 1.881 6.669 3.45 6H7.80075C9.369 6.669 10.5008 8.39175 10.5008 10.125V14.625H10.5ZM7.125 10.5H4.125C3.0915 10.5 2.25 11.3415 2.25 12.375C2.25 13.4085 3.0915 14.25 4.125 14.25H7.125C8.1585 14.25 9 13.4085 9 12.375C9 11.3415 8.1585 10.5 7.125 10.5ZM7.125 13.5H4.125C3.50475 13.5 3 12.9952 3 12.375C3 11.7548 3.50475 11.25 4.125 11.25H7.125C7.74525 11.25 8.25 11.7548 8.25 12.375C8.25 12.9952 7.74525 13.5 7.125 13.5ZM13.5 3.75C13.5 4.164 13.164 4.5 12.75 4.5C12.336 4.5 12 4.164 12 3.75C12 3.336 12.336 3 12.75 3C13.164 3 13.5 3.336 13.5 3.75ZM18 3.75C18 4.164 17.664 4.5 17.25 4.5C16.836 4.5 16.5 4.164 16.5 3.75C16.5 3.336 16.836 3 17.25 3C17.664 3 18 3.336 18 3.75ZM16.5 0.75C16.5 0.336 16.836 0 17.25 0C17.664 0 18 0.336 18 0.75C18 1.164 17.664 1.5 17.25 1.5C16.836 1.5 16.5 1.164 16.5 0.75ZM18 6.75C18 7.164 17.664 7.5 17.25 7.5C16.836 7.5 16.5 7.164 16.5 6.75C16.5 6.336 16.836 6 17.25 6C17.664 6 18 6.336 18 6.75ZM15.75 2.25C15.75 2.664 15.414 3 15 3C14.586 3 14.25 2.664 14.25 2.25C14.25 1.836 14.586 1.5 15 1.5C15.414 1.5 15.75 1.836 15.75 2.25ZM15.75 5.25C15.75 5.664 15.414 6 15 6C14.586 6 14.25 5.664 14.25 5.25C14.25 4.836 14.586 4.5 15 4.5C15.414 4.5 15.75 4.836 15.75 5.25Z" fill="#4E4E4E"/>
</g>
<defs>
<clipPath id="clip0_439_11038">
<rect width="18" height="18" fill="white"/>
</clipPath>
</defs>
</svg>
