<svg width="18" height="18" viewBox="0 0 18 18" fill="none" xmlns="http://www.w3.org/2000/svg">
<g clip-path="url(#clip0_439_3662)">
<path d="M15.9158 0.653264C15.3855 0.201764 14.6145 0.201764 14.0842 0.653264C13.2645 1.34851 12.0007 3.32551 12.0007 4.52926C12.0007 5.31526 12.2685 5.94976 12.8445 6.52501C13.4542 7.13476 14.2612 7.50001 15.0007 7.50001C15.756 7.50001 16.5352 7.15426 17.1375 6.55051C17.718 5.97001 18.0007 5.30851 18.0007 4.52851C18.0007 3.32551 16.7355 1.34851 15.9158 0.653264ZM16.6065 6.02026C16.1505 6.47701 15.5498 6.75001 15 6.75001C14.463 6.75001 13.8398 6.46051 13.374 5.99476C12.9428 5.56351 12.75 5.11126 12.75 4.52926C12.75 3.65551 13.8082 1.86976 14.5687 1.22551C14.694 1.11901 14.847 1.06651 15 1.06651C15.153 1.06651 15.306 1.11901 15.4305 1.22476C16.1917 1.87051 17.25 3.65551 17.25 4.52851C17.25 5.10676 17.046 5.58076 16.6065 6.02026ZM7.5 5.28676C7.5 3.78151 5.89725 1.28776 4.8585 0.405764C4.21725 -0.139486 3.28425 -0.139486 2.6415 0.405764C1.602 1.28851 0 3.78151 0 5.28751C0 6.26851 0.3345 7.05976 1.053 7.77826C1.81875 8.54401 2.82675 9.00001 3.75 9.00001C4.692 9.00001 5.6655 8.56726 6.4215 7.81126C7.1475 7.08601 7.5 6.26026 7.5 5.28751V5.28676ZM3.75 8.24926C3.03225 8.24926 2.20275 7.86526 1.58325 7.24726C1.0065 6.67051 0.75 6.06601 0.75 5.28676C0.75 4.04401 2.2095 1.75576 3.126 0.978014C3.30675 0.824264 3.528 0.747764 3.75 0.747764C3.972 0.747764 4.1925 0.824264 4.37325 0.977264C5.2905 1.75576 6.75 4.04401 6.75 5.28676C6.75 6.06076 6.47775 6.69451 5.89125 7.28026C5.28375 7.88701 4.4835 8.24926 3.75 8.24926ZM11.8005 7.97401C11.0475 7.33651 9.954 7.33726 9.1995 7.97401C7.89525 9.07726 6 11.802 6 13.5615C6 14.7323 6.40125 15.6765 7.26375 16.536C8.18325 17.4525 9.39375 17.9993 10.5 17.9993C11.6295 17.9993 12.798 17.481 13.7055 16.5765C14.5763 15.7095 15 14.7233 15 13.5608C15 11.802 13.1055 9.07726 11.8005 7.97401ZM13.1768 16.0448C12.4193 16.7993 11.4187 17.2493 10.5 17.2493C9.5865 17.2493 8.5755 16.7843 7.7925 16.0043C7.07175 15.2858 6.75 14.5328 6.75 13.5615C6.75 12.0915 8.50275 9.54601 9.684 8.54626C9.9195 8.34601 10.2098 8.24701 10.5 8.24701C10.7902 8.24701 11.079 8.34676 11.3167 8.54626C12.498 9.54601 14.25 12.0915 14.25 13.5608C14.25 14.526 13.9088 15.3158 13.1768 16.0448Z" fill="#4E4E4E"/>
</g>
<defs>
<clipPath id="clip0_439_3662">
<rect width="18" height="18" fill="white"/>
</clipPath>
</defs>
</svg>
