<svg width="18" height="18" viewBox="0 0 18 18" fill="none" xmlns="http://www.w3.org/2000/svg">
<g clip-path="url(#clip0_439_3653)">
<path d="M17.5342 0.357718C17.2387 0.0899682 16.8487 -0.0352818 16.4617 0.00971824C11.499 0.607468 9.67197 4.55697 9.00372 7.12572C9.00222 7.12572 9.00072 7.12497 8.99922 7.12497C8.99772 7.12497 8.99622 7.12572 8.99472 7.12572C8.32797 4.55622 6.50097 0.607468 1.53822 0.00971824C1.15347 -0.0330318 0.76197 0.0899682 0.46572 0.357718C0.15972 0.635968 -0.0105297 1.03197 -2.97036e-05 1.44522C0.0667203 4.05597 0.89622 6.10872 2.46672 7.54497C4.64322 9.53547 7.56972 9.74397 8.62497 9.74997V17.6242C8.62497 17.8312 8.79297 17.9992 8.99997 17.9992C9.20697 17.9992 9.37497 17.8312 9.37497 17.6242V9.74997C10.4302 9.74397 13.3575 9.53547 15.5332 7.54497C17.1037 6.10797 17.9332 4.05597 18 1.44522C18.0105 1.03197 17.8402 0.635968 17.5342 0.357718ZM2.96847 6.98697C1.55697 5.69397 0.81072 3.82272 0.74997 1.42647C0.74472 1.23147 0.82572 1.04397 0.97047 0.912718C1.10547 0.788968 1.27197 0.731968 1.44897 0.754468C7.42647 1.47447 8.43297 7.39947 8.59497 8.99847C7.60797 8.98197 4.90797 8.76522 2.96847 6.98772V6.98697ZM15.0315 6.98697C13.0912 8.76447 10.392 8.98122 9.40497 8.99772C9.56772 7.39947 10.5742 1.47447 16.551 0.753718C16.575 0.750718 16.5982 0.749218 16.6222 0.749218C16.77 0.749218 16.9132 0.805468 17.0295 0.911968C17.1742 1.04397 17.2552 1.23072 17.25 1.42647C17.1892 3.82272 16.443 5.69322 15.0315 6.98697Z" fill="#4E4E4E"/>
</g>
<defs>
<clipPath id="clip0_439_3653">
<rect width="18" height="18" fill="white"/>
</clipPath>
</defs>
</svg>
