<svg width="26" height="25" viewBox="0 0 26 25" fill="none" xmlns="http://www.w3.org/2000/svg">
<path d="M25.8715 9.57511C25.7776 9.27669 25.5965 9.01321 25.3515 8.81856C25.1066 8.62391 24.809 8.50699 24.4971 8.48284L17.7318 7.89802C17.6909 7.89399 17.6519 7.87896 17.6188 7.85452C17.5857 7.83008 17.5599 7.79714 17.5441 7.75921L14.901 1.46043C14.7786 1.17309 14.5744 0.928075 14.3139 0.755857C14.0533 0.58364 13.7479 0.491821 13.4356 0.491821C13.1232 0.491821 12.8178 0.58364 12.5572 0.755857C12.2967 0.928075 12.0925 1.17309 11.9701 1.46043L9.32702 7.75921C9.31118 7.79714 9.28536 7.83008 9.25231 7.85452C9.21925 7.87896 9.18019 7.89399 9.13928 7.89802L2.37402 8.48284C2.06209 8.50699 1.76452 8.62391 1.51958 8.81856C1.27464 9.01321 1.09354 9.27669 0.999575 9.57511C0.900052 9.87395 0.891359 10.1956 0.974594 10.4994C1.05783 10.8031 1.22925 11.0754 1.4672 11.2818L6.59975 15.759C6.63118 15.7869 6.65452 15.8227 6.66733 15.8628C6.68014 15.9028 6.68195 15.9455 6.67257 15.9865L5.12973 22.6437C5.05781 22.9502 5.07833 23.2711 5.1887 23.566C5.29906 23.8608 5.49432 24.1164 5.74982 24.3003C6.00136 24.4859 6.30276 24.5918 6.61509 24.6044C6.92743 24.617 7.23637 24.5356 7.50201 24.3709L13.3172 20.8437C13.3514 20.8226 13.3908 20.8114 13.431 20.8114C13.4712 20.8114 13.5106 20.8226 13.5448 20.8437L19.36 24.3709C19.6284 24.5352 19.9395 24.6163 20.2539 24.604C20.5684 24.5917 20.8722 24.4866 21.1269 24.3018C21.3817 24.117 21.576 23.8609 21.6854 23.5658C21.7947 23.2707 21.8142 22.9499 21.7414 22.6437L20.2031 15.9842C20.1937 15.9433 20.1955 15.9005 20.2083 15.8605C20.2211 15.8205 20.2445 15.7846 20.2759 15.7567L25.4085 11.2795C25.6452 11.0728 25.8155 10.8007 25.8979 10.4974C25.9803 10.1941 25.9711 9.8732 25.8715 9.57511ZM24.5062 10.2487L19.3737 14.7259C19.155 14.9161 18.9923 15.1625 18.9033 15.4384C18.8143 15.7143 18.8022 16.0092 18.8685 16.2914L20.4068 22.9509C20.4181 22.9956 20.4156 23.0428 20.3996 23.0861C20.3835 23.1294 20.3547 23.1667 20.3169 23.1932C20.2827 23.2206 20.2406 23.2364 20.1968 23.2382C20.153 23.2401 20.1098 23.2279 20.0734 23.2035L14.2582 19.6764C14.0102 19.5257 13.7257 19.446 13.4356 19.446C13.1454 19.446 12.8609 19.5257 12.6129 19.6764L6.79772 23.2035C6.76133 23.2279 6.71809 23.2401 6.6743 23.2382C6.63051 23.2364 6.58845 23.2206 6.55424 23.1932C6.51644 23.1667 6.4876 23.1294 6.47154 23.0861C6.45549 23.0428 6.45298 22.9956 6.46435 22.9509L8.00264 16.2914C8.06886 16.0092 8.05682 15.7143 7.9678 15.4384C7.87878 15.1625 7.71615 14.9161 7.49746 14.7259L2.36492 10.2487C2.32981 10.2188 2.3046 10.179 2.29261 10.1345C2.28063 10.09 2.28243 10.0429 2.29779 9.9995C2.30928 9.95624 2.33419 9.91773 2.36895 9.88952C2.4037 9.86131 2.44651 9.84484 2.49121 9.84249L9.25761 9.25767C9.54729 9.23299 9.82468 9.1295 10.0597 8.95842C10.2948 8.78734 10.4786 8.5552 10.5911 8.28714L13.2342 1.98836C13.2525 1.94927 13.2817 1.91622 13.3181 1.89306C13.3546 1.86991 13.3969 1.85761 13.4401 1.85761C13.4833 1.85761 13.5256 1.86991 13.5621 1.89306C13.5985 1.91622 13.6277 1.94927 13.646 1.98836L16.28 8.28714C16.3922 8.55455 16.5753 8.78627 16.8094 8.9573C17.0436 9.12833 17.3201 9.23219 17.6089 9.25767L24.3753 9.84249C24.4201 9.84484 24.4629 9.86131 24.4976 9.88952C24.5324 9.91773 24.5573 9.95624 24.5688 9.9995C24.5847 10.0425 24.5872 10.0893 24.576 10.1338C24.5648 10.1782 24.5405 10.2183 24.5062 10.2487Z" fill="#FBE173"/>
</svg>
