<svg width="16" height="16" viewBox="0 0 16 16" fill="none" xmlns="http://www.w3.org/2000/svg">
<path d="M15.4879 7.04234L12.3168 9.80984L13.2667 13.9302C13.317 14.1456 13.3027 14.371 13.2255 14.5783C13.1483 14.7856 13.0118 14.9655 12.8329 15.0956C12.654 15.2257 12.4408 15.3002 12.2198 15.3098C11.9988 15.3193 11.7799 15.2635 11.5905 15.1494L7.99681 12.9697L4.41087 15.1494C4.22143 15.2635 4.00254 15.3193 3.78156 15.3098C3.56058 15.3002 3.34732 15.2257 3.16845 15.0956C2.98958 14.9655 2.85302 14.7856 2.77586 14.5783C2.6987 14.371 2.68436 14.1456 2.73462 13.9302L3.68314 9.81406L0.511344 7.04234C0.343584 6.89766 0.222277 6.70666 0.162633 6.49331C0.10299 6.27995 0.107665 6.05374 0.176074 5.84303C0.244483 5.63232 0.373579 5.4465 0.547174 5.30887C0.720769 5.17124 0.931134 5.08793 1.15189 5.06938L5.33267 4.70727L6.96462 0.814766C7.04985 0.61052 7.1936 0.436055 7.37777 0.313338C7.56195 0.190622 7.77831 0.125141 7.99963 0.125141C8.22094 0.125141 8.4373 0.190622 8.62148 0.313338C8.80565 0.436055 8.9494 0.61052 9.03463 0.814766L10.6715 4.70727L14.8509 5.06938C15.0716 5.08793 15.282 5.17124 15.4556 5.30887C15.6292 5.4465 15.7583 5.63232 15.8267 5.84303C15.8951 6.05374 15.8998 6.27995 15.8401 6.49331C15.7805 6.70666 15.6592 6.89766 15.4914 7.04234H15.4879Z" fill="#FBE173"/>
</svg>
