<svg width="18" height="18" viewBox="0 0 18 18" fill="none" xmlns="http://www.w3.org/2000/svg">
<path d="M16.6864 6.88359C16.6283 6.69918 16.5164 6.53635 16.365 6.41606C16.2137 6.29577 16.0298 6.22352 15.837 6.20859L11.6562 5.84719C11.6309 5.8447 11.6068 5.83541 11.5864 5.82031C11.5659 5.8052 11.55 5.78485 11.5402 5.76141L9.90684 1.86891C9.83119 1.69133 9.70501 1.53992 9.544 1.43349C9.38298 1.32707 9.19422 1.27032 9.00121 1.27032C8.8082 1.27032 8.61945 1.32707 8.45843 1.43349C8.29741 1.53992 8.17123 1.69133 8.09559 1.86891L6.46223 5.76141C6.45244 5.78485 6.43649 5.8052 6.41606 5.82031C6.39563 5.83541 6.37149 5.8447 6.34621 5.84719L2.16543 6.20859C1.97267 6.22352 1.78877 6.29577 1.63741 6.41606C1.48604 6.53635 1.37413 6.69918 1.31606 6.88359C1.25455 7.06827 1.24918 7.26703 1.30062 7.45476C1.35206 7.64248 1.45799 7.81075 1.60504 7.93828L4.77684 10.7051C4.79626 10.7223 4.81068 10.7445 4.8186 10.7692C4.82652 10.794 4.82764 10.8204 4.82184 10.8457L3.8684 14.9597C3.82395 15.1491 3.83663 15.3474 3.90484 15.5296C3.97304 15.7119 4.09371 15.8698 4.2516 15.9834C4.40705 16.0981 4.5933 16.1636 4.78632 16.1714C4.97934 16.1791 5.17025 16.1289 5.33441 16.027L8.92809 13.8473C8.94921 13.8343 8.97356 13.8273 8.9984 13.8273C9.02324 13.8273 9.04759 13.8343 9.06871 13.8473L12.6624 16.027C12.8283 16.1286 13.0205 16.1787 13.2148 16.1711C13.4091 16.1635 13.5969 16.0985 13.7543 15.9844C13.9117 15.8702 14.0318 15.7119 14.0994 15.5296C14.167 15.3472 14.179 15.1489 14.134 14.9597L13.1834 10.8443C13.1776 10.819 13.1787 10.7926 13.1866 10.7678C13.1946 10.7431 13.209 10.7209 13.2284 10.7037L16.4002 7.93687C16.5465 7.80912 16.6517 7.64095 16.7026 7.45353C16.7536 7.2661 16.7479 7.06781 16.6864 6.88359ZM15.8426 7.29984L12.6708 10.0666C12.5357 10.1842 12.4352 10.3365 12.3802 10.507C12.3252 10.6775 12.3177 10.8597 12.3586 11.0341L13.3093 15.1495C13.3163 15.1772 13.3147 15.2063 13.3048 15.2331C13.2949 15.2598 13.2771 15.2829 13.2537 15.2993C13.2326 15.3162 13.2066 15.326 13.1795 15.3271C13.1525 15.3282 13.1257 15.3207 13.1032 15.3056L9.50957 13.1259C9.35636 13.0328 9.18051 12.9836 9.00121 12.9836C8.82192 12.9836 8.64607 13.0328 8.49285 13.1259L4.89918 15.3056C4.87669 15.3207 4.84997 15.3282 4.82291 15.3271C4.79585 15.326 4.76985 15.3162 4.74871 15.2993C4.72535 15.2829 4.70753 15.2598 4.69761 15.2331C4.68769 15.2063 4.68614 15.1772 4.69317 15.1495L5.64379 11.0341C5.68472 10.8597 5.67727 10.6775 5.62226 10.507C5.56725 10.3365 5.46675 10.1842 5.3316 10.0666L2.15981 7.29984C2.13811 7.28139 2.12253 7.2568 2.11513 7.2293C2.10772 7.2018 2.10883 7.17271 2.11832 7.14586C2.12542 7.11912 2.14082 7.09533 2.1623 7.07789C2.18377 7.06046 2.21023 7.05028 2.23785 7.04883L6.41934 6.68742C6.59835 6.67217 6.76977 6.60822 6.91503 6.50249C7.0603 6.39677 7.17385 6.25331 7.2434 6.08766L8.87676 2.19516C8.88812 2.171 8.90611 2.15057 8.92865 2.13626C8.95119 2.12195 8.97733 2.11435 9.00402 2.11435C9.03072 2.11435 9.05686 2.12195 9.0794 2.13626C9.10194 2.15057 9.11993 2.171 9.13129 2.19516L10.759 6.08766C10.8284 6.25291 10.9415 6.39611 11.0862 6.5018C11.2309 6.6075 11.4018 6.67168 11.5803 6.68742L15.7618 7.04883C15.7894 7.05028 15.8158 7.06046 15.8373 7.07789C15.8588 7.09533 15.8742 7.11912 15.8813 7.14586C15.8911 7.17243 15.8927 7.20135 15.8858 7.22883C15.8789 7.25631 15.8638 7.28106 15.8426 7.29984Z" fill="#FBE173"/>
</svg>
