<svg width="65" height="64" viewBox="0 0 65 64" fill="none" xmlns="http://www.w3.org/2000/svg">
<path d="M45.7438 9C51.2438 9 57.8438 12.316 57.8438 22.263C57.8438 32.21 40.2438 51 27.0438 51C18.2438 51 13.8438 45.474 13.8438 39.947C13.8438 30 21.5438 28.9 25.9438 24.474C30.3438 20.048 34.7438 9 45.7438 9Z" stroke="#464747" stroke-linecap="round" stroke-linejoin="round"/>
<path d="M23.7457 45.06C22.7323 44.853 21.7963 44.3689 21.0419 43.6614C20.2875 42.9539 19.7442 42.0509 19.4727 41.053" stroke="#464747" stroke-linecap="round" stroke-linejoin="round"/>
<path d="M40.9563 38.842C38.1521 41.3201 34.9323 43.2835 31.4453 44.642" stroke="#464747" stroke-linecap="round" stroke-linejoin="round"/>
<path d="M41.2734 15.631C42.6456 14.8895 44.1838 14.5092 45.7434 14.526" stroke="#464747" stroke-linecap="round" stroke-linejoin="round"/>
<path d="M33.171 9.99997C32.6706 8.9462 31.9148 8.03419 30.9723 7.34683C30.0298 6.65947 28.9304 6.21855 27.7742 6.06415C26.6179 5.90975 25.4414 6.04677 24.3515 6.46275C23.2617 6.87873 22.293 7.56048 21.5337 8.44603C20.7744 9.33159 20.2484 10.3929 20.0036 11.5334C19.7587 12.674 19.8028 13.8576 20.1318 14.9768C20.4608 16.096 21.0643 17.1152 21.8874 17.9418C22.7106 18.7684 23.7272 19.3762 24.845 19.71" stroke="#464747" stroke-linecap="round" stroke-linejoin="round"/>
<path d="M26.8438 10C26.0481 10 25.285 10.3161 24.7224 10.8787C24.1598 11.4413 23.8438 12.2044 23.8438 13" stroke="#464747" stroke-linecap="round" stroke-linejoin="round"/>
<path d="M41.4268 4.99999C41.077 4.19853 40.5233 3.50279 39.8207 2.98222C39.1181 2.46164 38.2912 2.13443 37.4226 2.03323C36.5541 1.93203 35.6742 2.06039 34.8707 2.4055C34.0673 2.75061 33.3684 3.30039 32.8438 3.99999" stroke="#464747" stroke-linecap="round" stroke-linejoin="round"/>
<path d="M8.84375 28C12.1575 28 14.8438 25.3137 14.8438 22C14.8438 18.6863 12.1575 16 8.84375 16C5.53004 16 2.84375 18.6863 2.84375 22C2.84375 25.3137 5.53004 28 8.84375 28Z" stroke="#464747" stroke-linecap="round" stroke-linejoin="round"/>
<path d="M8.84375 20C8.31332 20 7.80461 20.2107 7.42954 20.5858C7.05446 20.9609 6.84375 21.4696 6.84375 22" stroke="#464747" stroke-linecap="round" stroke-linejoin="round"/>
<path d="M6.34375 47C8.27675 47 9.84375 45.433 9.84375 43.5C9.84375 41.567 8.27675 40 6.34375 40C4.41075 40 2.84375 41.567 2.84375 43.5C2.84375 45.433 4.41075 47 6.34375 47Z" stroke="#464747" stroke-linecap="round" stroke-linejoin="round"/>
<path d="M59.8438 41C61.5006 41 62.8438 39.6569 62.8438 38C62.8438 36.3431 61.5006 35 59.8438 35C58.1869 35 56.8438 36.3431 56.8438 38C56.8438 39.6569 58.1869 41 59.8438 41Z" stroke="#464747" stroke-linecap="round" stroke-linejoin="round"/>
<path d="M28.9275 55C28.7585 56.0008 28.8461 57.0282 29.1822 57.986C29.5183 58.9437 30.0919 59.8006 30.8492 60.4763C31.6066 61.1521 32.523 61.6246 33.5128 61.8498C34.5025 62.0749 35.5332 62.0453 36.5083 61.7637C37.4835 61.4821 38.3713 60.9578 39.0886 60.2396C39.806 59.5215 40.3294 58.6332 40.61 57.6577C40.8905 56.6823 40.9191 55.6516 40.6928 54.6621C40.4666 53.6726 39.9931 52.7567 39.3165 52" stroke="#464747" stroke-linecap="round" stroke-linejoin="round"/>
<path d="M32.8438 56C32.8438 56.5304 33.0545 57.0391 33.4295 57.4142C33.8046 57.7893 34.3133 58 34.8438 58" stroke="#464747" stroke-linecap="round" stroke-linejoin="round"/>
<path d="M46.8422 47C47.6817 47.6296 48.3019 48.5075 48.6148 49.5092C48.9277 50.5108 48.9175 51.5856 48.5856 52.5811C48.2537 53.5767 47.6171 54.4426 46.7657 55.0562C45.9144 55.6698 44.8916 56 43.8422 56C42.716 56.0035 41.6224 55.6225 40.7422 54.92" stroke="#464747" stroke-linecap="round" stroke-linejoin="round"/>
</svg>
