<svg width="56" height="56" viewBox="0 0 56 56" fill="none" xmlns="http://www.w3.org/2000/svg">
<path d="M48.125 28C48.125 28.2321 48.0328 28.4546 47.8687 28.6187C47.7046 28.7828 47.4821 28.875 47.25 28.875H28.875V47.25C28.875 47.4821 28.7828 47.7046 28.6187 47.8687C28.4546 48.0328 28.2321 48.125 28 48.125C27.7679 48.125 27.5454 48.0328 27.3813 47.8687C27.2172 47.7046 27.125 47.4821 27.125 47.25V28.875H8.75C8.51794 28.875 8.29538 28.7828 8.13128 28.6187C7.96719 28.4546 7.875 28.2321 7.875 28C7.875 27.7679 7.96719 27.5454 8.13128 27.3813C8.29538 27.2172 8.51794 27.125 8.75 27.125H27.125V8.75C27.125 8.51794 27.2172 8.29538 27.3813 8.13128C27.5454 7.96719 27.7679 7.875 28 7.875C28.2321 7.875 28.4546 7.96719 28.6187 8.13128C28.7828 8.29538 28.875 8.51794 28.875 8.75V27.125H47.25C47.4821 27.125 47.7046 27.2172 47.8687 27.3813C48.0328 27.5454 48.125 27.7679 48.125 28Z" fill="#8D89DA"/>
</svg>
