<svg width="64" height="64" viewBox="0 0 64 64" fill="none" xmlns="http://www.w3.org/2000/svg">
<path d="M51.5492 21.429C45.7992 21.429 49.2492 14.571 36.5992 14.571C23.9492 14.571 23.9492 4.28601 23.9492 4.28601" stroke="#464747" stroke-linecap="round" stroke-linejoin="round"/>
<path d="M13.6016 32.857C15.9016 43.143 21.6516 51 32.0016 51C42.3516 51 48.1016 43.143 50.4016 32.857C50.4016 32.857 55.0016 30.571 55.0016 26C55.0016 21.429 51.5516 21.429 51.5516 21.429" stroke="#464747" stroke-linecap="round" stroke-linejoin="round"/>
<path d="M13.6 32.857C13.6 32.857 9 30.571 9 26C9 21.429 12.45 21.429 12.45 21.429C15.9 21.429 20.5 15.714 20.5 12.286" stroke="#464747" stroke-linecap="round" stroke-linejoin="round"/>
<path d="M45.8008 2C45.8008 2 53.8508 7.714 53.8508 15.714C53.8956 17.7856 53.6042 19.8507 52.9878 21.829" stroke="#464747" stroke-linecap="round" stroke-linejoin="round"/>
<path d="M26.25 39.714C27.8279 41.1451 29.8702 41.9571 32 42C34.1298 41.9571 36.1721 41.1451 37.75 39.714" stroke="#464747" stroke-linecap="round" stroke-linejoin="round"/>
<path d="M37.75 27.143C38.8472 27.5732 40.0227 27.7678 41.2 27.714C41.8685 27.7149 42.5281 27.5605 43.1267 27.2631C43.7254 26.9656 44.2469 26.5333 44.65 26L45.8 26.461" stroke="#464747" stroke-linecap="round" stroke-linejoin="round"/>
<path d="M26.2492 27.143C25.152 27.5732 23.9765 27.7678 22.7992 27.714C22.1307 27.7149 21.4712 27.5605 20.8725 27.2631C20.2738 26.9656 19.7524 26.5333 19.3492 26L18.1992 26.461" stroke="#464747" stroke-linecap="round" stroke-linejoin="round"/>
<path d="M2 52.5C3.55933 52.2467 5.02197 51.5791 6.235 50.567C7.313 49.514 8.027 47.865 8.5 45C8.964 47.812 9.661 49.453 10.705 50.508C11.9244 51.5572 13.4114 52.2469 15 52.5C12.884 53.034 11.371 53.568 10.289 54.969C9.2905 56.4746 8.67625 58.202 8.5 60C8.036 57.188 7.339 55.547 6.3 54.492C5.07921 53.442 3.59037 52.7522 2 52.5Z" stroke="#464747" stroke-linecap="round" stroke-linejoin="round"/>
<path d="M52 46C53.2291 45.793 54.3738 45.24 55.3 44.406C56.1 43.563 56.639 42.25 57 40C57.357 42.25 57.893 43.562 58.7 44.406C59.6262 45.24 60.7709 45.793 62 46C60.7709 46.207 59.6262 46.76 58.7 47.594C57.9 48.437 57.361 49.75 57 52C56.8758 50.497 56.3585 49.053 55.5 47.813C54.5643 46.8404 53.3342 46.2032 52 46Z" stroke="#464747" stroke-linecap="round" stroke-linejoin="round"/>
<path d="M43 46.97V52C43.0708 53.9272 43.5537 55.8169 44.4161 57.5419C45.2786 59.2669 46.5007 60.787 48 62" stroke="#464747" stroke-linecap="round" stroke-linejoin="round"/>
<path d="M21 46.97V52C20.9292 53.9272 20.4463 55.8169 19.5839 57.5419C18.7214 59.2669 17.4993 60.787 16 62" stroke="#464747" stroke-linecap="round" stroke-linejoin="round"/>
</svg>
