<svg width="65" height="64" viewBox="0 0 65 64" fill="none" xmlns="http://www.w3.org/2000/svg">
<path d="M27.5312 34H61.5312V59C61.5312 59.7956 61.2152 60.5587 60.6526 61.1213C60.09 61.6839 59.3269 62 58.5312 62H30.5312C29.7356 62 28.9725 61.6839 28.4099 61.1213C27.8473 60.5587 27.5313 59.7956 27.5312 59V34Z" stroke="#464747" stroke-linecap="round" stroke-linejoin="round"/>
<path d="M61.5312 45H27.5312" stroke="#464747" stroke-linecap="round" stroke-linejoin="round"/>
<path d="M51.5312 49H37.5312" stroke="#464747" stroke-linecap="round" stroke-linejoin="round"/>
<path d="M47.5312 53H41.5312" stroke="#464747" stroke-linecap="round" stroke-linejoin="round"/>
<path d="M31.5312 56C31.8317 56.601 32.2936 57.1064 32.8652 57.4596C33.4367 57.8129 34.0953 58 34.7673 58H54.2952C54.9672 58 55.6258 57.8129 56.1973 57.4596C56.7689 57.1064 57.2308 56.601 57.5312 56" stroke="#464747" stroke-linecap="round" stroke-linejoin="round"/>
<path d="M32.7762 29L35.5312 2H3.53125L8.34825 49.2C8.39781 49.6932 8.62873 50.1503 8.99622 50.4829C9.36372 50.8155 9.84161 50.9998 10.3372 51H22.5312" stroke="#464747" stroke-linecap="round" stroke-linejoin="round"/>
<path d="M10.5312 51V60C10.5312 60.5304 10.742 61.0391 11.117 61.4142C11.4921 61.7893 12.0008 62 12.5312 62H22.5312" stroke="#464747" stroke-linecap="round" stroke-linejoin="round"/>
<path d="M8.53125 7H35.0213" stroke="#464747" stroke-linecap="round" stroke-linejoin="round"/>
</svg>
