<svg width="65" height="64" viewBox="0 0 65 64" fill="none" xmlns="http://www.w3.org/2000/svg">
<path d="M33.6875 2C40.6105 18.615 51.6875 25.538 51.6875 38C51.6875 42.7739 49.7911 47.3523 46.4154 50.7279C43.0398 54.1036 38.4614 56 33.6875 56C28.9136 56 24.3352 54.1036 20.9596 50.7279C17.5839 47.3523 15.6875 42.7739 15.6875 38C15.6875 25.538 26.7645 18.615 33.6875 2Z" stroke="#464747" stroke-linecap="round" stroke-linejoin="round"/>
<path d="M21.5156 33C21.9919 31.6144 22.5945 30.2754 23.3156 29" stroke="#464747" stroke-linecap="round" stroke-linejoin="round"/>
<path d="M29.6864 50.37C27.7306 49.7328 25.953 48.6425 24.4984 47.188C23.0439 45.7334 21.9536 43.9558 21.3164 42" stroke="#464747" stroke-linecap="round" stroke-linejoin="round"/>
<path d="M48.6875 13C50.3306 12.7305 51.877 12.0436 53.1785 11.005C54.3785 9.885 55.1675 8.118 55.6875 5C56.1875 8 56.9375 9.75 58.0625 10.875C59.1875 12 60.6875 12.5 62.6875 13C60.6875 13.5 59.1875 14 58.0625 15.125C56.9375 16.25 56.1875 18 55.6875 21C55.2055 18.11 54.4875 16.38 53.4345 15.251C52.2965 14.037 50.7605 13.518 48.6875 13Z" stroke="#464747" stroke-linecap="round" stroke-linejoin="round"/>
<path d="M2.6875 54.5C4.27801 54.2482 5.76697 53.5584 6.9875 52.508C8.0265 51.453 8.7235 49.813 9.1875 47C9.6515 49.812 10.3485 51.453 11.3925 52.508C12.6119 53.5572 14.0989 54.2469 15.6875 54.5C13.4615 55.062 11.9025 55.624 10.8105 57.194C9.92502 58.6583 9.37104 60.2987 9.1875 62C8.7525 59.364 8.1135 57.757 7.1745 56.7C6.1105 55.5 4.6615 55 2.6875 54.5Z" stroke="#464747" stroke-linecap="round" stroke-linejoin="round"/>
</svg>
