<svg width="64" height="64" viewBox="0 0 64 64" fill="none" xmlns="http://www.w3.org/2000/svg">
<path d="M55 45L61 42L62 49" stroke="#464747" stroke-linecap="round" stroke-linejoin="round"/>
<path d="M61 42C57.4373 49.6346 51.917 56.19 45 61" stroke="#464747" stroke-linecap="round" stroke-linejoin="round"/>
<path d="M9 45L3 42L2 49" stroke="#464747" stroke-linecap="round" stroke-linejoin="round"/>
<path d="M3 42C6.56235 49.6349 12.0828 56.1903 19 61" stroke="#464747" stroke-linecap="round" stroke-linejoin="round"/>
<path d="M51.5492 22.429C45.7992 22.429 49.2492 15.571 36.5992 15.571C23.9492 15.571 23.9492 5.28601 23.9492 5.28601" stroke="#464747" stroke-linecap="round" stroke-linejoin="round"/>
<path d="M13.6016 33.857C15.9016 44.143 21.6516 52 32.0016 52C42.3516 52 48.1016 44.143 50.4016 33.857C50.4016 33.857 55.0016 31.571 55.0016 27C55.0016 22.429 51.5516 22.429 51.5516 22.429" stroke="#464747" stroke-linecap="round" stroke-linejoin="round"/>
<path d="M13.6 33.857C13.6 33.857 9 31.571 9 27C9 22.429 12.45 22.429 12.45 22.429C15.9 22.429 20.5 16.714 20.5 13.286" stroke="#464747" stroke-linecap="round" stroke-linejoin="round"/>
<path d="M45.8008 3C45.8008 3 53.8508 8.714 53.8508 16.714C53.8956 18.7856 53.6042 20.8507 52.9878 22.829" stroke="#464747" stroke-linecap="round" stroke-linejoin="round"/>
<path d="M26.25 40.714C27.8279 42.1451 29.8702 42.9571 32 43C34.1298 42.9571 36.1721 42.1451 37.75 40.714" stroke="#464747" stroke-linecap="round" stroke-linejoin="round"/>
<path d="M37.75 28.143C38.8472 28.5732 40.0227 28.7678 41.2 28.714C41.8685 28.7149 42.5281 28.5605 43.1267 28.2631C43.7254 27.9656 44.2469 27.5333 44.65 27L45.8 27.461" stroke="#464747" stroke-linecap="round" stroke-linejoin="round"/>
<path d="M26.2492 28.143C25.152 28.5732 23.9765 28.7678 22.7992 28.714C22.1307 28.7149 21.4712 28.5605 20.8725 28.2631C20.2738 27.9656 19.7524 27.5333 19.3492 27L18.1992 27.461" stroke="#464747" stroke-linecap="round" stroke-linejoin="round"/>
</svg>
