<svg width="28" height="27" viewBox="0 0 28 27" fill="none" xmlns="http://www.w3.org/2000/svg">
<g filter="url(#filter0_b_87_1037)">
<circle cx="13.9315" cy="13.4659" r="13.2088" fill="white" fill-opacity="0.2"/>
</g>
<g clip-path="url(#clip0_87_1037)">
<path d="M19.2537 13.6079C19.2386 13.5743 18.8774 12.7737 18.0688 11.9651C17.3199 11.2161 16.0317 10.3232 14.146 10.3232C12.2603 10.3232 10.9722 11.2161 10.2232 11.9651C9.4146 12.7737 9.05336 13.5743 9.03834 13.6079C9.02851 13.6306 9.02344 13.655 9.02344 13.6797C9.02344 13.7044 9.02851 13.7288 9.03834 13.7514C9.05336 13.7854 9.4146 14.5856 10.2232 15.3942C10.9739 16.145 12.2608 17.0357 14.146 17.0357C16.0312 17.0357 17.3199 16.1432 18.0688 15.3942C18.8774 14.5856 19.2386 13.7854 19.2537 13.7514C19.2635 13.7288 19.2686 13.7044 19.2686 13.6797C19.2686 13.655 19.2635 13.6306 19.2537 13.6079ZM17.8096 15.1535C16.7908 16.1692 15.5574 16.6824 14.1442 16.6824C12.7311 16.6824 11.4994 16.1679 10.4789 15.1535C10.0446 14.7205 9.67944 14.2233 9.39605 13.6794C9.67997 13.1354 10.0458 12.6383 10.4806 12.2054C11.5012 11.191 12.7329 10.6765 14.146 10.6765C15.5592 10.6765 16.7908 11.191 17.8114 12.2054C18.2462 12.6383 18.612 13.1355 18.896 13.6794C18.612 14.2234 18.2462 14.7206 17.8114 15.1535H17.8096ZM14.146 11.7364C13.7617 11.7364 13.386 11.8503 13.0665 12.0638C12.7469 12.2773 12.4979 12.5808 12.3508 12.9359C12.2038 13.2909 12.1653 13.6816 12.2403 14.0585C12.3152 14.4354 12.5003 14.7817 12.772 15.0534C13.0438 15.3252 13.39 15.5102 13.7669 15.5852C14.1438 15.6602 14.5345 15.6217 14.8896 15.4746C15.2446 15.3276 15.5481 15.0785 15.7616 14.759C15.9751 14.4394 16.0891 14.0638 16.0891 13.6794C16.0885 13.1643 15.8836 12.6704 15.5193 12.3061C15.1551 11.9419 14.6612 11.7369 14.146 11.7364ZM14.146 15.2692C13.8316 15.2692 13.5242 15.176 13.2628 15.0013C13.0013 14.8266 12.7976 14.5783 12.6772 14.2878C12.5569 13.9973 12.5254 13.6777 12.5868 13.3693C12.6481 13.0609 12.7995 12.7776 13.0218 12.5553C13.2442 12.333 13.5275 12.1815 13.8358 12.1202C14.1442 12.0589 14.4639 12.0903 14.7544 12.2107C15.0449 12.331 15.2932 12.5348 15.4679 12.7962C15.6426 13.0576 15.7358 13.365 15.7358 13.6794C15.7358 14.1011 15.5683 14.5055 15.2702 14.8036C14.972 15.1017 14.5676 15.2692 14.146 15.2692Z" fill="white"/>
</g>
<defs>
<filter id="filter0_b_87_1037" x="-33.8235" y="-34.2892" width="95.5103" height="95.51" filterUnits="userSpaceOnUse" color-interpolation-filters="sRGB">
<feFlood flood-opacity="0" result="BackgroundImageFix"/>
<feGaussianBlur in="BackgroundImageFix" stdDeviation="17.2731"/>
<feComposite in2="SourceAlpha" operator="in" result="effect1_backgroundBlur_87_1037"/>
<feBlend mode="normal" in="SourceGraphic" in2="effect1_backgroundBlur_87_1037" result="shape"/>
</filter>
<clipPath id="clip0_87_1037">
<rect width="11.3052" height="11.3052" fill="white" transform="translate(8.49219 8.02682)"/>
</clipPath>
</defs>
</svg>
